M48
; DRILL file {KiCad (5.1.4-0-10_14)} date 2019 November 07, Thursday 21:52:43
; FORMAT={-:-/ absolute / inch / decimal}
; #@! TF.CreationDate,2019-11-07T21:52:43+09:00
; #@! TF.GenerationSoftware,Kicad,Pcbnew,(5.1.4-0-10_14)
; #@! TF.FileFunction,Plated,1,2,PTH
FMAT,2
INCH
T1C0.0079
T2C0.0157
T3C0.0394
T4C0.0598
%
G90
G05
T1
X7.2692Y-4.7616
X7.2692Y-4.8081
X7.3156Y-4.7616
X7.3156Y-4.8081
X6.3518Y-4.7518
X6.3518Y-4.7982
X6.3982Y-4.7518
X6.3982Y-4.7982
T2
X4.375Y-1.375
X4.375Y-2.075
X4.41Y-4.85
X4.4104Y-1.5604
X4.4104Y-2.2604
X4.4493Y-4.4543
X4.725Y-4.725
X4.925Y-1.925
X4.925Y-3.775
X4.975Y-4.475
X4.975Y-4.575
X5.125Y-3.725
X5.275Y-1.625
X5.275Y-1.725
X5.325Y-3.775
X5.375Y-4.475
X5.375Y-4.5715
X5.425Y-4.7152
X5.425Y-4.759
X5.425Y-4.825
X5.4535Y-4.6
X5.5215Y-4.6285
X5.525Y-4.775
X5.95Y-2.875
X5.975Y-2.825
X6.025Y-1.35
X6.025Y-1.8
X6.025Y-2.35
X6.075Y-2.45
X6.115Y-2.965
X6.175Y-3.25
X6.201Y-2.6757
X6.2246Y-2.4446
X6.225Y-2.0
X6.225Y-2.35
X6.225Y-3.15
X6.225Y-3.2
X6.235Y-1.91
X6.24Y-2.67
X6.245Y-2.555
X6.2535Y-1.9681
X6.255Y-2.085
X6.2802Y-2.6302
X6.295Y-1.9
X6.3035Y-2.25
X6.35Y-2.225
X6.3623Y-2.6883
X6.375Y-2.465
X6.375Y-3.15
X6.375Y-3.3
X6.38Y-2.405
X6.425Y-2.69
X6.425Y-4.375
X6.4535Y-2.4838
X6.4724Y-2.5974
X6.475Y-3.3
X6.498Y-2.1622
X6.505Y-2.395
X6.5285Y-2.208
X6.56Y-2.965
X6.5727Y-2.7966
X6.5728Y-2.8916
X6.575Y-4.375
X6.61Y-2.33
X6.625Y-2.57
X6.675Y-2.9
X6.725Y-2.59
X6.74Y-2.17
X6.77Y-2.56
X6.865Y-2.905
X6.96Y-2.645
X6.975Y-3.15
X6.975Y-3.2
X7.0366Y-3.1884
X7.0396Y-2.6416
X7.092Y-2.5101
X7.0965Y-2.5511
X7.1Y-2.4
X7.1Y-4.875
X7.1206Y-2.1874
X7.1215Y-2.275
X7.125Y-3.15
X7.13Y-2.63
X7.1359Y-2.5498
X7.1465Y-1.475
X7.15Y-1.425
X7.175Y-3.2
X7.175Y-3.25
X7.1839Y-2.7088
X7.1954Y-2.6015
X7.2Y-4.875
X7.2Y-4.875
X7.2035Y-1.675
X7.2215Y-1.45
X7.2215Y-1.525
X7.2445Y-2.5866
X7.25Y-1.725
X7.27Y-1.995
X7.295Y-2.905
X7.3Y-1.825
X7.325Y-2.675
X7.345Y-2.51
X7.3969Y-4.375
X7.5Y-4.375
X7.6Y-2.4
T3
X4.675Y-1.325
X4.675Y-1.425
X4.675Y-1.525
X4.675Y-1.625
X4.675Y-1.725
X4.675Y-2.025
X4.675Y-2.125
X4.675Y-2.225
X4.675Y-2.325
X4.675Y-2.425
X5.025Y-4.025
X5.125Y-4.025
X5.225Y-4.025
X5.325Y-4.025
X5.075Y-1.725
X5.075Y-1.825
X5.075Y-1.925
X5.075Y-2.025
X5.075Y-2.125
X5.075Y-2.225
X5.075Y-2.325
X5.075Y-2.425
X5.075Y-2.525
X5.075Y-2.625
X5.075Y-2.725
X5.075Y-2.825
X5.075Y-2.925
X5.075Y-3.025
X5.075Y-3.125
X5.075Y-3.225
X5.075Y-3.325
X5.075Y-3.425
X5.075Y-3.525
X5.075Y-3.625
X5.175Y-1.725
X5.175Y-1.825
X5.175Y-1.925
X5.175Y-2.025
X5.175Y-2.125
X5.175Y-2.225
X5.175Y-2.325
X5.175Y-2.425
X5.175Y-2.525
X5.175Y-2.625
X5.175Y-2.725
X5.175Y-2.825
X5.175Y-2.925
X5.175Y-3.025
X5.175Y-3.125
X5.175Y-3.225
X5.175Y-3.325
X5.175Y-3.425
X5.175Y-3.525
X5.175Y-3.625
X6.925Y-3.4
X7.025Y-3.4
X7.125Y-3.4
X7.225Y-3.4
X5.375Y-2.025
X5.375Y-2.125
X5.375Y-1.675
X5.375Y-1.775
X4.925Y-4.025
X5.775Y-1.45
X5.875Y-1.45
X7.375Y-2.05
X7.375Y-2.15
X7.375Y-1.4
X5.775Y-4.275
X5.275Y-4.275
X5.375Y-4.275
X5.475Y-4.275
X5.575Y-4.275
X5.675Y-4.275
X4.925Y-3.8701
X5.025Y-3.8701
X5.125Y-3.8701
X5.225Y-3.8701
X5.325Y-3.8701
X7.375Y-1.5
X7.375Y-1.6
X7.375Y-1.7
X6.175Y-3.4
X6.275Y-3.4
X6.375Y-3.4
X6.475Y-3.4
T4
X7.23Y-4.13
X6.525Y-4.125
X6.725Y-4.125
X7.03Y-4.13
X5.225Y-1.425
X6.075Y-4.125
X6.275Y-4.125
X5.025Y-1.425
X7.575Y-2.85
X7.575Y-3.05
X7.465Y-4.125
X7.665Y-4.125
T0
M30
