G04 #@! TF.GenerationSoftware,KiCad,Pcbnew,(5.1.4-0-10_14)*
G04 #@! TF.CreationDate,2019-11-07T21:51:41+09:00*
G04 #@! TF.ProjectId,underwater,756e6465-7277-4617-9465-722e6b696361,rev?*
G04 #@! TF.SameCoordinates,Original*
G04 #@! TF.FileFunction,Profile,NP*
%FSLAX46Y46*%
G04 Gerber Fmt 4.6, Leading zero omitted, Abs format (unit mm)*
G04 Created by KiCad (PCBNEW (5.1.4-0-10_14)) date 2019-11-07 21:51:41*
%MOMM*%
%LPD*%
G04 APERTURE LIST*
%ADD10C,0.050000*%
G04 APERTURE END LIST*
D10*
X150495000Y-129667000D02*
X150495000Y-106045000D01*
X106045000Y-129667000D02*
X150495000Y-129667000D01*
X106045000Y-106045000D02*
X106045000Y-129667000D01*
X174625000Y-129667000D02*
X174625000Y-98552000D01*
X198120000Y-129667000D02*
X174625000Y-129667000D01*
X198120000Y-98552000D02*
X198120000Y-129667000D01*
X174625000Y-98552000D02*
X198120000Y-98552000D01*
X174625000Y-98552000D02*
X150495000Y-98552000D01*
X174625000Y-129667000D02*
X174625000Y-98552000D01*
X150495000Y-129667000D02*
X174625000Y-129667000D01*
X150495000Y-98552000D02*
X150495000Y-129667000D01*
X141605000Y-98552000D02*
X141605000Y-97917000D01*
X198120000Y-98552000D02*
X141605000Y-98552000D01*
X198120000Y-97917000D02*
X198120000Y-98552000D01*
X144780000Y-35052000D02*
G75*
G03X144780000Y-35052000I-1270000J0D01*
G01*
X197485000Y-35052000D02*
G75*
G03X197485000Y-35052000I-1270000J0D01*
G01*
X197485000Y-96012000D02*
G75*
G03X197485000Y-96012000I-1270000J0D01*
G01*
X144780000Y-96012000D02*
G75*
G03X144780000Y-96012000I-1270000J0D01*
G01*
X198120000Y-97917000D02*
X198120000Y-96012000D01*
X141605000Y-33147000D02*
X141605000Y-97917000D01*
X198120000Y-33147000D02*
X198120000Y-96012000D01*
X141605000Y-33147000D02*
X198120000Y-33147000D01*
X106045000Y-106045000D02*
X150495000Y-106045000D01*
X103505000Y-65405000D02*
X103505000Y-47625000D01*
X121285000Y-65405000D02*
X103505000Y-65405000D01*
X121285000Y-47625000D02*
X121285000Y-65405000D01*
X121285000Y-47625000D02*
X121285000Y-29845000D01*
X103505000Y-47625000D02*
X121285000Y-47625000D01*
X103505000Y-29845000D02*
X103505000Y-47625000D01*
X121285000Y-29845000D02*
X103505000Y-29845000D01*
X121285000Y-29845000D02*
X141605000Y-29845000D01*
X121285000Y-106045000D02*
X121285000Y-29845000D01*
X145415000Y-106045000D02*
X125095000Y-106045000D01*
X141605000Y-29845000D02*
X141605000Y-106045000D01*
X122555000Y-29845000D02*
X140335000Y-29845000D01*
M02*
