G04 #@! TF.GenerationSoftware,KiCad,Pcbnew,(5.1.4-0-10_14)*
G04 #@! TF.CreationDate,2019-11-07T22:18:18+09:00*
G04 #@! TF.ProjectId,underwater,756e6465-7277-4617-9465-722e6b696361,rev?*
G04 #@! TF.SameCoordinates,Original*
G04 #@! TF.FileFunction,Soldermask,Bot*
G04 #@! TF.FilePolarity,Negative*
%FSLAX46Y46*%
G04 Gerber Fmt 4.6, Leading zero omitted, Abs format (unit mm)*
G04 Created by KiCad (PCBNEW (5.1.4-0-10_14)) date 2019-11-07 22:18:18*
%MOMM*%
%LPD*%
G04 APERTURE LIST*
%ADD10C,0.100000*%
G04 APERTURE END LIST*
D10*
G36*
X147586000Y-109486000D02*
G01*
X145784000Y-109486000D01*
X145784000Y-107684000D01*
X147586000Y-107684000D01*
X147586000Y-109486000D01*
X147586000Y-109486000D01*
G37*
G36*
X144255443Y-107690519D02*
G01*
X144321627Y-107697037D01*
X144491466Y-107748557D01*
X144647991Y-107832222D01*
X144683729Y-107861552D01*
X144785186Y-107944814D01*
X144868448Y-108046271D01*
X144897778Y-108082009D01*
X144981443Y-108238534D01*
X145032963Y-108408373D01*
X145050359Y-108585000D01*
X145032963Y-108761627D01*
X144981443Y-108931466D01*
X144897778Y-109087991D01*
X144868448Y-109123729D01*
X144785186Y-109225186D01*
X144683729Y-109308448D01*
X144647991Y-109337778D01*
X144491466Y-109421443D01*
X144321627Y-109472963D01*
X144255442Y-109479482D01*
X144189260Y-109486000D01*
X144100740Y-109486000D01*
X144034558Y-109479482D01*
X143968373Y-109472963D01*
X143798534Y-109421443D01*
X143642009Y-109337778D01*
X143606271Y-109308448D01*
X143504814Y-109225186D01*
X143421552Y-109123729D01*
X143392222Y-109087991D01*
X143308557Y-108931466D01*
X143257037Y-108761627D01*
X143239641Y-108585000D01*
X143257037Y-108408373D01*
X143308557Y-108238534D01*
X143392222Y-108082009D01*
X143421552Y-108046271D01*
X143504814Y-107944814D01*
X143606271Y-107861552D01*
X143642009Y-107832222D01*
X143798534Y-107748557D01*
X143968373Y-107697037D01*
X144034557Y-107690519D01*
X144100740Y-107684000D01*
X144189260Y-107684000D01*
X144255443Y-107690519D01*
X144255443Y-107690519D01*
G37*
G36*
X141715443Y-107690519D02*
G01*
X141781627Y-107697037D01*
X141951466Y-107748557D01*
X142107991Y-107832222D01*
X142143729Y-107861552D01*
X142245186Y-107944814D01*
X142328448Y-108046271D01*
X142357778Y-108082009D01*
X142441443Y-108238534D01*
X142492963Y-108408373D01*
X142510359Y-108585000D01*
X142492963Y-108761627D01*
X142441443Y-108931466D01*
X142357778Y-109087991D01*
X142328448Y-109123729D01*
X142245186Y-109225186D01*
X142143729Y-109308448D01*
X142107991Y-109337778D01*
X141951466Y-109421443D01*
X141781627Y-109472963D01*
X141715442Y-109479482D01*
X141649260Y-109486000D01*
X141560740Y-109486000D01*
X141494558Y-109479482D01*
X141428373Y-109472963D01*
X141258534Y-109421443D01*
X141102009Y-109337778D01*
X141066271Y-109308448D01*
X140964814Y-109225186D01*
X140881552Y-109123729D01*
X140852222Y-109087991D01*
X140768557Y-108931466D01*
X140717037Y-108761627D01*
X140699641Y-108585000D01*
X140717037Y-108408373D01*
X140768557Y-108238534D01*
X140852222Y-108082009D01*
X140881552Y-108046271D01*
X140964814Y-107944814D01*
X141066271Y-107861552D01*
X141102009Y-107832222D01*
X141258534Y-107748557D01*
X141428373Y-107697037D01*
X141494557Y-107690519D01*
X141560740Y-107684000D01*
X141649260Y-107684000D01*
X141715443Y-107690519D01*
X141715443Y-107690519D01*
G37*
G36*
X139175443Y-107690519D02*
G01*
X139241627Y-107697037D01*
X139411466Y-107748557D01*
X139567991Y-107832222D01*
X139603729Y-107861552D01*
X139705186Y-107944814D01*
X139788448Y-108046271D01*
X139817778Y-108082009D01*
X139901443Y-108238534D01*
X139952963Y-108408373D01*
X139970359Y-108585000D01*
X139952963Y-108761627D01*
X139901443Y-108931466D01*
X139817778Y-109087991D01*
X139788448Y-109123729D01*
X139705186Y-109225186D01*
X139603729Y-109308448D01*
X139567991Y-109337778D01*
X139411466Y-109421443D01*
X139241627Y-109472963D01*
X139175442Y-109479482D01*
X139109260Y-109486000D01*
X139020740Y-109486000D01*
X138954558Y-109479482D01*
X138888373Y-109472963D01*
X138718534Y-109421443D01*
X138562009Y-109337778D01*
X138526271Y-109308448D01*
X138424814Y-109225186D01*
X138341552Y-109123729D01*
X138312222Y-109087991D01*
X138228557Y-108931466D01*
X138177037Y-108761627D01*
X138159641Y-108585000D01*
X138177037Y-108408373D01*
X138228557Y-108238534D01*
X138312222Y-108082009D01*
X138341552Y-108046271D01*
X138424814Y-107944814D01*
X138526271Y-107861552D01*
X138562009Y-107832222D01*
X138718534Y-107748557D01*
X138888373Y-107697037D01*
X138954557Y-107690519D01*
X139020740Y-107684000D01*
X139109260Y-107684000D01*
X139175443Y-107690519D01*
X139175443Y-107690519D01*
G37*
G36*
X136635443Y-107690519D02*
G01*
X136701627Y-107697037D01*
X136871466Y-107748557D01*
X137027991Y-107832222D01*
X137063729Y-107861552D01*
X137165186Y-107944814D01*
X137248448Y-108046271D01*
X137277778Y-108082009D01*
X137361443Y-108238534D01*
X137412963Y-108408373D01*
X137430359Y-108585000D01*
X137412963Y-108761627D01*
X137361443Y-108931466D01*
X137277778Y-109087991D01*
X137248448Y-109123729D01*
X137165186Y-109225186D01*
X137063729Y-109308448D01*
X137027991Y-109337778D01*
X136871466Y-109421443D01*
X136701627Y-109472963D01*
X136635442Y-109479482D01*
X136569260Y-109486000D01*
X136480740Y-109486000D01*
X136414558Y-109479482D01*
X136348373Y-109472963D01*
X136178534Y-109421443D01*
X136022009Y-109337778D01*
X135986271Y-109308448D01*
X135884814Y-109225186D01*
X135801552Y-109123729D01*
X135772222Y-109087991D01*
X135688557Y-108931466D01*
X135637037Y-108761627D01*
X135619641Y-108585000D01*
X135637037Y-108408373D01*
X135688557Y-108238534D01*
X135772222Y-108082009D01*
X135801552Y-108046271D01*
X135884814Y-107944814D01*
X135986271Y-107861552D01*
X136022009Y-107832222D01*
X136178534Y-107748557D01*
X136348373Y-107697037D01*
X136414557Y-107690519D01*
X136480740Y-107684000D01*
X136569260Y-107684000D01*
X136635443Y-107690519D01*
X136635443Y-107690519D01*
G37*
G36*
X134095443Y-107690519D02*
G01*
X134161627Y-107697037D01*
X134331466Y-107748557D01*
X134487991Y-107832222D01*
X134523729Y-107861552D01*
X134625186Y-107944814D01*
X134708448Y-108046271D01*
X134737778Y-108082009D01*
X134821443Y-108238534D01*
X134872963Y-108408373D01*
X134890359Y-108585000D01*
X134872963Y-108761627D01*
X134821443Y-108931466D01*
X134737778Y-109087991D01*
X134708448Y-109123729D01*
X134625186Y-109225186D01*
X134523729Y-109308448D01*
X134487991Y-109337778D01*
X134331466Y-109421443D01*
X134161627Y-109472963D01*
X134095442Y-109479482D01*
X134029260Y-109486000D01*
X133940740Y-109486000D01*
X133874558Y-109479482D01*
X133808373Y-109472963D01*
X133638534Y-109421443D01*
X133482009Y-109337778D01*
X133446271Y-109308448D01*
X133344814Y-109225186D01*
X133261552Y-109123729D01*
X133232222Y-109087991D01*
X133148557Y-108931466D01*
X133097037Y-108761627D01*
X133079641Y-108585000D01*
X133097037Y-108408373D01*
X133148557Y-108238534D01*
X133232222Y-108082009D01*
X133261552Y-108046271D01*
X133344814Y-107944814D01*
X133446271Y-107861552D01*
X133482009Y-107832222D01*
X133638534Y-107748557D01*
X133808373Y-107697037D01*
X133874557Y-107690519D01*
X133940740Y-107684000D01*
X134029260Y-107684000D01*
X134095443Y-107690519D01*
X134095443Y-107690519D01*
G37*
G36*
X183944585Y-103380802D02*
G01*
X184094410Y-103410604D01*
X184376674Y-103527521D01*
X184630705Y-103697259D01*
X184846741Y-103913295D01*
X185016479Y-104167326D01*
X185133396Y-104449590D01*
X185193000Y-104749240D01*
X185193000Y-105054760D01*
X185133396Y-105354410D01*
X185016479Y-105636674D01*
X184846741Y-105890705D01*
X184630705Y-106106741D01*
X184376674Y-106276479D01*
X184094410Y-106393396D01*
X183944585Y-106423198D01*
X183794761Y-106453000D01*
X183489239Y-106453000D01*
X183339415Y-106423198D01*
X183189590Y-106393396D01*
X182907326Y-106276479D01*
X182653295Y-106106741D01*
X182437259Y-105890705D01*
X182267521Y-105636674D01*
X182150604Y-105354410D01*
X182091000Y-105054760D01*
X182091000Y-104749240D01*
X182150604Y-104449590D01*
X182267521Y-104167326D01*
X182437259Y-103913295D01*
X182653295Y-103697259D01*
X182907326Y-103527521D01*
X183189590Y-103410604D01*
X183339415Y-103380802D01*
X183489239Y-103351000D01*
X183794761Y-103351000D01*
X183944585Y-103380802D01*
X183944585Y-103380802D01*
G37*
G36*
X180113000Y-106453000D02*
G01*
X177011000Y-106453000D01*
X177011000Y-103351000D01*
X180113000Y-103351000D01*
X180113000Y-106453000D01*
X180113000Y-106453000D01*
G37*
G36*
X194993585Y-103253802D02*
G01*
X195143410Y-103283604D01*
X195425674Y-103400521D01*
X195679705Y-103570259D01*
X195895741Y-103786295D01*
X196065479Y-104040326D01*
X196182396Y-104322590D01*
X196242000Y-104622240D01*
X196242000Y-104927760D01*
X196182396Y-105227410D01*
X196065479Y-105509674D01*
X195895741Y-105763705D01*
X195679705Y-105979741D01*
X195425674Y-106149479D01*
X195143410Y-106266396D01*
X195092719Y-106276479D01*
X194843761Y-106326000D01*
X194538239Y-106326000D01*
X194289281Y-106276479D01*
X194238590Y-106266396D01*
X193956326Y-106149479D01*
X193702295Y-105979741D01*
X193486259Y-105763705D01*
X193316521Y-105509674D01*
X193199604Y-105227410D01*
X193140000Y-104927760D01*
X193140000Y-104622240D01*
X193199604Y-104322590D01*
X193316521Y-104040326D01*
X193486259Y-103786295D01*
X193702295Y-103570259D01*
X193956326Y-103400521D01*
X194238590Y-103283604D01*
X194388415Y-103253802D01*
X194538239Y-103224000D01*
X194843761Y-103224000D01*
X194993585Y-103253802D01*
X194993585Y-103253802D01*
G37*
G36*
X191162000Y-106326000D02*
G01*
X188060000Y-106326000D01*
X188060000Y-103224000D01*
X191162000Y-103224000D01*
X191162000Y-106326000D01*
X191162000Y-106326000D01*
G37*
G36*
X171117585Y-103253802D02*
G01*
X171267410Y-103283604D01*
X171549674Y-103400521D01*
X171803705Y-103570259D01*
X172019741Y-103786295D01*
X172189479Y-104040326D01*
X172306396Y-104322590D01*
X172366000Y-104622240D01*
X172366000Y-104927760D01*
X172306396Y-105227410D01*
X172189479Y-105509674D01*
X172019741Y-105763705D01*
X171803705Y-105979741D01*
X171549674Y-106149479D01*
X171267410Y-106266396D01*
X171216719Y-106276479D01*
X170967761Y-106326000D01*
X170662239Y-106326000D01*
X170413281Y-106276479D01*
X170362590Y-106266396D01*
X170080326Y-106149479D01*
X169826295Y-105979741D01*
X169610259Y-105763705D01*
X169440521Y-105509674D01*
X169323604Y-105227410D01*
X169264000Y-104927760D01*
X169264000Y-104622240D01*
X169323604Y-104322590D01*
X169440521Y-104040326D01*
X169610259Y-103786295D01*
X169826295Y-103570259D01*
X170080326Y-103400521D01*
X170362590Y-103283604D01*
X170512415Y-103253802D01*
X170662239Y-103224000D01*
X170967761Y-103224000D01*
X171117585Y-103253802D01*
X171117585Y-103253802D01*
G37*
G36*
X167286000Y-106326000D02*
G01*
X164184000Y-106326000D01*
X164184000Y-103224000D01*
X167286000Y-103224000D01*
X167286000Y-106326000D01*
X167286000Y-106326000D01*
G37*
G36*
X159687585Y-103253802D02*
G01*
X159837410Y-103283604D01*
X160119674Y-103400521D01*
X160373705Y-103570259D01*
X160589741Y-103786295D01*
X160759479Y-104040326D01*
X160876396Y-104322590D01*
X160936000Y-104622240D01*
X160936000Y-104927760D01*
X160876396Y-105227410D01*
X160759479Y-105509674D01*
X160589741Y-105763705D01*
X160373705Y-105979741D01*
X160119674Y-106149479D01*
X159837410Y-106266396D01*
X159786719Y-106276479D01*
X159537761Y-106326000D01*
X159232239Y-106326000D01*
X158983281Y-106276479D01*
X158932590Y-106266396D01*
X158650326Y-106149479D01*
X158396295Y-105979741D01*
X158180259Y-105763705D01*
X158010521Y-105509674D01*
X157893604Y-105227410D01*
X157834000Y-104927760D01*
X157834000Y-104622240D01*
X157893604Y-104322590D01*
X158010521Y-104040326D01*
X158180259Y-103786295D01*
X158396295Y-103570259D01*
X158650326Y-103400521D01*
X158932590Y-103283604D01*
X159082415Y-103253802D01*
X159232239Y-103224000D01*
X159537761Y-103224000D01*
X159687585Y-103253802D01*
X159687585Y-103253802D01*
G37*
G36*
X155856000Y-106326000D02*
G01*
X152754000Y-106326000D01*
X152754000Y-103224000D01*
X155856000Y-103224000D01*
X155856000Y-106326000D01*
X155856000Y-106326000D01*
G37*
G36*
X125996000Y-103136000D02*
G01*
X124194000Y-103136000D01*
X124194000Y-101334000D01*
X125996000Y-101334000D01*
X125996000Y-103136000D01*
X125996000Y-103136000D01*
G37*
G36*
X135365442Y-101340518D02*
G01*
X135431627Y-101347037D01*
X135601466Y-101398557D01*
X135757991Y-101482222D01*
X135793729Y-101511552D01*
X135895186Y-101594814D01*
X135978448Y-101696271D01*
X136007778Y-101732009D01*
X136091443Y-101888534D01*
X136142963Y-102058373D01*
X136160359Y-102235000D01*
X136142963Y-102411627D01*
X136091443Y-102581466D01*
X136007778Y-102737991D01*
X135978448Y-102773729D01*
X135895186Y-102875186D01*
X135793729Y-102958448D01*
X135757991Y-102987778D01*
X135601466Y-103071443D01*
X135431627Y-103122963D01*
X135365442Y-103129482D01*
X135299260Y-103136000D01*
X135210740Y-103136000D01*
X135144558Y-103129482D01*
X135078373Y-103122963D01*
X134908534Y-103071443D01*
X134752009Y-102987778D01*
X134716271Y-102958448D01*
X134614814Y-102875186D01*
X134531552Y-102773729D01*
X134502222Y-102737991D01*
X134418557Y-102581466D01*
X134367037Y-102411627D01*
X134349641Y-102235000D01*
X134367037Y-102058373D01*
X134418557Y-101888534D01*
X134502222Y-101732009D01*
X134531552Y-101696271D01*
X134614814Y-101594814D01*
X134716271Y-101511552D01*
X134752009Y-101482222D01*
X134908534Y-101398557D01*
X135078373Y-101347037D01*
X135144558Y-101340518D01*
X135210740Y-101334000D01*
X135299260Y-101334000D01*
X135365442Y-101340518D01*
X135365442Y-101340518D01*
G37*
G36*
X132825442Y-101340518D02*
G01*
X132891627Y-101347037D01*
X133061466Y-101398557D01*
X133217991Y-101482222D01*
X133253729Y-101511552D01*
X133355186Y-101594814D01*
X133438448Y-101696271D01*
X133467778Y-101732009D01*
X133551443Y-101888534D01*
X133602963Y-102058373D01*
X133620359Y-102235000D01*
X133602963Y-102411627D01*
X133551443Y-102581466D01*
X133467778Y-102737991D01*
X133438448Y-102773729D01*
X133355186Y-102875186D01*
X133253729Y-102958448D01*
X133217991Y-102987778D01*
X133061466Y-103071443D01*
X132891627Y-103122963D01*
X132825442Y-103129482D01*
X132759260Y-103136000D01*
X132670740Y-103136000D01*
X132604558Y-103129482D01*
X132538373Y-103122963D01*
X132368534Y-103071443D01*
X132212009Y-102987778D01*
X132176271Y-102958448D01*
X132074814Y-102875186D01*
X131991552Y-102773729D01*
X131962222Y-102737991D01*
X131878557Y-102581466D01*
X131827037Y-102411627D01*
X131809641Y-102235000D01*
X131827037Y-102058373D01*
X131878557Y-101888534D01*
X131962222Y-101732009D01*
X131991552Y-101696271D01*
X132074814Y-101594814D01*
X132176271Y-101511552D01*
X132212009Y-101482222D01*
X132368534Y-101398557D01*
X132538373Y-101347037D01*
X132604558Y-101340518D01*
X132670740Y-101334000D01*
X132759260Y-101334000D01*
X132825442Y-101340518D01*
X132825442Y-101340518D01*
G37*
G36*
X130285442Y-101340518D02*
G01*
X130351627Y-101347037D01*
X130521466Y-101398557D01*
X130677991Y-101482222D01*
X130713729Y-101511552D01*
X130815186Y-101594814D01*
X130898448Y-101696271D01*
X130927778Y-101732009D01*
X131011443Y-101888534D01*
X131062963Y-102058373D01*
X131080359Y-102235000D01*
X131062963Y-102411627D01*
X131011443Y-102581466D01*
X130927778Y-102737991D01*
X130898448Y-102773729D01*
X130815186Y-102875186D01*
X130713729Y-102958448D01*
X130677991Y-102987778D01*
X130521466Y-103071443D01*
X130351627Y-103122963D01*
X130285442Y-103129482D01*
X130219260Y-103136000D01*
X130130740Y-103136000D01*
X130064558Y-103129482D01*
X129998373Y-103122963D01*
X129828534Y-103071443D01*
X129672009Y-102987778D01*
X129636271Y-102958448D01*
X129534814Y-102875186D01*
X129451552Y-102773729D01*
X129422222Y-102737991D01*
X129338557Y-102581466D01*
X129287037Y-102411627D01*
X129269641Y-102235000D01*
X129287037Y-102058373D01*
X129338557Y-101888534D01*
X129422222Y-101732009D01*
X129451552Y-101696271D01*
X129534814Y-101594814D01*
X129636271Y-101511552D01*
X129672009Y-101482222D01*
X129828534Y-101398557D01*
X129998373Y-101347037D01*
X130064558Y-101340518D01*
X130130740Y-101334000D01*
X130219260Y-101334000D01*
X130285442Y-101340518D01*
X130285442Y-101340518D01*
G37*
G36*
X127745442Y-101340518D02*
G01*
X127811627Y-101347037D01*
X127981466Y-101398557D01*
X128137991Y-101482222D01*
X128173729Y-101511552D01*
X128275186Y-101594814D01*
X128358448Y-101696271D01*
X128387778Y-101732009D01*
X128471443Y-101888534D01*
X128522963Y-102058373D01*
X128540359Y-102235000D01*
X128522963Y-102411627D01*
X128471443Y-102581466D01*
X128387778Y-102737991D01*
X128358448Y-102773729D01*
X128275186Y-102875186D01*
X128173729Y-102958448D01*
X128137991Y-102987778D01*
X127981466Y-103071443D01*
X127811627Y-103122963D01*
X127745442Y-103129482D01*
X127679260Y-103136000D01*
X127590740Y-103136000D01*
X127524558Y-103129482D01*
X127458373Y-103122963D01*
X127288534Y-103071443D01*
X127132009Y-102987778D01*
X127096271Y-102958448D01*
X126994814Y-102875186D01*
X126911552Y-102773729D01*
X126882222Y-102737991D01*
X126798557Y-102581466D01*
X126747037Y-102411627D01*
X126729641Y-102235000D01*
X126747037Y-102058373D01*
X126798557Y-101888534D01*
X126882222Y-101732009D01*
X126911552Y-101696271D01*
X126994814Y-101594814D01*
X127096271Y-101511552D01*
X127132009Y-101482222D01*
X127288534Y-101398557D01*
X127458373Y-101347037D01*
X127524558Y-101340518D01*
X127590740Y-101334000D01*
X127679260Y-101334000D01*
X127745442Y-101340518D01*
X127745442Y-101340518D01*
G37*
G36*
X135365442Y-97405517D02*
G01*
X135431627Y-97412036D01*
X135601466Y-97463556D01*
X135757991Y-97547221D01*
X135793729Y-97576551D01*
X135895186Y-97659813D01*
X135978448Y-97761270D01*
X136007778Y-97797008D01*
X136091443Y-97953533D01*
X136142963Y-98123372D01*
X136160359Y-98299999D01*
X136142963Y-98476626D01*
X136091443Y-98646465D01*
X136007778Y-98802990D01*
X135978448Y-98838728D01*
X135895186Y-98940185D01*
X135793729Y-99023447D01*
X135757991Y-99052777D01*
X135601466Y-99136442D01*
X135431627Y-99187962D01*
X135365442Y-99194481D01*
X135299260Y-99200999D01*
X135210740Y-99200999D01*
X135144558Y-99194481D01*
X135078373Y-99187962D01*
X134908534Y-99136442D01*
X134752009Y-99052777D01*
X134716271Y-99023447D01*
X134614814Y-98940185D01*
X134531552Y-98838728D01*
X134502222Y-98802990D01*
X134418557Y-98646465D01*
X134367037Y-98476626D01*
X134349641Y-98299999D01*
X134367037Y-98123372D01*
X134418557Y-97953533D01*
X134502222Y-97797008D01*
X134531552Y-97761270D01*
X134614814Y-97659813D01*
X134716271Y-97576551D01*
X134752009Y-97547221D01*
X134908534Y-97463556D01*
X135078373Y-97412036D01*
X135144558Y-97405517D01*
X135210740Y-97398999D01*
X135299260Y-97398999D01*
X135365442Y-97405517D01*
X135365442Y-97405517D01*
G37*
G36*
X132825442Y-97405517D02*
G01*
X132891627Y-97412036D01*
X133061466Y-97463556D01*
X133217991Y-97547221D01*
X133253729Y-97576551D01*
X133355186Y-97659813D01*
X133438448Y-97761270D01*
X133467778Y-97797008D01*
X133551443Y-97953533D01*
X133602963Y-98123372D01*
X133620359Y-98299999D01*
X133602963Y-98476626D01*
X133551443Y-98646465D01*
X133467778Y-98802990D01*
X133438448Y-98838728D01*
X133355186Y-98940185D01*
X133253729Y-99023447D01*
X133217991Y-99052777D01*
X133061466Y-99136442D01*
X132891627Y-99187962D01*
X132825442Y-99194481D01*
X132759260Y-99200999D01*
X132670740Y-99200999D01*
X132604558Y-99194481D01*
X132538373Y-99187962D01*
X132368534Y-99136442D01*
X132212009Y-99052777D01*
X132176271Y-99023447D01*
X132074814Y-98940185D01*
X131991552Y-98838728D01*
X131962222Y-98802990D01*
X131878557Y-98646465D01*
X131827037Y-98476626D01*
X131809641Y-98299999D01*
X131827037Y-98123372D01*
X131878557Y-97953533D01*
X131962222Y-97797008D01*
X131991552Y-97761270D01*
X132074814Y-97659813D01*
X132176271Y-97576551D01*
X132212009Y-97547221D01*
X132368534Y-97463556D01*
X132538373Y-97412036D01*
X132604558Y-97405517D01*
X132670740Y-97398999D01*
X132759260Y-97398999D01*
X132825442Y-97405517D01*
X132825442Y-97405517D01*
G37*
G36*
X130285442Y-97405517D02*
G01*
X130351627Y-97412036D01*
X130521466Y-97463556D01*
X130677991Y-97547221D01*
X130713729Y-97576551D01*
X130815186Y-97659813D01*
X130898448Y-97761270D01*
X130927778Y-97797008D01*
X131011443Y-97953533D01*
X131062963Y-98123372D01*
X131080359Y-98299999D01*
X131062963Y-98476626D01*
X131011443Y-98646465D01*
X130927778Y-98802990D01*
X130898448Y-98838728D01*
X130815186Y-98940185D01*
X130713729Y-99023447D01*
X130677991Y-99052777D01*
X130521466Y-99136442D01*
X130351627Y-99187962D01*
X130285442Y-99194481D01*
X130219260Y-99200999D01*
X130130740Y-99200999D01*
X130064558Y-99194481D01*
X129998373Y-99187962D01*
X129828534Y-99136442D01*
X129672009Y-99052777D01*
X129636271Y-99023447D01*
X129534814Y-98940185D01*
X129451552Y-98838728D01*
X129422222Y-98802990D01*
X129338557Y-98646465D01*
X129287037Y-98476626D01*
X129269641Y-98299999D01*
X129287037Y-98123372D01*
X129338557Y-97953533D01*
X129422222Y-97797008D01*
X129451552Y-97761270D01*
X129534814Y-97659813D01*
X129636271Y-97576551D01*
X129672009Y-97547221D01*
X129828534Y-97463556D01*
X129998373Y-97412036D01*
X130064558Y-97405517D01*
X130130740Y-97398999D01*
X130219260Y-97398999D01*
X130285442Y-97405517D01*
X130285442Y-97405517D01*
G37*
G36*
X127745442Y-97405517D02*
G01*
X127811627Y-97412036D01*
X127981466Y-97463556D01*
X128137991Y-97547221D01*
X128173729Y-97576551D01*
X128275186Y-97659813D01*
X128358448Y-97761270D01*
X128387778Y-97797008D01*
X128471443Y-97953533D01*
X128522963Y-98123372D01*
X128540359Y-98299999D01*
X128522963Y-98476626D01*
X128471443Y-98646465D01*
X128387778Y-98802990D01*
X128358448Y-98838728D01*
X128275186Y-98940185D01*
X128173729Y-99023447D01*
X128137991Y-99052777D01*
X127981466Y-99136442D01*
X127811627Y-99187962D01*
X127745442Y-99194481D01*
X127679260Y-99200999D01*
X127590740Y-99200999D01*
X127524558Y-99194481D01*
X127458373Y-99187962D01*
X127288534Y-99136442D01*
X127132009Y-99052777D01*
X127096271Y-99023447D01*
X126994814Y-98940185D01*
X126911552Y-98838728D01*
X126882222Y-98802990D01*
X126798557Y-98646465D01*
X126747037Y-98476626D01*
X126729641Y-98299999D01*
X126747037Y-98123372D01*
X126798557Y-97953533D01*
X126882222Y-97797008D01*
X126911552Y-97761270D01*
X126994814Y-97659813D01*
X127096271Y-97576551D01*
X127132009Y-97547221D01*
X127288534Y-97463556D01*
X127458373Y-97412036D01*
X127524558Y-97405517D01*
X127590740Y-97398999D01*
X127679260Y-97398999D01*
X127745442Y-97405517D01*
X127745442Y-97405517D01*
G37*
G36*
X125996000Y-99200999D02*
G01*
X124194000Y-99200999D01*
X124194000Y-97398999D01*
X125996000Y-97398999D01*
X125996000Y-99200999D01*
X125996000Y-99200999D01*
G37*
G36*
X131555442Y-91180518D02*
G01*
X131621627Y-91187037D01*
X131791466Y-91238557D01*
X131947991Y-91322222D01*
X131983729Y-91351552D01*
X132085186Y-91434814D01*
X132168448Y-91536271D01*
X132197778Y-91572009D01*
X132281443Y-91728534D01*
X132332963Y-91898373D01*
X132350359Y-92075000D01*
X132332963Y-92251627D01*
X132281443Y-92421466D01*
X132197778Y-92577991D01*
X132168448Y-92613729D01*
X132085186Y-92715186D01*
X131983729Y-92798448D01*
X131947991Y-92827778D01*
X131791466Y-92911443D01*
X131621627Y-92962963D01*
X131555442Y-92969482D01*
X131489260Y-92976000D01*
X131400740Y-92976000D01*
X131334558Y-92969482D01*
X131268373Y-92962963D01*
X131098534Y-92911443D01*
X130942009Y-92827778D01*
X130906271Y-92798448D01*
X130804814Y-92715186D01*
X130721552Y-92613729D01*
X130692222Y-92577991D01*
X130608557Y-92421466D01*
X130557037Y-92251627D01*
X130539641Y-92075000D01*
X130557037Y-91898373D01*
X130608557Y-91728534D01*
X130692222Y-91572009D01*
X130721552Y-91536271D01*
X130804814Y-91434814D01*
X130906271Y-91351552D01*
X130942009Y-91322222D01*
X131098534Y-91238557D01*
X131268373Y-91187037D01*
X131334558Y-91180518D01*
X131400740Y-91174000D01*
X131489260Y-91174000D01*
X131555442Y-91180518D01*
X131555442Y-91180518D01*
G37*
G36*
X129015442Y-91180518D02*
G01*
X129081627Y-91187037D01*
X129251466Y-91238557D01*
X129407991Y-91322222D01*
X129443729Y-91351552D01*
X129545186Y-91434814D01*
X129628448Y-91536271D01*
X129657778Y-91572009D01*
X129741443Y-91728534D01*
X129792963Y-91898373D01*
X129810359Y-92075000D01*
X129792963Y-92251627D01*
X129741443Y-92421466D01*
X129657778Y-92577991D01*
X129628448Y-92613729D01*
X129545186Y-92715186D01*
X129443729Y-92798448D01*
X129407991Y-92827778D01*
X129251466Y-92911443D01*
X129081627Y-92962963D01*
X129015442Y-92969482D01*
X128949260Y-92976000D01*
X128860740Y-92976000D01*
X128794558Y-92969482D01*
X128728373Y-92962963D01*
X128558534Y-92911443D01*
X128402009Y-92827778D01*
X128366271Y-92798448D01*
X128264814Y-92715186D01*
X128181552Y-92613729D01*
X128152222Y-92577991D01*
X128068557Y-92421466D01*
X128017037Y-92251627D01*
X127999641Y-92075000D01*
X128017037Y-91898373D01*
X128068557Y-91728534D01*
X128152222Y-91572009D01*
X128181552Y-91536271D01*
X128264814Y-91434814D01*
X128366271Y-91351552D01*
X128402009Y-91322222D01*
X128558534Y-91238557D01*
X128728373Y-91187037D01*
X128794558Y-91180518D01*
X128860740Y-91174000D01*
X128949260Y-91174000D01*
X129015442Y-91180518D01*
X129015442Y-91180518D01*
G37*
G36*
X131555443Y-88640519D02*
G01*
X131621627Y-88647037D01*
X131791466Y-88698557D01*
X131947991Y-88782222D01*
X131983729Y-88811552D01*
X132085186Y-88894814D01*
X132168448Y-88996271D01*
X132197778Y-89032009D01*
X132281443Y-89188534D01*
X132332963Y-89358373D01*
X132350359Y-89535000D01*
X132332963Y-89711627D01*
X132281443Y-89881466D01*
X132197778Y-90037991D01*
X132168448Y-90073729D01*
X132085186Y-90175186D01*
X131983729Y-90258448D01*
X131947991Y-90287778D01*
X131791466Y-90371443D01*
X131621627Y-90422963D01*
X131555443Y-90429481D01*
X131489260Y-90436000D01*
X131400740Y-90436000D01*
X131334557Y-90429481D01*
X131268373Y-90422963D01*
X131098534Y-90371443D01*
X130942009Y-90287778D01*
X130906271Y-90258448D01*
X130804814Y-90175186D01*
X130721552Y-90073729D01*
X130692222Y-90037991D01*
X130608557Y-89881466D01*
X130557037Y-89711627D01*
X130539641Y-89535000D01*
X130557037Y-89358373D01*
X130608557Y-89188534D01*
X130692222Y-89032009D01*
X130721552Y-88996271D01*
X130804814Y-88894814D01*
X130906271Y-88811552D01*
X130942009Y-88782222D01*
X131098534Y-88698557D01*
X131268373Y-88647037D01*
X131334557Y-88640519D01*
X131400740Y-88634000D01*
X131489260Y-88634000D01*
X131555443Y-88640519D01*
X131555443Y-88640519D01*
G37*
G36*
X129015443Y-88640519D02*
G01*
X129081627Y-88647037D01*
X129251466Y-88698557D01*
X129407991Y-88782222D01*
X129443729Y-88811552D01*
X129545186Y-88894814D01*
X129628448Y-88996271D01*
X129657778Y-89032009D01*
X129741443Y-89188534D01*
X129792963Y-89358373D01*
X129810359Y-89535000D01*
X129792963Y-89711627D01*
X129741443Y-89881466D01*
X129657778Y-90037991D01*
X129628448Y-90073729D01*
X129545186Y-90175186D01*
X129443729Y-90258448D01*
X129407991Y-90287778D01*
X129251466Y-90371443D01*
X129081627Y-90422963D01*
X129015443Y-90429481D01*
X128949260Y-90436000D01*
X128860740Y-90436000D01*
X128794557Y-90429481D01*
X128728373Y-90422963D01*
X128558534Y-90371443D01*
X128402009Y-90287778D01*
X128366271Y-90258448D01*
X128264814Y-90175186D01*
X128181552Y-90073729D01*
X128152222Y-90037991D01*
X128068557Y-89881466D01*
X128017037Y-89711627D01*
X127999641Y-89535000D01*
X128017037Y-89358373D01*
X128068557Y-89188534D01*
X128152222Y-89032009D01*
X128181552Y-88996271D01*
X128264814Y-88894814D01*
X128366271Y-88811552D01*
X128402009Y-88782222D01*
X128558534Y-88698557D01*
X128728373Y-88647037D01*
X128794557Y-88640519D01*
X128860740Y-88634000D01*
X128949260Y-88634000D01*
X129015443Y-88640519D01*
X129015443Y-88640519D01*
G37*
G36*
X129015442Y-86100518D02*
G01*
X129081627Y-86107037D01*
X129251466Y-86158557D01*
X129407991Y-86242222D01*
X129443729Y-86271552D01*
X129545186Y-86354814D01*
X129628448Y-86456271D01*
X129657778Y-86492009D01*
X129741443Y-86648534D01*
X129792963Y-86818373D01*
X129810359Y-86995000D01*
X129792963Y-87171627D01*
X129741443Y-87341466D01*
X129657778Y-87497991D01*
X129628448Y-87533729D01*
X129545186Y-87635186D01*
X129443729Y-87718448D01*
X129407991Y-87747778D01*
X129251466Y-87831443D01*
X129081627Y-87882963D01*
X129015443Y-87889481D01*
X128949260Y-87896000D01*
X128860740Y-87896000D01*
X128794557Y-87889481D01*
X128728373Y-87882963D01*
X128558534Y-87831443D01*
X128402009Y-87747778D01*
X128366271Y-87718448D01*
X128264814Y-87635186D01*
X128181552Y-87533729D01*
X128152222Y-87497991D01*
X128068557Y-87341466D01*
X128017037Y-87171627D01*
X127999641Y-86995000D01*
X128017037Y-86818373D01*
X128068557Y-86648534D01*
X128152222Y-86492009D01*
X128181552Y-86456271D01*
X128264814Y-86354814D01*
X128366271Y-86271552D01*
X128402009Y-86242222D01*
X128558534Y-86158557D01*
X128728373Y-86107037D01*
X128794558Y-86100518D01*
X128860740Y-86094000D01*
X128949260Y-86094000D01*
X129015442Y-86100518D01*
X129015442Y-86100518D01*
G37*
G36*
X131555442Y-86100518D02*
G01*
X131621627Y-86107037D01*
X131791466Y-86158557D01*
X131947991Y-86242222D01*
X131983729Y-86271552D01*
X132085186Y-86354814D01*
X132168448Y-86456271D01*
X132197778Y-86492009D01*
X132281443Y-86648534D01*
X132332963Y-86818373D01*
X132350359Y-86995000D01*
X132332963Y-87171627D01*
X132281443Y-87341466D01*
X132197778Y-87497991D01*
X132168448Y-87533729D01*
X132085186Y-87635186D01*
X131983729Y-87718448D01*
X131947991Y-87747778D01*
X131791466Y-87831443D01*
X131621627Y-87882963D01*
X131555443Y-87889481D01*
X131489260Y-87896000D01*
X131400740Y-87896000D01*
X131334557Y-87889481D01*
X131268373Y-87882963D01*
X131098534Y-87831443D01*
X130942009Y-87747778D01*
X130906271Y-87718448D01*
X130804814Y-87635186D01*
X130721552Y-87533729D01*
X130692222Y-87497991D01*
X130608557Y-87341466D01*
X130557037Y-87171627D01*
X130539641Y-86995000D01*
X130557037Y-86818373D01*
X130608557Y-86648534D01*
X130692222Y-86492009D01*
X130721552Y-86456271D01*
X130804814Y-86354814D01*
X130906271Y-86271552D01*
X130942009Y-86242222D01*
X131098534Y-86158557D01*
X131268373Y-86107037D01*
X131334558Y-86100518D01*
X131400740Y-86094000D01*
X131489260Y-86094000D01*
X131555442Y-86100518D01*
X131555442Y-86100518D01*
G37*
G36*
X176005442Y-85465518D02*
G01*
X176071627Y-85472037D01*
X176241466Y-85523557D01*
X176397991Y-85607222D01*
X176433729Y-85636552D01*
X176535186Y-85719814D01*
X176618448Y-85821271D01*
X176647778Y-85857009D01*
X176731443Y-86013534D01*
X176782963Y-86183373D01*
X176800359Y-86360000D01*
X176782963Y-86536627D01*
X176731443Y-86706466D01*
X176647778Y-86862991D01*
X176618448Y-86898729D01*
X176535186Y-87000186D01*
X176433729Y-87083448D01*
X176397991Y-87112778D01*
X176241466Y-87196443D01*
X176071627Y-87247963D01*
X176005442Y-87254482D01*
X175939260Y-87261000D01*
X175850740Y-87261000D01*
X175784558Y-87254482D01*
X175718373Y-87247963D01*
X175548534Y-87196443D01*
X175392009Y-87112778D01*
X175356271Y-87083448D01*
X175254814Y-87000186D01*
X175171552Y-86898729D01*
X175142222Y-86862991D01*
X175058557Y-86706466D01*
X175007037Y-86536627D01*
X174989641Y-86360000D01*
X175007037Y-86183373D01*
X175058557Y-86013534D01*
X175142222Y-85857009D01*
X175171552Y-85821271D01*
X175254814Y-85719814D01*
X175356271Y-85636552D01*
X175392009Y-85607222D01*
X175548534Y-85523557D01*
X175718373Y-85472037D01*
X175784558Y-85465518D01*
X175850740Y-85459000D01*
X175939260Y-85459000D01*
X176005442Y-85465518D01*
X176005442Y-85465518D01*
G37*
G36*
X178545442Y-85465518D02*
G01*
X178611627Y-85472037D01*
X178781466Y-85523557D01*
X178937991Y-85607222D01*
X178973729Y-85636552D01*
X179075186Y-85719814D01*
X179158448Y-85821271D01*
X179187778Y-85857009D01*
X179271443Y-86013534D01*
X179322963Y-86183373D01*
X179340359Y-86360000D01*
X179322963Y-86536627D01*
X179271443Y-86706466D01*
X179187778Y-86862991D01*
X179158448Y-86898729D01*
X179075186Y-87000186D01*
X178973729Y-87083448D01*
X178937991Y-87112778D01*
X178781466Y-87196443D01*
X178611627Y-87247963D01*
X178545442Y-87254482D01*
X178479260Y-87261000D01*
X178390740Y-87261000D01*
X178324558Y-87254482D01*
X178258373Y-87247963D01*
X178088534Y-87196443D01*
X177932009Y-87112778D01*
X177896271Y-87083448D01*
X177794814Y-87000186D01*
X177711552Y-86898729D01*
X177682222Y-86862991D01*
X177598557Y-86706466D01*
X177547037Y-86536627D01*
X177529641Y-86360000D01*
X177547037Y-86183373D01*
X177598557Y-86013534D01*
X177682222Y-85857009D01*
X177711552Y-85821271D01*
X177794814Y-85719814D01*
X177896271Y-85636552D01*
X177932009Y-85607222D01*
X178088534Y-85523557D01*
X178258373Y-85472037D01*
X178324558Y-85465518D01*
X178390740Y-85459000D01*
X178479260Y-85459000D01*
X178545442Y-85465518D01*
X178545442Y-85465518D01*
G37*
G36*
X181085442Y-85465518D02*
G01*
X181151627Y-85472037D01*
X181321466Y-85523557D01*
X181477991Y-85607222D01*
X181513729Y-85636552D01*
X181615186Y-85719814D01*
X181698448Y-85821271D01*
X181727778Y-85857009D01*
X181811443Y-86013534D01*
X181862963Y-86183373D01*
X181880359Y-86360000D01*
X181862963Y-86536627D01*
X181811443Y-86706466D01*
X181727778Y-86862991D01*
X181698448Y-86898729D01*
X181615186Y-87000186D01*
X181513729Y-87083448D01*
X181477991Y-87112778D01*
X181321466Y-87196443D01*
X181151627Y-87247963D01*
X181085442Y-87254482D01*
X181019260Y-87261000D01*
X180930740Y-87261000D01*
X180864558Y-87254482D01*
X180798373Y-87247963D01*
X180628534Y-87196443D01*
X180472009Y-87112778D01*
X180436271Y-87083448D01*
X180334814Y-87000186D01*
X180251552Y-86898729D01*
X180222222Y-86862991D01*
X180138557Y-86706466D01*
X180087037Y-86536627D01*
X180069641Y-86360000D01*
X180087037Y-86183373D01*
X180138557Y-86013534D01*
X180222222Y-85857009D01*
X180251552Y-85821271D01*
X180334814Y-85719814D01*
X180436271Y-85636552D01*
X180472009Y-85607222D01*
X180628534Y-85523557D01*
X180798373Y-85472037D01*
X180864558Y-85465518D01*
X180930740Y-85459000D01*
X181019260Y-85459000D01*
X181085442Y-85465518D01*
X181085442Y-85465518D01*
G37*
G36*
X184416000Y-87261000D02*
G01*
X182614000Y-87261000D01*
X182614000Y-85459000D01*
X184416000Y-85459000D01*
X184416000Y-87261000D01*
X184416000Y-87261000D01*
G37*
G36*
X165366000Y-87261000D02*
G01*
X163564000Y-87261000D01*
X163564000Y-85459000D01*
X165366000Y-85459000D01*
X165366000Y-87261000D01*
X165366000Y-87261000D01*
G37*
G36*
X162035442Y-85465518D02*
G01*
X162101627Y-85472037D01*
X162271466Y-85523557D01*
X162427991Y-85607222D01*
X162463729Y-85636552D01*
X162565186Y-85719814D01*
X162648448Y-85821271D01*
X162677778Y-85857009D01*
X162761443Y-86013534D01*
X162812963Y-86183373D01*
X162830359Y-86360000D01*
X162812963Y-86536627D01*
X162761443Y-86706466D01*
X162677778Y-86862991D01*
X162648448Y-86898729D01*
X162565186Y-87000186D01*
X162463729Y-87083448D01*
X162427991Y-87112778D01*
X162271466Y-87196443D01*
X162101627Y-87247963D01*
X162035442Y-87254482D01*
X161969260Y-87261000D01*
X161880740Y-87261000D01*
X161814558Y-87254482D01*
X161748373Y-87247963D01*
X161578534Y-87196443D01*
X161422009Y-87112778D01*
X161386271Y-87083448D01*
X161284814Y-87000186D01*
X161201552Y-86898729D01*
X161172222Y-86862991D01*
X161088557Y-86706466D01*
X161037037Y-86536627D01*
X161019641Y-86360000D01*
X161037037Y-86183373D01*
X161088557Y-86013534D01*
X161172222Y-85857009D01*
X161201552Y-85821271D01*
X161284814Y-85719814D01*
X161386271Y-85636552D01*
X161422009Y-85607222D01*
X161578534Y-85523557D01*
X161748373Y-85472037D01*
X161814558Y-85465518D01*
X161880740Y-85459000D01*
X161969260Y-85459000D01*
X162035442Y-85465518D01*
X162035442Y-85465518D01*
G37*
G36*
X159495442Y-85465518D02*
G01*
X159561627Y-85472037D01*
X159731466Y-85523557D01*
X159887991Y-85607222D01*
X159923729Y-85636552D01*
X160025186Y-85719814D01*
X160108448Y-85821271D01*
X160137778Y-85857009D01*
X160221443Y-86013534D01*
X160272963Y-86183373D01*
X160290359Y-86360000D01*
X160272963Y-86536627D01*
X160221443Y-86706466D01*
X160137778Y-86862991D01*
X160108448Y-86898729D01*
X160025186Y-87000186D01*
X159923729Y-87083448D01*
X159887991Y-87112778D01*
X159731466Y-87196443D01*
X159561627Y-87247963D01*
X159495442Y-87254482D01*
X159429260Y-87261000D01*
X159340740Y-87261000D01*
X159274558Y-87254482D01*
X159208373Y-87247963D01*
X159038534Y-87196443D01*
X158882009Y-87112778D01*
X158846271Y-87083448D01*
X158744814Y-87000186D01*
X158661552Y-86898729D01*
X158632222Y-86862991D01*
X158548557Y-86706466D01*
X158497037Y-86536627D01*
X158479641Y-86360000D01*
X158497037Y-86183373D01*
X158548557Y-86013534D01*
X158632222Y-85857009D01*
X158661552Y-85821271D01*
X158744814Y-85719814D01*
X158846271Y-85636552D01*
X158882009Y-85607222D01*
X159038534Y-85523557D01*
X159208373Y-85472037D01*
X159274558Y-85465518D01*
X159340740Y-85459000D01*
X159429260Y-85459000D01*
X159495442Y-85465518D01*
X159495442Y-85465518D01*
G37*
G36*
X156955442Y-85465518D02*
G01*
X157021627Y-85472037D01*
X157191466Y-85523557D01*
X157347991Y-85607222D01*
X157383729Y-85636552D01*
X157485186Y-85719814D01*
X157568448Y-85821271D01*
X157597778Y-85857009D01*
X157681443Y-86013534D01*
X157732963Y-86183373D01*
X157750359Y-86360000D01*
X157732963Y-86536627D01*
X157681443Y-86706466D01*
X157597778Y-86862991D01*
X157568448Y-86898729D01*
X157485186Y-87000186D01*
X157383729Y-87083448D01*
X157347991Y-87112778D01*
X157191466Y-87196443D01*
X157021627Y-87247963D01*
X156955442Y-87254482D01*
X156889260Y-87261000D01*
X156800740Y-87261000D01*
X156734558Y-87254482D01*
X156668373Y-87247963D01*
X156498534Y-87196443D01*
X156342009Y-87112778D01*
X156306271Y-87083448D01*
X156204814Y-87000186D01*
X156121552Y-86898729D01*
X156092222Y-86862991D01*
X156008557Y-86706466D01*
X155957037Y-86536627D01*
X155939641Y-86360000D01*
X155957037Y-86183373D01*
X156008557Y-86013534D01*
X156092222Y-85857009D01*
X156121552Y-85821271D01*
X156204814Y-85719814D01*
X156306271Y-85636552D01*
X156342009Y-85607222D01*
X156498534Y-85523557D01*
X156668373Y-85472037D01*
X156734558Y-85465518D01*
X156800740Y-85459000D01*
X156889260Y-85459000D01*
X156955442Y-85465518D01*
X156955442Y-85465518D01*
G37*
G36*
X131555443Y-83560519D02*
G01*
X131621627Y-83567037D01*
X131791466Y-83618557D01*
X131947991Y-83702222D01*
X131983729Y-83731552D01*
X132085186Y-83814814D01*
X132168448Y-83916271D01*
X132197778Y-83952009D01*
X132281443Y-84108534D01*
X132332963Y-84278373D01*
X132350359Y-84455000D01*
X132332963Y-84631627D01*
X132281443Y-84801466D01*
X132197778Y-84957991D01*
X132168448Y-84993729D01*
X132085186Y-85095186D01*
X131983729Y-85178448D01*
X131947991Y-85207778D01*
X131791466Y-85291443D01*
X131621627Y-85342963D01*
X131555442Y-85349482D01*
X131489260Y-85356000D01*
X131400740Y-85356000D01*
X131334558Y-85349482D01*
X131268373Y-85342963D01*
X131098534Y-85291443D01*
X130942009Y-85207778D01*
X130906271Y-85178448D01*
X130804814Y-85095186D01*
X130721552Y-84993729D01*
X130692222Y-84957991D01*
X130608557Y-84801466D01*
X130557037Y-84631627D01*
X130539641Y-84455000D01*
X130557037Y-84278373D01*
X130608557Y-84108534D01*
X130692222Y-83952009D01*
X130721552Y-83916271D01*
X130804814Y-83814814D01*
X130906271Y-83731552D01*
X130942009Y-83702222D01*
X131098534Y-83618557D01*
X131268373Y-83567037D01*
X131334557Y-83560519D01*
X131400740Y-83554000D01*
X131489260Y-83554000D01*
X131555443Y-83560519D01*
X131555443Y-83560519D01*
G37*
G36*
X129015443Y-83560519D02*
G01*
X129081627Y-83567037D01*
X129251466Y-83618557D01*
X129407991Y-83702222D01*
X129443729Y-83731552D01*
X129545186Y-83814814D01*
X129628448Y-83916271D01*
X129657778Y-83952009D01*
X129741443Y-84108534D01*
X129792963Y-84278373D01*
X129810359Y-84455000D01*
X129792963Y-84631627D01*
X129741443Y-84801466D01*
X129657778Y-84957991D01*
X129628448Y-84993729D01*
X129545186Y-85095186D01*
X129443729Y-85178448D01*
X129407991Y-85207778D01*
X129251466Y-85291443D01*
X129081627Y-85342963D01*
X129015442Y-85349482D01*
X128949260Y-85356000D01*
X128860740Y-85356000D01*
X128794558Y-85349482D01*
X128728373Y-85342963D01*
X128558534Y-85291443D01*
X128402009Y-85207778D01*
X128366271Y-85178448D01*
X128264814Y-85095186D01*
X128181552Y-84993729D01*
X128152222Y-84957991D01*
X128068557Y-84801466D01*
X128017037Y-84631627D01*
X127999641Y-84455000D01*
X128017037Y-84278373D01*
X128068557Y-84108534D01*
X128152222Y-83952009D01*
X128181552Y-83916271D01*
X128264814Y-83814814D01*
X128366271Y-83731552D01*
X128402009Y-83702222D01*
X128558534Y-83618557D01*
X128728373Y-83567037D01*
X128794557Y-83560519D01*
X128860740Y-83554000D01*
X128949260Y-83554000D01*
X129015443Y-83560519D01*
X129015443Y-83560519D01*
G37*
G36*
X131555442Y-81020518D02*
G01*
X131621627Y-81027037D01*
X131791466Y-81078557D01*
X131947991Y-81162222D01*
X131983729Y-81191552D01*
X132085186Y-81274814D01*
X132168448Y-81376271D01*
X132197778Y-81412009D01*
X132281443Y-81568534D01*
X132332963Y-81738373D01*
X132350359Y-81915000D01*
X132332963Y-82091627D01*
X132281443Y-82261466D01*
X132197778Y-82417991D01*
X132168448Y-82453729D01*
X132085186Y-82555186D01*
X131983729Y-82638448D01*
X131947991Y-82667778D01*
X131791466Y-82751443D01*
X131621627Y-82802963D01*
X131555442Y-82809482D01*
X131489260Y-82816000D01*
X131400740Y-82816000D01*
X131334558Y-82809482D01*
X131268373Y-82802963D01*
X131098534Y-82751443D01*
X130942009Y-82667778D01*
X130906271Y-82638448D01*
X130804814Y-82555186D01*
X130721552Y-82453729D01*
X130692222Y-82417991D01*
X130608557Y-82261466D01*
X130557037Y-82091627D01*
X130539641Y-81915000D01*
X130557037Y-81738373D01*
X130608557Y-81568534D01*
X130692222Y-81412009D01*
X130721552Y-81376271D01*
X130804814Y-81274814D01*
X130906271Y-81191552D01*
X130942009Y-81162222D01*
X131098534Y-81078557D01*
X131268373Y-81027037D01*
X131334558Y-81020518D01*
X131400740Y-81014000D01*
X131489260Y-81014000D01*
X131555442Y-81020518D01*
X131555442Y-81020518D01*
G37*
G36*
X129015442Y-81020518D02*
G01*
X129081627Y-81027037D01*
X129251466Y-81078557D01*
X129407991Y-81162222D01*
X129443729Y-81191552D01*
X129545186Y-81274814D01*
X129628448Y-81376271D01*
X129657778Y-81412009D01*
X129741443Y-81568534D01*
X129792963Y-81738373D01*
X129810359Y-81915000D01*
X129792963Y-82091627D01*
X129741443Y-82261466D01*
X129657778Y-82417991D01*
X129628448Y-82453729D01*
X129545186Y-82555186D01*
X129443729Y-82638448D01*
X129407991Y-82667778D01*
X129251466Y-82751443D01*
X129081627Y-82802963D01*
X129015442Y-82809482D01*
X128949260Y-82816000D01*
X128860740Y-82816000D01*
X128794558Y-82809482D01*
X128728373Y-82802963D01*
X128558534Y-82751443D01*
X128402009Y-82667778D01*
X128366271Y-82638448D01*
X128264814Y-82555186D01*
X128181552Y-82453729D01*
X128152222Y-82417991D01*
X128068557Y-82261466D01*
X128017037Y-82091627D01*
X127999641Y-81915000D01*
X128017037Y-81738373D01*
X128068557Y-81568534D01*
X128152222Y-81412009D01*
X128181552Y-81376271D01*
X128264814Y-81274814D01*
X128366271Y-81191552D01*
X128402009Y-81162222D01*
X128558534Y-81078557D01*
X128728373Y-81027037D01*
X128794558Y-81020518D01*
X128860740Y-81014000D01*
X128949260Y-81014000D01*
X129015442Y-81020518D01*
X129015442Y-81020518D01*
G37*
G36*
X131555442Y-78480518D02*
G01*
X131621627Y-78487037D01*
X131791466Y-78538557D01*
X131947991Y-78622222D01*
X131983729Y-78651552D01*
X132085186Y-78734814D01*
X132168448Y-78836271D01*
X132197778Y-78872009D01*
X132281443Y-79028534D01*
X132332963Y-79198373D01*
X132350359Y-79375000D01*
X132332963Y-79551627D01*
X132281443Y-79721466D01*
X132197778Y-79877991D01*
X132168448Y-79913729D01*
X132085186Y-80015186D01*
X131983729Y-80098448D01*
X131947991Y-80127778D01*
X131791466Y-80211443D01*
X131621627Y-80262963D01*
X131555442Y-80269482D01*
X131489260Y-80276000D01*
X131400740Y-80276000D01*
X131334558Y-80269482D01*
X131268373Y-80262963D01*
X131098534Y-80211443D01*
X130942009Y-80127778D01*
X130906271Y-80098448D01*
X130804814Y-80015186D01*
X130721552Y-79913729D01*
X130692222Y-79877991D01*
X130608557Y-79721466D01*
X130557037Y-79551627D01*
X130539641Y-79375000D01*
X130557037Y-79198373D01*
X130608557Y-79028534D01*
X130692222Y-78872009D01*
X130721552Y-78836271D01*
X130804814Y-78734814D01*
X130906271Y-78651552D01*
X130942009Y-78622222D01*
X131098534Y-78538557D01*
X131268373Y-78487037D01*
X131334558Y-78480518D01*
X131400740Y-78474000D01*
X131489260Y-78474000D01*
X131555442Y-78480518D01*
X131555442Y-78480518D01*
G37*
G36*
X129015442Y-78480518D02*
G01*
X129081627Y-78487037D01*
X129251466Y-78538557D01*
X129407991Y-78622222D01*
X129443729Y-78651552D01*
X129545186Y-78734814D01*
X129628448Y-78836271D01*
X129657778Y-78872009D01*
X129741443Y-79028534D01*
X129792963Y-79198373D01*
X129810359Y-79375000D01*
X129792963Y-79551627D01*
X129741443Y-79721466D01*
X129657778Y-79877991D01*
X129628448Y-79913729D01*
X129545186Y-80015186D01*
X129443729Y-80098448D01*
X129407991Y-80127778D01*
X129251466Y-80211443D01*
X129081627Y-80262963D01*
X129015442Y-80269482D01*
X128949260Y-80276000D01*
X128860740Y-80276000D01*
X128794558Y-80269482D01*
X128728373Y-80262963D01*
X128558534Y-80211443D01*
X128402009Y-80127778D01*
X128366271Y-80098448D01*
X128264814Y-80015186D01*
X128181552Y-79913729D01*
X128152222Y-79877991D01*
X128068557Y-79721466D01*
X128017037Y-79551627D01*
X127999641Y-79375000D01*
X128017037Y-79198373D01*
X128068557Y-79028534D01*
X128152222Y-78872009D01*
X128181552Y-78836271D01*
X128264814Y-78734814D01*
X128366271Y-78651552D01*
X128402009Y-78622222D01*
X128558534Y-78538557D01*
X128728373Y-78487037D01*
X128794558Y-78480518D01*
X128860740Y-78474000D01*
X128949260Y-78474000D01*
X129015442Y-78480518D01*
X129015442Y-78480518D01*
G37*
G36*
X192698712Y-75947037D02*
G01*
X192857410Y-75978604D01*
X193139674Y-76095521D01*
X193393705Y-76265259D01*
X193609741Y-76481295D01*
X193779479Y-76735326D01*
X193896396Y-77017590D01*
X193956000Y-77317240D01*
X193956000Y-77622760D01*
X193896396Y-77922410D01*
X193779479Y-78204674D01*
X193609741Y-78458705D01*
X193393705Y-78674741D01*
X193139674Y-78844479D01*
X192857410Y-78961396D01*
X192707585Y-78991198D01*
X192557761Y-79021000D01*
X192252239Y-79021000D01*
X192102415Y-78991198D01*
X191952590Y-78961396D01*
X191670326Y-78844479D01*
X191416295Y-78674741D01*
X191200259Y-78458705D01*
X191030521Y-78204674D01*
X190913604Y-77922410D01*
X190854000Y-77622760D01*
X190854000Y-77317240D01*
X190913604Y-77017590D01*
X191030521Y-76735326D01*
X191200259Y-76481295D01*
X191416295Y-76265259D01*
X191670326Y-76095521D01*
X191952590Y-75978604D01*
X192111288Y-75947037D01*
X192252239Y-75919000D01*
X192557761Y-75919000D01*
X192698712Y-75947037D01*
X192698712Y-75947037D01*
G37*
G36*
X129015442Y-75940518D02*
G01*
X129081627Y-75947037D01*
X129251466Y-75998557D01*
X129407991Y-76082222D01*
X129443729Y-76111552D01*
X129545186Y-76194814D01*
X129628448Y-76296271D01*
X129657778Y-76332009D01*
X129741443Y-76488534D01*
X129792963Y-76658373D01*
X129810359Y-76835000D01*
X129792963Y-77011627D01*
X129741443Y-77181466D01*
X129657778Y-77337991D01*
X129628448Y-77373729D01*
X129545186Y-77475186D01*
X129443729Y-77558448D01*
X129407991Y-77587778D01*
X129251466Y-77671443D01*
X129081627Y-77722963D01*
X129015443Y-77729481D01*
X128949260Y-77736000D01*
X128860740Y-77736000D01*
X128794557Y-77729481D01*
X128728373Y-77722963D01*
X128558534Y-77671443D01*
X128402009Y-77587778D01*
X128366271Y-77558448D01*
X128264814Y-77475186D01*
X128181552Y-77373729D01*
X128152222Y-77337991D01*
X128068557Y-77181466D01*
X128017037Y-77011627D01*
X127999641Y-76835000D01*
X128017037Y-76658373D01*
X128068557Y-76488534D01*
X128152222Y-76332009D01*
X128181552Y-76296271D01*
X128264814Y-76194814D01*
X128366271Y-76111552D01*
X128402009Y-76082222D01*
X128558534Y-75998557D01*
X128728373Y-75947037D01*
X128794558Y-75940518D01*
X128860740Y-75934000D01*
X128949260Y-75934000D01*
X129015442Y-75940518D01*
X129015442Y-75940518D01*
G37*
G36*
X131555442Y-75940518D02*
G01*
X131621627Y-75947037D01*
X131791466Y-75998557D01*
X131947991Y-76082222D01*
X131983729Y-76111552D01*
X132085186Y-76194814D01*
X132168448Y-76296271D01*
X132197778Y-76332009D01*
X132281443Y-76488534D01*
X132332963Y-76658373D01*
X132350359Y-76835000D01*
X132332963Y-77011627D01*
X132281443Y-77181466D01*
X132197778Y-77337991D01*
X132168448Y-77373729D01*
X132085186Y-77475186D01*
X131983729Y-77558448D01*
X131947991Y-77587778D01*
X131791466Y-77671443D01*
X131621627Y-77722963D01*
X131555443Y-77729481D01*
X131489260Y-77736000D01*
X131400740Y-77736000D01*
X131334557Y-77729481D01*
X131268373Y-77722963D01*
X131098534Y-77671443D01*
X130942009Y-77587778D01*
X130906271Y-77558448D01*
X130804814Y-77475186D01*
X130721552Y-77373729D01*
X130692222Y-77337991D01*
X130608557Y-77181466D01*
X130557037Y-77011627D01*
X130539641Y-76835000D01*
X130557037Y-76658373D01*
X130608557Y-76488534D01*
X130692222Y-76332009D01*
X130721552Y-76296271D01*
X130804814Y-76194814D01*
X130906271Y-76111552D01*
X130942009Y-76082222D01*
X131098534Y-75998557D01*
X131268373Y-75947037D01*
X131334558Y-75940518D01*
X131400740Y-75934000D01*
X131489260Y-75934000D01*
X131555442Y-75940518D01*
X131555442Y-75940518D01*
G37*
G36*
X129015443Y-73400519D02*
G01*
X129081627Y-73407037D01*
X129251466Y-73458557D01*
X129407991Y-73542222D01*
X129443729Y-73571552D01*
X129545186Y-73654814D01*
X129628448Y-73756271D01*
X129657778Y-73792009D01*
X129741443Y-73948534D01*
X129792963Y-74118373D01*
X129810359Y-74295000D01*
X129792963Y-74471627D01*
X129741443Y-74641466D01*
X129657778Y-74797991D01*
X129628448Y-74833729D01*
X129545186Y-74935186D01*
X129443729Y-75018448D01*
X129407991Y-75047778D01*
X129251466Y-75131443D01*
X129081627Y-75182963D01*
X129015442Y-75189482D01*
X128949260Y-75196000D01*
X128860740Y-75196000D01*
X128794558Y-75189482D01*
X128728373Y-75182963D01*
X128558534Y-75131443D01*
X128402009Y-75047778D01*
X128366271Y-75018448D01*
X128264814Y-74935186D01*
X128181552Y-74833729D01*
X128152222Y-74797991D01*
X128068557Y-74641466D01*
X128017037Y-74471627D01*
X127999641Y-74295000D01*
X128017037Y-74118373D01*
X128068557Y-73948534D01*
X128152222Y-73792009D01*
X128181552Y-73756271D01*
X128264814Y-73654814D01*
X128366271Y-73571552D01*
X128402009Y-73542222D01*
X128558534Y-73458557D01*
X128728373Y-73407037D01*
X128794557Y-73400519D01*
X128860740Y-73394000D01*
X128949260Y-73394000D01*
X129015443Y-73400519D01*
X129015443Y-73400519D01*
G37*
G36*
X131555443Y-73400519D02*
G01*
X131621627Y-73407037D01*
X131791466Y-73458557D01*
X131947991Y-73542222D01*
X131983729Y-73571552D01*
X132085186Y-73654814D01*
X132168448Y-73756271D01*
X132197778Y-73792009D01*
X132281443Y-73948534D01*
X132332963Y-74118373D01*
X132350359Y-74295000D01*
X132332963Y-74471627D01*
X132281443Y-74641466D01*
X132197778Y-74797991D01*
X132168448Y-74833729D01*
X132085186Y-74935186D01*
X131983729Y-75018448D01*
X131947991Y-75047778D01*
X131791466Y-75131443D01*
X131621627Y-75182963D01*
X131555442Y-75189482D01*
X131489260Y-75196000D01*
X131400740Y-75196000D01*
X131334558Y-75189482D01*
X131268373Y-75182963D01*
X131098534Y-75131443D01*
X130942009Y-75047778D01*
X130906271Y-75018448D01*
X130804814Y-74935186D01*
X130721552Y-74833729D01*
X130692222Y-74797991D01*
X130608557Y-74641466D01*
X130557037Y-74471627D01*
X130539641Y-74295000D01*
X130557037Y-74118373D01*
X130608557Y-73948534D01*
X130692222Y-73792009D01*
X130721552Y-73756271D01*
X130804814Y-73654814D01*
X130906271Y-73571552D01*
X130942009Y-73542222D01*
X131098534Y-73458557D01*
X131268373Y-73407037D01*
X131334557Y-73400519D01*
X131400740Y-73394000D01*
X131489260Y-73394000D01*
X131555443Y-73400519D01*
X131555443Y-73400519D01*
G37*
G36*
X193956000Y-73941000D02*
G01*
X190854000Y-73941000D01*
X190854000Y-70839000D01*
X193956000Y-70839000D01*
X193956000Y-73941000D01*
X193956000Y-73941000D01*
G37*
G36*
X131555442Y-70860518D02*
G01*
X131621627Y-70867037D01*
X131791466Y-70918557D01*
X131947991Y-71002222D01*
X131983729Y-71031552D01*
X132085186Y-71114814D01*
X132168448Y-71216271D01*
X132197778Y-71252009D01*
X132281443Y-71408534D01*
X132332963Y-71578373D01*
X132350359Y-71755000D01*
X132332963Y-71931627D01*
X132281443Y-72101466D01*
X132197778Y-72257991D01*
X132168448Y-72293729D01*
X132085186Y-72395186D01*
X131983729Y-72478448D01*
X131947991Y-72507778D01*
X131791466Y-72591443D01*
X131621627Y-72642963D01*
X131555443Y-72649481D01*
X131489260Y-72656000D01*
X131400740Y-72656000D01*
X131334557Y-72649481D01*
X131268373Y-72642963D01*
X131098534Y-72591443D01*
X130942009Y-72507778D01*
X130906271Y-72478448D01*
X130804814Y-72395186D01*
X130721552Y-72293729D01*
X130692222Y-72257991D01*
X130608557Y-72101466D01*
X130557037Y-71931627D01*
X130539641Y-71755000D01*
X130557037Y-71578373D01*
X130608557Y-71408534D01*
X130692222Y-71252009D01*
X130721552Y-71216271D01*
X130804814Y-71114814D01*
X130906271Y-71031552D01*
X130942009Y-71002222D01*
X131098534Y-70918557D01*
X131268373Y-70867037D01*
X131334558Y-70860518D01*
X131400740Y-70854000D01*
X131489260Y-70854000D01*
X131555442Y-70860518D01*
X131555442Y-70860518D01*
G37*
G36*
X129015442Y-70860518D02*
G01*
X129081627Y-70867037D01*
X129251466Y-70918557D01*
X129407991Y-71002222D01*
X129443729Y-71031552D01*
X129545186Y-71114814D01*
X129628448Y-71216271D01*
X129657778Y-71252009D01*
X129741443Y-71408534D01*
X129792963Y-71578373D01*
X129810359Y-71755000D01*
X129792963Y-71931627D01*
X129741443Y-72101466D01*
X129657778Y-72257991D01*
X129628448Y-72293729D01*
X129545186Y-72395186D01*
X129443729Y-72478448D01*
X129407991Y-72507778D01*
X129251466Y-72591443D01*
X129081627Y-72642963D01*
X129015443Y-72649481D01*
X128949260Y-72656000D01*
X128860740Y-72656000D01*
X128794557Y-72649481D01*
X128728373Y-72642963D01*
X128558534Y-72591443D01*
X128402009Y-72507778D01*
X128366271Y-72478448D01*
X128264814Y-72395186D01*
X128181552Y-72293729D01*
X128152222Y-72257991D01*
X128068557Y-72101466D01*
X128017037Y-71931627D01*
X127999641Y-71755000D01*
X128017037Y-71578373D01*
X128068557Y-71408534D01*
X128152222Y-71252009D01*
X128181552Y-71216271D01*
X128264814Y-71114814D01*
X128366271Y-71031552D01*
X128402009Y-71002222D01*
X128558534Y-70918557D01*
X128728373Y-70867037D01*
X128794558Y-70860518D01*
X128860740Y-70854000D01*
X128949260Y-70854000D01*
X129015442Y-70860518D01*
X129015442Y-70860518D01*
G37*
G36*
X129015442Y-68320518D02*
G01*
X129081627Y-68327037D01*
X129251466Y-68378557D01*
X129407991Y-68462222D01*
X129443729Y-68491552D01*
X129545186Y-68574814D01*
X129628448Y-68676271D01*
X129657778Y-68712009D01*
X129741443Y-68868534D01*
X129792963Y-69038373D01*
X129810359Y-69215000D01*
X129792963Y-69391627D01*
X129741443Y-69561466D01*
X129657778Y-69717991D01*
X129628448Y-69753729D01*
X129545186Y-69855186D01*
X129443729Y-69938448D01*
X129407991Y-69967778D01*
X129251466Y-70051443D01*
X129081627Y-70102963D01*
X129015442Y-70109482D01*
X128949260Y-70116000D01*
X128860740Y-70116000D01*
X128794558Y-70109482D01*
X128728373Y-70102963D01*
X128558534Y-70051443D01*
X128402009Y-69967778D01*
X128366271Y-69938448D01*
X128264814Y-69855186D01*
X128181552Y-69753729D01*
X128152222Y-69717991D01*
X128068557Y-69561466D01*
X128017037Y-69391627D01*
X127999641Y-69215000D01*
X128017037Y-69038373D01*
X128068557Y-68868534D01*
X128152222Y-68712009D01*
X128181552Y-68676271D01*
X128264814Y-68574814D01*
X128366271Y-68491552D01*
X128402009Y-68462222D01*
X128558534Y-68378557D01*
X128728373Y-68327037D01*
X128794558Y-68320518D01*
X128860740Y-68314000D01*
X128949260Y-68314000D01*
X129015442Y-68320518D01*
X129015442Y-68320518D01*
G37*
G36*
X131555442Y-68320518D02*
G01*
X131621627Y-68327037D01*
X131791466Y-68378557D01*
X131947991Y-68462222D01*
X131983729Y-68491552D01*
X132085186Y-68574814D01*
X132168448Y-68676271D01*
X132197778Y-68712009D01*
X132281443Y-68868534D01*
X132332963Y-69038373D01*
X132350359Y-69215000D01*
X132332963Y-69391627D01*
X132281443Y-69561466D01*
X132197778Y-69717991D01*
X132168448Y-69753729D01*
X132085186Y-69855186D01*
X131983729Y-69938448D01*
X131947991Y-69967778D01*
X131791466Y-70051443D01*
X131621627Y-70102963D01*
X131555442Y-70109482D01*
X131489260Y-70116000D01*
X131400740Y-70116000D01*
X131334558Y-70109482D01*
X131268373Y-70102963D01*
X131098534Y-70051443D01*
X130942009Y-69967778D01*
X130906271Y-69938448D01*
X130804814Y-69855186D01*
X130721552Y-69753729D01*
X130692222Y-69717991D01*
X130608557Y-69561466D01*
X130557037Y-69391627D01*
X130539641Y-69215000D01*
X130557037Y-69038373D01*
X130608557Y-68868534D01*
X130692222Y-68712009D01*
X130721552Y-68676271D01*
X130804814Y-68574814D01*
X130906271Y-68491552D01*
X130942009Y-68462222D01*
X131098534Y-68378557D01*
X131268373Y-68327037D01*
X131334558Y-68320518D01*
X131400740Y-68314000D01*
X131489260Y-68314000D01*
X131555442Y-68320518D01*
X131555442Y-68320518D01*
G37*
G36*
X131555443Y-65780519D02*
G01*
X131621627Y-65787037D01*
X131791466Y-65838557D01*
X131947991Y-65922222D01*
X131983729Y-65951552D01*
X132085186Y-66034814D01*
X132168448Y-66136271D01*
X132197778Y-66172009D01*
X132281443Y-66328534D01*
X132332963Y-66498373D01*
X132350359Y-66675000D01*
X132332963Y-66851627D01*
X132281443Y-67021466D01*
X132197778Y-67177991D01*
X132168448Y-67213729D01*
X132085186Y-67315186D01*
X131983729Y-67398448D01*
X131947991Y-67427778D01*
X131791466Y-67511443D01*
X131621627Y-67562963D01*
X131555443Y-67569481D01*
X131489260Y-67576000D01*
X131400740Y-67576000D01*
X131334557Y-67569481D01*
X131268373Y-67562963D01*
X131098534Y-67511443D01*
X130942009Y-67427778D01*
X130906271Y-67398448D01*
X130804814Y-67315186D01*
X130721552Y-67213729D01*
X130692222Y-67177991D01*
X130608557Y-67021466D01*
X130557037Y-66851627D01*
X130539641Y-66675000D01*
X130557037Y-66498373D01*
X130608557Y-66328534D01*
X130692222Y-66172009D01*
X130721552Y-66136271D01*
X130804814Y-66034814D01*
X130906271Y-65951552D01*
X130942009Y-65922222D01*
X131098534Y-65838557D01*
X131268373Y-65787037D01*
X131334557Y-65780519D01*
X131400740Y-65774000D01*
X131489260Y-65774000D01*
X131555443Y-65780519D01*
X131555443Y-65780519D01*
G37*
G36*
X129015443Y-65780519D02*
G01*
X129081627Y-65787037D01*
X129251466Y-65838557D01*
X129407991Y-65922222D01*
X129443729Y-65951552D01*
X129545186Y-66034814D01*
X129628448Y-66136271D01*
X129657778Y-66172009D01*
X129741443Y-66328534D01*
X129792963Y-66498373D01*
X129810359Y-66675000D01*
X129792963Y-66851627D01*
X129741443Y-67021466D01*
X129657778Y-67177991D01*
X129628448Y-67213729D01*
X129545186Y-67315186D01*
X129443729Y-67398448D01*
X129407991Y-67427778D01*
X129251466Y-67511443D01*
X129081627Y-67562963D01*
X129015443Y-67569481D01*
X128949260Y-67576000D01*
X128860740Y-67576000D01*
X128794557Y-67569481D01*
X128728373Y-67562963D01*
X128558534Y-67511443D01*
X128402009Y-67427778D01*
X128366271Y-67398448D01*
X128264814Y-67315186D01*
X128181552Y-67213729D01*
X128152222Y-67177991D01*
X128068557Y-67021466D01*
X128017037Y-66851627D01*
X127999641Y-66675000D01*
X128017037Y-66498373D01*
X128068557Y-66328534D01*
X128152222Y-66172009D01*
X128181552Y-66136271D01*
X128264814Y-66034814D01*
X128366271Y-65951552D01*
X128402009Y-65922222D01*
X128558534Y-65838557D01*
X128728373Y-65787037D01*
X128794557Y-65780519D01*
X128860740Y-65774000D01*
X128949260Y-65774000D01*
X129015443Y-65780519D01*
X129015443Y-65780519D01*
G37*
G36*
X131555443Y-63240519D02*
G01*
X131621627Y-63247037D01*
X131791466Y-63298557D01*
X131947991Y-63382222D01*
X131983729Y-63411552D01*
X132085186Y-63494814D01*
X132168448Y-63596271D01*
X132197778Y-63632009D01*
X132281443Y-63788534D01*
X132332963Y-63958373D01*
X132350359Y-64135000D01*
X132332963Y-64311627D01*
X132281443Y-64481466D01*
X132197778Y-64637991D01*
X132168448Y-64673729D01*
X132085186Y-64775186D01*
X131983729Y-64858448D01*
X131947991Y-64887778D01*
X131791466Y-64971443D01*
X131621627Y-65022963D01*
X131555442Y-65029482D01*
X131489260Y-65036000D01*
X131400740Y-65036000D01*
X131334558Y-65029482D01*
X131268373Y-65022963D01*
X131098534Y-64971443D01*
X130942009Y-64887778D01*
X130906271Y-64858448D01*
X130804814Y-64775186D01*
X130721552Y-64673729D01*
X130692222Y-64637991D01*
X130608557Y-64481466D01*
X130557037Y-64311627D01*
X130539641Y-64135000D01*
X130557037Y-63958373D01*
X130608557Y-63788534D01*
X130692222Y-63632009D01*
X130721552Y-63596271D01*
X130804814Y-63494814D01*
X130906271Y-63411552D01*
X130942009Y-63382222D01*
X131098534Y-63298557D01*
X131268373Y-63247037D01*
X131334557Y-63240519D01*
X131400740Y-63234000D01*
X131489260Y-63234000D01*
X131555443Y-63240519D01*
X131555443Y-63240519D01*
G37*
G36*
X129015443Y-63240519D02*
G01*
X129081627Y-63247037D01*
X129251466Y-63298557D01*
X129407991Y-63382222D01*
X129443729Y-63411552D01*
X129545186Y-63494814D01*
X129628448Y-63596271D01*
X129657778Y-63632009D01*
X129741443Y-63788534D01*
X129792963Y-63958373D01*
X129810359Y-64135000D01*
X129792963Y-64311627D01*
X129741443Y-64481466D01*
X129657778Y-64637991D01*
X129628448Y-64673729D01*
X129545186Y-64775186D01*
X129443729Y-64858448D01*
X129407991Y-64887778D01*
X129251466Y-64971443D01*
X129081627Y-65022963D01*
X129015442Y-65029482D01*
X128949260Y-65036000D01*
X128860740Y-65036000D01*
X128794558Y-65029482D01*
X128728373Y-65022963D01*
X128558534Y-64971443D01*
X128402009Y-64887778D01*
X128366271Y-64858448D01*
X128264814Y-64775186D01*
X128181552Y-64673729D01*
X128152222Y-64637991D01*
X128068557Y-64481466D01*
X128017037Y-64311627D01*
X127999641Y-64135000D01*
X128017037Y-63958373D01*
X128068557Y-63788534D01*
X128152222Y-63632009D01*
X128181552Y-63596271D01*
X128264814Y-63494814D01*
X128366271Y-63411552D01*
X128402009Y-63382222D01*
X128558534Y-63298557D01*
X128728373Y-63247037D01*
X128794557Y-63240519D01*
X128860740Y-63234000D01*
X128949260Y-63234000D01*
X129015443Y-63240519D01*
X129015443Y-63240519D01*
G37*
G36*
X119490443Y-61970519D02*
G01*
X119556627Y-61977037D01*
X119726466Y-62028557D01*
X119882991Y-62112222D01*
X119918729Y-62141552D01*
X120020186Y-62224814D01*
X120103448Y-62326271D01*
X120132778Y-62362009D01*
X120216443Y-62518534D01*
X120267963Y-62688373D01*
X120285359Y-62865000D01*
X120267963Y-63041627D01*
X120216443Y-63211466D01*
X120132778Y-63367991D01*
X120103448Y-63403729D01*
X120020186Y-63505186D01*
X119918729Y-63588448D01*
X119882991Y-63617778D01*
X119726466Y-63701443D01*
X119556627Y-63752963D01*
X119490442Y-63759482D01*
X119424260Y-63766000D01*
X119335740Y-63766000D01*
X119269558Y-63759482D01*
X119203373Y-63752963D01*
X119033534Y-63701443D01*
X118877009Y-63617778D01*
X118841271Y-63588448D01*
X118739814Y-63505186D01*
X118656552Y-63403729D01*
X118627222Y-63367991D01*
X118543557Y-63211466D01*
X118492037Y-63041627D01*
X118474641Y-62865000D01*
X118492037Y-62688373D01*
X118543557Y-62518534D01*
X118627222Y-62362009D01*
X118656552Y-62326271D01*
X118739814Y-62224814D01*
X118841271Y-62141552D01*
X118877009Y-62112222D01*
X119033534Y-62028557D01*
X119203373Y-61977037D01*
X119269557Y-61970519D01*
X119335740Y-61964000D01*
X119424260Y-61964000D01*
X119490443Y-61970519D01*
X119490443Y-61970519D01*
G37*
G36*
X131555443Y-60700519D02*
G01*
X131621627Y-60707037D01*
X131791466Y-60758557D01*
X131947991Y-60842222D01*
X131983729Y-60871552D01*
X132085186Y-60954814D01*
X132168448Y-61056271D01*
X132197778Y-61092009D01*
X132281443Y-61248534D01*
X132332963Y-61418373D01*
X132350359Y-61595000D01*
X132332963Y-61771627D01*
X132281443Y-61941466D01*
X132197778Y-62097991D01*
X132168448Y-62133729D01*
X132085186Y-62235186D01*
X131983729Y-62318448D01*
X131947991Y-62347778D01*
X131791466Y-62431443D01*
X131621627Y-62482963D01*
X131555443Y-62489481D01*
X131489260Y-62496000D01*
X131400740Y-62496000D01*
X131334557Y-62489481D01*
X131268373Y-62482963D01*
X131098534Y-62431443D01*
X130942009Y-62347778D01*
X130906271Y-62318448D01*
X130804814Y-62235186D01*
X130721552Y-62133729D01*
X130692222Y-62097991D01*
X130608557Y-61941466D01*
X130557037Y-61771627D01*
X130539641Y-61595000D01*
X130557037Y-61418373D01*
X130608557Y-61248534D01*
X130692222Y-61092009D01*
X130721552Y-61056271D01*
X130804814Y-60954814D01*
X130906271Y-60871552D01*
X130942009Y-60842222D01*
X131098534Y-60758557D01*
X131268373Y-60707037D01*
X131334557Y-60700519D01*
X131400740Y-60694000D01*
X131489260Y-60694000D01*
X131555443Y-60700519D01*
X131555443Y-60700519D01*
G37*
G36*
X129015443Y-60700519D02*
G01*
X129081627Y-60707037D01*
X129251466Y-60758557D01*
X129407991Y-60842222D01*
X129443729Y-60871552D01*
X129545186Y-60954814D01*
X129628448Y-61056271D01*
X129657778Y-61092009D01*
X129741443Y-61248534D01*
X129792963Y-61418373D01*
X129810359Y-61595000D01*
X129792963Y-61771627D01*
X129741443Y-61941466D01*
X129657778Y-62097991D01*
X129628448Y-62133729D01*
X129545186Y-62235186D01*
X129443729Y-62318448D01*
X129407991Y-62347778D01*
X129251466Y-62431443D01*
X129081627Y-62482963D01*
X129015443Y-62489481D01*
X128949260Y-62496000D01*
X128860740Y-62496000D01*
X128794557Y-62489481D01*
X128728373Y-62482963D01*
X128558534Y-62431443D01*
X128402009Y-62347778D01*
X128366271Y-62318448D01*
X128264814Y-62235186D01*
X128181552Y-62133729D01*
X128152222Y-62097991D01*
X128068557Y-61941466D01*
X128017037Y-61771627D01*
X127999641Y-61595000D01*
X128017037Y-61418373D01*
X128068557Y-61248534D01*
X128152222Y-61092009D01*
X128181552Y-61056271D01*
X128264814Y-60954814D01*
X128366271Y-60871552D01*
X128402009Y-60842222D01*
X128558534Y-60758557D01*
X128728373Y-60707037D01*
X128794557Y-60700519D01*
X128860740Y-60694000D01*
X128949260Y-60694000D01*
X129015443Y-60700519D01*
X129015443Y-60700519D01*
G37*
G36*
X119490442Y-59430518D02*
G01*
X119556627Y-59437037D01*
X119726466Y-59488557D01*
X119882991Y-59572222D01*
X119918729Y-59601552D01*
X120020186Y-59684814D01*
X120103448Y-59786271D01*
X120132778Y-59822009D01*
X120216443Y-59978534D01*
X120267963Y-60148373D01*
X120285359Y-60325000D01*
X120267963Y-60501627D01*
X120216443Y-60671466D01*
X120132778Y-60827991D01*
X120103448Y-60863729D01*
X120020186Y-60965186D01*
X119918729Y-61048448D01*
X119882991Y-61077778D01*
X119726466Y-61161443D01*
X119556627Y-61212963D01*
X119490442Y-61219482D01*
X119424260Y-61226000D01*
X119335740Y-61226000D01*
X119269558Y-61219482D01*
X119203373Y-61212963D01*
X119033534Y-61161443D01*
X118877009Y-61077778D01*
X118841271Y-61048448D01*
X118739814Y-60965186D01*
X118656552Y-60863729D01*
X118627222Y-60827991D01*
X118543557Y-60671466D01*
X118492037Y-60501627D01*
X118474641Y-60325000D01*
X118492037Y-60148373D01*
X118543557Y-59978534D01*
X118627222Y-59822009D01*
X118656552Y-59786271D01*
X118739814Y-59684814D01*
X118841271Y-59601552D01*
X118877009Y-59572222D01*
X119033534Y-59488557D01*
X119203373Y-59437037D01*
X119269558Y-59430518D01*
X119335740Y-59424000D01*
X119424260Y-59424000D01*
X119490442Y-59430518D01*
X119490442Y-59430518D01*
G37*
G36*
X131555442Y-58160518D02*
G01*
X131621627Y-58167037D01*
X131791466Y-58218557D01*
X131947991Y-58302222D01*
X131983729Y-58331552D01*
X132085186Y-58414814D01*
X132168448Y-58516271D01*
X132197778Y-58552009D01*
X132281443Y-58708534D01*
X132332963Y-58878373D01*
X132350359Y-59055000D01*
X132332963Y-59231627D01*
X132281443Y-59401466D01*
X132197778Y-59557991D01*
X132168448Y-59593729D01*
X132085186Y-59695186D01*
X131983729Y-59778448D01*
X131947991Y-59807778D01*
X131791466Y-59891443D01*
X131621627Y-59942963D01*
X131555442Y-59949482D01*
X131489260Y-59956000D01*
X131400740Y-59956000D01*
X131334558Y-59949482D01*
X131268373Y-59942963D01*
X131098534Y-59891443D01*
X130942009Y-59807778D01*
X130906271Y-59778448D01*
X130804814Y-59695186D01*
X130721552Y-59593729D01*
X130692222Y-59557991D01*
X130608557Y-59401466D01*
X130557037Y-59231627D01*
X130539641Y-59055000D01*
X130557037Y-58878373D01*
X130608557Y-58708534D01*
X130692222Y-58552009D01*
X130721552Y-58516271D01*
X130804814Y-58414814D01*
X130906271Y-58331552D01*
X130942009Y-58302222D01*
X131098534Y-58218557D01*
X131268373Y-58167037D01*
X131334558Y-58160518D01*
X131400740Y-58154000D01*
X131489260Y-58154000D01*
X131555442Y-58160518D01*
X131555442Y-58160518D01*
G37*
G36*
X129015442Y-58160518D02*
G01*
X129081627Y-58167037D01*
X129251466Y-58218557D01*
X129407991Y-58302222D01*
X129443729Y-58331552D01*
X129545186Y-58414814D01*
X129628448Y-58516271D01*
X129657778Y-58552009D01*
X129741443Y-58708534D01*
X129792963Y-58878373D01*
X129810359Y-59055000D01*
X129792963Y-59231627D01*
X129741443Y-59401466D01*
X129657778Y-59557991D01*
X129628448Y-59593729D01*
X129545186Y-59695186D01*
X129443729Y-59778448D01*
X129407991Y-59807778D01*
X129251466Y-59891443D01*
X129081627Y-59942963D01*
X129015442Y-59949482D01*
X128949260Y-59956000D01*
X128860740Y-59956000D01*
X128794558Y-59949482D01*
X128728373Y-59942963D01*
X128558534Y-59891443D01*
X128402009Y-59807778D01*
X128366271Y-59778448D01*
X128264814Y-59695186D01*
X128181552Y-59593729D01*
X128152222Y-59557991D01*
X128068557Y-59401466D01*
X128017037Y-59231627D01*
X127999641Y-59055000D01*
X128017037Y-58878373D01*
X128068557Y-58708534D01*
X128152222Y-58552009D01*
X128181552Y-58516271D01*
X128264814Y-58414814D01*
X128366271Y-58331552D01*
X128402009Y-58302222D01*
X128558534Y-58218557D01*
X128728373Y-58167037D01*
X128794558Y-58160518D01*
X128860740Y-58154000D01*
X128949260Y-58154000D01*
X129015442Y-58160518D01*
X129015442Y-58160518D01*
G37*
G36*
X119490442Y-56890518D02*
G01*
X119556627Y-56897037D01*
X119726466Y-56948557D01*
X119882991Y-57032222D01*
X119918729Y-57061552D01*
X120020186Y-57144814D01*
X120103448Y-57246271D01*
X120132778Y-57282009D01*
X120216443Y-57438534D01*
X120267963Y-57608373D01*
X120285359Y-57785000D01*
X120267963Y-57961627D01*
X120216443Y-58131466D01*
X120132778Y-58287991D01*
X120103448Y-58323729D01*
X120020186Y-58425186D01*
X119918729Y-58508448D01*
X119882991Y-58537778D01*
X119726466Y-58621443D01*
X119556627Y-58672963D01*
X119490442Y-58679482D01*
X119424260Y-58686000D01*
X119335740Y-58686000D01*
X119269558Y-58679482D01*
X119203373Y-58672963D01*
X119033534Y-58621443D01*
X118877009Y-58537778D01*
X118841271Y-58508448D01*
X118739814Y-58425186D01*
X118656552Y-58323729D01*
X118627222Y-58287991D01*
X118543557Y-58131466D01*
X118492037Y-57961627D01*
X118474641Y-57785000D01*
X118492037Y-57608373D01*
X118543557Y-57438534D01*
X118627222Y-57282009D01*
X118656552Y-57246271D01*
X118739814Y-57144814D01*
X118841271Y-57061552D01*
X118877009Y-57032222D01*
X119033534Y-56948557D01*
X119203373Y-56897037D01*
X119269558Y-56890518D01*
X119335740Y-56884000D01*
X119424260Y-56884000D01*
X119490442Y-56890518D01*
X119490442Y-56890518D01*
G37*
G36*
X108620272Y-57579703D02*
G01*
X108659130Y-57595799D01*
X108694098Y-57619164D01*
X108723836Y-57648902D01*
X108747201Y-57683870D01*
X108763297Y-57722728D01*
X108771500Y-57763970D01*
X108771500Y-57806030D01*
X108763297Y-57847272D01*
X108747201Y-57886130D01*
X108723836Y-57921098D01*
X108694098Y-57950836D01*
X108659130Y-57974201D01*
X108620272Y-57990297D01*
X108579030Y-57998500D01*
X108536970Y-57998500D01*
X108495728Y-57990297D01*
X108456870Y-57974201D01*
X108421902Y-57950836D01*
X108392164Y-57921098D01*
X108368799Y-57886130D01*
X108352703Y-57847272D01*
X108344500Y-57806030D01*
X108344500Y-57763970D01*
X108352703Y-57722728D01*
X108368799Y-57683870D01*
X108392164Y-57648902D01*
X108421902Y-57619164D01*
X108456870Y-57595799D01*
X108495728Y-57579703D01*
X108536970Y-57571500D01*
X108579030Y-57571500D01*
X108620272Y-57579703D01*
X108620272Y-57579703D01*
G37*
G36*
X131555443Y-55620519D02*
G01*
X131621627Y-55627037D01*
X131791466Y-55678557D01*
X131947991Y-55762222D01*
X131983729Y-55791552D01*
X132085186Y-55874814D01*
X132168448Y-55976271D01*
X132197778Y-56012009D01*
X132281443Y-56168534D01*
X132332963Y-56338373D01*
X132350359Y-56515000D01*
X132332963Y-56691627D01*
X132281443Y-56861466D01*
X132197778Y-57017991D01*
X132168448Y-57053729D01*
X132085186Y-57155186D01*
X131983729Y-57238448D01*
X131947991Y-57267778D01*
X131791466Y-57351443D01*
X131621627Y-57402963D01*
X131555443Y-57409481D01*
X131489260Y-57416000D01*
X131400740Y-57416000D01*
X131334557Y-57409481D01*
X131268373Y-57402963D01*
X131098534Y-57351443D01*
X130942009Y-57267778D01*
X130906271Y-57238448D01*
X130804814Y-57155186D01*
X130721552Y-57053729D01*
X130692222Y-57017991D01*
X130608557Y-56861466D01*
X130557037Y-56691627D01*
X130539641Y-56515000D01*
X130557037Y-56338373D01*
X130608557Y-56168534D01*
X130692222Y-56012009D01*
X130721552Y-55976271D01*
X130804814Y-55874814D01*
X130906271Y-55791552D01*
X130942009Y-55762222D01*
X131098534Y-55678557D01*
X131268373Y-55627037D01*
X131334557Y-55620519D01*
X131400740Y-55614000D01*
X131489260Y-55614000D01*
X131555443Y-55620519D01*
X131555443Y-55620519D01*
G37*
G36*
X129015443Y-55620519D02*
G01*
X129081627Y-55627037D01*
X129251466Y-55678557D01*
X129407991Y-55762222D01*
X129443729Y-55791552D01*
X129545186Y-55874814D01*
X129628448Y-55976271D01*
X129657778Y-56012009D01*
X129741443Y-56168534D01*
X129792963Y-56338373D01*
X129810359Y-56515000D01*
X129792963Y-56691627D01*
X129741443Y-56861466D01*
X129657778Y-57017991D01*
X129628448Y-57053729D01*
X129545186Y-57155186D01*
X129443729Y-57238448D01*
X129407991Y-57267778D01*
X129251466Y-57351443D01*
X129081627Y-57402963D01*
X129015443Y-57409481D01*
X128949260Y-57416000D01*
X128860740Y-57416000D01*
X128794557Y-57409481D01*
X128728373Y-57402963D01*
X128558534Y-57351443D01*
X128402009Y-57267778D01*
X128366271Y-57238448D01*
X128264814Y-57155186D01*
X128181552Y-57053729D01*
X128152222Y-57017991D01*
X128068557Y-56861466D01*
X128017037Y-56691627D01*
X127999641Y-56515000D01*
X128017037Y-56338373D01*
X128068557Y-56168534D01*
X128152222Y-56012009D01*
X128181552Y-55976271D01*
X128264814Y-55874814D01*
X128366271Y-55791552D01*
X128402009Y-55762222D01*
X128558534Y-55678557D01*
X128728373Y-55627037D01*
X128794557Y-55620519D01*
X128860740Y-55614000D01*
X128949260Y-55614000D01*
X129015443Y-55620519D01*
X129015443Y-55620519D01*
G37*
G36*
X119490442Y-54350518D02*
G01*
X119556627Y-54357037D01*
X119726466Y-54408557D01*
X119882991Y-54492222D01*
X119918729Y-54521552D01*
X120020186Y-54604814D01*
X120103448Y-54706271D01*
X120132778Y-54742009D01*
X120216443Y-54898534D01*
X120267963Y-55068373D01*
X120285359Y-55245000D01*
X120267963Y-55421627D01*
X120216443Y-55591466D01*
X120132778Y-55747991D01*
X120103448Y-55783729D01*
X120020186Y-55885186D01*
X119918729Y-55968448D01*
X119882991Y-55997778D01*
X119726466Y-56081443D01*
X119556627Y-56132963D01*
X119490443Y-56139481D01*
X119424260Y-56146000D01*
X119335740Y-56146000D01*
X119269557Y-56139481D01*
X119203373Y-56132963D01*
X119033534Y-56081443D01*
X118877009Y-55997778D01*
X118841271Y-55968448D01*
X118739814Y-55885186D01*
X118656552Y-55783729D01*
X118627222Y-55747991D01*
X118543557Y-55591466D01*
X118492037Y-55421627D01*
X118474641Y-55245000D01*
X118492037Y-55068373D01*
X118543557Y-54898534D01*
X118627222Y-54742009D01*
X118656552Y-54706271D01*
X118739814Y-54604814D01*
X118841271Y-54521552D01*
X118877009Y-54492222D01*
X119033534Y-54408557D01*
X119203373Y-54357037D01*
X119269558Y-54350518D01*
X119335740Y-54344000D01*
X119424260Y-54344000D01*
X119490442Y-54350518D01*
X119490442Y-54350518D01*
G37*
G36*
X187435442Y-53715518D02*
G01*
X187501627Y-53722037D01*
X187671466Y-53773557D01*
X187827991Y-53857222D01*
X187863729Y-53886552D01*
X187965186Y-53969814D01*
X188048448Y-54071271D01*
X188077778Y-54107009D01*
X188161443Y-54263534D01*
X188212963Y-54433373D01*
X188230359Y-54610000D01*
X188212963Y-54786627D01*
X188161443Y-54956466D01*
X188077778Y-55112991D01*
X188048448Y-55148729D01*
X187965186Y-55250186D01*
X187863729Y-55333448D01*
X187827991Y-55362778D01*
X187671466Y-55446443D01*
X187501627Y-55497963D01*
X187435442Y-55504482D01*
X187369260Y-55511000D01*
X187280740Y-55511000D01*
X187214558Y-55504482D01*
X187148373Y-55497963D01*
X186978534Y-55446443D01*
X186822009Y-55362778D01*
X186786271Y-55333448D01*
X186684814Y-55250186D01*
X186601552Y-55148729D01*
X186572222Y-55112991D01*
X186488557Y-54956466D01*
X186437037Y-54786627D01*
X186419641Y-54610000D01*
X186437037Y-54433373D01*
X186488557Y-54263534D01*
X186572222Y-54107009D01*
X186601552Y-54071271D01*
X186684814Y-53969814D01*
X186786271Y-53886552D01*
X186822009Y-53857222D01*
X186978534Y-53773557D01*
X187148373Y-53722037D01*
X187214558Y-53715518D01*
X187280740Y-53709000D01*
X187369260Y-53709000D01*
X187435442Y-53715518D01*
X187435442Y-53715518D01*
G37*
G36*
X131555442Y-53080518D02*
G01*
X131621627Y-53087037D01*
X131791466Y-53138557D01*
X131947991Y-53222222D01*
X131983729Y-53251552D01*
X132085186Y-53334814D01*
X132168448Y-53436271D01*
X132197778Y-53472009D01*
X132281443Y-53628534D01*
X132332963Y-53798373D01*
X132350359Y-53975000D01*
X132332963Y-54151627D01*
X132281443Y-54321466D01*
X132197778Y-54477991D01*
X132168448Y-54513729D01*
X132085186Y-54615186D01*
X131983729Y-54698448D01*
X131947991Y-54727778D01*
X131791466Y-54811443D01*
X131621627Y-54862963D01*
X131555443Y-54869481D01*
X131489260Y-54876000D01*
X131400740Y-54876000D01*
X131334557Y-54869481D01*
X131268373Y-54862963D01*
X131098534Y-54811443D01*
X130942009Y-54727778D01*
X130906271Y-54698448D01*
X130804814Y-54615186D01*
X130721552Y-54513729D01*
X130692222Y-54477991D01*
X130608557Y-54321466D01*
X130557037Y-54151627D01*
X130539641Y-53975000D01*
X130557037Y-53798373D01*
X130608557Y-53628534D01*
X130692222Y-53472009D01*
X130721552Y-53436271D01*
X130804814Y-53334814D01*
X130906271Y-53251552D01*
X130942009Y-53222222D01*
X131098534Y-53138557D01*
X131268373Y-53087037D01*
X131334558Y-53080518D01*
X131400740Y-53074000D01*
X131489260Y-53074000D01*
X131555442Y-53080518D01*
X131555442Y-53080518D01*
G37*
G36*
X129015442Y-53080518D02*
G01*
X129081627Y-53087037D01*
X129251466Y-53138557D01*
X129407991Y-53222222D01*
X129443729Y-53251552D01*
X129545186Y-53334814D01*
X129628448Y-53436271D01*
X129657778Y-53472009D01*
X129741443Y-53628534D01*
X129792963Y-53798373D01*
X129810359Y-53975000D01*
X129792963Y-54151627D01*
X129741443Y-54321466D01*
X129657778Y-54477991D01*
X129628448Y-54513729D01*
X129545186Y-54615186D01*
X129443729Y-54698448D01*
X129407991Y-54727778D01*
X129251466Y-54811443D01*
X129081627Y-54862963D01*
X129015443Y-54869481D01*
X128949260Y-54876000D01*
X128860740Y-54876000D01*
X128794557Y-54869481D01*
X128728373Y-54862963D01*
X128558534Y-54811443D01*
X128402009Y-54727778D01*
X128366271Y-54698448D01*
X128264814Y-54615186D01*
X128181552Y-54513729D01*
X128152222Y-54477991D01*
X128068557Y-54321466D01*
X128017037Y-54151627D01*
X127999641Y-53975000D01*
X128017037Y-53798373D01*
X128068557Y-53628534D01*
X128152222Y-53472009D01*
X128181552Y-53436271D01*
X128264814Y-53334814D01*
X128366271Y-53251552D01*
X128402009Y-53222222D01*
X128558534Y-53138557D01*
X128728373Y-53087037D01*
X128794558Y-53080518D01*
X128860740Y-53074000D01*
X128949260Y-53074000D01*
X129015442Y-53080518D01*
X129015442Y-53080518D01*
G37*
G36*
X137426000Y-54876000D02*
G01*
X135624000Y-54876000D01*
X135624000Y-53074000D01*
X137426000Y-53074000D01*
X137426000Y-54876000D01*
X137426000Y-54876000D01*
G37*
G36*
X120281000Y-53606000D02*
G01*
X118479000Y-53606000D01*
X118479000Y-51804000D01*
X120281000Y-51804000D01*
X120281000Y-53606000D01*
X120281000Y-53606000D01*
G37*
G36*
X188226000Y-52971000D02*
G01*
X186424000Y-52971000D01*
X186424000Y-51169000D01*
X188226000Y-51169000D01*
X188226000Y-52971000D01*
X188226000Y-52971000D01*
G37*
G36*
X136635442Y-50540518D02*
G01*
X136701627Y-50547037D01*
X136871466Y-50598557D01*
X137027991Y-50682222D01*
X137063729Y-50711552D01*
X137165186Y-50794814D01*
X137248448Y-50896271D01*
X137277778Y-50932009D01*
X137361443Y-51088534D01*
X137412963Y-51258373D01*
X137430359Y-51435000D01*
X137412963Y-51611627D01*
X137361443Y-51781466D01*
X137277778Y-51937991D01*
X137248448Y-51973729D01*
X137165186Y-52075186D01*
X137063729Y-52158448D01*
X137027991Y-52187778D01*
X136871466Y-52271443D01*
X136701627Y-52322963D01*
X136635443Y-52329481D01*
X136569260Y-52336000D01*
X136480740Y-52336000D01*
X136414558Y-52329482D01*
X136348373Y-52322963D01*
X136178534Y-52271443D01*
X136022009Y-52187778D01*
X135986271Y-52158448D01*
X135884814Y-52075186D01*
X135801552Y-51973729D01*
X135772222Y-51937991D01*
X135688557Y-51781466D01*
X135637037Y-51611627D01*
X135619641Y-51435000D01*
X135637037Y-51258373D01*
X135688557Y-51088534D01*
X135772222Y-50932009D01*
X135801552Y-50896271D01*
X135884814Y-50794814D01*
X135986271Y-50711552D01*
X136022009Y-50682222D01*
X136178534Y-50598557D01*
X136348373Y-50547037D01*
X136414558Y-50540518D01*
X136480740Y-50534000D01*
X136569260Y-50534000D01*
X136635442Y-50540518D01*
X136635442Y-50540518D01*
G37*
G36*
X131555442Y-50540518D02*
G01*
X131621627Y-50547037D01*
X131791466Y-50598557D01*
X131947991Y-50682222D01*
X131983729Y-50711552D01*
X132085186Y-50794814D01*
X132168448Y-50896271D01*
X132197778Y-50932009D01*
X132281443Y-51088534D01*
X132332963Y-51258373D01*
X132350359Y-51435000D01*
X132332963Y-51611627D01*
X132281443Y-51781466D01*
X132197778Y-51937991D01*
X132168448Y-51973729D01*
X132085186Y-52075186D01*
X131983729Y-52158448D01*
X131947991Y-52187778D01*
X131791466Y-52271443D01*
X131621627Y-52322963D01*
X131555443Y-52329481D01*
X131489260Y-52336000D01*
X131400740Y-52336000D01*
X131334558Y-52329482D01*
X131268373Y-52322963D01*
X131098534Y-52271443D01*
X130942009Y-52187778D01*
X130906271Y-52158448D01*
X130804814Y-52075186D01*
X130721552Y-51973729D01*
X130692222Y-51937991D01*
X130608557Y-51781466D01*
X130557037Y-51611627D01*
X130539641Y-51435000D01*
X130557037Y-51258373D01*
X130608557Y-51088534D01*
X130692222Y-50932009D01*
X130721552Y-50896271D01*
X130804814Y-50794814D01*
X130906271Y-50711552D01*
X130942009Y-50682222D01*
X131098534Y-50598557D01*
X131268373Y-50547037D01*
X131334558Y-50540518D01*
X131400740Y-50534000D01*
X131489260Y-50534000D01*
X131555442Y-50540518D01*
X131555442Y-50540518D01*
G37*
G36*
X129015442Y-50540518D02*
G01*
X129081627Y-50547037D01*
X129251466Y-50598557D01*
X129407991Y-50682222D01*
X129443729Y-50711552D01*
X129545186Y-50794814D01*
X129628448Y-50896271D01*
X129657778Y-50932009D01*
X129741443Y-51088534D01*
X129792963Y-51258373D01*
X129810359Y-51435000D01*
X129792963Y-51611627D01*
X129741443Y-51781466D01*
X129657778Y-51937991D01*
X129628448Y-51973729D01*
X129545186Y-52075186D01*
X129443729Y-52158448D01*
X129407991Y-52187778D01*
X129251466Y-52271443D01*
X129081627Y-52322963D01*
X129015443Y-52329481D01*
X128949260Y-52336000D01*
X128860740Y-52336000D01*
X128794558Y-52329482D01*
X128728373Y-52322963D01*
X128558534Y-52271443D01*
X128402009Y-52187778D01*
X128366271Y-52158448D01*
X128264814Y-52075186D01*
X128181552Y-51973729D01*
X128152222Y-51937991D01*
X128068557Y-51781466D01*
X128017037Y-51611627D01*
X127999641Y-51435000D01*
X128017037Y-51258373D01*
X128068557Y-51088534D01*
X128152222Y-50932009D01*
X128181552Y-50896271D01*
X128264814Y-50794814D01*
X128366271Y-50711552D01*
X128402009Y-50682222D01*
X128558534Y-50598557D01*
X128728373Y-50547037D01*
X128794558Y-50540518D01*
X128860740Y-50534000D01*
X128949260Y-50534000D01*
X129015442Y-50540518D01*
X129015442Y-50540518D01*
G37*
G36*
X129015442Y-48000518D02*
G01*
X129081627Y-48007037D01*
X129251466Y-48058557D01*
X129407991Y-48142222D01*
X129443729Y-48171552D01*
X129545186Y-48254814D01*
X129628448Y-48356271D01*
X129657778Y-48392009D01*
X129741443Y-48548534D01*
X129792963Y-48718373D01*
X129810359Y-48895000D01*
X129792963Y-49071627D01*
X129741443Y-49241466D01*
X129657778Y-49397991D01*
X129628448Y-49433729D01*
X129545186Y-49535186D01*
X129443729Y-49618448D01*
X129407991Y-49647778D01*
X129251466Y-49731443D01*
X129081627Y-49782963D01*
X129015443Y-49789481D01*
X128949260Y-49796000D01*
X128860740Y-49796000D01*
X128794557Y-49789481D01*
X128728373Y-49782963D01*
X128558534Y-49731443D01*
X128402009Y-49647778D01*
X128366271Y-49618448D01*
X128264814Y-49535186D01*
X128181552Y-49433729D01*
X128152222Y-49397991D01*
X128068557Y-49241466D01*
X128017037Y-49071627D01*
X127999641Y-48895000D01*
X128017037Y-48718373D01*
X128068557Y-48548534D01*
X128152222Y-48392009D01*
X128181552Y-48356271D01*
X128264814Y-48254814D01*
X128366271Y-48171552D01*
X128402009Y-48142222D01*
X128558534Y-48058557D01*
X128728373Y-48007037D01*
X128794557Y-48000519D01*
X128860740Y-47994000D01*
X128949260Y-47994000D01*
X129015442Y-48000518D01*
X129015442Y-48000518D01*
G37*
G36*
X131555442Y-48000518D02*
G01*
X131621627Y-48007037D01*
X131791466Y-48058557D01*
X131947991Y-48142222D01*
X131983729Y-48171552D01*
X132085186Y-48254814D01*
X132168448Y-48356271D01*
X132197778Y-48392009D01*
X132281443Y-48548534D01*
X132332963Y-48718373D01*
X132350359Y-48895000D01*
X132332963Y-49071627D01*
X132281443Y-49241466D01*
X132197778Y-49397991D01*
X132168448Y-49433729D01*
X132085186Y-49535186D01*
X131983729Y-49618448D01*
X131947991Y-49647778D01*
X131791466Y-49731443D01*
X131621627Y-49782963D01*
X131555443Y-49789481D01*
X131489260Y-49796000D01*
X131400740Y-49796000D01*
X131334557Y-49789481D01*
X131268373Y-49782963D01*
X131098534Y-49731443D01*
X130942009Y-49647778D01*
X130906271Y-49618448D01*
X130804814Y-49535186D01*
X130721552Y-49433729D01*
X130692222Y-49397991D01*
X130608557Y-49241466D01*
X130557037Y-49071627D01*
X130539641Y-48895000D01*
X130557037Y-48718373D01*
X130608557Y-48548534D01*
X130692222Y-48392009D01*
X130721552Y-48356271D01*
X130804814Y-48254814D01*
X130906271Y-48171552D01*
X130942009Y-48142222D01*
X131098534Y-48058557D01*
X131268373Y-48007037D01*
X131334557Y-48000519D01*
X131400740Y-47994000D01*
X131489260Y-47994000D01*
X131555442Y-48000518D01*
X131555442Y-48000518D01*
G37*
G36*
X131555443Y-45460519D02*
G01*
X131621627Y-45467037D01*
X131791466Y-45518557D01*
X131947991Y-45602222D01*
X131983729Y-45631552D01*
X132085186Y-45714814D01*
X132168448Y-45816271D01*
X132197778Y-45852009D01*
X132281443Y-46008534D01*
X132332963Y-46178373D01*
X132350359Y-46355000D01*
X132332963Y-46531627D01*
X132281443Y-46701466D01*
X132197778Y-46857991D01*
X132168448Y-46893729D01*
X132085186Y-46995186D01*
X131983729Y-47078448D01*
X131947991Y-47107778D01*
X131791466Y-47191443D01*
X131621627Y-47242963D01*
X131555442Y-47249482D01*
X131489260Y-47256000D01*
X131400740Y-47256000D01*
X131334558Y-47249482D01*
X131268373Y-47242963D01*
X131098534Y-47191443D01*
X130942009Y-47107778D01*
X130906271Y-47078448D01*
X130804814Y-46995186D01*
X130721552Y-46893729D01*
X130692222Y-46857991D01*
X130608557Y-46701466D01*
X130557037Y-46531627D01*
X130539641Y-46355000D01*
X130557037Y-46178373D01*
X130608557Y-46008534D01*
X130692222Y-45852009D01*
X130721552Y-45816271D01*
X130804814Y-45714814D01*
X130906271Y-45631552D01*
X130942009Y-45602222D01*
X131098534Y-45518557D01*
X131268373Y-45467037D01*
X131334557Y-45460519D01*
X131400740Y-45454000D01*
X131489260Y-45454000D01*
X131555443Y-45460519D01*
X131555443Y-45460519D01*
G37*
G36*
X129015443Y-45460519D02*
G01*
X129081627Y-45467037D01*
X129251466Y-45518557D01*
X129407991Y-45602222D01*
X129443729Y-45631552D01*
X129545186Y-45714814D01*
X129628448Y-45816271D01*
X129657778Y-45852009D01*
X129741443Y-46008534D01*
X129792963Y-46178373D01*
X129810359Y-46355000D01*
X129792963Y-46531627D01*
X129741443Y-46701466D01*
X129657778Y-46857991D01*
X129628448Y-46893729D01*
X129545186Y-46995186D01*
X129443729Y-47078448D01*
X129407991Y-47107778D01*
X129251466Y-47191443D01*
X129081627Y-47242963D01*
X129015442Y-47249482D01*
X128949260Y-47256000D01*
X128860740Y-47256000D01*
X128794558Y-47249482D01*
X128728373Y-47242963D01*
X128558534Y-47191443D01*
X128402009Y-47107778D01*
X128366271Y-47078448D01*
X128264814Y-46995186D01*
X128181552Y-46893729D01*
X128152222Y-46857991D01*
X128068557Y-46701466D01*
X128017037Y-46531627D01*
X127999641Y-46355000D01*
X128017037Y-46178373D01*
X128068557Y-46008534D01*
X128152222Y-45852009D01*
X128181552Y-45816271D01*
X128264814Y-45714814D01*
X128366271Y-45631552D01*
X128402009Y-45602222D01*
X128558534Y-45518557D01*
X128728373Y-45467037D01*
X128794557Y-45460519D01*
X128860740Y-45454000D01*
X128949260Y-45454000D01*
X129015443Y-45460519D01*
X129015443Y-45460519D01*
G37*
G36*
X136635442Y-44190518D02*
G01*
X136701627Y-44197037D01*
X136871466Y-44248557D01*
X137027991Y-44332222D01*
X137063729Y-44361552D01*
X137165186Y-44444814D01*
X137248448Y-44546271D01*
X137277778Y-44582009D01*
X137361443Y-44738534D01*
X137412963Y-44908373D01*
X137430359Y-45085000D01*
X137412963Y-45261627D01*
X137361443Y-45431466D01*
X137277778Y-45587991D01*
X137248448Y-45623729D01*
X137165186Y-45725186D01*
X137063729Y-45808448D01*
X137027991Y-45837778D01*
X136871466Y-45921443D01*
X136701627Y-45972963D01*
X136635442Y-45979482D01*
X136569260Y-45986000D01*
X136480740Y-45986000D01*
X136414558Y-45979482D01*
X136348373Y-45972963D01*
X136178534Y-45921443D01*
X136022009Y-45837778D01*
X135986271Y-45808448D01*
X135884814Y-45725186D01*
X135801552Y-45623729D01*
X135772222Y-45587991D01*
X135688557Y-45431466D01*
X135637037Y-45261627D01*
X135619641Y-45085000D01*
X135637037Y-44908373D01*
X135688557Y-44738534D01*
X135772222Y-44582009D01*
X135801552Y-44546271D01*
X135884814Y-44444814D01*
X135986271Y-44361552D01*
X136022009Y-44332222D01*
X136178534Y-44248557D01*
X136348373Y-44197037D01*
X136414557Y-44190519D01*
X136480740Y-44184000D01*
X136569260Y-44184000D01*
X136635442Y-44190518D01*
X136635442Y-44190518D01*
G37*
G36*
X119490442Y-44190518D02*
G01*
X119556627Y-44197037D01*
X119726466Y-44248557D01*
X119882991Y-44332222D01*
X119918729Y-44361552D01*
X120020186Y-44444814D01*
X120103448Y-44546271D01*
X120132778Y-44582009D01*
X120216443Y-44738534D01*
X120267963Y-44908373D01*
X120285359Y-45085000D01*
X120267963Y-45261627D01*
X120216443Y-45431466D01*
X120132778Y-45587991D01*
X120103448Y-45623729D01*
X120020186Y-45725186D01*
X119918729Y-45808448D01*
X119882991Y-45837778D01*
X119726466Y-45921443D01*
X119556627Y-45972963D01*
X119490442Y-45979482D01*
X119424260Y-45986000D01*
X119335740Y-45986000D01*
X119269558Y-45979482D01*
X119203373Y-45972963D01*
X119033534Y-45921443D01*
X118877009Y-45837778D01*
X118841271Y-45808448D01*
X118739814Y-45725186D01*
X118656552Y-45623729D01*
X118627222Y-45587991D01*
X118543557Y-45431466D01*
X118492037Y-45261627D01*
X118474641Y-45085000D01*
X118492037Y-44908373D01*
X118543557Y-44738534D01*
X118627222Y-44582009D01*
X118656552Y-44546271D01*
X118739814Y-44444814D01*
X118841271Y-44361552D01*
X118877009Y-44332222D01*
X119033534Y-44248557D01*
X119203373Y-44197037D01*
X119269557Y-44190519D01*
X119335740Y-44184000D01*
X119424260Y-44184000D01*
X119490442Y-44190518D01*
X119490442Y-44190518D01*
G37*
G36*
X129806000Y-44716000D02*
G01*
X128004000Y-44716000D01*
X128004000Y-42914000D01*
X129806000Y-42914000D01*
X129806000Y-44716000D01*
X129806000Y-44716000D01*
G37*
G36*
X131555443Y-42920519D02*
G01*
X131621627Y-42927037D01*
X131791466Y-42978557D01*
X131947991Y-43062222D01*
X131983729Y-43091552D01*
X132085186Y-43174814D01*
X132168448Y-43276271D01*
X132197778Y-43312009D01*
X132281443Y-43468534D01*
X132332963Y-43638373D01*
X132350359Y-43815000D01*
X132332963Y-43991627D01*
X132281443Y-44161466D01*
X132197778Y-44317991D01*
X132168448Y-44353729D01*
X132085186Y-44455186D01*
X131983729Y-44538448D01*
X131947991Y-44567778D01*
X131791466Y-44651443D01*
X131621627Y-44702963D01*
X131555443Y-44709481D01*
X131489260Y-44716000D01*
X131400740Y-44716000D01*
X131334557Y-44709481D01*
X131268373Y-44702963D01*
X131098534Y-44651443D01*
X130942009Y-44567778D01*
X130906271Y-44538448D01*
X130804814Y-44455186D01*
X130721552Y-44353729D01*
X130692222Y-44317991D01*
X130608557Y-44161466D01*
X130557037Y-43991627D01*
X130539641Y-43815000D01*
X130557037Y-43638373D01*
X130608557Y-43468534D01*
X130692222Y-43312009D01*
X130721552Y-43276271D01*
X130804814Y-43174814D01*
X130906271Y-43091552D01*
X130942009Y-43062222D01*
X131098534Y-42978557D01*
X131268373Y-42927037D01*
X131334557Y-42920519D01*
X131400740Y-42914000D01*
X131489260Y-42914000D01*
X131555443Y-42920519D01*
X131555443Y-42920519D01*
G37*
G36*
X187435442Y-42285518D02*
G01*
X187501627Y-42292037D01*
X187671466Y-42343557D01*
X187827991Y-42427222D01*
X187863729Y-42456552D01*
X187965186Y-42539814D01*
X188048448Y-42641271D01*
X188077778Y-42677009D01*
X188161443Y-42833534D01*
X188212963Y-43003373D01*
X188230359Y-43180000D01*
X188212963Y-43356627D01*
X188161443Y-43526466D01*
X188077778Y-43682991D01*
X188048448Y-43718729D01*
X187965186Y-43820186D01*
X187863729Y-43903448D01*
X187827991Y-43932778D01*
X187671466Y-44016443D01*
X187501627Y-44067963D01*
X187435443Y-44074481D01*
X187369260Y-44081000D01*
X187280740Y-44081000D01*
X187214557Y-44074481D01*
X187148373Y-44067963D01*
X186978534Y-44016443D01*
X186822009Y-43932778D01*
X186786271Y-43903448D01*
X186684814Y-43820186D01*
X186601552Y-43718729D01*
X186572222Y-43682991D01*
X186488557Y-43526466D01*
X186437037Y-43356627D01*
X186419641Y-43180000D01*
X186437037Y-43003373D01*
X186488557Y-42833534D01*
X186572222Y-42677009D01*
X186601552Y-42641271D01*
X186684814Y-42539814D01*
X186786271Y-42456552D01*
X186822009Y-42427222D01*
X186978534Y-42343557D01*
X187148373Y-42292037D01*
X187214557Y-42285519D01*
X187280740Y-42279000D01*
X187369260Y-42279000D01*
X187435442Y-42285518D01*
X187435442Y-42285518D01*
G37*
G36*
X119490443Y-41650519D02*
G01*
X119556627Y-41657037D01*
X119726466Y-41708557D01*
X119882991Y-41792222D01*
X119918729Y-41821552D01*
X120020186Y-41904814D01*
X120103448Y-42006271D01*
X120132778Y-42042009D01*
X120216443Y-42198534D01*
X120267963Y-42368373D01*
X120285359Y-42545000D01*
X120267963Y-42721627D01*
X120216443Y-42891466D01*
X120132778Y-43047991D01*
X120103448Y-43083729D01*
X120020186Y-43185186D01*
X119918729Y-43268448D01*
X119882991Y-43297778D01*
X119726466Y-43381443D01*
X119556627Y-43432963D01*
X119490442Y-43439482D01*
X119424260Y-43446000D01*
X119335740Y-43446000D01*
X119269558Y-43439482D01*
X119203373Y-43432963D01*
X119033534Y-43381443D01*
X118877009Y-43297778D01*
X118841271Y-43268448D01*
X118739814Y-43185186D01*
X118656552Y-43083729D01*
X118627222Y-43047991D01*
X118543557Y-42891466D01*
X118492037Y-42721627D01*
X118474641Y-42545000D01*
X118492037Y-42368373D01*
X118543557Y-42198534D01*
X118627222Y-42042009D01*
X118656552Y-42006271D01*
X118739814Y-41904814D01*
X118841271Y-41821552D01*
X118877009Y-41792222D01*
X119033534Y-41708557D01*
X119203373Y-41657037D01*
X119269557Y-41650519D01*
X119335740Y-41644000D01*
X119424260Y-41644000D01*
X119490443Y-41650519D01*
X119490443Y-41650519D01*
G37*
G36*
X137426000Y-43446000D02*
G01*
X135624000Y-43446000D01*
X135624000Y-41644000D01*
X137426000Y-41644000D01*
X137426000Y-43446000D01*
X137426000Y-43446000D01*
G37*
G36*
X187435442Y-39745518D02*
G01*
X187501627Y-39752037D01*
X187671466Y-39803557D01*
X187671468Y-39803558D01*
X187749728Y-39845389D01*
X187827991Y-39887222D01*
X187863729Y-39916552D01*
X187965186Y-39999814D01*
X188048448Y-40101271D01*
X188077778Y-40137009D01*
X188161443Y-40293534D01*
X188212963Y-40463373D01*
X188230359Y-40640000D01*
X188212963Y-40816627D01*
X188161443Y-40986466D01*
X188077778Y-41142991D01*
X188048448Y-41178729D01*
X187965186Y-41280186D01*
X187863729Y-41363448D01*
X187827991Y-41392778D01*
X187671466Y-41476443D01*
X187501627Y-41527963D01*
X187435442Y-41534482D01*
X187369260Y-41541000D01*
X187280740Y-41541000D01*
X187214558Y-41534482D01*
X187148373Y-41527963D01*
X186978534Y-41476443D01*
X186822009Y-41392778D01*
X186786271Y-41363448D01*
X186684814Y-41280186D01*
X186601552Y-41178729D01*
X186572222Y-41142991D01*
X186488557Y-40986466D01*
X186437037Y-40816627D01*
X186419641Y-40640000D01*
X186437037Y-40463373D01*
X186488557Y-40293534D01*
X186572222Y-40137009D01*
X186601552Y-40101271D01*
X186684814Y-39999814D01*
X186786271Y-39916552D01*
X186822009Y-39887222D01*
X186900271Y-39845390D01*
X186978532Y-39803558D01*
X186978534Y-39803557D01*
X187148373Y-39752037D01*
X187214557Y-39745519D01*
X187280740Y-39739000D01*
X187369260Y-39739000D01*
X187435442Y-39745518D01*
X187435442Y-39745518D01*
G37*
G36*
X119490442Y-39110518D02*
G01*
X119556627Y-39117037D01*
X119726466Y-39168557D01*
X119882991Y-39252222D01*
X119918729Y-39281552D01*
X120020186Y-39364814D01*
X120103448Y-39466271D01*
X120132778Y-39502009D01*
X120216443Y-39658534D01*
X120267963Y-39828373D01*
X120285359Y-40005000D01*
X120267963Y-40181627D01*
X120216443Y-40351466D01*
X120132778Y-40507991D01*
X120103448Y-40543729D01*
X120020186Y-40645186D01*
X119918729Y-40728448D01*
X119882991Y-40757778D01*
X119726466Y-40841443D01*
X119556627Y-40892963D01*
X119490442Y-40899482D01*
X119424260Y-40906000D01*
X119335740Y-40906000D01*
X119269558Y-40899482D01*
X119203373Y-40892963D01*
X119033534Y-40841443D01*
X118877009Y-40757778D01*
X118841271Y-40728448D01*
X118739814Y-40645186D01*
X118656552Y-40543729D01*
X118627222Y-40507991D01*
X118543557Y-40351466D01*
X118492037Y-40181627D01*
X118474641Y-40005000D01*
X118492037Y-39828373D01*
X118543557Y-39658534D01*
X118627222Y-39502009D01*
X118656552Y-39466271D01*
X118739814Y-39364814D01*
X118841271Y-39281552D01*
X118877009Y-39252222D01*
X119033534Y-39168557D01*
X119203373Y-39117037D01*
X119269558Y-39110518D01*
X119335740Y-39104000D01*
X119424260Y-39104000D01*
X119490442Y-39110518D01*
X119490442Y-39110518D01*
G37*
G36*
X108620272Y-39799703D02*
G01*
X108659130Y-39815799D01*
X108694098Y-39839164D01*
X108723836Y-39868902D01*
X108747201Y-39903870D01*
X108763297Y-39942728D01*
X108771500Y-39983970D01*
X108771500Y-40026030D01*
X108763297Y-40067272D01*
X108747201Y-40106130D01*
X108723836Y-40141098D01*
X108694098Y-40170836D01*
X108659130Y-40194201D01*
X108620272Y-40210297D01*
X108579030Y-40218500D01*
X108536970Y-40218500D01*
X108495728Y-40210297D01*
X108456870Y-40194201D01*
X108421902Y-40170836D01*
X108392164Y-40141098D01*
X108368799Y-40106130D01*
X108352703Y-40067272D01*
X108344500Y-40026030D01*
X108344500Y-39983970D01*
X108352703Y-39942728D01*
X108368799Y-39903870D01*
X108392164Y-39868902D01*
X108421902Y-39839164D01*
X108456870Y-39815799D01*
X108495728Y-39799703D01*
X108536970Y-39791500D01*
X108579030Y-39791500D01*
X108620272Y-39799703D01*
X108620272Y-39799703D01*
G37*
G36*
X187435442Y-37205518D02*
G01*
X187501627Y-37212037D01*
X187671466Y-37263557D01*
X187827991Y-37347222D01*
X187863729Y-37376552D01*
X187965186Y-37459814D01*
X188048448Y-37561271D01*
X188077778Y-37597009D01*
X188161443Y-37753534D01*
X188212963Y-37923373D01*
X188230359Y-38100000D01*
X188212963Y-38276627D01*
X188161443Y-38446466D01*
X188077778Y-38602991D01*
X188048448Y-38638729D01*
X187965186Y-38740186D01*
X187863729Y-38823448D01*
X187827991Y-38852778D01*
X187671466Y-38936443D01*
X187501627Y-38987963D01*
X187435443Y-38994481D01*
X187369260Y-39001000D01*
X187280740Y-39001000D01*
X187214557Y-38994481D01*
X187148373Y-38987963D01*
X186978534Y-38936443D01*
X186822009Y-38852778D01*
X186786271Y-38823448D01*
X186684814Y-38740186D01*
X186601552Y-38638729D01*
X186572222Y-38602991D01*
X186488557Y-38446466D01*
X186437037Y-38276627D01*
X186419641Y-38100000D01*
X186437037Y-37923373D01*
X186488557Y-37753534D01*
X186572222Y-37597009D01*
X186601552Y-37561271D01*
X186684814Y-37459814D01*
X186786271Y-37376552D01*
X186822009Y-37347222D01*
X186978534Y-37263557D01*
X187148373Y-37212037D01*
X187214558Y-37205518D01*
X187280740Y-37199000D01*
X187369260Y-37199000D01*
X187435442Y-37205518D01*
X187435442Y-37205518D01*
G37*
G36*
X119490443Y-36570519D02*
G01*
X119556627Y-36577037D01*
X119726466Y-36628557D01*
X119882991Y-36712222D01*
X119918729Y-36741552D01*
X120020186Y-36824814D01*
X120103448Y-36926271D01*
X120132778Y-36962009D01*
X120216443Y-37118534D01*
X120267963Y-37288373D01*
X120285359Y-37465000D01*
X120267963Y-37641627D01*
X120216443Y-37811466D01*
X120132778Y-37967991D01*
X120103448Y-38003729D01*
X120020186Y-38105186D01*
X119918729Y-38188448D01*
X119882991Y-38217778D01*
X119726466Y-38301443D01*
X119556627Y-38352963D01*
X119490442Y-38359482D01*
X119424260Y-38366000D01*
X119335740Y-38366000D01*
X119269558Y-38359482D01*
X119203373Y-38352963D01*
X119033534Y-38301443D01*
X118877009Y-38217778D01*
X118841271Y-38188448D01*
X118739814Y-38105186D01*
X118656552Y-38003729D01*
X118627222Y-37967991D01*
X118543557Y-37811466D01*
X118492037Y-37641627D01*
X118474641Y-37465000D01*
X118492037Y-37288373D01*
X118543557Y-37118534D01*
X118627222Y-36962009D01*
X118656552Y-36926271D01*
X118739814Y-36824814D01*
X118841271Y-36741552D01*
X118877009Y-36712222D01*
X119033534Y-36628557D01*
X119203373Y-36577037D01*
X119269557Y-36570519D01*
X119335740Y-36564000D01*
X119424260Y-36564000D01*
X119490443Y-36570519D01*
X119490443Y-36570519D01*
G37*
G36*
X134266000Y-37746000D02*
G01*
X131164000Y-37746000D01*
X131164000Y-34644000D01*
X134266000Y-34644000D01*
X134266000Y-37746000D01*
X134266000Y-37746000D01*
G37*
G36*
X127937585Y-34673802D02*
G01*
X128087410Y-34703604D01*
X128369674Y-34820521D01*
X128623705Y-34990259D01*
X128839741Y-35206295D01*
X129009479Y-35460326D01*
X129126396Y-35742590D01*
X129186000Y-36042240D01*
X129186000Y-36347760D01*
X129126396Y-36647410D01*
X129009479Y-36929674D01*
X128839741Y-37183705D01*
X128623705Y-37399741D01*
X128369674Y-37569479D01*
X128087410Y-37686396D01*
X127937585Y-37716198D01*
X127787761Y-37746000D01*
X127482239Y-37746000D01*
X127332415Y-37716198D01*
X127182590Y-37686396D01*
X126900326Y-37569479D01*
X126646295Y-37399741D01*
X126430259Y-37183705D01*
X126260521Y-36929674D01*
X126143604Y-36647410D01*
X126084000Y-36347760D01*
X126084000Y-36042240D01*
X126143604Y-35742590D01*
X126260521Y-35460326D01*
X126430259Y-35206295D01*
X126646295Y-34990259D01*
X126900326Y-34820521D01*
X127182590Y-34703604D01*
X127332415Y-34673802D01*
X127482239Y-34644000D01*
X127787761Y-34644000D01*
X127937585Y-34673802D01*
X127937585Y-34673802D01*
G37*
G36*
X150126000Y-37731000D02*
G01*
X148324000Y-37731000D01*
X148324000Y-35929000D01*
X150126000Y-35929000D01*
X150126000Y-37731000D01*
X150126000Y-37731000D01*
G37*
G36*
X146795442Y-35935518D02*
G01*
X146861627Y-35942037D01*
X147031466Y-35993557D01*
X147187991Y-36077222D01*
X147223729Y-36106552D01*
X147325186Y-36189814D01*
X147408448Y-36291271D01*
X147437778Y-36327009D01*
X147521443Y-36483534D01*
X147572963Y-36653373D01*
X147590359Y-36830000D01*
X147572963Y-37006627D01*
X147521443Y-37176466D01*
X147437778Y-37332991D01*
X147408448Y-37368729D01*
X147325186Y-37470186D01*
X147223729Y-37553448D01*
X147187991Y-37582778D01*
X147031466Y-37666443D01*
X146861627Y-37717963D01*
X146795443Y-37724481D01*
X146729260Y-37731000D01*
X146640740Y-37731000D01*
X146574557Y-37724481D01*
X146508373Y-37717963D01*
X146338534Y-37666443D01*
X146182009Y-37582778D01*
X146146271Y-37553448D01*
X146044814Y-37470186D01*
X145961552Y-37368729D01*
X145932222Y-37332991D01*
X145848557Y-37176466D01*
X145797037Y-37006627D01*
X145779641Y-36830000D01*
X145797037Y-36653373D01*
X145848557Y-36483534D01*
X145932222Y-36327009D01*
X145961552Y-36291271D01*
X146044814Y-36189814D01*
X146146271Y-36106552D01*
X146182009Y-36077222D01*
X146338534Y-35993557D01*
X146508373Y-35942037D01*
X146574558Y-35935518D01*
X146640740Y-35929000D01*
X146729260Y-35929000D01*
X146795442Y-35935518D01*
X146795442Y-35935518D01*
G37*
G36*
X188226000Y-36461000D02*
G01*
X186424000Y-36461000D01*
X186424000Y-34659000D01*
X188226000Y-34659000D01*
X188226000Y-36461000D01*
X188226000Y-36461000D01*
G37*
G36*
X120281000Y-35826000D02*
G01*
X118479000Y-35826000D01*
X118479000Y-34024000D01*
X120281000Y-34024000D01*
X120281000Y-35826000D01*
X120281000Y-35826000D01*
G37*
M02*
