G04 #@! TF.GenerationSoftware,KiCad,Pcbnew,(5.1.4-0-10_14)*
G04 #@! TF.CreationDate,2019-11-07T22:18:18+09:00*
G04 #@! TF.ProjectId,underwater,756e6465-7277-4617-9465-722e6b696361,rev?*
G04 #@! TF.SameCoordinates,Original*
G04 #@! TF.FileFunction,Legend,Top*
G04 #@! TF.FilePolarity,Positive*
%FSLAX46Y46*%
G04 Gerber Fmt 4.6, Leading zero omitted, Abs format (unit mm)*
G04 Created by KiCad (PCBNEW (5.1.4-0-10_14)) date 2019-11-07 22:18:18*
%MOMM*%
%LPD*%
G04 APERTURE LIST*
%ADD10C,0.010000*%
%ADD11C,0.120000*%
%ADD12C,0.100000*%
%ADD13C,0.150000*%
G04 APERTURE END LIST*
D10*
G36*
X149336535Y-81755172D02*
G01*
X149449117Y-82352363D01*
X149864531Y-82523610D01*
X150279944Y-82694857D01*
X150778302Y-82355978D01*
X150917868Y-82261622D01*
X151044028Y-82177375D01*
X151150895Y-82107083D01*
X151232582Y-82054592D01*
X151283201Y-82023749D01*
X151296986Y-82017098D01*
X151321820Y-82034203D01*
X151374888Y-82081489D01*
X151450240Y-82152917D01*
X151541929Y-82242445D01*
X151644007Y-82344034D01*
X151750526Y-82451643D01*
X151855536Y-82559232D01*
X151953091Y-82660760D01*
X152037242Y-82750186D01*
X152102040Y-82821471D01*
X152141538Y-82868573D01*
X152150980Y-82884337D01*
X152137391Y-82913398D01*
X152099293Y-82977066D01*
X152040694Y-83069112D01*
X151965597Y-83183309D01*
X151878009Y-83313429D01*
X151827254Y-83387646D01*
X151734745Y-83523167D01*
X151652540Y-83645461D01*
X151584630Y-83748440D01*
X151535000Y-83826018D01*
X151507640Y-83872106D01*
X151503529Y-83881792D01*
X151512849Y-83909319D01*
X151538254Y-83973473D01*
X151575911Y-84065235D01*
X151621986Y-84175584D01*
X151672646Y-84295500D01*
X151724059Y-84415964D01*
X151772389Y-84527954D01*
X151813806Y-84622452D01*
X151844474Y-84690437D01*
X151860562Y-84722888D01*
X151861511Y-84724165D01*
X151886772Y-84730362D01*
X151954046Y-84744185D01*
X152056360Y-84764277D01*
X152186741Y-84789279D01*
X152338216Y-84817831D01*
X152426594Y-84834296D01*
X152588452Y-84865114D01*
X152734649Y-84894439D01*
X152857787Y-84920666D01*
X152950469Y-84942191D01*
X153005301Y-84957410D01*
X153016323Y-84962238D01*
X153027119Y-84994919D01*
X153035829Y-85068730D01*
X153042460Y-85175037D01*
X153047018Y-85305212D01*
X153049509Y-85450621D01*
X153049938Y-85602635D01*
X153048311Y-85752622D01*
X153044635Y-85891951D01*
X153038915Y-86011990D01*
X153031158Y-86104110D01*
X153021368Y-86159677D01*
X153015496Y-86171245D01*
X152980399Y-86185110D01*
X152906028Y-86204933D01*
X152802223Y-86228384D01*
X152678819Y-86253136D01*
X152635741Y-86261143D01*
X152428047Y-86299186D01*
X152263984Y-86329824D01*
X152138130Y-86354274D01*
X152045065Y-86373754D01*
X151979367Y-86389481D01*
X151935617Y-86402673D01*
X151908392Y-86414549D01*
X151892272Y-86426325D01*
X151890017Y-86428653D01*
X151867503Y-86466145D01*
X151833158Y-86539110D01*
X151790411Y-86638612D01*
X151742692Y-86755718D01*
X151693430Y-86881493D01*
X151646055Y-87007002D01*
X151603995Y-87123310D01*
X151570680Y-87221484D01*
X151549541Y-87292588D01*
X151544005Y-87327687D01*
X151544466Y-87328917D01*
X151563223Y-87357606D01*
X151605776Y-87420730D01*
X151667653Y-87511718D01*
X151744382Y-87624000D01*
X151831491Y-87751005D01*
X151856299Y-87787098D01*
X151944753Y-87917948D01*
X152022588Y-88037336D01*
X152085566Y-88138407D01*
X152129445Y-88214304D01*
X152149985Y-88258172D01*
X152150980Y-88263562D01*
X152133722Y-88291889D01*
X152086036Y-88348006D01*
X152014050Y-88425882D01*
X151923897Y-88519485D01*
X151821705Y-88622786D01*
X151713606Y-88729751D01*
X151605728Y-88834351D01*
X151504204Y-88930554D01*
X151415162Y-89012329D01*
X151344733Y-89073645D01*
X151299047Y-89108471D01*
X151286409Y-89114157D01*
X151256991Y-89100765D01*
X151196761Y-89064644D01*
X151115530Y-89011881D01*
X151053030Y-88969412D01*
X150939785Y-88891485D01*
X150805674Y-88799729D01*
X150671155Y-88708120D01*
X150598833Y-88659091D01*
X150354038Y-88493515D01*
X150148551Y-88604620D01*
X150054936Y-88653293D01*
X149975330Y-88691126D01*
X149921467Y-88712703D01*
X149907757Y-88715706D01*
X149891270Y-88693538D01*
X149858745Y-88630894D01*
X149812609Y-88533554D01*
X149755290Y-88407294D01*
X149689216Y-88257895D01*
X149616815Y-88091133D01*
X149540516Y-87912787D01*
X149462746Y-87728636D01*
X149385934Y-87544457D01*
X149312506Y-87366030D01*
X149244892Y-87199132D01*
X149185520Y-87049542D01*
X149136816Y-86923038D01*
X149101210Y-86825399D01*
X149081130Y-86762402D01*
X149077900Y-86740766D01*
X149103496Y-86713169D01*
X149159539Y-86668370D01*
X149234311Y-86615679D01*
X149240587Y-86611510D01*
X149433845Y-86456814D01*
X149589674Y-86276336D01*
X149706724Y-86075847D01*
X149783645Y-85861119D01*
X149819086Y-85637922D01*
X149811697Y-85412026D01*
X149760127Y-85189204D01*
X149663026Y-84975224D01*
X149634458Y-84928409D01*
X149485868Y-84739363D01*
X149310327Y-84587557D01*
X149113910Y-84473779D01*
X148902693Y-84398820D01*
X148682753Y-84363467D01*
X148460163Y-84368512D01*
X148241001Y-84414744D01*
X148031342Y-84502951D01*
X147837261Y-84633924D01*
X147777226Y-84687082D01*
X147624435Y-84853484D01*
X147513097Y-85028657D01*
X147436723Y-85225011D01*
X147394187Y-85419462D01*
X147383686Y-85638087D01*
X147418701Y-85857797D01*
X147495673Y-86071165D01*
X147611047Y-86270767D01*
X147761266Y-86449174D01*
X147942773Y-86598962D01*
X147966627Y-86614751D01*
X148042201Y-86666457D01*
X148099651Y-86711257D01*
X148127117Y-86739862D01*
X148127517Y-86740766D01*
X148121620Y-86771709D01*
X148098245Y-86841936D01*
X148059821Y-86945670D01*
X148008777Y-87077135D01*
X147947542Y-87230552D01*
X147878544Y-87400146D01*
X147804214Y-87580138D01*
X147726978Y-87764753D01*
X147649268Y-87948213D01*
X147573511Y-88124741D01*
X147502137Y-88288559D01*
X147437574Y-88433892D01*
X147382252Y-88554962D01*
X147338600Y-88645992D01*
X147309046Y-88701205D01*
X147297144Y-88715706D01*
X147260777Y-88704414D01*
X147192730Y-88674130D01*
X147104737Y-88630265D01*
X147056351Y-88604620D01*
X146850863Y-88493515D01*
X146606068Y-88659091D01*
X146481106Y-88743915D01*
X146344295Y-88837261D01*
X146216089Y-88925153D01*
X146151871Y-88969412D01*
X146061551Y-89030063D01*
X145985071Y-89078126D01*
X145932407Y-89107515D01*
X145915302Y-89113727D01*
X145890405Y-89096968D01*
X145835305Y-89050181D01*
X145755343Y-88978225D01*
X145655861Y-88885957D01*
X145542200Y-88778235D01*
X145470315Y-88709071D01*
X145344551Y-88585502D01*
X145235863Y-88474979D01*
X145148645Y-88382230D01*
X145087289Y-88311982D01*
X145056191Y-88268965D01*
X145053208Y-88260235D01*
X145067053Y-88227029D01*
X145105312Y-88159887D01*
X145163742Y-88065608D01*
X145238097Y-87950990D01*
X145324135Y-87822828D01*
X145348603Y-87787098D01*
X145437755Y-87657234D01*
X145517738Y-87540314D01*
X145584080Y-87442907D01*
X145632311Y-87371584D01*
X145657957Y-87332915D01*
X145660435Y-87328917D01*
X145656729Y-87298100D01*
X145637061Y-87230344D01*
X145604860Y-87134584D01*
X145563555Y-87019754D01*
X145516575Y-86894789D01*
X145467349Y-86768624D01*
X145419308Y-86650193D01*
X145375881Y-86548430D01*
X145340496Y-86472271D01*
X145316584Y-86430649D01*
X145314884Y-86428653D01*
X145300262Y-86416758D01*
X145275565Y-86404995D01*
X145235372Y-86392146D01*
X145174263Y-86376994D01*
X145086817Y-86358321D01*
X144967612Y-86334910D01*
X144811227Y-86305542D01*
X144612243Y-86269000D01*
X144569160Y-86261143D01*
X144441471Y-86236472D01*
X144330153Y-86212338D01*
X144245045Y-86191069D01*
X144195983Y-86174993D01*
X144189405Y-86171245D01*
X144178564Y-86138018D01*
X144169753Y-86063766D01*
X144162976Y-85957121D01*
X144158240Y-85826712D01*
X144155550Y-85681172D01*
X144154913Y-85529131D01*
X144156334Y-85379221D01*
X144159820Y-85240073D01*
X144165376Y-85120317D01*
X144173008Y-85028586D01*
X144182722Y-84973511D01*
X144188578Y-84962238D01*
X144221180Y-84950868D01*
X144295418Y-84932369D01*
X144403896Y-84908347D01*
X144539217Y-84880407D01*
X144693985Y-84850153D01*
X144778308Y-84834296D01*
X144938296Y-84804389D01*
X145080967Y-84777295D01*
X145199348Y-84754376D01*
X145286465Y-84736988D01*
X145335345Y-84726492D01*
X145343390Y-84724165D01*
X145356987Y-84697931D01*
X145385729Y-84634740D01*
X145425785Y-84543622D01*
X145473324Y-84433602D01*
X145524515Y-84313710D01*
X145575526Y-84192972D01*
X145622526Y-84080416D01*
X145661684Y-83985071D01*
X145689169Y-83915962D01*
X145701149Y-83882119D01*
X145701372Y-83880640D01*
X145687791Y-83853942D01*
X145649715Y-83792505D01*
X145591147Y-83702434D01*
X145516088Y-83589835D01*
X145428540Y-83460815D01*
X145377647Y-83386706D01*
X145284909Y-83250822D01*
X145202541Y-83127454D01*
X145134561Y-83022842D01*
X145084988Y-82943228D01*
X145057842Y-82894852D01*
X145053921Y-82884007D01*
X145070775Y-82858765D01*
X145117368Y-82804869D01*
X145187749Y-82728358D01*
X145275965Y-82635268D01*
X145376065Y-82531640D01*
X145482098Y-82423509D01*
X145588111Y-82316915D01*
X145688152Y-82217895D01*
X145776270Y-82132487D01*
X145846513Y-82066730D01*
X145892928Y-82026661D01*
X145908456Y-82017098D01*
X145933739Y-82030545D01*
X145994211Y-82068320D01*
X146083992Y-82126580D01*
X146197203Y-82201479D01*
X146327964Y-82289170D01*
X146426600Y-82355978D01*
X146924957Y-82694857D01*
X147340371Y-82523610D01*
X147755784Y-82352363D01*
X147868366Y-81755172D01*
X147980949Y-81157980D01*
X149223952Y-81157980D01*
X149336535Y-81755172D01*
X149336535Y-81755172D01*
G37*
X149336535Y-81755172D02*
X149449117Y-82352363D01*
X149864531Y-82523610D01*
X150279944Y-82694857D01*
X150778302Y-82355978D01*
X150917868Y-82261622D01*
X151044028Y-82177375D01*
X151150895Y-82107083D01*
X151232582Y-82054592D01*
X151283201Y-82023749D01*
X151296986Y-82017098D01*
X151321820Y-82034203D01*
X151374888Y-82081489D01*
X151450240Y-82152917D01*
X151541929Y-82242445D01*
X151644007Y-82344034D01*
X151750526Y-82451643D01*
X151855536Y-82559232D01*
X151953091Y-82660760D01*
X152037242Y-82750186D01*
X152102040Y-82821471D01*
X152141538Y-82868573D01*
X152150980Y-82884337D01*
X152137391Y-82913398D01*
X152099293Y-82977066D01*
X152040694Y-83069112D01*
X151965597Y-83183309D01*
X151878009Y-83313429D01*
X151827254Y-83387646D01*
X151734745Y-83523167D01*
X151652540Y-83645461D01*
X151584630Y-83748440D01*
X151535000Y-83826018D01*
X151507640Y-83872106D01*
X151503529Y-83881792D01*
X151512849Y-83909319D01*
X151538254Y-83973473D01*
X151575911Y-84065235D01*
X151621986Y-84175584D01*
X151672646Y-84295500D01*
X151724059Y-84415964D01*
X151772389Y-84527954D01*
X151813806Y-84622452D01*
X151844474Y-84690437D01*
X151860562Y-84722888D01*
X151861511Y-84724165D01*
X151886772Y-84730362D01*
X151954046Y-84744185D01*
X152056360Y-84764277D01*
X152186741Y-84789279D01*
X152338216Y-84817831D01*
X152426594Y-84834296D01*
X152588452Y-84865114D01*
X152734649Y-84894439D01*
X152857787Y-84920666D01*
X152950469Y-84942191D01*
X153005301Y-84957410D01*
X153016323Y-84962238D01*
X153027119Y-84994919D01*
X153035829Y-85068730D01*
X153042460Y-85175037D01*
X153047018Y-85305212D01*
X153049509Y-85450621D01*
X153049938Y-85602635D01*
X153048311Y-85752622D01*
X153044635Y-85891951D01*
X153038915Y-86011990D01*
X153031158Y-86104110D01*
X153021368Y-86159677D01*
X153015496Y-86171245D01*
X152980399Y-86185110D01*
X152906028Y-86204933D01*
X152802223Y-86228384D01*
X152678819Y-86253136D01*
X152635741Y-86261143D01*
X152428047Y-86299186D01*
X152263984Y-86329824D01*
X152138130Y-86354274D01*
X152045065Y-86373754D01*
X151979367Y-86389481D01*
X151935617Y-86402673D01*
X151908392Y-86414549D01*
X151892272Y-86426325D01*
X151890017Y-86428653D01*
X151867503Y-86466145D01*
X151833158Y-86539110D01*
X151790411Y-86638612D01*
X151742692Y-86755718D01*
X151693430Y-86881493D01*
X151646055Y-87007002D01*
X151603995Y-87123310D01*
X151570680Y-87221484D01*
X151549541Y-87292588D01*
X151544005Y-87327687D01*
X151544466Y-87328917D01*
X151563223Y-87357606D01*
X151605776Y-87420730D01*
X151667653Y-87511718D01*
X151744382Y-87624000D01*
X151831491Y-87751005D01*
X151856299Y-87787098D01*
X151944753Y-87917948D01*
X152022588Y-88037336D01*
X152085566Y-88138407D01*
X152129445Y-88214304D01*
X152149985Y-88258172D01*
X152150980Y-88263562D01*
X152133722Y-88291889D01*
X152086036Y-88348006D01*
X152014050Y-88425882D01*
X151923897Y-88519485D01*
X151821705Y-88622786D01*
X151713606Y-88729751D01*
X151605728Y-88834351D01*
X151504204Y-88930554D01*
X151415162Y-89012329D01*
X151344733Y-89073645D01*
X151299047Y-89108471D01*
X151286409Y-89114157D01*
X151256991Y-89100765D01*
X151196761Y-89064644D01*
X151115530Y-89011881D01*
X151053030Y-88969412D01*
X150939785Y-88891485D01*
X150805674Y-88799729D01*
X150671155Y-88708120D01*
X150598833Y-88659091D01*
X150354038Y-88493515D01*
X150148551Y-88604620D01*
X150054936Y-88653293D01*
X149975330Y-88691126D01*
X149921467Y-88712703D01*
X149907757Y-88715706D01*
X149891270Y-88693538D01*
X149858745Y-88630894D01*
X149812609Y-88533554D01*
X149755290Y-88407294D01*
X149689216Y-88257895D01*
X149616815Y-88091133D01*
X149540516Y-87912787D01*
X149462746Y-87728636D01*
X149385934Y-87544457D01*
X149312506Y-87366030D01*
X149244892Y-87199132D01*
X149185520Y-87049542D01*
X149136816Y-86923038D01*
X149101210Y-86825399D01*
X149081130Y-86762402D01*
X149077900Y-86740766D01*
X149103496Y-86713169D01*
X149159539Y-86668370D01*
X149234311Y-86615679D01*
X149240587Y-86611510D01*
X149433845Y-86456814D01*
X149589674Y-86276336D01*
X149706724Y-86075847D01*
X149783645Y-85861119D01*
X149819086Y-85637922D01*
X149811697Y-85412026D01*
X149760127Y-85189204D01*
X149663026Y-84975224D01*
X149634458Y-84928409D01*
X149485868Y-84739363D01*
X149310327Y-84587557D01*
X149113910Y-84473779D01*
X148902693Y-84398820D01*
X148682753Y-84363467D01*
X148460163Y-84368512D01*
X148241001Y-84414744D01*
X148031342Y-84502951D01*
X147837261Y-84633924D01*
X147777226Y-84687082D01*
X147624435Y-84853484D01*
X147513097Y-85028657D01*
X147436723Y-85225011D01*
X147394187Y-85419462D01*
X147383686Y-85638087D01*
X147418701Y-85857797D01*
X147495673Y-86071165D01*
X147611047Y-86270767D01*
X147761266Y-86449174D01*
X147942773Y-86598962D01*
X147966627Y-86614751D01*
X148042201Y-86666457D01*
X148099651Y-86711257D01*
X148127117Y-86739862D01*
X148127517Y-86740766D01*
X148121620Y-86771709D01*
X148098245Y-86841936D01*
X148059821Y-86945670D01*
X148008777Y-87077135D01*
X147947542Y-87230552D01*
X147878544Y-87400146D01*
X147804214Y-87580138D01*
X147726978Y-87764753D01*
X147649268Y-87948213D01*
X147573511Y-88124741D01*
X147502137Y-88288559D01*
X147437574Y-88433892D01*
X147382252Y-88554962D01*
X147338600Y-88645992D01*
X147309046Y-88701205D01*
X147297144Y-88715706D01*
X147260777Y-88704414D01*
X147192730Y-88674130D01*
X147104737Y-88630265D01*
X147056351Y-88604620D01*
X146850863Y-88493515D01*
X146606068Y-88659091D01*
X146481106Y-88743915D01*
X146344295Y-88837261D01*
X146216089Y-88925153D01*
X146151871Y-88969412D01*
X146061551Y-89030063D01*
X145985071Y-89078126D01*
X145932407Y-89107515D01*
X145915302Y-89113727D01*
X145890405Y-89096968D01*
X145835305Y-89050181D01*
X145755343Y-88978225D01*
X145655861Y-88885957D01*
X145542200Y-88778235D01*
X145470315Y-88709071D01*
X145344551Y-88585502D01*
X145235863Y-88474979D01*
X145148645Y-88382230D01*
X145087289Y-88311982D01*
X145056191Y-88268965D01*
X145053208Y-88260235D01*
X145067053Y-88227029D01*
X145105312Y-88159887D01*
X145163742Y-88065608D01*
X145238097Y-87950990D01*
X145324135Y-87822828D01*
X145348603Y-87787098D01*
X145437755Y-87657234D01*
X145517738Y-87540314D01*
X145584080Y-87442907D01*
X145632311Y-87371584D01*
X145657957Y-87332915D01*
X145660435Y-87328917D01*
X145656729Y-87298100D01*
X145637061Y-87230344D01*
X145604860Y-87134584D01*
X145563555Y-87019754D01*
X145516575Y-86894789D01*
X145467349Y-86768624D01*
X145419308Y-86650193D01*
X145375881Y-86548430D01*
X145340496Y-86472271D01*
X145316584Y-86430649D01*
X145314884Y-86428653D01*
X145300262Y-86416758D01*
X145275565Y-86404995D01*
X145235372Y-86392146D01*
X145174263Y-86376994D01*
X145086817Y-86358321D01*
X144967612Y-86334910D01*
X144811227Y-86305542D01*
X144612243Y-86269000D01*
X144569160Y-86261143D01*
X144441471Y-86236472D01*
X144330153Y-86212338D01*
X144245045Y-86191069D01*
X144195983Y-86174993D01*
X144189405Y-86171245D01*
X144178564Y-86138018D01*
X144169753Y-86063766D01*
X144162976Y-85957121D01*
X144158240Y-85826712D01*
X144155550Y-85681172D01*
X144154913Y-85529131D01*
X144156334Y-85379221D01*
X144159820Y-85240073D01*
X144165376Y-85120317D01*
X144173008Y-85028586D01*
X144182722Y-84973511D01*
X144188578Y-84962238D01*
X144221180Y-84950868D01*
X144295418Y-84932369D01*
X144403896Y-84908347D01*
X144539217Y-84880407D01*
X144693985Y-84850153D01*
X144778308Y-84834296D01*
X144938296Y-84804389D01*
X145080967Y-84777295D01*
X145199348Y-84754376D01*
X145286465Y-84736988D01*
X145335345Y-84726492D01*
X145343390Y-84724165D01*
X145356987Y-84697931D01*
X145385729Y-84634740D01*
X145425785Y-84543622D01*
X145473324Y-84433602D01*
X145524515Y-84313710D01*
X145575526Y-84192972D01*
X145622526Y-84080416D01*
X145661684Y-83985071D01*
X145689169Y-83915962D01*
X145701149Y-83882119D01*
X145701372Y-83880640D01*
X145687791Y-83853942D01*
X145649715Y-83792505D01*
X145591147Y-83702434D01*
X145516088Y-83589835D01*
X145428540Y-83460815D01*
X145377647Y-83386706D01*
X145284909Y-83250822D01*
X145202541Y-83127454D01*
X145134561Y-83022842D01*
X145084988Y-82943228D01*
X145057842Y-82894852D01*
X145053921Y-82884007D01*
X145070775Y-82858765D01*
X145117368Y-82804869D01*
X145187749Y-82728358D01*
X145275965Y-82635268D01*
X145376065Y-82531640D01*
X145482098Y-82423509D01*
X145588111Y-82316915D01*
X145688152Y-82217895D01*
X145776270Y-82132487D01*
X145846513Y-82066730D01*
X145892928Y-82026661D01*
X145908456Y-82017098D01*
X145933739Y-82030545D01*
X145994211Y-82068320D01*
X146083992Y-82126580D01*
X146197203Y-82201479D01*
X146327964Y-82289170D01*
X146426600Y-82355978D01*
X146924957Y-82694857D01*
X147340371Y-82523610D01*
X147755784Y-82352363D01*
X147868366Y-81755172D01*
X147980949Y-81157980D01*
X149223952Y-81157980D01*
X149336535Y-81755172D01*
G36*
X152153637Y-90009472D02*
G01*
X152239290Y-90035641D01*
X152294437Y-90068707D01*
X152312401Y-90094855D01*
X152307457Y-90125852D01*
X152275372Y-90174547D01*
X152248243Y-90209035D01*
X152192317Y-90271383D01*
X152150299Y-90297615D01*
X152114480Y-90295903D01*
X152008224Y-90268863D01*
X151930189Y-90270091D01*
X151866820Y-90300735D01*
X151845546Y-90318670D01*
X151777451Y-90381779D01*
X151777451Y-91205922D01*
X151503529Y-91205922D01*
X151503529Y-90010628D01*
X151640490Y-90010628D01*
X151722719Y-90013879D01*
X151765144Y-90025426D01*
X151777445Y-90047952D01*
X151777451Y-90048620D01*
X151783260Y-90072215D01*
X151809531Y-90069138D01*
X151845931Y-90052115D01*
X151921111Y-90020439D01*
X151982158Y-90001381D01*
X152060708Y-89996496D01*
X152153637Y-90009472D01*
X152153637Y-90009472D01*
G37*
X152153637Y-90009472D02*
X152239290Y-90035641D01*
X152294437Y-90068707D01*
X152312401Y-90094855D01*
X152307457Y-90125852D01*
X152275372Y-90174547D01*
X152248243Y-90209035D01*
X152192317Y-90271383D01*
X152150299Y-90297615D01*
X152114480Y-90295903D01*
X152008224Y-90268863D01*
X151930189Y-90270091D01*
X151866820Y-90300735D01*
X151845546Y-90318670D01*
X151777451Y-90381779D01*
X151777451Y-91205922D01*
X151503529Y-91205922D01*
X151503529Y-90010628D01*
X151640490Y-90010628D01*
X151722719Y-90013879D01*
X151765144Y-90025426D01*
X151777445Y-90047952D01*
X151777451Y-90048620D01*
X151783260Y-90072215D01*
X151809531Y-90069138D01*
X151845931Y-90052115D01*
X151921111Y-90020439D01*
X151982158Y-90001381D01*
X152060708Y-89996496D01*
X152153637Y-90009472D01*
G36*
X147096760Y-90031199D02*
G01*
X147158736Y-90060802D01*
X147218759Y-90103561D01*
X147264486Y-90152775D01*
X147297793Y-90215544D01*
X147320555Y-90298971D01*
X147334647Y-90410159D01*
X147341942Y-90556209D01*
X147344318Y-90744223D01*
X147344355Y-90763912D01*
X147344902Y-91205922D01*
X147070980Y-91205922D01*
X147070980Y-90798435D01*
X147070785Y-90647471D01*
X147069436Y-90538056D01*
X147065788Y-90461933D01*
X147058696Y-90410848D01*
X147047013Y-90376545D01*
X147029594Y-90350768D01*
X147005329Y-90325298D01*
X146920435Y-90270571D01*
X146827761Y-90260416D01*
X146739473Y-90295017D01*
X146708770Y-90320770D01*
X146686229Y-90344982D01*
X146670046Y-90370912D01*
X146659168Y-90406708D01*
X146652542Y-90460519D01*
X146649115Y-90540493D01*
X146647834Y-90654779D01*
X146647647Y-90793907D01*
X146647647Y-91205922D01*
X146373725Y-91205922D01*
X146373725Y-90010628D01*
X146510686Y-90010628D01*
X146592916Y-90013879D01*
X146635340Y-90025426D01*
X146647641Y-90047952D01*
X146647647Y-90048620D01*
X146653354Y-90070681D01*
X146678527Y-90068177D01*
X146728578Y-90043937D01*
X146842094Y-90008271D01*
X146971945Y-90004305D01*
X147096760Y-90031199D01*
X147096760Y-90031199D01*
G37*
X147096760Y-90031199D02*
X147158736Y-90060802D01*
X147218759Y-90103561D01*
X147264486Y-90152775D01*
X147297793Y-90215544D01*
X147320555Y-90298971D01*
X147334647Y-90410159D01*
X147341942Y-90556209D01*
X147344318Y-90744223D01*
X147344355Y-90763912D01*
X147344902Y-91205922D01*
X147070980Y-91205922D01*
X147070980Y-90798435D01*
X147070785Y-90647471D01*
X147069436Y-90538056D01*
X147065788Y-90461933D01*
X147058696Y-90410848D01*
X147047013Y-90376545D01*
X147029594Y-90350768D01*
X147005329Y-90325298D01*
X146920435Y-90270571D01*
X146827761Y-90260416D01*
X146739473Y-90295017D01*
X146708770Y-90320770D01*
X146686229Y-90344982D01*
X146670046Y-90370912D01*
X146659168Y-90406708D01*
X146652542Y-90460519D01*
X146649115Y-90540493D01*
X146647834Y-90654779D01*
X146647647Y-90793907D01*
X146647647Y-91205922D01*
X146373725Y-91205922D01*
X146373725Y-90010628D01*
X146510686Y-90010628D01*
X146592916Y-90013879D01*
X146635340Y-90025426D01*
X146647641Y-90047952D01*
X146647647Y-90048620D01*
X146653354Y-90070681D01*
X146678527Y-90068177D01*
X146728578Y-90043937D01*
X146842094Y-90008271D01*
X146971945Y-90004305D01*
X147096760Y-90031199D01*
G36*
X153893287Y-90006355D02*
G01*
X153957051Y-90021845D01*
X154079300Y-90078569D01*
X154183834Y-90165202D01*
X154256180Y-90269074D01*
X154266119Y-90292396D01*
X154279754Y-90353484D01*
X154289298Y-90443853D01*
X154292549Y-90535190D01*
X154292549Y-90707882D01*
X153931470Y-90707882D01*
X153782546Y-90708445D01*
X153677632Y-90711864D01*
X153610937Y-90720731D01*
X153576666Y-90737641D01*
X153569028Y-90765189D01*
X153582229Y-90805968D01*
X153605877Y-90853683D01*
X153671843Y-90933314D01*
X153763512Y-90972987D01*
X153875555Y-90971695D01*
X154002472Y-90928514D01*
X154112158Y-90875224D01*
X154203173Y-90947191D01*
X154294188Y-91019157D01*
X154208563Y-91098269D01*
X154094250Y-91173017D01*
X153953666Y-91218084D01*
X153802449Y-91230696D01*
X153656236Y-91208079D01*
X153632647Y-91200405D01*
X153504141Y-91133296D01*
X153408551Y-91033247D01*
X153343861Y-90897271D01*
X153308057Y-90722380D01*
X153307640Y-90718632D01*
X153304434Y-90528032D01*
X153317393Y-90460035D01*
X153570392Y-90460035D01*
X153593627Y-90470491D01*
X153656710Y-90478500D01*
X153749706Y-90483073D01*
X153808638Y-90483765D01*
X153918537Y-90483332D01*
X153987252Y-90480578D01*
X154023405Y-90473321D01*
X154035615Y-90459376D01*
X154032504Y-90436562D01*
X154029894Y-90427735D01*
X153985344Y-90344800D01*
X153915279Y-90277960D01*
X153853446Y-90248589D01*
X153771301Y-90250362D01*
X153688062Y-90286990D01*
X153618238Y-90347634D01*
X153576337Y-90421456D01*
X153570392Y-90460035D01*
X153317393Y-90460035D01*
X153336385Y-90360395D01*
X153399773Y-90219711D01*
X153490878Y-90109974D01*
X153605978Y-90035174D01*
X153741355Y-89999304D01*
X153893287Y-90006355D01*
X153893287Y-90006355D01*
G37*
X153893287Y-90006355D02*
X153957051Y-90021845D01*
X154079300Y-90078569D01*
X154183834Y-90165202D01*
X154256180Y-90269074D01*
X154266119Y-90292396D01*
X154279754Y-90353484D01*
X154289298Y-90443853D01*
X154292549Y-90535190D01*
X154292549Y-90707882D01*
X153931470Y-90707882D01*
X153782546Y-90708445D01*
X153677632Y-90711864D01*
X153610937Y-90720731D01*
X153576666Y-90737641D01*
X153569028Y-90765189D01*
X153582229Y-90805968D01*
X153605877Y-90853683D01*
X153671843Y-90933314D01*
X153763512Y-90972987D01*
X153875555Y-90971695D01*
X154002472Y-90928514D01*
X154112158Y-90875224D01*
X154203173Y-90947191D01*
X154294188Y-91019157D01*
X154208563Y-91098269D01*
X154094250Y-91173017D01*
X153953666Y-91218084D01*
X153802449Y-91230696D01*
X153656236Y-91208079D01*
X153632647Y-91200405D01*
X153504141Y-91133296D01*
X153408551Y-91033247D01*
X153343861Y-90897271D01*
X153308057Y-90722380D01*
X153307640Y-90718632D01*
X153304434Y-90528032D01*
X153317393Y-90460035D01*
X153570392Y-90460035D01*
X153593627Y-90470491D01*
X153656710Y-90478500D01*
X153749706Y-90483073D01*
X153808638Y-90483765D01*
X153918537Y-90483332D01*
X153987252Y-90480578D01*
X154023405Y-90473321D01*
X154035615Y-90459376D01*
X154032504Y-90436562D01*
X154029894Y-90427735D01*
X153985344Y-90344800D01*
X153915279Y-90277960D01*
X153853446Y-90248589D01*
X153771301Y-90250362D01*
X153688062Y-90286990D01*
X153618238Y-90347634D01*
X153576337Y-90421456D01*
X153570392Y-90460035D01*
X153317393Y-90460035D01*
X153336385Y-90360395D01*
X153399773Y-90219711D01*
X153490878Y-90109974D01*
X153605978Y-90035174D01*
X153741355Y-89999304D01*
X153893287Y-90006355D01*
G36*
X152980976Y-90021056D02*
G01*
X153125256Y-90082348D01*
X153170699Y-90112185D01*
X153228779Y-90158036D01*
X153265238Y-90194089D01*
X153271568Y-90205832D01*
X153253693Y-90231889D01*
X153207950Y-90276105D01*
X153171328Y-90306965D01*
X153071088Y-90387520D01*
X152991935Y-90320918D01*
X152930769Y-90277921D01*
X152871129Y-90263079D01*
X152802872Y-90266704D01*
X152694482Y-90293652D01*
X152619872Y-90349587D01*
X152574530Y-90440014D01*
X152553947Y-90570435D01*
X152553942Y-90570517D01*
X152555722Y-90716290D01*
X152583387Y-90823245D01*
X152638571Y-90896064D01*
X152676192Y-90920723D01*
X152776105Y-90951431D01*
X152882822Y-90951449D01*
X152975669Y-90921655D01*
X152997647Y-90907098D01*
X153052765Y-90869914D01*
X153095859Y-90863820D01*
X153142335Y-90891496D01*
X153193716Y-90941205D01*
X153275046Y-91025116D01*
X153184749Y-91099546D01*
X153045236Y-91183549D01*
X152887912Y-91224947D01*
X152723503Y-91221950D01*
X152615531Y-91194500D01*
X152489331Y-91126620D01*
X152388401Y-91019831D01*
X152342548Y-90944451D01*
X152305410Y-90836297D01*
X152286827Y-90699318D01*
X152286684Y-90550864D01*
X152304865Y-90408281D01*
X152341255Y-90288918D01*
X152346987Y-90276680D01*
X152431865Y-90156655D01*
X152546782Y-90069267D01*
X152682659Y-90016329D01*
X152830417Y-89999654D01*
X152980976Y-90021056D01*
X152980976Y-90021056D01*
G37*
X152980976Y-90021056D02*
X153125256Y-90082348D01*
X153170699Y-90112185D01*
X153228779Y-90158036D01*
X153265238Y-90194089D01*
X153271568Y-90205832D01*
X153253693Y-90231889D01*
X153207950Y-90276105D01*
X153171328Y-90306965D01*
X153071088Y-90387520D01*
X152991935Y-90320918D01*
X152930769Y-90277921D01*
X152871129Y-90263079D01*
X152802872Y-90266704D01*
X152694482Y-90293652D01*
X152619872Y-90349587D01*
X152574530Y-90440014D01*
X152553947Y-90570435D01*
X152553942Y-90570517D01*
X152555722Y-90716290D01*
X152583387Y-90823245D01*
X152638571Y-90896064D01*
X152676192Y-90920723D01*
X152776105Y-90951431D01*
X152882822Y-90951449D01*
X152975669Y-90921655D01*
X152997647Y-90907098D01*
X153052765Y-90869914D01*
X153095859Y-90863820D01*
X153142335Y-90891496D01*
X153193716Y-90941205D01*
X153275046Y-91025116D01*
X153184749Y-91099546D01*
X153045236Y-91183549D01*
X152887912Y-91224947D01*
X152723503Y-91221950D01*
X152615531Y-91194500D01*
X152489331Y-91126620D01*
X152388401Y-91019831D01*
X152342548Y-90944451D01*
X152305410Y-90836297D01*
X152286827Y-90699318D01*
X152286684Y-90550864D01*
X152304865Y-90408281D01*
X152341255Y-90288918D01*
X152346987Y-90276680D01*
X152431865Y-90156655D01*
X152546782Y-90069267D01*
X152682659Y-90016329D01*
X152830417Y-89999654D01*
X152980976Y-90021056D01*
G36*
X150557254Y-90398245D02*
G01*
X150559608Y-90580879D01*
X150568207Y-90719600D01*
X150585360Y-90820147D01*
X150613374Y-90888254D01*
X150654557Y-90929659D01*
X150711217Y-90950097D01*
X150781372Y-90955318D01*
X150854848Y-90949468D01*
X150910657Y-90928093D01*
X150951109Y-90885458D01*
X150978509Y-90815825D01*
X150995167Y-90713460D01*
X151003389Y-90572624D01*
X151005490Y-90398245D01*
X151005490Y-90010628D01*
X151279411Y-90010628D01*
X151279411Y-91205922D01*
X151142451Y-91205922D01*
X151059884Y-91202576D01*
X151017368Y-91190826D01*
X151005490Y-91168520D01*
X150998336Y-91148654D01*
X150969865Y-91152857D01*
X150912476Y-91180971D01*
X150780945Y-91224342D01*
X150641438Y-91221270D01*
X150507765Y-91174174D01*
X150444108Y-91136971D01*
X150395553Y-91096691D01*
X150360081Y-91046291D01*
X150335674Y-90978729D01*
X150320313Y-90886965D01*
X150311982Y-90763955D01*
X150308662Y-90602659D01*
X150308235Y-90477928D01*
X150308235Y-90010628D01*
X150557254Y-90010628D01*
X150557254Y-90398245D01*
X150557254Y-90398245D01*
G37*
X150557254Y-90398245D02*
X150559608Y-90580879D01*
X150568207Y-90719600D01*
X150585360Y-90820147D01*
X150613374Y-90888254D01*
X150654557Y-90929659D01*
X150711217Y-90950097D01*
X150781372Y-90955318D01*
X150854848Y-90949468D01*
X150910657Y-90928093D01*
X150951109Y-90885458D01*
X150978509Y-90815825D01*
X150995167Y-90713460D01*
X151003389Y-90572624D01*
X151005490Y-90398245D01*
X151005490Y-90010628D01*
X151279411Y-90010628D01*
X151279411Y-91205922D01*
X151142451Y-91205922D01*
X151059884Y-91202576D01*
X151017368Y-91190826D01*
X151005490Y-91168520D01*
X150998336Y-91148654D01*
X150969865Y-91152857D01*
X150912476Y-91180971D01*
X150780945Y-91224342D01*
X150641438Y-91221270D01*
X150507765Y-91174174D01*
X150444108Y-91136971D01*
X150395553Y-91096691D01*
X150360081Y-91046291D01*
X150335674Y-90978729D01*
X150320313Y-90886965D01*
X150311982Y-90763955D01*
X150308662Y-90602659D01*
X150308235Y-90477928D01*
X150308235Y-90010628D01*
X150557254Y-90010628D01*
X150557254Y-90398245D01*
G36*
X149799547Y-90025364D02*
G01*
X149925502Y-90093959D01*
X150024047Y-90202245D01*
X150070478Y-90290315D01*
X150090412Y-90368101D01*
X150103328Y-90478993D01*
X150108863Y-90606738D01*
X150106654Y-90735084D01*
X150096337Y-90847779D01*
X150084286Y-90907969D01*
X150043634Y-90990311D01*
X149973230Y-91077770D01*
X149888382Y-91154251D01*
X149804397Y-91203655D01*
X149802349Y-91204439D01*
X149698134Y-91226027D01*
X149574627Y-91226562D01*
X149457261Y-91206908D01*
X149411942Y-91191155D01*
X149295220Y-91124966D01*
X149211624Y-91038246D01*
X149156701Y-90923438D01*
X149125995Y-90772982D01*
X149119047Y-90694173D01*
X149119933Y-90595145D01*
X149386862Y-90595145D01*
X149395854Y-90739645D01*
X149421736Y-90849760D01*
X149462868Y-90920116D01*
X149492172Y-90940235D01*
X149567251Y-90954265D01*
X149656494Y-90950111D01*
X149733650Y-90929922D01*
X149753883Y-90918815D01*
X149807265Y-90854123D01*
X149842500Y-90755119D01*
X149857498Y-90634632D01*
X149850172Y-90505494D01*
X149833799Y-90427775D01*
X149786790Y-90337771D01*
X149712582Y-90281509D01*
X149623209Y-90262057D01*
X149530707Y-90282481D01*
X149459653Y-90332437D01*
X149422312Y-90373655D01*
X149400518Y-90414281D01*
X149390130Y-90469264D01*
X149387006Y-90553549D01*
X149386862Y-90595145D01*
X149119933Y-90595145D01*
X149120930Y-90483874D01*
X149155180Y-90311423D01*
X149221802Y-90176814D01*
X149320799Y-90080040D01*
X149452175Y-90021094D01*
X149480385Y-90014259D01*
X149649926Y-89998213D01*
X149799547Y-90025364D01*
X149799547Y-90025364D01*
G37*
X149799547Y-90025364D02*
X149925502Y-90093959D01*
X150024047Y-90202245D01*
X150070478Y-90290315D01*
X150090412Y-90368101D01*
X150103328Y-90478993D01*
X150108863Y-90606738D01*
X150106654Y-90735084D01*
X150096337Y-90847779D01*
X150084286Y-90907969D01*
X150043634Y-90990311D01*
X149973230Y-91077770D01*
X149888382Y-91154251D01*
X149804397Y-91203655D01*
X149802349Y-91204439D01*
X149698134Y-91226027D01*
X149574627Y-91226562D01*
X149457261Y-91206908D01*
X149411942Y-91191155D01*
X149295220Y-91124966D01*
X149211624Y-91038246D01*
X149156701Y-90923438D01*
X149125995Y-90772982D01*
X149119047Y-90694173D01*
X149119933Y-90595145D01*
X149386862Y-90595145D01*
X149395854Y-90739645D01*
X149421736Y-90849760D01*
X149462868Y-90920116D01*
X149492172Y-90940235D01*
X149567251Y-90954265D01*
X149656494Y-90950111D01*
X149733650Y-90929922D01*
X149753883Y-90918815D01*
X149807265Y-90854123D01*
X149842500Y-90755119D01*
X149857498Y-90634632D01*
X149850172Y-90505494D01*
X149833799Y-90427775D01*
X149786790Y-90337771D01*
X149712582Y-90281509D01*
X149623209Y-90262057D01*
X149530707Y-90282481D01*
X149459653Y-90332437D01*
X149422312Y-90373655D01*
X149400518Y-90414281D01*
X149390130Y-90469264D01*
X149387006Y-90553549D01*
X149386862Y-90595145D01*
X149119933Y-90595145D01*
X149120930Y-90483874D01*
X149155180Y-90311423D01*
X149221802Y-90176814D01*
X149320799Y-90080040D01*
X149452175Y-90021094D01*
X149480385Y-90014259D01*
X149649926Y-89998213D01*
X149799547Y-90025364D01*
G36*
X148617759Y-90006345D02*
G01*
X148712059Y-90024229D01*
X148809890Y-90061633D01*
X148820343Y-90066402D01*
X148894531Y-90105412D01*
X148945910Y-90141664D01*
X148962517Y-90164887D01*
X148946702Y-90202761D01*
X148908288Y-90258644D01*
X148891237Y-90279505D01*
X148820969Y-90361618D01*
X148730379Y-90308168D01*
X148644164Y-90272561D01*
X148544549Y-90253529D01*
X148449019Y-90252326D01*
X148375061Y-90270210D01*
X148357312Y-90281373D01*
X148323512Y-90332553D01*
X148319404Y-90391509D01*
X148344696Y-90437567D01*
X148359656Y-90446499D01*
X148404486Y-90457592D01*
X148483286Y-90470630D01*
X148580426Y-90483088D01*
X148598346Y-90485042D01*
X148754365Y-90512030D01*
X148867523Y-90557873D01*
X148942569Y-90626803D01*
X148984253Y-90723054D01*
X148997238Y-90840617D01*
X148979299Y-90974254D01*
X148921050Y-91079195D01*
X148822255Y-91155630D01*
X148682682Y-91203748D01*
X148527745Y-91222732D01*
X148401398Y-91222504D01*
X148298913Y-91205262D01*
X148228921Y-91181457D01*
X148140483Y-91139978D01*
X148058754Y-91091842D01*
X148029705Y-91070655D01*
X147955000Y-91009676D01*
X148045098Y-90918508D01*
X148135196Y-90827339D01*
X148237632Y-90895128D01*
X148340374Y-90946042D01*
X148450087Y-90972673D01*
X148555551Y-90975483D01*
X148645546Y-90954935D01*
X148708854Y-90911493D01*
X148729296Y-90874838D01*
X148726229Y-90816053D01*
X148675434Y-90771099D01*
X148577048Y-90740057D01*
X148469256Y-90725710D01*
X148303365Y-90698337D01*
X148180124Y-90646693D01*
X148097886Y-90569266D01*
X148055001Y-90464544D01*
X148049060Y-90340387D01*
X148078406Y-90210702D01*
X148145309Y-90112677D01*
X148250371Y-90045866D01*
X148394190Y-90009820D01*
X148500738Y-90002754D01*
X148617759Y-90006345D01*
X148617759Y-90006345D01*
G37*
X148617759Y-90006345D02*
X148712059Y-90024229D01*
X148809890Y-90061633D01*
X148820343Y-90066402D01*
X148894531Y-90105412D01*
X148945910Y-90141664D01*
X148962517Y-90164887D01*
X148946702Y-90202761D01*
X148908288Y-90258644D01*
X148891237Y-90279505D01*
X148820969Y-90361618D01*
X148730379Y-90308168D01*
X148644164Y-90272561D01*
X148544549Y-90253529D01*
X148449019Y-90252326D01*
X148375061Y-90270210D01*
X148357312Y-90281373D01*
X148323512Y-90332553D01*
X148319404Y-90391509D01*
X148344696Y-90437567D01*
X148359656Y-90446499D01*
X148404486Y-90457592D01*
X148483286Y-90470630D01*
X148580426Y-90483088D01*
X148598346Y-90485042D01*
X148754365Y-90512030D01*
X148867523Y-90557873D01*
X148942569Y-90626803D01*
X148984253Y-90723054D01*
X148997238Y-90840617D01*
X148979299Y-90974254D01*
X148921050Y-91079195D01*
X148822255Y-91155630D01*
X148682682Y-91203748D01*
X148527745Y-91222732D01*
X148401398Y-91222504D01*
X148298913Y-91205262D01*
X148228921Y-91181457D01*
X148140483Y-91139978D01*
X148058754Y-91091842D01*
X148029705Y-91070655D01*
X147955000Y-91009676D01*
X148045098Y-90918508D01*
X148135196Y-90827339D01*
X148237632Y-90895128D01*
X148340374Y-90946042D01*
X148450087Y-90972673D01*
X148555551Y-90975483D01*
X148645546Y-90954935D01*
X148708854Y-90911493D01*
X148729296Y-90874838D01*
X148726229Y-90816053D01*
X148675434Y-90771099D01*
X148577048Y-90740057D01*
X148469256Y-90725710D01*
X148303365Y-90698337D01*
X148180124Y-90646693D01*
X148097886Y-90569266D01*
X148055001Y-90464544D01*
X148049060Y-90340387D01*
X148078406Y-90210702D01*
X148145309Y-90112677D01*
X148250371Y-90045866D01*
X148394190Y-90009820D01*
X148500738Y-90002754D01*
X148617759Y-90006345D01*
G36*
X145903204Y-90038354D02*
G01*
X145928019Y-90050037D01*
X146013906Y-90112951D01*
X146095121Y-90204769D01*
X146155764Y-90305868D01*
X146173012Y-90352349D01*
X146188749Y-90435376D01*
X146198133Y-90535713D01*
X146199272Y-90577147D01*
X146199411Y-90707882D01*
X145446953Y-90707882D01*
X145462993Y-90776363D01*
X145502363Y-90857355D01*
X145571194Y-90927351D01*
X145653081Y-90972441D01*
X145705263Y-90981804D01*
X145776029Y-90970441D01*
X145860460Y-90941943D01*
X145889142Y-90928831D01*
X145995209Y-90875858D01*
X146085728Y-90944901D01*
X146137961Y-90991597D01*
X146165753Y-91030140D01*
X146167160Y-91041452D01*
X146142332Y-91068868D01*
X146087917Y-91110532D01*
X146038528Y-91143037D01*
X145905252Y-91201468D01*
X145755839Y-91227915D01*
X145607751Y-91221039D01*
X145489705Y-91185096D01*
X145368018Y-91108101D01*
X145281540Y-91006728D01*
X145227441Y-90875570D01*
X145202891Y-90709224D01*
X145200714Y-90633108D01*
X145209427Y-90458685D01*
X145210497Y-90453611D01*
X145459827Y-90453611D01*
X145466694Y-90469968D01*
X145494917Y-90478988D01*
X145553127Y-90482854D01*
X145649958Y-90483749D01*
X145687243Y-90483765D01*
X145800683Y-90482413D01*
X145872622Y-90477505D01*
X145911313Y-90467760D01*
X145925005Y-90451899D01*
X145925490Y-90446805D01*
X145909863Y-90406326D01*
X145870753Y-90349621D01*
X145853939Y-90329766D01*
X145791519Y-90273611D01*
X145726453Y-90251532D01*
X145691397Y-90249686D01*
X145596558Y-90272766D01*
X145517027Y-90334759D01*
X145466577Y-90424802D01*
X145465683Y-90427735D01*
X145459827Y-90453611D01*
X145210497Y-90453611D01*
X145238399Y-90321343D01*
X145290590Y-90211461D01*
X145354421Y-90133461D01*
X145472433Y-90048882D01*
X145611158Y-90003686D01*
X145758710Y-89999600D01*
X145903204Y-90038354D01*
X145903204Y-90038354D01*
G37*
X145903204Y-90038354D02*
X145928019Y-90050037D01*
X146013906Y-90112951D01*
X146095121Y-90204769D01*
X146155764Y-90305868D01*
X146173012Y-90352349D01*
X146188749Y-90435376D01*
X146198133Y-90535713D01*
X146199272Y-90577147D01*
X146199411Y-90707882D01*
X145446953Y-90707882D01*
X145462993Y-90776363D01*
X145502363Y-90857355D01*
X145571194Y-90927351D01*
X145653081Y-90972441D01*
X145705263Y-90981804D01*
X145776029Y-90970441D01*
X145860460Y-90941943D01*
X145889142Y-90928831D01*
X145995209Y-90875858D01*
X146085728Y-90944901D01*
X146137961Y-90991597D01*
X146165753Y-91030140D01*
X146167160Y-91041452D01*
X146142332Y-91068868D01*
X146087917Y-91110532D01*
X146038528Y-91143037D01*
X145905252Y-91201468D01*
X145755839Y-91227915D01*
X145607751Y-91221039D01*
X145489705Y-91185096D01*
X145368018Y-91108101D01*
X145281540Y-91006728D01*
X145227441Y-90875570D01*
X145202891Y-90709224D01*
X145200714Y-90633108D01*
X145209427Y-90458685D01*
X145210497Y-90453611D01*
X145459827Y-90453611D01*
X145466694Y-90469968D01*
X145494917Y-90478988D01*
X145553127Y-90482854D01*
X145649958Y-90483749D01*
X145687243Y-90483765D01*
X145800683Y-90482413D01*
X145872622Y-90477505D01*
X145911313Y-90467760D01*
X145925005Y-90451899D01*
X145925490Y-90446805D01*
X145909863Y-90406326D01*
X145870753Y-90349621D01*
X145853939Y-90329766D01*
X145791519Y-90273611D01*
X145726453Y-90251532D01*
X145691397Y-90249686D01*
X145596558Y-90272766D01*
X145517027Y-90334759D01*
X145466577Y-90424802D01*
X145465683Y-90427735D01*
X145459827Y-90453611D01*
X145210497Y-90453611D01*
X145238399Y-90321343D01*
X145290590Y-90211461D01*
X145354421Y-90133461D01*
X145472433Y-90048882D01*
X145611158Y-90003686D01*
X145758710Y-89999600D01*
X145903204Y-90038354D01*
G36*
X143563247Y-90023568D02*
G01*
X143693522Y-90081163D01*
X143792419Y-90177334D01*
X143860082Y-90312229D01*
X143896655Y-90485996D01*
X143899276Y-90513126D01*
X143901330Y-90704408D01*
X143874699Y-90872073D01*
X143821001Y-91007967D01*
X143792247Y-91051681D01*
X143692091Y-91144198D01*
X143564537Y-91204119D01*
X143421837Y-91228985D01*
X143276240Y-91216339D01*
X143165562Y-91177391D01*
X143070384Y-91111755D01*
X142992594Y-91025699D01*
X142991249Y-91023685D01*
X142959657Y-90970570D01*
X142939127Y-90917160D01*
X142926695Y-90849754D01*
X142919397Y-90754653D01*
X142916182Y-90676666D01*
X142914844Y-90605944D01*
X143163814Y-90605944D01*
X143166247Y-90676348D01*
X143175080Y-90770068D01*
X143190664Y-90830214D01*
X143218766Y-90873006D01*
X143245086Y-90898002D01*
X143338392Y-90950338D01*
X143436020Y-90957333D01*
X143526942Y-90919676D01*
X143572402Y-90877479D01*
X143605162Y-90834956D01*
X143624323Y-90794267D01*
X143632733Y-90741314D01*
X143633237Y-90661997D01*
X143630645Y-90588950D01*
X143625071Y-90484601D01*
X143616234Y-90416920D01*
X143600307Y-90372774D01*
X143573462Y-90339031D01*
X143552189Y-90319746D01*
X143463206Y-90269086D01*
X143367211Y-90266560D01*
X143286719Y-90296567D01*
X143218053Y-90359231D01*
X143177144Y-90462168D01*
X143163814Y-90605944D01*
X142914844Y-90605944D01*
X142913246Y-90521582D01*
X142918260Y-90405600D01*
X142933283Y-90318367D01*
X142960376Y-90249530D01*
X143001600Y-90188737D01*
X143016885Y-90170686D01*
X143112454Y-90080746D01*
X143214961Y-90028211D01*
X143340321Y-90006201D01*
X143401450Y-90004402D01*
X143563247Y-90023568D01*
X143563247Y-90023568D01*
G37*
X143563247Y-90023568D02*
X143693522Y-90081163D01*
X143792419Y-90177334D01*
X143860082Y-90312229D01*
X143896655Y-90485996D01*
X143899276Y-90513126D01*
X143901330Y-90704408D01*
X143874699Y-90872073D01*
X143821001Y-91007967D01*
X143792247Y-91051681D01*
X143692091Y-91144198D01*
X143564537Y-91204119D01*
X143421837Y-91228985D01*
X143276240Y-91216339D01*
X143165562Y-91177391D01*
X143070384Y-91111755D01*
X142992594Y-91025699D01*
X142991249Y-91023685D01*
X142959657Y-90970570D01*
X142939127Y-90917160D01*
X142926695Y-90849754D01*
X142919397Y-90754653D01*
X142916182Y-90676666D01*
X142914844Y-90605944D01*
X143163814Y-90605944D01*
X143166247Y-90676348D01*
X143175080Y-90770068D01*
X143190664Y-90830214D01*
X143218766Y-90873006D01*
X143245086Y-90898002D01*
X143338392Y-90950338D01*
X143436020Y-90957333D01*
X143526942Y-90919676D01*
X143572402Y-90877479D01*
X143605162Y-90834956D01*
X143624323Y-90794267D01*
X143632733Y-90741314D01*
X143633237Y-90661997D01*
X143630645Y-90588950D01*
X143625071Y-90484601D01*
X143616234Y-90416920D01*
X143600307Y-90372774D01*
X143573462Y-90339031D01*
X143552189Y-90319746D01*
X143463206Y-90269086D01*
X143367211Y-90266560D01*
X143286719Y-90296567D01*
X143218053Y-90359231D01*
X143177144Y-90462168D01*
X143163814Y-90605944D01*
X142914844Y-90605944D01*
X142913246Y-90521582D01*
X142918260Y-90405600D01*
X142933283Y-90318367D01*
X142960376Y-90249530D01*
X143001600Y-90188737D01*
X143016885Y-90170686D01*
X143112454Y-90080746D01*
X143214961Y-90028211D01*
X143340321Y-90006201D01*
X143401450Y-90004402D01*
X143563247Y-90023568D01*
G36*
X152615307Y-91884784D02*
G01*
X152734337Y-91915731D01*
X152834021Y-91979600D01*
X152882288Y-92027313D01*
X152961408Y-92140106D01*
X153006752Y-92270950D01*
X153022330Y-92431792D01*
X153022410Y-92444794D01*
X153022549Y-92575530D01*
X152270091Y-92575530D01*
X152286130Y-92644010D01*
X152315091Y-92706031D01*
X152365778Y-92770654D01*
X152376379Y-92780971D01*
X152467494Y-92836805D01*
X152571400Y-92846275D01*
X152691000Y-92809540D01*
X152711274Y-92799647D01*
X152773456Y-92769574D01*
X152815106Y-92752440D01*
X152822373Y-92750855D01*
X152847740Y-92766242D01*
X152896120Y-92803887D01*
X152920679Y-92824459D01*
X152971570Y-92871714D01*
X152988281Y-92902917D01*
X152976683Y-92931620D01*
X152970483Y-92939468D01*
X152928493Y-92973819D01*
X152859206Y-93015565D01*
X152810882Y-93039935D01*
X152673711Y-93082873D01*
X152521847Y-93096786D01*
X152378024Y-93080300D01*
X152337745Y-93068496D01*
X152213078Y-93001689D01*
X152120671Y-92898892D01*
X152059990Y-92759105D01*
X152030498Y-92581330D01*
X152027260Y-92488373D01*
X152036714Y-92353033D01*
X152275490Y-92353033D01*
X152298584Y-92363038D01*
X152360662Y-92370888D01*
X152450914Y-92375521D01*
X152512058Y-92376314D01*
X152622040Y-92375549D01*
X152691457Y-92371970D01*
X152729538Y-92363649D01*
X152745515Y-92348657D01*
X152748627Y-92326903D01*
X152727278Y-92259892D01*
X152673529Y-92193664D01*
X152602822Y-92142832D01*
X152532089Y-92122038D01*
X152436016Y-92140484D01*
X152352849Y-92193811D01*
X152295186Y-92270677D01*
X152275490Y-92353033D01*
X152036714Y-92353033D01*
X152041028Y-92291291D01*
X152083520Y-92134271D01*
X152155635Y-92016069D01*
X152258273Y-91935440D01*
X152392332Y-91891139D01*
X152464957Y-91882607D01*
X152615307Y-91884784D01*
X152615307Y-91884784D01*
G37*
X152615307Y-91884784D02*
X152734337Y-91915731D01*
X152834021Y-91979600D01*
X152882288Y-92027313D01*
X152961408Y-92140106D01*
X153006752Y-92270950D01*
X153022330Y-92431792D01*
X153022410Y-92444794D01*
X153022549Y-92575530D01*
X152270091Y-92575530D01*
X152286130Y-92644010D01*
X152315091Y-92706031D01*
X152365778Y-92770654D01*
X152376379Y-92780971D01*
X152467494Y-92836805D01*
X152571400Y-92846275D01*
X152691000Y-92809540D01*
X152711274Y-92799647D01*
X152773456Y-92769574D01*
X152815106Y-92752440D01*
X152822373Y-92750855D01*
X152847740Y-92766242D01*
X152896120Y-92803887D01*
X152920679Y-92824459D01*
X152971570Y-92871714D01*
X152988281Y-92902917D01*
X152976683Y-92931620D01*
X152970483Y-92939468D01*
X152928493Y-92973819D01*
X152859206Y-93015565D01*
X152810882Y-93039935D01*
X152673711Y-93082873D01*
X152521847Y-93096786D01*
X152378024Y-93080300D01*
X152337745Y-93068496D01*
X152213078Y-93001689D01*
X152120671Y-92898892D01*
X152059990Y-92759105D01*
X152030498Y-92581330D01*
X152027260Y-92488373D01*
X152036714Y-92353033D01*
X152275490Y-92353033D01*
X152298584Y-92363038D01*
X152360662Y-92370888D01*
X152450914Y-92375521D01*
X152512058Y-92376314D01*
X152622040Y-92375549D01*
X152691457Y-92371970D01*
X152729538Y-92363649D01*
X152745515Y-92348657D01*
X152748627Y-92326903D01*
X152727278Y-92259892D01*
X152673529Y-92193664D01*
X152602822Y-92142832D01*
X152532089Y-92122038D01*
X152436016Y-92140484D01*
X152352849Y-92193811D01*
X152295186Y-92270677D01*
X152275490Y-92353033D01*
X152036714Y-92353033D01*
X152041028Y-92291291D01*
X152083520Y-92134271D01*
X152155635Y-92016069D01*
X152258273Y-91935440D01*
X152392332Y-91891139D01*
X152464957Y-91882607D01*
X152615307Y-91884784D01*
G36*
X151828446Y-91877883D02*
G01*
X151924177Y-91896755D01*
X151978677Y-91924699D01*
X152036008Y-91971123D01*
X151954441Y-92074111D01*
X151904150Y-92136479D01*
X151870001Y-92166907D01*
X151836063Y-92171555D01*
X151786406Y-92156586D01*
X151763096Y-92148117D01*
X151668063Y-92135622D01*
X151581032Y-92162406D01*
X151517138Y-92222915D01*
X151506759Y-92242208D01*
X151495456Y-92293314D01*
X151486732Y-92387500D01*
X151480997Y-92518089D01*
X151478660Y-92678405D01*
X151478627Y-92701211D01*
X151478627Y-93098471D01*
X151204705Y-93098471D01*
X151204705Y-91878275D01*
X151341666Y-91878275D01*
X151420638Y-91880337D01*
X151461779Y-91889513D01*
X151476992Y-91910290D01*
X151478627Y-91929886D01*
X151478627Y-91981497D01*
X151544240Y-91929886D01*
X151619475Y-91894675D01*
X151720544Y-91877265D01*
X151828446Y-91877883D01*
X151828446Y-91877883D01*
G37*
X151828446Y-91877883D02*
X151924177Y-91896755D01*
X151978677Y-91924699D01*
X152036008Y-91971123D01*
X151954441Y-92074111D01*
X151904150Y-92136479D01*
X151870001Y-92166907D01*
X151836063Y-92171555D01*
X151786406Y-92156586D01*
X151763096Y-92148117D01*
X151668063Y-92135622D01*
X151581032Y-92162406D01*
X151517138Y-92222915D01*
X151506759Y-92242208D01*
X151495456Y-92293314D01*
X151486732Y-92387500D01*
X151480997Y-92518089D01*
X151478660Y-92678405D01*
X151478627Y-92701211D01*
X151478627Y-93098471D01*
X151204705Y-93098471D01*
X151204705Y-91878275D01*
X151341666Y-91878275D01*
X151420638Y-91880337D01*
X151461779Y-91889513D01*
X151476992Y-91910290D01*
X151478627Y-91929886D01*
X151478627Y-91981497D01*
X151544240Y-91929886D01*
X151619475Y-91894675D01*
X151720544Y-91877265D01*
X151828446Y-91877883D01*
G36*
X150646459Y-91885669D02*
G01*
X150751420Y-91911163D01*
X150781761Y-91924669D01*
X150840573Y-91960046D01*
X150885709Y-91999890D01*
X150919106Y-92051120D01*
X150942701Y-92120654D01*
X150958433Y-92215409D01*
X150968239Y-92342305D01*
X150974057Y-92508258D01*
X150976266Y-92619108D01*
X150984396Y-93098471D01*
X150845531Y-93098471D01*
X150761287Y-93094938D01*
X150717884Y-93082866D01*
X150706666Y-93062594D01*
X150700744Y-93040674D01*
X150674266Y-93044865D01*
X150638186Y-93062441D01*
X150547862Y-93089382D01*
X150431777Y-93096642D01*
X150309680Y-93084767D01*
X150201321Y-93054305D01*
X150191602Y-93050077D01*
X150092568Y-92980505D01*
X150027281Y-92883789D01*
X149997240Y-92770738D01*
X149999535Y-92730122D01*
X150244633Y-92730122D01*
X150266229Y-92784782D01*
X150330259Y-92823952D01*
X150433565Y-92844974D01*
X150488774Y-92847766D01*
X150580782Y-92840620D01*
X150641941Y-92812848D01*
X150656862Y-92799647D01*
X150697287Y-92727829D01*
X150706666Y-92662686D01*
X150706666Y-92575530D01*
X150585269Y-92575530D01*
X150444153Y-92582722D01*
X150345173Y-92605345D01*
X150282633Y-92644964D01*
X150268631Y-92662628D01*
X150244633Y-92730122D01*
X149999535Y-92730122D01*
X150003941Y-92652157D01*
X150048880Y-92538855D01*
X150110196Y-92462285D01*
X150147332Y-92429181D01*
X150183687Y-92407425D01*
X150230990Y-92394161D01*
X150300973Y-92386528D01*
X150405364Y-92381670D01*
X150446770Y-92380273D01*
X150706666Y-92371780D01*
X150706285Y-92293116D01*
X150696219Y-92210428D01*
X150659829Y-92160431D01*
X150586311Y-92128489D01*
X150584339Y-92127920D01*
X150480105Y-92115361D01*
X150378108Y-92131766D01*
X150302305Y-92171657D01*
X150271890Y-92191354D01*
X150239132Y-92188629D01*
X150188721Y-92160091D01*
X150159119Y-92139950D01*
X150101218Y-92096919D01*
X150065352Y-92064662D01*
X150059597Y-92055427D01*
X150083295Y-92007636D01*
X150153313Y-91950562D01*
X150183725Y-91931305D01*
X150271155Y-91898140D01*
X150388983Y-91879350D01*
X150519866Y-91875129D01*
X150646459Y-91885669D01*
X150646459Y-91885669D01*
G37*
X150646459Y-91885669D02*
X150751420Y-91911163D01*
X150781761Y-91924669D01*
X150840573Y-91960046D01*
X150885709Y-91999890D01*
X150919106Y-92051120D01*
X150942701Y-92120654D01*
X150958433Y-92215409D01*
X150968239Y-92342305D01*
X150974057Y-92508258D01*
X150976266Y-92619108D01*
X150984396Y-93098471D01*
X150845531Y-93098471D01*
X150761287Y-93094938D01*
X150717884Y-93082866D01*
X150706666Y-93062594D01*
X150700744Y-93040674D01*
X150674266Y-93044865D01*
X150638186Y-93062441D01*
X150547862Y-93089382D01*
X150431777Y-93096642D01*
X150309680Y-93084767D01*
X150201321Y-93054305D01*
X150191602Y-93050077D01*
X150092568Y-92980505D01*
X150027281Y-92883789D01*
X149997240Y-92770738D01*
X149999535Y-92730122D01*
X150244633Y-92730122D01*
X150266229Y-92784782D01*
X150330259Y-92823952D01*
X150433565Y-92844974D01*
X150488774Y-92847766D01*
X150580782Y-92840620D01*
X150641941Y-92812848D01*
X150656862Y-92799647D01*
X150697287Y-92727829D01*
X150706666Y-92662686D01*
X150706666Y-92575530D01*
X150585269Y-92575530D01*
X150444153Y-92582722D01*
X150345173Y-92605345D01*
X150282633Y-92644964D01*
X150268631Y-92662628D01*
X150244633Y-92730122D01*
X149999535Y-92730122D01*
X150003941Y-92652157D01*
X150048880Y-92538855D01*
X150110196Y-92462285D01*
X150147332Y-92429181D01*
X150183687Y-92407425D01*
X150230990Y-92394161D01*
X150300973Y-92386528D01*
X150405364Y-92381670D01*
X150446770Y-92380273D01*
X150706666Y-92371780D01*
X150706285Y-92293116D01*
X150696219Y-92210428D01*
X150659829Y-92160431D01*
X150586311Y-92128489D01*
X150584339Y-92127920D01*
X150480105Y-92115361D01*
X150378108Y-92131766D01*
X150302305Y-92171657D01*
X150271890Y-92191354D01*
X150239132Y-92188629D01*
X150188721Y-92160091D01*
X150159119Y-92139950D01*
X150101218Y-92096919D01*
X150065352Y-92064662D01*
X150059597Y-92055427D01*
X150083295Y-92007636D01*
X150153313Y-91950562D01*
X150183725Y-91931305D01*
X150271155Y-91898140D01*
X150388983Y-91879350D01*
X150519866Y-91875129D01*
X150646459Y-91885669D01*
G36*
X149147528Y-91883332D02*
G01*
X149246014Y-91890726D01*
X149374776Y-92276706D01*
X149503537Y-92662686D01*
X149543911Y-92525726D01*
X149568207Y-92441083D01*
X149600167Y-92326697D01*
X149634679Y-92200963D01*
X149652928Y-92133520D01*
X149721571Y-91878275D01*
X150004773Y-91878275D01*
X149920122Y-92145971D01*
X149878435Y-92277638D01*
X149828074Y-92436458D01*
X149775481Y-92602128D01*
X149728530Y-92749843D01*
X149621589Y-93086020D01*
X149390661Y-93101044D01*
X149328050Y-92894316D01*
X149289438Y-92765896D01*
X149247300Y-92624322D01*
X149210472Y-92499285D01*
X149209018Y-92494309D01*
X149181511Y-92409586D01*
X149157242Y-92351778D01*
X149140243Y-92329918D01*
X149136750Y-92332446D01*
X149124490Y-92366336D01*
X149101195Y-92438930D01*
X149069700Y-92541101D01*
X149032842Y-92663720D01*
X149012899Y-92731167D01*
X148904895Y-93098471D01*
X148675679Y-93098471D01*
X148492439Y-92519500D01*
X148440963Y-92357091D01*
X148394070Y-92209602D01*
X148353977Y-92083960D01*
X148322897Y-91987095D01*
X148303045Y-91925934D01*
X148297011Y-91908065D01*
X148301788Y-91889768D01*
X148339297Y-91881755D01*
X148417355Y-91882557D01*
X148429574Y-91883163D01*
X148574326Y-91890726D01*
X148669130Y-92239353D01*
X148703977Y-92366497D01*
X148735117Y-92478265D01*
X148759809Y-92564953D01*
X148775312Y-92616856D01*
X148778176Y-92625318D01*
X148790046Y-92615587D01*
X148813983Y-92565172D01*
X148847239Y-92480935D01*
X148887064Y-92369741D01*
X148920730Y-92269297D01*
X149049041Y-91875939D01*
X149147528Y-91883332D01*
X149147528Y-91883332D01*
G37*
X149147528Y-91883332D02*
X149246014Y-91890726D01*
X149374776Y-92276706D01*
X149503537Y-92662686D01*
X149543911Y-92525726D01*
X149568207Y-92441083D01*
X149600167Y-92326697D01*
X149634679Y-92200963D01*
X149652928Y-92133520D01*
X149721571Y-91878275D01*
X150004773Y-91878275D01*
X149920122Y-92145971D01*
X149878435Y-92277638D01*
X149828074Y-92436458D01*
X149775481Y-92602128D01*
X149728530Y-92749843D01*
X149621589Y-93086020D01*
X149390661Y-93101044D01*
X149328050Y-92894316D01*
X149289438Y-92765896D01*
X149247300Y-92624322D01*
X149210472Y-92499285D01*
X149209018Y-92494309D01*
X149181511Y-92409586D01*
X149157242Y-92351778D01*
X149140243Y-92329918D01*
X149136750Y-92332446D01*
X149124490Y-92366336D01*
X149101195Y-92438930D01*
X149069700Y-92541101D01*
X149032842Y-92663720D01*
X149012899Y-92731167D01*
X148904895Y-93098471D01*
X148675679Y-93098471D01*
X148492439Y-92519500D01*
X148440963Y-92357091D01*
X148394070Y-92209602D01*
X148353977Y-92083960D01*
X148322897Y-91987095D01*
X148303045Y-91925934D01*
X148297011Y-91908065D01*
X148301788Y-91889768D01*
X148339297Y-91881755D01*
X148417355Y-91882557D01*
X148429574Y-91883163D01*
X148574326Y-91890726D01*
X148669130Y-92239353D01*
X148703977Y-92366497D01*
X148735117Y-92478265D01*
X148759809Y-92564953D01*
X148775312Y-92616856D01*
X148778176Y-92625318D01*
X148790046Y-92615587D01*
X148813983Y-92565172D01*
X148847239Y-92480935D01*
X148887064Y-92369741D01*
X148920730Y-92269297D01*
X149049041Y-91875939D01*
X149147528Y-91883332D01*
G36*
X148191568Y-93098471D02*
G01*
X148054607Y-93098471D01*
X147975111Y-93096140D01*
X147933708Y-93086488D01*
X147918801Y-93065525D01*
X147917647Y-93051351D01*
X147915133Y-93022927D01*
X147899280Y-93017475D01*
X147857621Y-93034998D01*
X147825224Y-93051351D01*
X147700849Y-93090103D01*
X147565646Y-93092346D01*
X147455726Y-93063444D01*
X147353366Y-92993619D01*
X147275340Y-92890555D01*
X147232614Y-92768989D01*
X147231526Y-92762192D01*
X147225178Y-92688032D01*
X147222021Y-92581570D01*
X147222275Y-92501052D01*
X147494289Y-92501052D01*
X147500590Y-92608070D01*
X147514925Y-92696278D01*
X147534331Y-92746090D01*
X147607746Y-92814162D01*
X147694914Y-92838564D01*
X147784804Y-92818831D01*
X147861617Y-92759968D01*
X147890708Y-92720379D01*
X147907717Y-92673138D01*
X147915684Y-92604181D01*
X147917647Y-92500607D01*
X147914134Y-92398039D01*
X147904857Y-92307921D01*
X147891706Y-92247613D01*
X147889514Y-92242208D01*
X147836478Y-92177940D01*
X147759067Y-92142656D01*
X147672454Y-92136959D01*
X147591807Y-92161453D01*
X147532297Y-92216742D01*
X147526124Y-92227743D01*
X147506801Y-92294827D01*
X147496274Y-92391284D01*
X147494289Y-92501052D01*
X147222275Y-92501052D01*
X147222404Y-92460225D01*
X147224194Y-92394918D01*
X147236373Y-92233355D01*
X147261685Y-92112053D01*
X147303793Y-92022379D01*
X147366359Y-91955699D01*
X147427100Y-91916557D01*
X147511964Y-91889040D01*
X147617515Y-91879603D01*
X147725598Y-91887290D01*
X147818058Y-91911146D01*
X147866910Y-91939685D01*
X147917647Y-91985601D01*
X147917647Y-91405137D01*
X148191568Y-91405137D01*
X148191568Y-93098471D01*
X148191568Y-93098471D01*
G37*
X148191568Y-93098471D02*
X148054607Y-93098471D01*
X147975111Y-93096140D01*
X147933708Y-93086488D01*
X147918801Y-93065525D01*
X147917647Y-93051351D01*
X147915133Y-93022927D01*
X147899280Y-93017475D01*
X147857621Y-93034998D01*
X147825224Y-93051351D01*
X147700849Y-93090103D01*
X147565646Y-93092346D01*
X147455726Y-93063444D01*
X147353366Y-92993619D01*
X147275340Y-92890555D01*
X147232614Y-92768989D01*
X147231526Y-92762192D01*
X147225178Y-92688032D01*
X147222021Y-92581570D01*
X147222275Y-92501052D01*
X147494289Y-92501052D01*
X147500590Y-92608070D01*
X147514925Y-92696278D01*
X147534331Y-92746090D01*
X147607746Y-92814162D01*
X147694914Y-92838564D01*
X147784804Y-92818831D01*
X147861617Y-92759968D01*
X147890708Y-92720379D01*
X147907717Y-92673138D01*
X147915684Y-92604181D01*
X147917647Y-92500607D01*
X147914134Y-92398039D01*
X147904857Y-92307921D01*
X147891706Y-92247613D01*
X147889514Y-92242208D01*
X147836478Y-92177940D01*
X147759067Y-92142656D01*
X147672454Y-92136959D01*
X147591807Y-92161453D01*
X147532297Y-92216742D01*
X147526124Y-92227743D01*
X147506801Y-92294827D01*
X147496274Y-92391284D01*
X147494289Y-92501052D01*
X147222275Y-92501052D01*
X147222404Y-92460225D01*
X147224194Y-92394918D01*
X147236373Y-92233355D01*
X147261685Y-92112053D01*
X147303793Y-92022379D01*
X147366359Y-91955699D01*
X147427100Y-91916557D01*
X147511964Y-91889040D01*
X147617515Y-91879603D01*
X147725598Y-91887290D01*
X147818058Y-91911146D01*
X147866910Y-91939685D01*
X147917647Y-91985601D01*
X147917647Y-91405137D01*
X148191568Y-91405137D01*
X148191568Y-93098471D01*
G36*
X146622764Y-91880921D02*
G01*
X146660030Y-91892091D01*
X146672043Y-91916633D01*
X146672549Y-91927712D01*
X146674704Y-91958572D01*
X146689551Y-91963417D01*
X146729657Y-91942260D01*
X146753480Y-91927806D01*
X146828638Y-91896850D01*
X146918406Y-91881544D01*
X147012529Y-91880367D01*
X147100754Y-91891799D01*
X147172826Y-91914320D01*
X147218492Y-91946409D01*
X147227498Y-91986545D01*
X147222953Y-91997415D01*
X147189821Y-92042534D01*
X147138445Y-92098026D01*
X147129152Y-92106996D01*
X147080182Y-92148245D01*
X147037931Y-92161572D01*
X146978841Y-92152271D01*
X146955169Y-92146090D01*
X146881504Y-92131246D01*
X146829710Y-92137921D01*
X146785969Y-92161465D01*
X146745902Y-92193061D01*
X146716392Y-92232798D01*
X146695884Y-92288252D01*
X146682824Y-92367003D01*
X146675656Y-92476629D01*
X146672824Y-92624706D01*
X146672549Y-92714111D01*
X146672549Y-93098471D01*
X146423529Y-93098471D01*
X146423529Y-91878275D01*
X146548039Y-91878275D01*
X146622764Y-91880921D01*
X146622764Y-91880921D01*
G37*
X146622764Y-91880921D02*
X146660030Y-91892091D01*
X146672043Y-91916633D01*
X146672549Y-91927712D01*
X146674704Y-91958572D01*
X146689551Y-91963417D01*
X146729657Y-91942260D01*
X146753480Y-91927806D01*
X146828638Y-91896850D01*
X146918406Y-91881544D01*
X147012529Y-91880367D01*
X147100754Y-91891799D01*
X147172826Y-91914320D01*
X147218492Y-91946409D01*
X147227498Y-91986545D01*
X147222953Y-91997415D01*
X147189821Y-92042534D01*
X147138445Y-92098026D01*
X147129152Y-92106996D01*
X147080182Y-92148245D01*
X147037931Y-92161572D01*
X146978841Y-92152271D01*
X146955169Y-92146090D01*
X146881504Y-92131246D01*
X146829710Y-92137921D01*
X146785969Y-92161465D01*
X146745902Y-92193061D01*
X146716392Y-92232798D01*
X146695884Y-92288252D01*
X146682824Y-92367003D01*
X146675656Y-92476629D01*
X146672824Y-92624706D01*
X146672549Y-92714111D01*
X146672549Y-93098471D01*
X146423529Y-93098471D01*
X146423529Y-91878275D01*
X146548039Y-91878275D01*
X146622764Y-91880921D01*
G36*
X145848720Y-91887922D02*
G01*
X145965870Y-91919180D01*
X146055051Y-91975837D01*
X146117984Y-92050045D01*
X146137548Y-92081716D01*
X146151992Y-92114891D01*
X146162089Y-92157329D01*
X146168615Y-92216788D01*
X146172342Y-92301029D01*
X146174046Y-92417810D01*
X146174500Y-92574890D01*
X146174509Y-92616565D01*
X146174509Y-93098471D01*
X146054980Y-93098471D01*
X145978739Y-93093131D01*
X145922366Y-93079604D01*
X145908242Y-93071262D01*
X145869630Y-93056864D01*
X145830192Y-93071262D01*
X145765262Y-93089237D01*
X145670945Y-93096472D01*
X145566407Y-93093333D01*
X145470811Y-93080186D01*
X145415000Y-93063318D01*
X145306998Y-92993986D01*
X145239503Y-92897772D01*
X145209159Y-92769844D01*
X145208877Y-92766559D01*
X145211540Y-92709808D01*
X145452353Y-92709808D01*
X145473405Y-92774358D01*
X145507697Y-92810686D01*
X145576532Y-92838162D01*
X145667390Y-92849129D01*
X145760042Y-92843731D01*
X145834256Y-92822110D01*
X145855049Y-92808239D01*
X145891381Y-92744143D01*
X145900588Y-92671278D01*
X145900588Y-92575530D01*
X145762827Y-92575530D01*
X145631953Y-92585605D01*
X145532741Y-92614148D01*
X145471023Y-92658639D01*
X145452353Y-92709808D01*
X145211540Y-92709808D01*
X145215436Y-92626790D01*
X145261534Y-92516282D01*
X145348200Y-92432712D01*
X145360179Y-92425110D01*
X145411655Y-92400357D01*
X145475368Y-92385368D01*
X145564435Y-92378082D01*
X145670245Y-92376407D01*
X145900588Y-92376314D01*
X145900588Y-92279755D01*
X145890817Y-92204836D01*
X145865884Y-92154644D01*
X145862965Y-92151972D01*
X145807481Y-92130015D01*
X145723727Y-92121505D01*
X145631167Y-92125687D01*
X145549270Y-92141809D01*
X145500673Y-92165990D01*
X145474341Y-92185359D01*
X145446535Y-92189057D01*
X145408161Y-92173188D01*
X145350125Y-92133855D01*
X145263331Y-92067164D01*
X145255365Y-92060916D01*
X145259447Y-92037800D01*
X145293501Y-91999352D01*
X145345260Y-91956627D01*
X145402455Y-91920679D01*
X145420425Y-91912191D01*
X145485972Y-91895252D01*
X145582020Y-91883170D01*
X145689329Y-91878323D01*
X145694347Y-91878313D01*
X145848720Y-91887922D01*
X145848720Y-91887922D01*
G37*
X145848720Y-91887922D02*
X145965870Y-91919180D01*
X146055051Y-91975837D01*
X146117984Y-92050045D01*
X146137548Y-92081716D01*
X146151992Y-92114891D01*
X146162089Y-92157329D01*
X146168615Y-92216788D01*
X146172342Y-92301029D01*
X146174046Y-92417810D01*
X146174500Y-92574890D01*
X146174509Y-92616565D01*
X146174509Y-93098471D01*
X146054980Y-93098471D01*
X145978739Y-93093131D01*
X145922366Y-93079604D01*
X145908242Y-93071262D01*
X145869630Y-93056864D01*
X145830192Y-93071262D01*
X145765262Y-93089237D01*
X145670945Y-93096472D01*
X145566407Y-93093333D01*
X145470811Y-93080186D01*
X145415000Y-93063318D01*
X145306998Y-92993986D01*
X145239503Y-92897772D01*
X145209159Y-92769844D01*
X145208877Y-92766559D01*
X145211540Y-92709808D01*
X145452353Y-92709808D01*
X145473405Y-92774358D01*
X145507697Y-92810686D01*
X145576532Y-92838162D01*
X145667390Y-92849129D01*
X145760042Y-92843731D01*
X145834256Y-92822110D01*
X145855049Y-92808239D01*
X145891381Y-92744143D01*
X145900588Y-92671278D01*
X145900588Y-92575530D01*
X145762827Y-92575530D01*
X145631953Y-92585605D01*
X145532741Y-92614148D01*
X145471023Y-92658639D01*
X145452353Y-92709808D01*
X145211540Y-92709808D01*
X145215436Y-92626790D01*
X145261534Y-92516282D01*
X145348200Y-92432712D01*
X145360179Y-92425110D01*
X145411655Y-92400357D01*
X145475368Y-92385368D01*
X145564435Y-92378082D01*
X145670245Y-92376407D01*
X145900588Y-92376314D01*
X145900588Y-92279755D01*
X145890817Y-92204836D01*
X145865884Y-92154644D01*
X145862965Y-92151972D01*
X145807481Y-92130015D01*
X145723727Y-92121505D01*
X145631167Y-92125687D01*
X145549270Y-92141809D01*
X145500673Y-92165990D01*
X145474341Y-92185359D01*
X145446535Y-92189057D01*
X145408161Y-92173188D01*
X145350125Y-92133855D01*
X145263331Y-92067164D01*
X145255365Y-92060916D01*
X145259447Y-92037800D01*
X145293501Y-91999352D01*
X145345260Y-91956627D01*
X145402455Y-91920679D01*
X145420425Y-91912191D01*
X145485972Y-91895252D01*
X145582020Y-91883170D01*
X145689329Y-91878323D01*
X145694347Y-91878313D01*
X145848720Y-91887922D01*
G36*
X144809909Y-90031560D02*
G01*
X144862412Y-90057499D01*
X144927158Y-90102700D01*
X144974347Y-90151991D01*
X145006665Y-90213885D01*
X145026797Y-90296896D01*
X145037430Y-90409538D01*
X145041247Y-90560324D01*
X145041470Y-90625149D01*
X145040818Y-90767221D01*
X145038112Y-90868757D01*
X145032224Y-90939015D01*
X145022027Y-90987256D01*
X145006394Y-91022738D01*
X144990128Y-91046943D01*
X144886295Y-91149929D01*
X144764021Y-91211874D01*
X144632114Y-91230506D01*
X144499384Y-91203549D01*
X144457333Y-91184486D01*
X144356666Y-91132015D01*
X144356666Y-91954259D01*
X144430135Y-91916267D01*
X144526941Y-91886872D01*
X144645928Y-91879342D01*
X144764745Y-91893245D01*
X144854473Y-91924476D01*
X144928899Y-91983954D01*
X144992490Y-92069066D01*
X144997271Y-92077805D01*
X145017437Y-92118966D01*
X145032165Y-92160454D01*
X145042303Y-92210713D01*
X145048699Y-92278184D01*
X145052201Y-92371309D01*
X145053658Y-92498531D01*
X145053921Y-92641701D01*
X145053921Y-93098471D01*
X144780000Y-93098471D01*
X144780000Y-92256231D01*
X144703383Y-92191763D01*
X144623793Y-92140194D01*
X144548422Y-92130818D01*
X144472633Y-92154947D01*
X144432241Y-92178574D01*
X144402179Y-92212227D01*
X144380797Y-92263087D01*
X144366450Y-92338334D01*
X144357490Y-92445146D01*
X144352270Y-92590704D01*
X144350431Y-92687588D01*
X144344215Y-93086020D01*
X144213480Y-93093547D01*
X144082745Y-93101073D01*
X144082745Y-90628582D01*
X144356666Y-90628582D01*
X144363650Y-90766423D01*
X144387182Y-90862107D01*
X144431135Y-90921641D01*
X144499382Y-90951029D01*
X144568333Y-90956902D01*
X144646386Y-90950154D01*
X144698189Y-90923594D01*
X144730583Y-90888499D01*
X144756084Y-90850752D01*
X144771265Y-90808700D01*
X144778019Y-90749779D01*
X144778241Y-90661428D01*
X144775968Y-90587448D01*
X144770749Y-90476000D01*
X144762979Y-90402833D01*
X144749895Y-90356422D01*
X144728732Y-90325244D01*
X144708760Y-90307223D01*
X144625314Y-90267925D01*
X144526551Y-90261579D01*
X144469841Y-90275116D01*
X144413692Y-90323233D01*
X144376499Y-90416833D01*
X144358472Y-90555254D01*
X144356666Y-90628582D01*
X144082745Y-90628582D01*
X144082745Y-90010628D01*
X144219705Y-90010628D01*
X144301935Y-90013879D01*
X144344360Y-90025426D01*
X144356661Y-90047952D01*
X144356666Y-90048620D01*
X144362374Y-90070681D01*
X144387547Y-90068176D01*
X144437598Y-90043935D01*
X144554219Y-90006851D01*
X144685429Y-90002953D01*
X144809909Y-90031560D01*
X144809909Y-90031560D01*
G37*
X144809909Y-90031560D02*
X144862412Y-90057499D01*
X144927158Y-90102700D01*
X144974347Y-90151991D01*
X145006665Y-90213885D01*
X145026797Y-90296896D01*
X145037430Y-90409538D01*
X145041247Y-90560324D01*
X145041470Y-90625149D01*
X145040818Y-90767221D01*
X145038112Y-90868757D01*
X145032224Y-90939015D01*
X145022027Y-90987256D01*
X145006394Y-91022738D01*
X144990128Y-91046943D01*
X144886295Y-91149929D01*
X144764021Y-91211874D01*
X144632114Y-91230506D01*
X144499384Y-91203549D01*
X144457333Y-91184486D01*
X144356666Y-91132015D01*
X144356666Y-91954259D01*
X144430135Y-91916267D01*
X144526941Y-91886872D01*
X144645928Y-91879342D01*
X144764745Y-91893245D01*
X144854473Y-91924476D01*
X144928899Y-91983954D01*
X144992490Y-92069066D01*
X144997271Y-92077805D01*
X145017437Y-92118966D01*
X145032165Y-92160454D01*
X145042303Y-92210713D01*
X145048699Y-92278184D01*
X145052201Y-92371309D01*
X145053658Y-92498531D01*
X145053921Y-92641701D01*
X145053921Y-93098471D01*
X144780000Y-93098471D01*
X144780000Y-92256231D01*
X144703383Y-92191763D01*
X144623793Y-92140194D01*
X144548422Y-92130818D01*
X144472633Y-92154947D01*
X144432241Y-92178574D01*
X144402179Y-92212227D01*
X144380797Y-92263087D01*
X144366450Y-92338334D01*
X144357490Y-92445146D01*
X144352270Y-92590704D01*
X144350431Y-92687588D01*
X144344215Y-93086020D01*
X144213480Y-93093547D01*
X144082745Y-93101073D01*
X144082745Y-90628582D01*
X144356666Y-90628582D01*
X144363650Y-90766423D01*
X144387182Y-90862107D01*
X144431135Y-90921641D01*
X144499382Y-90951029D01*
X144568333Y-90956902D01*
X144646386Y-90950154D01*
X144698189Y-90923594D01*
X144730583Y-90888499D01*
X144756084Y-90850752D01*
X144771265Y-90808700D01*
X144778019Y-90749779D01*
X144778241Y-90661428D01*
X144775968Y-90587448D01*
X144770749Y-90476000D01*
X144762979Y-90402833D01*
X144749895Y-90356422D01*
X144728732Y-90325244D01*
X144708760Y-90307223D01*
X144625314Y-90267925D01*
X144526551Y-90261579D01*
X144469841Y-90275116D01*
X144413692Y-90323233D01*
X144376499Y-90416833D01*
X144358472Y-90555254D01*
X144356666Y-90628582D01*
X144082745Y-90628582D01*
X144082745Y-90010628D01*
X144219705Y-90010628D01*
X144301935Y-90013879D01*
X144344360Y-90025426D01*
X144356661Y-90047952D01*
X144356666Y-90048620D01*
X144362374Y-90070681D01*
X144387547Y-90068176D01*
X144437598Y-90043935D01*
X144554219Y-90006851D01*
X144685429Y-90002953D01*
X144809909Y-90031560D01*
D11*
X136585000Y-103565000D02*
X136585000Y-100905000D01*
X126365000Y-103565000D02*
X136585000Y-103565000D01*
X126365000Y-100905000D02*
X136585000Y-100905000D01*
X126365000Y-103565000D02*
X126365000Y-100905000D01*
X125095000Y-103565000D02*
X123765000Y-103565000D01*
X123765000Y-103565000D02*
X123765000Y-102235000D01*
X123765000Y-99629999D02*
X123765000Y-98299999D01*
X125095000Y-99629999D02*
X123765000Y-99629999D01*
X126365000Y-99629999D02*
X126365000Y-96969999D01*
X126365000Y-96969999D02*
X136585000Y-96969999D01*
X126365000Y-99629999D02*
X136585000Y-99629999D01*
X136585000Y-99629999D02*
X136585000Y-96969999D01*
X127575000Y-93405000D02*
X132775000Y-93405000D01*
X127575000Y-45085000D02*
X127575000Y-93405000D01*
X132775000Y-42485000D02*
X132775000Y-93405000D01*
X127575000Y-45085000D02*
X130175000Y-45085000D01*
X130175000Y-45085000D02*
X130175000Y-42485000D01*
X130175000Y-42485000D02*
X132775000Y-42485000D01*
X127575000Y-43815000D02*
X127575000Y-42485000D01*
X127575000Y-42485000D02*
X128905000Y-42485000D01*
X149095000Y-50530000D02*
X149095000Y-48530000D01*
X151895000Y-50530000D02*
X149095000Y-50530000D01*
X151895000Y-48530000D02*
X151895000Y-50530000D01*
X149095000Y-48530000D02*
X151895000Y-48530000D01*
D12*
X107758000Y-56285000D02*
X107358000Y-56285000D01*
X107358000Y-56285000D02*
X107358000Y-56685000D01*
X107758000Y-59285000D02*
X107358000Y-59285000D01*
X107358000Y-59285000D02*
X107358000Y-58885000D01*
X111158000Y-56685000D02*
X111158000Y-56285000D01*
X111158000Y-56285000D02*
X110758000Y-56285000D01*
X111158000Y-58885000D02*
X111158000Y-59285000D01*
X111158000Y-59285000D02*
X110758000Y-59285000D01*
X111158000Y-41505000D02*
X110758000Y-41505000D01*
X111158000Y-41105000D02*
X111158000Y-41505000D01*
X111158000Y-38505000D02*
X110758000Y-38505000D01*
X111158000Y-38905000D02*
X111158000Y-38505000D01*
X107358000Y-41505000D02*
X107358000Y-41105000D01*
X107758000Y-41505000D02*
X107358000Y-41505000D01*
X107358000Y-38505000D02*
X107358000Y-38905000D01*
X107758000Y-38505000D02*
X107358000Y-38505000D01*
D11*
X183617500Y-120400000D02*
X183617500Y-119925000D01*
X183617500Y-119925000D02*
X184092500Y-119925000D01*
X186837500Y-122670000D02*
X186837500Y-123145000D01*
X186837500Y-123145000D02*
X186362500Y-123145000D01*
X186837500Y-120400000D02*
X186837500Y-119925000D01*
X186837500Y-119925000D02*
X186362500Y-119925000D01*
X183617500Y-122670000D02*
X183617500Y-123145000D01*
D12*
X129421200Y-114657500D02*
X129421200Y-114557500D01*
X129421200Y-114557500D02*
X129821200Y-114557500D01*
X133621200Y-114657500D02*
X133621200Y-114557500D01*
X133621200Y-114557500D02*
X133171200Y-114557500D01*
X132571200Y-119757500D02*
X132971200Y-119757500D01*
X132971200Y-119757500D02*
X133071200Y-119657500D01*
X133071200Y-119657500D02*
X133471200Y-119657500D01*
X129421200Y-119657500D02*
X129421200Y-119757500D01*
X129421200Y-119757500D02*
X129771200Y-119757500D01*
D11*
X161695000Y-52280000D02*
X161695000Y-53060000D01*
X161695000Y-53060000D02*
X162695000Y-53060000D01*
X179935000Y-52280000D02*
X179935000Y-53060000D01*
X179935000Y-53060000D02*
X178935000Y-53060000D01*
X161695000Y-27315000D02*
X179935000Y-27315000D01*
X179935000Y-27315000D02*
X179935000Y-33735000D01*
X161695000Y-27315000D02*
X161695000Y-33735000D01*
X161695000Y-33735000D02*
X161315000Y-33735000D01*
D13*
X157175000Y-66370000D02*
X156775000Y-66370000D01*
X157175000Y-66370000D02*
X157175000Y-65970000D01*
X157175000Y-63170000D02*
X156775000Y-63170000D01*
X157175000Y-63170000D02*
X157175000Y-63570000D01*
X153975000Y-63170000D02*
X154375000Y-63170000D01*
X153975000Y-63170000D02*
X153975000Y-63570000D01*
X153975000Y-66370000D02*
X153975000Y-65970000D01*
D11*
X160315000Y-122420000D02*
X160315000Y-122895000D01*
X163535000Y-119675000D02*
X163060000Y-119675000D01*
X163535000Y-120150000D02*
X163535000Y-119675000D01*
X163535000Y-122895000D02*
X163060000Y-122895000D01*
X163535000Y-122420000D02*
X163535000Y-122895000D01*
X160315000Y-119675000D02*
X160790000Y-119675000D01*
X160315000Y-120150000D02*
X160315000Y-119675000D01*
D13*
X156555000Y-77805000D02*
X156555000Y-79405000D01*
X164980000Y-77805000D02*
X164980000Y-72055000D01*
X156330000Y-77805000D02*
X156330000Y-72055000D01*
X164980000Y-77805000D02*
X164680000Y-77805000D01*
X164980000Y-72055000D02*
X164680000Y-72055000D01*
X156330000Y-72055000D02*
X156630000Y-72055000D01*
X156330000Y-77805000D02*
X156555000Y-77805000D01*
X175380000Y-77805000D02*
X175605000Y-77805000D01*
X175380000Y-72055000D02*
X175680000Y-72055000D01*
X184030000Y-72055000D02*
X183730000Y-72055000D01*
X184030000Y-77805000D02*
X183730000Y-77805000D01*
X175380000Y-77805000D02*
X175380000Y-72055000D01*
X184030000Y-77805000D02*
X184030000Y-72055000D01*
X175605000Y-77805000D02*
X175605000Y-79405000D01*
D11*
X192680000Y-119412936D02*
X192680000Y-120617064D01*
X190860000Y-119412936D02*
X190860000Y-120617064D01*
X192680000Y-114267064D02*
X192680000Y-113062936D01*
X190860000Y-114267064D02*
X190860000Y-113062936D01*
X187625000Y-115975000D02*
X187625000Y-112065000D01*
X185755000Y-115975000D02*
X187625000Y-115975000D01*
X185755000Y-112065000D02*
X185755000Y-115975000D01*
X180675000Y-112065000D02*
X180675000Y-115975000D01*
X180675000Y-115975000D02*
X182545000Y-115975000D01*
X182545000Y-115975000D02*
X182545000Y-112065000D01*
X112035000Y-125762936D02*
X112035000Y-126967064D01*
X110215000Y-125762936D02*
X110215000Y-126967064D01*
X115295000Y-125762936D02*
X115295000Y-126967064D01*
X117115000Y-125762936D02*
X117115000Y-126967064D01*
X122195000Y-125762936D02*
X122195000Y-126967064D01*
X120375000Y-125762936D02*
X120375000Y-126967064D01*
X125455000Y-125762936D02*
X125455000Y-126967064D01*
X127275000Y-125762936D02*
X127275000Y-126967064D01*
X132355000Y-125762936D02*
X132355000Y-126967064D01*
X130535000Y-125762936D02*
X130535000Y-126967064D01*
X137460000Y-127965000D02*
X137460000Y-124055000D01*
X137460000Y-124055000D02*
X135590000Y-124055000D01*
X135590000Y-124055000D02*
X135590000Y-127965000D01*
X107700000Y-35860000D02*
X111610000Y-35860000D01*
X111610000Y-35860000D02*
X111610000Y-33990000D01*
X111610000Y-33990000D02*
X107700000Y-33990000D01*
X111450000Y-51770000D02*
X107540000Y-51770000D01*
X111450000Y-53640000D02*
X111450000Y-51770000D01*
X107540000Y-53640000D02*
X111450000Y-53640000D01*
X153945000Y-57752064D02*
X153945000Y-56547936D01*
X152125000Y-57752064D02*
X152125000Y-56547936D01*
X159025000Y-57882064D02*
X159025000Y-56677936D01*
X157205000Y-57882064D02*
X157205000Y-56677936D01*
X162285000Y-57752064D02*
X162285000Y-56547936D01*
X164105000Y-57752064D02*
X164105000Y-56547936D01*
X169185000Y-120617064D02*
X169185000Y-119412936D01*
X167365000Y-120617064D02*
X167365000Y-119412936D01*
X167365000Y-114397064D02*
X167365000Y-113192936D01*
X169185000Y-114397064D02*
X169185000Y-113192936D01*
X160990000Y-112065000D02*
X160990000Y-115975000D01*
X160990000Y-115975000D02*
X162860000Y-115975000D01*
X162860000Y-115975000D02*
X162860000Y-112065000D01*
X157780000Y-116055000D02*
X157780000Y-112145000D01*
X155910000Y-116055000D02*
X157780000Y-116055000D01*
X155910000Y-112145000D02*
X155910000Y-116055000D01*
X172445000Y-61627936D02*
X172445000Y-62832064D01*
X174265000Y-61627936D02*
X174265000Y-62832064D01*
X179370000Y-63910000D02*
X179370000Y-60000000D01*
X179370000Y-60000000D02*
X177500000Y-60000000D01*
X177500000Y-60000000D02*
X177500000Y-63910000D01*
X195855000Y-61630936D02*
X195855000Y-62835064D01*
X194035000Y-61630936D02*
X194035000Y-62835064D01*
X188930000Y-59920000D02*
X188930000Y-63830000D01*
X190800000Y-59920000D02*
X188930000Y-59920000D01*
X190800000Y-63830000D02*
X190800000Y-59920000D01*
X148285000Y-113800000D02*
X144400000Y-113800000D01*
X144400000Y-113800000D02*
X144400000Y-116070000D01*
X144400000Y-116070000D02*
X148285000Y-116070000D01*
X144530000Y-121150000D02*
X148415000Y-121150000D01*
X144530000Y-118880000D02*
X144530000Y-121150000D01*
X148415000Y-118880000D02*
X144530000Y-118880000D01*
D12*
X113075000Y-111425000D02*
X113075000Y-110825000D01*
X118275000Y-111425000D02*
X118275000Y-110825000D01*
X115675000Y-110225000D02*
X116175000Y-110225000D01*
X115675000Y-110225000D02*
X115175000Y-110225000D01*
X115675000Y-112025000D02*
X116175000Y-112025000D01*
X115675000Y-112025000D02*
X115175000Y-112025000D01*
D11*
X179980000Y-119542936D02*
X179980000Y-120747064D01*
X178160000Y-119542936D02*
X178160000Y-120747064D01*
X153395000Y-119542936D02*
X153395000Y-120747064D01*
X155215000Y-119542936D02*
X155215000Y-120747064D01*
X181007936Y-125455000D02*
X182212064Y-125455000D01*
X181007936Y-127275000D02*
X182212064Y-127275000D01*
X134345000Y-59657064D02*
X134345000Y-58452936D01*
X136165000Y-59657064D02*
X136165000Y-58452936D01*
X124185000Y-87662936D02*
X124185000Y-88867064D01*
X126005000Y-87662936D02*
X126005000Y-88867064D01*
X142207064Y-115845000D02*
X141002936Y-115845000D01*
X142207064Y-114025000D02*
X141002936Y-114025000D01*
X118207064Y-116565000D02*
X117002936Y-116565000D01*
X118207064Y-118385000D02*
X117002936Y-118385000D01*
X123287064Y-114025000D02*
X122082936Y-114025000D01*
X123287064Y-115845000D02*
X122082936Y-115845000D01*
X142337064Y-119105000D02*
X141132936Y-119105000D01*
X142337064Y-120925000D02*
X141132936Y-120925000D01*
X114660000Y-57182936D02*
X114660000Y-58387064D01*
X116480000Y-57182936D02*
X116480000Y-58387064D01*
X114660000Y-40477064D02*
X114660000Y-39272936D01*
X116480000Y-40477064D02*
X116480000Y-39272936D01*
X157642936Y-125455000D02*
X158847064Y-125455000D01*
X157642936Y-127275000D02*
X158847064Y-127275000D01*
X167365000Y-62962064D02*
X167365000Y-61757936D01*
X169185000Y-62962064D02*
X169185000Y-61757936D01*
X185695000Y-62832064D02*
X185695000Y-61627936D01*
X183875000Y-62832064D02*
X183875000Y-61627936D01*
X176022000Y-108712000D02*
X186182000Y-108712000D01*
X176022000Y-101092000D02*
X176022000Y-108712000D01*
X186182000Y-101092000D02*
X176022000Y-101092000D01*
X186182000Y-108712000D02*
X186182000Y-101092000D01*
X186182000Y-107442000D02*
X176022000Y-107442000D01*
X197231000Y-107315000D02*
X187071000Y-107315000D01*
X197231000Y-108585000D02*
X197231000Y-100965000D01*
X197231000Y-100965000D02*
X187071000Y-100965000D01*
X187071000Y-100965000D02*
X187071000Y-108585000D01*
X187071000Y-108585000D02*
X197231000Y-108585000D01*
X125095000Y-33655000D02*
X135255000Y-33655000D01*
X125095000Y-32385000D02*
X125095000Y-40005000D01*
X125095000Y-40005000D02*
X135255000Y-40005000D01*
X135255000Y-40005000D02*
X135255000Y-32385000D01*
X135255000Y-32385000D02*
X125095000Y-32385000D01*
X137855000Y-50105000D02*
X135195000Y-50105000D01*
X137855000Y-52705000D02*
X137855000Y-50105000D01*
X135195000Y-52705000D02*
X135195000Y-50105000D01*
X137855000Y-52705000D02*
X135195000Y-52705000D01*
X137855000Y-53975000D02*
X137855000Y-55305000D01*
X137855000Y-55305000D02*
X136525000Y-55305000D01*
X118050000Y-33595000D02*
X119380000Y-33595000D01*
X118050000Y-34925000D02*
X118050000Y-33595000D01*
X118050000Y-36195000D02*
X120710000Y-36195000D01*
X120710000Y-36195000D02*
X120710000Y-46415000D01*
X118050000Y-36195000D02*
X118050000Y-46415000D01*
X118050000Y-46415000D02*
X120710000Y-46415000D01*
X118050000Y-64195000D02*
X120710000Y-64195000D01*
X118050000Y-53975000D02*
X118050000Y-64195000D01*
X120710000Y-53975000D02*
X120710000Y-64195000D01*
X118050000Y-53975000D02*
X120710000Y-53975000D01*
X118050000Y-52705000D02*
X118050000Y-51375000D01*
X118050000Y-51375000D02*
X119380000Y-51375000D01*
X132655000Y-107255000D02*
X132655000Y-109915000D01*
X145415000Y-107255000D02*
X132655000Y-107255000D01*
X145415000Y-109915000D02*
X132655000Y-109915000D01*
X145415000Y-107255000D02*
X145415000Y-109915000D01*
X146685000Y-107255000D02*
X148015000Y-107255000D01*
X148015000Y-107255000D02*
X148015000Y-108585000D01*
X135195000Y-46415000D02*
X137855000Y-46415000D01*
X135195000Y-43815000D02*
X135195000Y-46415000D01*
X137855000Y-43815000D02*
X137855000Y-46415000D01*
X135195000Y-43815000D02*
X137855000Y-43815000D01*
X135195000Y-42545000D02*
X135195000Y-41215000D01*
X135195000Y-41215000D02*
X136525000Y-41215000D01*
X150555000Y-35500000D02*
X150555000Y-36830000D01*
X149225000Y-35500000D02*
X150555000Y-35500000D01*
X147955000Y-35500000D02*
X147955000Y-38160000D01*
X147955000Y-38160000D02*
X145355000Y-38160000D01*
X147955000Y-35500000D02*
X145355000Y-35500000D01*
X145355000Y-35500000D02*
X145355000Y-38160000D01*
X185995000Y-50740000D02*
X187325000Y-50740000D01*
X185995000Y-52070000D02*
X185995000Y-50740000D01*
X185995000Y-53340000D02*
X188655000Y-53340000D01*
X188655000Y-53340000D02*
X188655000Y-55940000D01*
X185995000Y-53340000D02*
X185995000Y-55940000D01*
X185995000Y-55940000D02*
X188655000Y-55940000D01*
X185995000Y-44510000D02*
X188655000Y-44510000D01*
X185995000Y-36830000D02*
X185995000Y-44510000D01*
X188655000Y-36830000D02*
X188655000Y-44510000D01*
X185995000Y-36830000D02*
X188655000Y-36830000D01*
X185995000Y-35560000D02*
X185995000Y-34230000D01*
X185995000Y-34230000D02*
X187325000Y-34230000D01*
X161925000Y-107315000D02*
X151765000Y-107315000D01*
X161925000Y-108585000D02*
X161925000Y-100965000D01*
X161925000Y-100965000D02*
X151765000Y-100965000D01*
X151765000Y-100965000D02*
X151765000Y-108585000D01*
X151765000Y-108585000D02*
X161925000Y-108585000D01*
X163195000Y-108585000D02*
X173355000Y-108585000D01*
X163195000Y-100965000D02*
X163195000Y-108585000D01*
X173355000Y-100965000D02*
X163195000Y-100965000D01*
X173355000Y-108585000D02*
X173355000Y-100965000D01*
X173355000Y-107315000D02*
X163195000Y-107315000D01*
X188595000Y-69850000D02*
X188595000Y-80010000D01*
X196215000Y-69850000D02*
X188595000Y-69850000D01*
X196215000Y-80010000D02*
X196215000Y-69850000D01*
X188595000Y-80010000D02*
X196215000Y-80010000D01*
X189865000Y-80010000D02*
X189865000Y-69850000D01*
X165735000Y-85090000D02*
X165735000Y-86360000D01*
X164465000Y-85090000D02*
X165735000Y-85090000D01*
X156465000Y-87402929D02*
X156465000Y-87800000D01*
X157225000Y-87402929D02*
X157225000Y-87800000D01*
X156465000Y-96460000D02*
X156465000Y-90460000D01*
X157225000Y-96460000D02*
X156465000Y-96460000D01*
X157225000Y-90460000D02*
X157225000Y-96460000D01*
X158115000Y-87800000D02*
X158115000Y-90460000D01*
X159005000Y-87402929D02*
X159005000Y-87800000D01*
X159765000Y-87402929D02*
X159765000Y-87800000D01*
X159005000Y-96460000D02*
X159005000Y-90460000D01*
X159765000Y-96460000D02*
X159005000Y-96460000D01*
X159765000Y-90460000D02*
X159765000Y-96460000D01*
X160655000Y-87800000D02*
X160655000Y-90460000D01*
X161545000Y-87402929D02*
X161545000Y-87800000D01*
X162305000Y-87402929D02*
X162305000Y-87800000D01*
X161545000Y-96460000D02*
X161545000Y-90460000D01*
X162305000Y-96460000D02*
X161545000Y-96460000D01*
X162305000Y-90460000D02*
X162305000Y-96460000D01*
X163195000Y-87800000D02*
X163195000Y-90460000D01*
X164085000Y-87470000D02*
X164085000Y-87800000D01*
X164845000Y-87470000D02*
X164845000Y-87800000D01*
X164185000Y-90460000D02*
X164185000Y-96460000D01*
X164305000Y-90460000D02*
X164305000Y-96460000D01*
X164425000Y-90460000D02*
X164425000Y-96460000D01*
X164545000Y-90460000D02*
X164545000Y-96460000D01*
X164665000Y-90460000D02*
X164665000Y-96460000D01*
X164785000Y-90460000D02*
X164785000Y-96460000D01*
X164085000Y-96460000D02*
X164085000Y-90460000D01*
X164845000Y-96460000D02*
X164085000Y-96460000D01*
X164845000Y-90460000D02*
X164845000Y-96460000D01*
X165795000Y-90460000D02*
X165795000Y-87800000D01*
X155515000Y-90460000D02*
X165795000Y-90460000D01*
X155515000Y-87800000D02*
X155515000Y-90460000D01*
X165795000Y-87800000D02*
X155515000Y-87800000D01*
X184845000Y-87800000D02*
X174565000Y-87800000D01*
X174565000Y-87800000D02*
X174565000Y-90460000D01*
X174565000Y-90460000D02*
X184845000Y-90460000D01*
X184845000Y-90460000D02*
X184845000Y-87800000D01*
X183895000Y-90460000D02*
X183895000Y-96460000D01*
X183895000Y-96460000D02*
X183135000Y-96460000D01*
X183135000Y-96460000D02*
X183135000Y-90460000D01*
X183835000Y-90460000D02*
X183835000Y-96460000D01*
X183715000Y-90460000D02*
X183715000Y-96460000D01*
X183595000Y-90460000D02*
X183595000Y-96460000D01*
X183475000Y-90460000D02*
X183475000Y-96460000D01*
X183355000Y-90460000D02*
X183355000Y-96460000D01*
X183235000Y-90460000D02*
X183235000Y-96460000D01*
X183895000Y-87470000D02*
X183895000Y-87800000D01*
X183135000Y-87470000D02*
X183135000Y-87800000D01*
X182245000Y-87800000D02*
X182245000Y-90460000D01*
X181355000Y-90460000D02*
X181355000Y-96460000D01*
X181355000Y-96460000D02*
X180595000Y-96460000D01*
X180595000Y-96460000D02*
X180595000Y-90460000D01*
X181355000Y-87402929D02*
X181355000Y-87800000D01*
X180595000Y-87402929D02*
X180595000Y-87800000D01*
X179705000Y-87800000D02*
X179705000Y-90460000D01*
X178815000Y-90460000D02*
X178815000Y-96460000D01*
X178815000Y-96460000D02*
X178055000Y-96460000D01*
X178055000Y-96460000D02*
X178055000Y-90460000D01*
X178815000Y-87402929D02*
X178815000Y-87800000D01*
X178055000Y-87402929D02*
X178055000Y-87800000D01*
X177165000Y-87800000D02*
X177165000Y-90460000D01*
X176275000Y-90460000D02*
X176275000Y-96460000D01*
X176275000Y-96460000D02*
X175515000Y-96460000D01*
X175515000Y-96460000D02*
X175515000Y-90460000D01*
X176275000Y-87402929D02*
X176275000Y-87800000D01*
X175515000Y-87402929D02*
X175515000Y-87800000D01*
X183515000Y-85090000D02*
X184785000Y-85090000D01*
X184785000Y-85090000D02*
X184785000Y-86360000D01*
D12*
X110185000Y-118985000D02*
X109685000Y-118985000D01*
X111935000Y-116585000D02*
X111935000Y-116885000D01*
X110185000Y-110885000D02*
X109735000Y-110885000D01*
X111935000Y-113035000D02*
X111935000Y-113335000D01*
X106985000Y-110885000D02*
X106185000Y-110885000D01*
X106185000Y-110885000D02*
X106185000Y-111385000D01*
X106185000Y-118535000D02*
X106185000Y-118985000D01*
X106185000Y-118985000D02*
X107035000Y-118985000D01*
X144710000Y-52405000D02*
X145010000Y-52405000D01*
X144710000Y-52730000D02*
X144710000Y-52405000D01*
X148660000Y-52405000D02*
X148660000Y-52755000D01*
X148310000Y-52405000D02*
X148660000Y-52405000D01*
X144710000Y-59355000D02*
X145085000Y-59355000D01*
X144710000Y-58905000D02*
X144710000Y-59355000D01*
X148660000Y-58730000D02*
X150110000Y-58730000D01*
X148660000Y-59030000D02*
X148660000Y-58730000D01*
X148285000Y-59355000D02*
X148660000Y-59030000D01*
X148035000Y-59355000D02*
X148285000Y-59355000D01*
X148035000Y-46655000D02*
X148285000Y-46655000D01*
X148285000Y-46655000D02*
X148660000Y-46330000D01*
X148660000Y-46330000D02*
X148660000Y-46030000D01*
X148660000Y-46030000D02*
X150110000Y-46030000D01*
X144710000Y-46205000D02*
X144710000Y-46655000D01*
X144710000Y-46655000D02*
X145085000Y-46655000D01*
X148310000Y-39705000D02*
X148660000Y-39705000D01*
X148660000Y-39705000D02*
X148660000Y-40055000D01*
X144710000Y-40030000D02*
X144710000Y-39705000D01*
X144710000Y-39705000D02*
X145010000Y-39705000D01*
D13*
X122217380Y-102568333D02*
X122931666Y-102568333D01*
X123074523Y-102615952D01*
X123169761Y-102711190D01*
X123217380Y-102854047D01*
X123217380Y-102949285D01*
X122217380Y-101615952D02*
X122217380Y-102092142D01*
X122693571Y-102139761D01*
X122645952Y-102092142D01*
X122598333Y-101996904D01*
X122598333Y-101758809D01*
X122645952Y-101663571D01*
X122693571Y-101615952D01*
X122788809Y-101568333D01*
X123026904Y-101568333D01*
X123122142Y-101615952D01*
X123169761Y-101663571D01*
X123217380Y-101758809D01*
X123217380Y-101996904D01*
X123169761Y-102092142D01*
X123122142Y-102139761D01*
X122217380Y-98633332D02*
X122931666Y-98633332D01*
X123074523Y-98680951D01*
X123169761Y-98776189D01*
X123217380Y-98919046D01*
X123217380Y-99014284D01*
X122217380Y-97728570D02*
X122217380Y-97919046D01*
X122265000Y-98014284D01*
X122312619Y-98061903D01*
X122455476Y-98157141D01*
X122645952Y-98204760D01*
X123026904Y-98204760D01*
X123122142Y-98157141D01*
X123169761Y-98109522D01*
X123217380Y-98014284D01*
X123217380Y-97823808D01*
X123169761Y-97728570D01*
X123122142Y-97680951D01*
X123026904Y-97633332D01*
X122788809Y-97633332D01*
X122693571Y-97680951D01*
X122645952Y-97728570D01*
X122598333Y-97823808D01*
X122598333Y-98014284D01*
X122645952Y-98109522D01*
X122693571Y-98157141D01*
X122788809Y-98204760D01*
X129841666Y-40937380D02*
X129841666Y-41651666D01*
X129794047Y-41794523D01*
X129698809Y-41889761D01*
X129555952Y-41937380D01*
X129460714Y-41937380D01*
X130460714Y-41365952D02*
X130365476Y-41318333D01*
X130317857Y-41270714D01*
X130270238Y-41175476D01*
X130270238Y-41127857D01*
X130317857Y-41032619D01*
X130365476Y-40985000D01*
X130460714Y-40937380D01*
X130651190Y-40937380D01*
X130746428Y-40985000D01*
X130794047Y-41032619D01*
X130841666Y-41127857D01*
X130841666Y-41175476D01*
X130794047Y-41270714D01*
X130746428Y-41318333D01*
X130651190Y-41365952D01*
X130460714Y-41365952D01*
X130365476Y-41413571D01*
X130317857Y-41461190D01*
X130270238Y-41556428D01*
X130270238Y-41746904D01*
X130317857Y-41842142D01*
X130365476Y-41889761D01*
X130460714Y-41937380D01*
X130651190Y-41937380D01*
X130746428Y-41889761D01*
X130794047Y-41842142D01*
X130841666Y-41746904D01*
X130841666Y-41556428D01*
X130794047Y-41461190D01*
X130746428Y-41413571D01*
X130651190Y-41365952D01*
X149661666Y-47182380D02*
X149661666Y-47896666D01*
X149614047Y-48039523D01*
X149518809Y-48134761D01*
X149375952Y-48182380D01*
X149280714Y-48182380D01*
X150137857Y-48182380D02*
X150137857Y-47182380D01*
X150518809Y-47182380D01*
X150614047Y-47230000D01*
X150661666Y-47277619D01*
X150709285Y-47372857D01*
X150709285Y-47515714D01*
X150661666Y-47610952D01*
X150614047Y-47658571D01*
X150518809Y-47706190D01*
X150137857Y-47706190D01*
X151661666Y-48182380D02*
X151090238Y-48182380D01*
X151375952Y-48182380D02*
X151375952Y-47182380D01*
X151280714Y-47325238D01*
X151185476Y-47420476D01*
X151090238Y-47468095D01*
X112780380Y-59332619D02*
X111780380Y-59332619D01*
X112494666Y-58999285D01*
X111780380Y-58665952D01*
X112780380Y-58665952D01*
X112780380Y-58189761D02*
X111780380Y-58189761D01*
X112685142Y-57142142D02*
X112732761Y-57189761D01*
X112780380Y-57332619D01*
X112780380Y-57427857D01*
X112732761Y-57570714D01*
X112637523Y-57665952D01*
X112542285Y-57713571D01*
X112351809Y-57761190D01*
X112208952Y-57761190D01*
X112018476Y-57713571D01*
X111923238Y-57665952D01*
X111828000Y-57570714D01*
X111780380Y-57427857D01*
X111780380Y-57332619D01*
X111828000Y-57189761D01*
X111875619Y-57142142D01*
X112780380Y-56189761D02*
X112780380Y-56761190D01*
X112780380Y-56475476D02*
X111780380Y-56475476D01*
X111923238Y-56570714D01*
X112018476Y-56665952D01*
X112066095Y-56761190D01*
X112780380Y-41552619D02*
X111780380Y-41552619D01*
X112494666Y-41219285D01*
X111780380Y-40885952D01*
X112780380Y-40885952D01*
X112780380Y-40409761D02*
X111780380Y-40409761D01*
X112685142Y-39362142D02*
X112732761Y-39409761D01*
X112780380Y-39552619D01*
X112780380Y-39647857D01*
X112732761Y-39790714D01*
X112637523Y-39885952D01*
X112542285Y-39933571D01*
X112351809Y-39981190D01*
X112208952Y-39981190D01*
X112018476Y-39933571D01*
X111923238Y-39885952D01*
X111828000Y-39790714D01*
X111780380Y-39647857D01*
X111780380Y-39552619D01*
X111828000Y-39409761D01*
X111875619Y-39362142D01*
X111875619Y-38981190D02*
X111828000Y-38933571D01*
X111780380Y-38838333D01*
X111780380Y-38600238D01*
X111828000Y-38505000D01*
X111875619Y-38457380D01*
X111970857Y-38409761D01*
X112066095Y-38409761D01*
X112208952Y-38457380D01*
X112780380Y-39028809D01*
X112780380Y-38409761D01*
X181859880Y-122296904D02*
X182669404Y-122296904D01*
X182764642Y-122249285D01*
X182812261Y-122201666D01*
X182859880Y-122106428D01*
X182859880Y-121915952D01*
X182812261Y-121820714D01*
X182764642Y-121773095D01*
X182669404Y-121725476D01*
X181859880Y-121725476D01*
X182859880Y-120725476D02*
X182859880Y-121296904D01*
X182859880Y-121011190D02*
X181859880Y-121011190D01*
X182002738Y-121106428D01*
X182097976Y-121201666D01*
X182145595Y-121296904D01*
X130759295Y-120359880D02*
X130759295Y-121169404D01*
X130806914Y-121264642D01*
X130854533Y-121312261D01*
X130949771Y-121359880D01*
X131140247Y-121359880D01*
X131235485Y-121312261D01*
X131283104Y-121264642D01*
X131330723Y-121169404D01*
X131330723Y-120359880D01*
X131759295Y-120455119D02*
X131806914Y-120407500D01*
X131902152Y-120359880D01*
X132140247Y-120359880D01*
X132235485Y-120407500D01*
X132283104Y-120455119D01*
X132330723Y-120550357D01*
X132330723Y-120645595D01*
X132283104Y-120788452D01*
X131711676Y-121359880D01*
X132330723Y-121359880D01*
X159657380Y-52371904D02*
X160466904Y-52371904D01*
X160562142Y-52324285D01*
X160609761Y-52276666D01*
X160657380Y-52181428D01*
X160657380Y-51990952D01*
X160609761Y-51895714D01*
X160562142Y-51848095D01*
X160466904Y-51800476D01*
X159657380Y-51800476D01*
X159990714Y-50895714D02*
X160657380Y-50895714D01*
X159609761Y-51133809D02*
X160324047Y-51371904D01*
X160324047Y-50752857D01*
X151777380Y-65531904D02*
X152586904Y-65531904D01*
X152682142Y-65484285D01*
X152729761Y-65436666D01*
X152777380Y-65341428D01*
X152777380Y-65150952D01*
X152729761Y-65055714D01*
X152682142Y-65008095D01*
X152586904Y-64960476D01*
X151777380Y-64960476D01*
X151777380Y-64055714D02*
X151777380Y-64246190D01*
X151825000Y-64341428D01*
X151872619Y-64389047D01*
X152015476Y-64484285D01*
X152205952Y-64531904D01*
X152586904Y-64531904D01*
X152682142Y-64484285D01*
X152729761Y-64436666D01*
X152777380Y-64341428D01*
X152777380Y-64150952D01*
X152729761Y-64055714D01*
X152682142Y-64008095D01*
X152586904Y-63960476D01*
X152348809Y-63960476D01*
X152253571Y-64008095D01*
X152205952Y-64055714D01*
X152158333Y-64150952D01*
X152158333Y-64341428D01*
X152205952Y-64436666D01*
X152253571Y-64484285D01*
X152348809Y-64531904D01*
X158557380Y-122046904D02*
X159366904Y-122046904D01*
X159462142Y-121999285D01*
X159509761Y-121951666D01*
X159557380Y-121856428D01*
X159557380Y-121665952D01*
X159509761Y-121570714D01*
X159462142Y-121523095D01*
X159366904Y-121475476D01*
X158557380Y-121475476D01*
X158557380Y-121094523D02*
X158557380Y-120427857D01*
X159557380Y-120856428D01*
X154857380Y-76168095D02*
X155666904Y-76168095D01*
X155762142Y-76120476D01*
X155809761Y-76072857D01*
X155857380Y-75977619D01*
X155857380Y-75787142D01*
X155809761Y-75691904D01*
X155762142Y-75644285D01*
X155666904Y-75596666D01*
X154857380Y-75596666D01*
X154857380Y-75215714D02*
X155857380Y-74549047D01*
X154857380Y-74549047D02*
X155857380Y-75215714D01*
X155857380Y-73644285D02*
X155857380Y-74215714D01*
X155857380Y-73930000D02*
X154857380Y-73930000D01*
X155000238Y-74025238D01*
X155095476Y-74120476D01*
X155143095Y-74215714D01*
X173907380Y-76120476D02*
X174716904Y-76120476D01*
X174812142Y-76072857D01*
X174859761Y-76025238D01*
X174907380Y-75930000D01*
X174907380Y-75739523D01*
X174859761Y-75644285D01*
X174812142Y-75596666D01*
X174716904Y-75549047D01*
X173907380Y-75549047D01*
X174431190Y-74882380D02*
X174907380Y-74882380D01*
X173907380Y-75215714D02*
X174431190Y-74882380D01*
X173907380Y-74549047D01*
X174907380Y-73691904D02*
X174907380Y-74263333D01*
X174907380Y-73977619D02*
X173907380Y-73977619D01*
X174050238Y-74072857D01*
X174145476Y-74168095D01*
X174193095Y-74263333D01*
X193947142Y-120181666D02*
X193994761Y-120229285D01*
X194042380Y-120372142D01*
X194042380Y-120467380D01*
X193994761Y-120610238D01*
X193899523Y-120705476D01*
X193804285Y-120753095D01*
X193613809Y-120800714D01*
X193470952Y-120800714D01*
X193280476Y-120753095D01*
X193185238Y-120705476D01*
X193090000Y-120610238D01*
X193042380Y-120467380D01*
X193042380Y-120372142D01*
X193090000Y-120229285D01*
X193137619Y-120181666D01*
X194042380Y-119229285D02*
X194042380Y-119800714D01*
X194042380Y-119515000D02*
X193042380Y-119515000D01*
X193185238Y-119610238D01*
X193280476Y-119705476D01*
X193328095Y-119800714D01*
X190307142Y-113831666D02*
X190354761Y-113879285D01*
X190402380Y-114022142D01*
X190402380Y-114117380D01*
X190354761Y-114260238D01*
X190259523Y-114355476D01*
X190164285Y-114403095D01*
X189973809Y-114450714D01*
X189830952Y-114450714D01*
X189640476Y-114403095D01*
X189545238Y-114355476D01*
X189450000Y-114260238D01*
X189402380Y-114117380D01*
X189402380Y-114022142D01*
X189450000Y-113879285D01*
X189497619Y-113831666D01*
X189497619Y-113450714D02*
X189450000Y-113403095D01*
X189402380Y-113307857D01*
X189402380Y-113069761D01*
X189450000Y-112974523D01*
X189497619Y-112926904D01*
X189592857Y-112879285D01*
X189688095Y-112879285D01*
X189830952Y-112926904D01*
X190402380Y-113498333D01*
X190402380Y-112879285D01*
X185297142Y-113831666D02*
X185344761Y-113879285D01*
X185392380Y-114022142D01*
X185392380Y-114117380D01*
X185344761Y-114260238D01*
X185249523Y-114355476D01*
X185154285Y-114403095D01*
X184963809Y-114450714D01*
X184820952Y-114450714D01*
X184630476Y-114403095D01*
X184535238Y-114355476D01*
X184440000Y-114260238D01*
X184392380Y-114117380D01*
X184392380Y-114022142D01*
X184440000Y-113879285D01*
X184487619Y-113831666D01*
X184392380Y-113498333D02*
X184392380Y-112879285D01*
X184773333Y-113212619D01*
X184773333Y-113069761D01*
X184820952Y-112974523D01*
X184868571Y-112926904D01*
X184963809Y-112879285D01*
X185201904Y-112879285D01*
X185297142Y-112926904D01*
X185344761Y-112974523D01*
X185392380Y-113069761D01*
X185392380Y-113355476D01*
X185344761Y-113450714D01*
X185297142Y-113498333D01*
X180217142Y-113831666D02*
X180264761Y-113879285D01*
X180312380Y-114022142D01*
X180312380Y-114117380D01*
X180264761Y-114260238D01*
X180169523Y-114355476D01*
X180074285Y-114403095D01*
X179883809Y-114450714D01*
X179740952Y-114450714D01*
X179550476Y-114403095D01*
X179455238Y-114355476D01*
X179360000Y-114260238D01*
X179312380Y-114117380D01*
X179312380Y-114022142D01*
X179360000Y-113879285D01*
X179407619Y-113831666D01*
X179645714Y-112974523D02*
X180312380Y-112974523D01*
X179264761Y-113212619D02*
X179979047Y-113450714D01*
X179979047Y-112831666D01*
X113302142Y-126531666D02*
X113349761Y-126579285D01*
X113397380Y-126722142D01*
X113397380Y-126817380D01*
X113349761Y-126960238D01*
X113254523Y-127055476D01*
X113159285Y-127103095D01*
X112968809Y-127150714D01*
X112825952Y-127150714D01*
X112635476Y-127103095D01*
X112540238Y-127055476D01*
X112445000Y-126960238D01*
X112397380Y-126817380D01*
X112397380Y-126722142D01*
X112445000Y-126579285D01*
X112492619Y-126531666D01*
X112397380Y-125626904D02*
X112397380Y-126103095D01*
X112873571Y-126150714D01*
X112825952Y-126103095D01*
X112778333Y-126007857D01*
X112778333Y-125769761D01*
X112825952Y-125674523D01*
X112873571Y-125626904D01*
X112968809Y-125579285D01*
X113206904Y-125579285D01*
X113302142Y-125626904D01*
X113349761Y-125674523D01*
X113397380Y-125769761D01*
X113397380Y-126007857D01*
X113349761Y-126103095D01*
X113302142Y-126150714D01*
X118382142Y-126531666D02*
X118429761Y-126579285D01*
X118477380Y-126722142D01*
X118477380Y-126817380D01*
X118429761Y-126960238D01*
X118334523Y-127055476D01*
X118239285Y-127103095D01*
X118048809Y-127150714D01*
X117905952Y-127150714D01*
X117715476Y-127103095D01*
X117620238Y-127055476D01*
X117525000Y-126960238D01*
X117477380Y-126817380D01*
X117477380Y-126722142D01*
X117525000Y-126579285D01*
X117572619Y-126531666D01*
X117477380Y-125674523D02*
X117477380Y-125865000D01*
X117525000Y-125960238D01*
X117572619Y-126007857D01*
X117715476Y-126103095D01*
X117905952Y-126150714D01*
X118286904Y-126150714D01*
X118382142Y-126103095D01*
X118429761Y-126055476D01*
X118477380Y-125960238D01*
X118477380Y-125769761D01*
X118429761Y-125674523D01*
X118382142Y-125626904D01*
X118286904Y-125579285D01*
X118048809Y-125579285D01*
X117953571Y-125626904D01*
X117905952Y-125674523D01*
X117858333Y-125769761D01*
X117858333Y-125960238D01*
X117905952Y-126055476D01*
X117953571Y-126103095D01*
X118048809Y-126150714D01*
X123462142Y-126531666D02*
X123509761Y-126579285D01*
X123557380Y-126722142D01*
X123557380Y-126817380D01*
X123509761Y-126960238D01*
X123414523Y-127055476D01*
X123319285Y-127103095D01*
X123128809Y-127150714D01*
X122985952Y-127150714D01*
X122795476Y-127103095D01*
X122700238Y-127055476D01*
X122605000Y-126960238D01*
X122557380Y-126817380D01*
X122557380Y-126722142D01*
X122605000Y-126579285D01*
X122652619Y-126531666D01*
X122557380Y-126198333D02*
X122557380Y-125531666D01*
X123557380Y-125960238D01*
X128542142Y-126531666D02*
X128589761Y-126579285D01*
X128637380Y-126722142D01*
X128637380Y-126817380D01*
X128589761Y-126960238D01*
X128494523Y-127055476D01*
X128399285Y-127103095D01*
X128208809Y-127150714D01*
X128065952Y-127150714D01*
X127875476Y-127103095D01*
X127780238Y-127055476D01*
X127685000Y-126960238D01*
X127637380Y-126817380D01*
X127637380Y-126722142D01*
X127685000Y-126579285D01*
X127732619Y-126531666D01*
X128065952Y-125960238D02*
X128018333Y-126055476D01*
X127970714Y-126103095D01*
X127875476Y-126150714D01*
X127827857Y-126150714D01*
X127732619Y-126103095D01*
X127685000Y-126055476D01*
X127637380Y-125960238D01*
X127637380Y-125769761D01*
X127685000Y-125674523D01*
X127732619Y-125626904D01*
X127827857Y-125579285D01*
X127875476Y-125579285D01*
X127970714Y-125626904D01*
X128018333Y-125674523D01*
X128065952Y-125769761D01*
X128065952Y-125960238D01*
X128113571Y-126055476D01*
X128161190Y-126103095D01*
X128256428Y-126150714D01*
X128446904Y-126150714D01*
X128542142Y-126103095D01*
X128589761Y-126055476D01*
X128637380Y-125960238D01*
X128637380Y-125769761D01*
X128589761Y-125674523D01*
X128542142Y-125626904D01*
X128446904Y-125579285D01*
X128256428Y-125579285D01*
X128161190Y-125626904D01*
X128113571Y-125674523D01*
X128065952Y-125769761D01*
X133622142Y-126531666D02*
X133669761Y-126579285D01*
X133717380Y-126722142D01*
X133717380Y-126817380D01*
X133669761Y-126960238D01*
X133574523Y-127055476D01*
X133479285Y-127103095D01*
X133288809Y-127150714D01*
X133145952Y-127150714D01*
X132955476Y-127103095D01*
X132860238Y-127055476D01*
X132765000Y-126960238D01*
X132717380Y-126817380D01*
X132717380Y-126722142D01*
X132765000Y-126579285D01*
X132812619Y-126531666D01*
X133717380Y-126055476D02*
X133717380Y-125865000D01*
X133669761Y-125769761D01*
X133622142Y-125722142D01*
X133479285Y-125626904D01*
X133288809Y-125579285D01*
X132907857Y-125579285D01*
X132812619Y-125626904D01*
X132765000Y-125674523D01*
X132717380Y-125769761D01*
X132717380Y-125960238D01*
X132765000Y-126055476D01*
X132812619Y-126103095D01*
X132907857Y-126150714D01*
X133145952Y-126150714D01*
X133241190Y-126103095D01*
X133288809Y-126055476D01*
X133336428Y-125960238D01*
X133336428Y-125769761D01*
X133288809Y-125674523D01*
X133241190Y-125626904D01*
X133145952Y-125579285D01*
X138632142Y-127007857D02*
X138679761Y-127055476D01*
X138727380Y-127198333D01*
X138727380Y-127293571D01*
X138679761Y-127436428D01*
X138584523Y-127531666D01*
X138489285Y-127579285D01*
X138298809Y-127626904D01*
X138155952Y-127626904D01*
X137965476Y-127579285D01*
X137870238Y-127531666D01*
X137775000Y-127436428D01*
X137727380Y-127293571D01*
X137727380Y-127198333D01*
X137775000Y-127055476D01*
X137822619Y-127007857D01*
X138727380Y-126055476D02*
X138727380Y-126626904D01*
X138727380Y-126341190D02*
X137727380Y-126341190D01*
X137870238Y-126436428D01*
X137965476Y-126531666D01*
X138013095Y-126626904D01*
X137727380Y-125436428D02*
X137727380Y-125341190D01*
X137775000Y-125245952D01*
X137822619Y-125198333D01*
X137917857Y-125150714D01*
X138108333Y-125103095D01*
X138346428Y-125103095D01*
X138536904Y-125150714D01*
X138632142Y-125198333D01*
X138679761Y-125245952D01*
X138727380Y-125341190D01*
X138727380Y-125436428D01*
X138679761Y-125531666D01*
X138632142Y-125579285D01*
X138536904Y-125626904D01*
X138346428Y-125674523D01*
X138108333Y-125674523D01*
X137917857Y-125626904D01*
X137822619Y-125579285D01*
X137775000Y-125531666D01*
X137727380Y-125436428D01*
X108657142Y-37032142D02*
X108609523Y-37079761D01*
X108466666Y-37127380D01*
X108371428Y-37127380D01*
X108228571Y-37079761D01*
X108133333Y-36984523D01*
X108085714Y-36889285D01*
X108038095Y-36698809D01*
X108038095Y-36555952D01*
X108085714Y-36365476D01*
X108133333Y-36270238D01*
X108228571Y-36175000D01*
X108371428Y-36127380D01*
X108466666Y-36127380D01*
X108609523Y-36175000D01*
X108657142Y-36222619D01*
X109609523Y-37127380D02*
X109038095Y-37127380D01*
X109323809Y-37127380D02*
X109323809Y-36127380D01*
X109228571Y-36270238D01*
X109133333Y-36365476D01*
X109038095Y-36413095D01*
X110561904Y-37127380D02*
X109990476Y-37127380D01*
X110276190Y-37127380D02*
X110276190Y-36127380D01*
X110180952Y-36270238D01*
X110085714Y-36365476D01*
X109990476Y-36413095D01*
X108497142Y-54812142D02*
X108449523Y-54859761D01*
X108306666Y-54907380D01*
X108211428Y-54907380D01*
X108068571Y-54859761D01*
X107973333Y-54764523D01*
X107925714Y-54669285D01*
X107878095Y-54478809D01*
X107878095Y-54335952D01*
X107925714Y-54145476D01*
X107973333Y-54050238D01*
X108068571Y-53955000D01*
X108211428Y-53907380D01*
X108306666Y-53907380D01*
X108449523Y-53955000D01*
X108497142Y-54002619D01*
X109449523Y-54907380D02*
X108878095Y-54907380D01*
X109163809Y-54907380D02*
X109163809Y-53907380D01*
X109068571Y-54050238D01*
X108973333Y-54145476D01*
X108878095Y-54193095D01*
X109830476Y-54002619D02*
X109878095Y-53955000D01*
X109973333Y-53907380D01*
X110211428Y-53907380D01*
X110306666Y-53955000D01*
X110354285Y-54002619D01*
X110401904Y-54097857D01*
X110401904Y-54193095D01*
X110354285Y-54335952D01*
X109782857Y-54907380D01*
X110401904Y-54907380D01*
X151572142Y-57792857D02*
X151619761Y-57840476D01*
X151667380Y-57983333D01*
X151667380Y-58078571D01*
X151619761Y-58221428D01*
X151524523Y-58316666D01*
X151429285Y-58364285D01*
X151238809Y-58411904D01*
X151095952Y-58411904D01*
X150905476Y-58364285D01*
X150810238Y-58316666D01*
X150715000Y-58221428D01*
X150667380Y-58078571D01*
X150667380Y-57983333D01*
X150715000Y-57840476D01*
X150762619Y-57792857D01*
X151667380Y-56840476D02*
X151667380Y-57411904D01*
X151667380Y-57126190D02*
X150667380Y-57126190D01*
X150810238Y-57221428D01*
X150905476Y-57316666D01*
X150953095Y-57411904D01*
X150667380Y-56507142D02*
X150667380Y-55888095D01*
X151048333Y-56221428D01*
X151048333Y-56078571D01*
X151095952Y-55983333D01*
X151143571Y-55935714D01*
X151238809Y-55888095D01*
X151476904Y-55888095D01*
X151572142Y-55935714D01*
X151619761Y-55983333D01*
X151667380Y-56078571D01*
X151667380Y-56364285D01*
X151619761Y-56459523D01*
X151572142Y-56507142D01*
X156652142Y-57922857D02*
X156699761Y-57970476D01*
X156747380Y-58113333D01*
X156747380Y-58208571D01*
X156699761Y-58351428D01*
X156604523Y-58446666D01*
X156509285Y-58494285D01*
X156318809Y-58541904D01*
X156175952Y-58541904D01*
X155985476Y-58494285D01*
X155890238Y-58446666D01*
X155795000Y-58351428D01*
X155747380Y-58208571D01*
X155747380Y-58113333D01*
X155795000Y-57970476D01*
X155842619Y-57922857D01*
X156747380Y-56970476D02*
X156747380Y-57541904D01*
X156747380Y-57256190D02*
X155747380Y-57256190D01*
X155890238Y-57351428D01*
X155985476Y-57446666D01*
X156033095Y-57541904D01*
X156080714Y-56113333D02*
X156747380Y-56113333D01*
X155699761Y-56351428D02*
X156414047Y-56589523D01*
X156414047Y-55970476D01*
X161732142Y-57792857D02*
X161779761Y-57840476D01*
X161827380Y-57983333D01*
X161827380Y-58078571D01*
X161779761Y-58221428D01*
X161684523Y-58316666D01*
X161589285Y-58364285D01*
X161398809Y-58411904D01*
X161255952Y-58411904D01*
X161065476Y-58364285D01*
X160970238Y-58316666D01*
X160875000Y-58221428D01*
X160827380Y-58078571D01*
X160827380Y-57983333D01*
X160875000Y-57840476D01*
X160922619Y-57792857D01*
X161827380Y-56840476D02*
X161827380Y-57411904D01*
X161827380Y-57126190D02*
X160827380Y-57126190D01*
X160970238Y-57221428D01*
X161065476Y-57316666D01*
X161113095Y-57411904D01*
X160827380Y-55935714D02*
X160827380Y-56411904D01*
X161303571Y-56459523D01*
X161255952Y-56411904D01*
X161208333Y-56316666D01*
X161208333Y-56078571D01*
X161255952Y-55983333D01*
X161303571Y-55935714D01*
X161398809Y-55888095D01*
X161636904Y-55888095D01*
X161732142Y-55935714D01*
X161779761Y-55983333D01*
X161827380Y-56078571D01*
X161827380Y-56316666D01*
X161779761Y-56411904D01*
X161732142Y-56459523D01*
X166812142Y-120657857D02*
X166859761Y-120705476D01*
X166907380Y-120848333D01*
X166907380Y-120943571D01*
X166859761Y-121086428D01*
X166764523Y-121181666D01*
X166669285Y-121229285D01*
X166478809Y-121276904D01*
X166335952Y-121276904D01*
X166145476Y-121229285D01*
X166050238Y-121181666D01*
X165955000Y-121086428D01*
X165907380Y-120943571D01*
X165907380Y-120848333D01*
X165955000Y-120705476D01*
X166002619Y-120657857D01*
X166907380Y-119705476D02*
X166907380Y-120276904D01*
X166907380Y-119991190D02*
X165907380Y-119991190D01*
X166050238Y-120086428D01*
X166145476Y-120181666D01*
X166193095Y-120276904D01*
X165907380Y-118848333D02*
X165907380Y-119038809D01*
X165955000Y-119134047D01*
X166002619Y-119181666D01*
X166145476Y-119276904D01*
X166335952Y-119324523D01*
X166716904Y-119324523D01*
X166812142Y-119276904D01*
X166859761Y-119229285D01*
X166907380Y-119134047D01*
X166907380Y-118943571D01*
X166859761Y-118848333D01*
X166812142Y-118800714D01*
X166716904Y-118753095D01*
X166478809Y-118753095D01*
X166383571Y-118800714D01*
X166335952Y-118848333D01*
X166288333Y-118943571D01*
X166288333Y-119134047D01*
X166335952Y-119229285D01*
X166383571Y-119276904D01*
X166478809Y-119324523D01*
X166812142Y-114437857D02*
X166859761Y-114485476D01*
X166907380Y-114628333D01*
X166907380Y-114723571D01*
X166859761Y-114866428D01*
X166764523Y-114961666D01*
X166669285Y-115009285D01*
X166478809Y-115056904D01*
X166335952Y-115056904D01*
X166145476Y-115009285D01*
X166050238Y-114961666D01*
X165955000Y-114866428D01*
X165907380Y-114723571D01*
X165907380Y-114628333D01*
X165955000Y-114485476D01*
X166002619Y-114437857D01*
X166907380Y-113485476D02*
X166907380Y-114056904D01*
X166907380Y-113771190D02*
X165907380Y-113771190D01*
X166050238Y-113866428D01*
X166145476Y-113961666D01*
X166193095Y-114056904D01*
X165907380Y-113152142D02*
X165907380Y-112485476D01*
X166907380Y-112914047D01*
X160532142Y-114307857D02*
X160579761Y-114355476D01*
X160627380Y-114498333D01*
X160627380Y-114593571D01*
X160579761Y-114736428D01*
X160484523Y-114831666D01*
X160389285Y-114879285D01*
X160198809Y-114926904D01*
X160055952Y-114926904D01*
X159865476Y-114879285D01*
X159770238Y-114831666D01*
X159675000Y-114736428D01*
X159627380Y-114593571D01*
X159627380Y-114498333D01*
X159675000Y-114355476D01*
X159722619Y-114307857D01*
X160627380Y-113355476D02*
X160627380Y-113926904D01*
X160627380Y-113641190D02*
X159627380Y-113641190D01*
X159770238Y-113736428D01*
X159865476Y-113831666D01*
X159913095Y-113926904D01*
X160055952Y-112784047D02*
X160008333Y-112879285D01*
X159960714Y-112926904D01*
X159865476Y-112974523D01*
X159817857Y-112974523D01*
X159722619Y-112926904D01*
X159675000Y-112879285D01*
X159627380Y-112784047D01*
X159627380Y-112593571D01*
X159675000Y-112498333D01*
X159722619Y-112450714D01*
X159817857Y-112403095D01*
X159865476Y-112403095D01*
X159960714Y-112450714D01*
X160008333Y-112498333D01*
X160055952Y-112593571D01*
X160055952Y-112784047D01*
X160103571Y-112879285D01*
X160151190Y-112926904D01*
X160246428Y-112974523D01*
X160436904Y-112974523D01*
X160532142Y-112926904D01*
X160579761Y-112879285D01*
X160627380Y-112784047D01*
X160627380Y-112593571D01*
X160579761Y-112498333D01*
X160532142Y-112450714D01*
X160436904Y-112403095D01*
X160246428Y-112403095D01*
X160151190Y-112450714D01*
X160103571Y-112498333D01*
X160055952Y-112593571D01*
X155452142Y-114387857D02*
X155499761Y-114435476D01*
X155547380Y-114578333D01*
X155547380Y-114673571D01*
X155499761Y-114816428D01*
X155404523Y-114911666D01*
X155309285Y-114959285D01*
X155118809Y-115006904D01*
X154975952Y-115006904D01*
X154785476Y-114959285D01*
X154690238Y-114911666D01*
X154595000Y-114816428D01*
X154547380Y-114673571D01*
X154547380Y-114578333D01*
X154595000Y-114435476D01*
X154642619Y-114387857D01*
X155547380Y-113435476D02*
X155547380Y-114006904D01*
X155547380Y-113721190D02*
X154547380Y-113721190D01*
X154690238Y-113816428D01*
X154785476Y-113911666D01*
X154833095Y-114006904D01*
X155547380Y-112959285D02*
X155547380Y-112768809D01*
X155499761Y-112673571D01*
X155452142Y-112625952D01*
X155309285Y-112530714D01*
X155118809Y-112483095D01*
X154737857Y-112483095D01*
X154642619Y-112530714D01*
X154595000Y-112578333D01*
X154547380Y-112673571D01*
X154547380Y-112864047D01*
X154595000Y-112959285D01*
X154642619Y-113006904D01*
X154737857Y-113054523D01*
X154975952Y-113054523D01*
X155071190Y-113006904D01*
X155118809Y-112959285D01*
X155166428Y-112864047D01*
X155166428Y-112673571D01*
X155118809Y-112578333D01*
X155071190Y-112530714D01*
X154975952Y-112483095D01*
X175532142Y-62872857D02*
X175579761Y-62920476D01*
X175627380Y-63063333D01*
X175627380Y-63158571D01*
X175579761Y-63301428D01*
X175484523Y-63396666D01*
X175389285Y-63444285D01*
X175198809Y-63491904D01*
X175055952Y-63491904D01*
X174865476Y-63444285D01*
X174770238Y-63396666D01*
X174675000Y-63301428D01*
X174627380Y-63158571D01*
X174627380Y-63063333D01*
X174675000Y-62920476D01*
X174722619Y-62872857D01*
X174722619Y-62491904D02*
X174675000Y-62444285D01*
X174627380Y-62349047D01*
X174627380Y-62110952D01*
X174675000Y-62015714D01*
X174722619Y-61968095D01*
X174817857Y-61920476D01*
X174913095Y-61920476D01*
X175055952Y-61968095D01*
X175627380Y-62539523D01*
X175627380Y-61920476D01*
X174627380Y-61301428D02*
X174627380Y-61206190D01*
X174675000Y-61110952D01*
X174722619Y-61063333D01*
X174817857Y-61015714D01*
X175008333Y-60968095D01*
X175246428Y-60968095D01*
X175436904Y-61015714D01*
X175532142Y-61063333D01*
X175579761Y-61110952D01*
X175627380Y-61206190D01*
X175627380Y-61301428D01*
X175579761Y-61396666D01*
X175532142Y-61444285D01*
X175436904Y-61491904D01*
X175246428Y-61539523D01*
X175008333Y-61539523D01*
X174817857Y-61491904D01*
X174722619Y-61444285D01*
X174675000Y-61396666D01*
X174627380Y-61301428D01*
X180542142Y-62952857D02*
X180589761Y-63000476D01*
X180637380Y-63143333D01*
X180637380Y-63238571D01*
X180589761Y-63381428D01*
X180494523Y-63476666D01*
X180399285Y-63524285D01*
X180208809Y-63571904D01*
X180065952Y-63571904D01*
X179875476Y-63524285D01*
X179780238Y-63476666D01*
X179685000Y-63381428D01*
X179637380Y-63238571D01*
X179637380Y-63143333D01*
X179685000Y-63000476D01*
X179732619Y-62952857D01*
X179732619Y-62571904D02*
X179685000Y-62524285D01*
X179637380Y-62429047D01*
X179637380Y-62190952D01*
X179685000Y-62095714D01*
X179732619Y-62048095D01*
X179827857Y-62000476D01*
X179923095Y-62000476D01*
X180065952Y-62048095D01*
X180637380Y-62619523D01*
X180637380Y-62000476D01*
X180637380Y-61048095D02*
X180637380Y-61619523D01*
X180637380Y-61333809D02*
X179637380Y-61333809D01*
X179780238Y-61429047D01*
X179875476Y-61524285D01*
X179923095Y-61619523D01*
X197122142Y-62875857D02*
X197169761Y-62923476D01*
X197217380Y-63066333D01*
X197217380Y-63161571D01*
X197169761Y-63304428D01*
X197074523Y-63399666D01*
X196979285Y-63447285D01*
X196788809Y-63494904D01*
X196645952Y-63494904D01*
X196455476Y-63447285D01*
X196360238Y-63399666D01*
X196265000Y-63304428D01*
X196217380Y-63161571D01*
X196217380Y-63066333D01*
X196265000Y-62923476D01*
X196312619Y-62875857D01*
X196312619Y-62494904D02*
X196265000Y-62447285D01*
X196217380Y-62352047D01*
X196217380Y-62113952D01*
X196265000Y-62018714D01*
X196312619Y-61971095D01*
X196407857Y-61923476D01*
X196503095Y-61923476D01*
X196645952Y-61971095D01*
X197217380Y-62542523D01*
X197217380Y-61923476D01*
X196312619Y-61542523D02*
X196265000Y-61494904D01*
X196217380Y-61399666D01*
X196217380Y-61161571D01*
X196265000Y-61066333D01*
X196312619Y-61018714D01*
X196407857Y-60971095D01*
X196503095Y-60971095D01*
X196645952Y-61018714D01*
X197217380Y-61590142D01*
X197217380Y-60971095D01*
X191972142Y-62872857D02*
X192019761Y-62920476D01*
X192067380Y-63063333D01*
X192067380Y-63158571D01*
X192019761Y-63301428D01*
X191924523Y-63396666D01*
X191829285Y-63444285D01*
X191638809Y-63491904D01*
X191495952Y-63491904D01*
X191305476Y-63444285D01*
X191210238Y-63396666D01*
X191115000Y-63301428D01*
X191067380Y-63158571D01*
X191067380Y-63063333D01*
X191115000Y-62920476D01*
X191162619Y-62872857D01*
X191162619Y-62491904D02*
X191115000Y-62444285D01*
X191067380Y-62349047D01*
X191067380Y-62110952D01*
X191115000Y-62015714D01*
X191162619Y-61968095D01*
X191257857Y-61920476D01*
X191353095Y-61920476D01*
X191495952Y-61968095D01*
X192067380Y-62539523D01*
X192067380Y-61920476D01*
X191067380Y-61587142D02*
X191067380Y-60968095D01*
X191448333Y-61301428D01*
X191448333Y-61158571D01*
X191495952Y-61063333D01*
X191543571Y-61015714D01*
X191638809Y-60968095D01*
X191876904Y-60968095D01*
X191972142Y-61015714D01*
X192019761Y-61063333D01*
X192067380Y-61158571D01*
X192067380Y-61444285D01*
X192019761Y-61539523D01*
X191972142Y-61587142D01*
X145946904Y-113567380D02*
X145946904Y-112567380D01*
X146185000Y-112567380D01*
X146327857Y-112615000D01*
X146423095Y-112710238D01*
X146470714Y-112805476D01*
X146518333Y-112995952D01*
X146518333Y-113138809D01*
X146470714Y-113329285D01*
X146423095Y-113424523D01*
X146327857Y-113519761D01*
X146185000Y-113567380D01*
X145946904Y-113567380D01*
X147470714Y-113567380D02*
X146899285Y-113567380D01*
X147185000Y-113567380D02*
X147185000Y-112567380D01*
X147089761Y-112710238D01*
X146994523Y-112805476D01*
X146899285Y-112853095D01*
X146076904Y-118647380D02*
X146076904Y-117647380D01*
X146315000Y-117647380D01*
X146457857Y-117695000D01*
X146553095Y-117790238D01*
X146600714Y-117885476D01*
X146648333Y-118075952D01*
X146648333Y-118218809D01*
X146600714Y-118409285D01*
X146553095Y-118504523D01*
X146457857Y-118599761D01*
X146315000Y-118647380D01*
X146076904Y-118647380D01*
X147029285Y-117742619D02*
X147076904Y-117695000D01*
X147172142Y-117647380D01*
X147410238Y-117647380D01*
X147505476Y-117695000D01*
X147553095Y-117742619D01*
X147600714Y-117837857D01*
X147600714Y-117933095D01*
X147553095Y-118075952D01*
X146981666Y-118647380D01*
X147600714Y-118647380D01*
X114741666Y-113553571D02*
X114408333Y-113553571D01*
X114408333Y-114077380D02*
X114408333Y-113077380D01*
X114884523Y-113077380D01*
X115598809Y-113553571D02*
X115741666Y-113601190D01*
X115789285Y-113648809D01*
X115836904Y-113744047D01*
X115836904Y-113886904D01*
X115789285Y-113982142D01*
X115741666Y-114029761D01*
X115646428Y-114077380D01*
X115265476Y-114077380D01*
X115265476Y-113077380D01*
X115598809Y-113077380D01*
X115694047Y-113125000D01*
X115741666Y-113172619D01*
X115789285Y-113267857D01*
X115789285Y-113363095D01*
X115741666Y-113458333D01*
X115694047Y-113505952D01*
X115598809Y-113553571D01*
X115265476Y-113553571D01*
X116789285Y-114077380D02*
X116217857Y-114077380D01*
X116503571Y-114077380D02*
X116503571Y-113077380D01*
X116408333Y-113220238D01*
X116313095Y-113315476D01*
X116217857Y-113363095D01*
X181342380Y-120311666D02*
X181342380Y-120787857D01*
X180342380Y-120787857D01*
X181342380Y-119454523D02*
X181342380Y-120025952D01*
X181342380Y-119740238D02*
X180342380Y-119740238D01*
X180485238Y-119835476D01*
X180580476Y-119930714D01*
X180628095Y-120025952D01*
X156577380Y-120311666D02*
X156577380Y-120787857D01*
X155577380Y-120787857D01*
X155672619Y-120025952D02*
X155625000Y-119978333D01*
X155577380Y-119883095D01*
X155577380Y-119645000D01*
X155625000Y-119549761D01*
X155672619Y-119502142D01*
X155767857Y-119454523D01*
X155863095Y-119454523D01*
X156005952Y-119502142D01*
X156577380Y-120073571D01*
X156577380Y-119454523D01*
X181443333Y-124997380D02*
X181110000Y-124521190D01*
X180871904Y-124997380D02*
X180871904Y-123997380D01*
X181252857Y-123997380D01*
X181348095Y-124045000D01*
X181395714Y-124092619D01*
X181443333Y-124187857D01*
X181443333Y-124330714D01*
X181395714Y-124425952D01*
X181348095Y-124473571D01*
X181252857Y-124521190D01*
X180871904Y-124521190D01*
X182395714Y-124997380D02*
X181824285Y-124997380D01*
X182110000Y-124997380D02*
X182110000Y-123997380D01*
X182014761Y-124140238D01*
X181919523Y-124235476D01*
X181824285Y-124283095D01*
X133887380Y-59221666D02*
X133411190Y-59555000D01*
X133887380Y-59793095D02*
X132887380Y-59793095D01*
X132887380Y-59412142D01*
X132935000Y-59316904D01*
X132982619Y-59269285D01*
X133077857Y-59221666D01*
X133220714Y-59221666D01*
X133315952Y-59269285D01*
X133363571Y-59316904D01*
X133411190Y-59412142D01*
X133411190Y-59793095D01*
X132982619Y-58840714D02*
X132935000Y-58793095D01*
X132887380Y-58697857D01*
X132887380Y-58459761D01*
X132935000Y-58364523D01*
X132982619Y-58316904D01*
X133077857Y-58269285D01*
X133173095Y-58269285D01*
X133315952Y-58316904D01*
X133887380Y-58888333D01*
X133887380Y-58269285D01*
X127367380Y-88431666D02*
X126891190Y-88765000D01*
X127367380Y-89003095D02*
X126367380Y-89003095D01*
X126367380Y-88622142D01*
X126415000Y-88526904D01*
X126462619Y-88479285D01*
X126557857Y-88431666D01*
X126700714Y-88431666D01*
X126795952Y-88479285D01*
X126843571Y-88526904D01*
X126891190Y-88622142D01*
X126891190Y-89003095D01*
X126367380Y-88098333D02*
X126367380Y-87479285D01*
X126748333Y-87812619D01*
X126748333Y-87669761D01*
X126795952Y-87574523D01*
X126843571Y-87526904D01*
X126938809Y-87479285D01*
X127176904Y-87479285D01*
X127272142Y-87526904D01*
X127319761Y-87574523D01*
X127367380Y-87669761D01*
X127367380Y-87955476D01*
X127319761Y-88050714D01*
X127272142Y-88098333D01*
X141438333Y-117207380D02*
X141105000Y-116731190D01*
X140866904Y-117207380D02*
X140866904Y-116207380D01*
X141247857Y-116207380D01*
X141343095Y-116255000D01*
X141390714Y-116302619D01*
X141438333Y-116397857D01*
X141438333Y-116540714D01*
X141390714Y-116635952D01*
X141343095Y-116683571D01*
X141247857Y-116731190D01*
X140866904Y-116731190D01*
X142295476Y-116540714D02*
X142295476Y-117207380D01*
X142057380Y-116159761D02*
X141819285Y-116874047D01*
X142438333Y-116874047D01*
X117438333Y-119747380D02*
X117105000Y-119271190D01*
X116866904Y-119747380D02*
X116866904Y-118747380D01*
X117247857Y-118747380D01*
X117343095Y-118795000D01*
X117390714Y-118842619D01*
X117438333Y-118937857D01*
X117438333Y-119080714D01*
X117390714Y-119175952D01*
X117343095Y-119223571D01*
X117247857Y-119271190D01*
X116866904Y-119271190D01*
X118343095Y-118747380D02*
X117866904Y-118747380D01*
X117819285Y-119223571D01*
X117866904Y-119175952D01*
X117962142Y-119128333D01*
X118200238Y-119128333D01*
X118295476Y-119175952D01*
X118343095Y-119223571D01*
X118390714Y-119318809D01*
X118390714Y-119556904D01*
X118343095Y-119652142D01*
X118295476Y-119699761D01*
X118200238Y-119747380D01*
X117962142Y-119747380D01*
X117866904Y-119699761D01*
X117819285Y-119652142D01*
X122518333Y-117207380D02*
X122185000Y-116731190D01*
X121946904Y-117207380D02*
X121946904Y-116207380D01*
X122327857Y-116207380D01*
X122423095Y-116255000D01*
X122470714Y-116302619D01*
X122518333Y-116397857D01*
X122518333Y-116540714D01*
X122470714Y-116635952D01*
X122423095Y-116683571D01*
X122327857Y-116731190D01*
X121946904Y-116731190D01*
X123375476Y-116207380D02*
X123185000Y-116207380D01*
X123089761Y-116255000D01*
X123042142Y-116302619D01*
X122946904Y-116445476D01*
X122899285Y-116635952D01*
X122899285Y-117016904D01*
X122946904Y-117112142D01*
X122994523Y-117159761D01*
X123089761Y-117207380D01*
X123280238Y-117207380D01*
X123375476Y-117159761D01*
X123423095Y-117112142D01*
X123470714Y-117016904D01*
X123470714Y-116778809D01*
X123423095Y-116683571D01*
X123375476Y-116635952D01*
X123280238Y-116588333D01*
X123089761Y-116588333D01*
X122994523Y-116635952D01*
X122946904Y-116683571D01*
X122899285Y-116778809D01*
X141568333Y-122287380D02*
X141235000Y-121811190D01*
X140996904Y-122287380D02*
X140996904Y-121287380D01*
X141377857Y-121287380D01*
X141473095Y-121335000D01*
X141520714Y-121382619D01*
X141568333Y-121477857D01*
X141568333Y-121620714D01*
X141520714Y-121715952D01*
X141473095Y-121763571D01*
X141377857Y-121811190D01*
X140996904Y-121811190D01*
X141901666Y-121287380D02*
X142568333Y-121287380D01*
X142139761Y-122287380D01*
X117842380Y-57951666D02*
X117366190Y-58285000D01*
X117842380Y-58523095D02*
X116842380Y-58523095D01*
X116842380Y-58142142D01*
X116890000Y-58046904D01*
X116937619Y-57999285D01*
X117032857Y-57951666D01*
X117175714Y-57951666D01*
X117270952Y-57999285D01*
X117318571Y-58046904D01*
X117366190Y-58142142D01*
X117366190Y-58523095D01*
X117270952Y-57380238D02*
X117223333Y-57475476D01*
X117175714Y-57523095D01*
X117080476Y-57570714D01*
X117032857Y-57570714D01*
X116937619Y-57523095D01*
X116890000Y-57475476D01*
X116842380Y-57380238D01*
X116842380Y-57189761D01*
X116890000Y-57094523D01*
X116937619Y-57046904D01*
X117032857Y-56999285D01*
X117080476Y-56999285D01*
X117175714Y-57046904D01*
X117223333Y-57094523D01*
X117270952Y-57189761D01*
X117270952Y-57380238D01*
X117318571Y-57475476D01*
X117366190Y-57523095D01*
X117461428Y-57570714D01*
X117651904Y-57570714D01*
X117747142Y-57523095D01*
X117794761Y-57475476D01*
X117842380Y-57380238D01*
X117842380Y-57189761D01*
X117794761Y-57094523D01*
X117747142Y-57046904D01*
X117651904Y-56999285D01*
X117461428Y-56999285D01*
X117366190Y-57046904D01*
X117318571Y-57094523D01*
X117270952Y-57189761D01*
X114202380Y-40041666D02*
X113726190Y-40375000D01*
X114202380Y-40613095D02*
X113202380Y-40613095D01*
X113202380Y-40232142D01*
X113250000Y-40136904D01*
X113297619Y-40089285D01*
X113392857Y-40041666D01*
X113535714Y-40041666D01*
X113630952Y-40089285D01*
X113678571Y-40136904D01*
X113726190Y-40232142D01*
X113726190Y-40613095D01*
X114202380Y-39565476D02*
X114202380Y-39375000D01*
X114154761Y-39279761D01*
X114107142Y-39232142D01*
X113964285Y-39136904D01*
X113773809Y-39089285D01*
X113392857Y-39089285D01*
X113297619Y-39136904D01*
X113250000Y-39184523D01*
X113202380Y-39279761D01*
X113202380Y-39470238D01*
X113250000Y-39565476D01*
X113297619Y-39613095D01*
X113392857Y-39660714D01*
X113630952Y-39660714D01*
X113726190Y-39613095D01*
X113773809Y-39565476D01*
X113821428Y-39470238D01*
X113821428Y-39279761D01*
X113773809Y-39184523D01*
X113726190Y-39136904D01*
X113630952Y-39089285D01*
X157602142Y-124997380D02*
X157268809Y-124521190D01*
X157030714Y-124997380D02*
X157030714Y-123997380D01*
X157411666Y-123997380D01*
X157506904Y-124045000D01*
X157554523Y-124092619D01*
X157602142Y-124187857D01*
X157602142Y-124330714D01*
X157554523Y-124425952D01*
X157506904Y-124473571D01*
X157411666Y-124521190D01*
X157030714Y-124521190D01*
X158554523Y-124997380D02*
X157983095Y-124997380D01*
X158268809Y-124997380D02*
X158268809Y-123997380D01*
X158173571Y-124140238D01*
X158078333Y-124235476D01*
X157983095Y-124283095D01*
X159173571Y-123997380D02*
X159268809Y-123997380D01*
X159364047Y-124045000D01*
X159411666Y-124092619D01*
X159459285Y-124187857D01*
X159506904Y-124378333D01*
X159506904Y-124616428D01*
X159459285Y-124806904D01*
X159411666Y-124902142D01*
X159364047Y-124949761D01*
X159268809Y-124997380D01*
X159173571Y-124997380D01*
X159078333Y-124949761D01*
X159030714Y-124902142D01*
X158983095Y-124806904D01*
X158935476Y-124616428D01*
X158935476Y-124378333D01*
X158983095Y-124187857D01*
X159030714Y-124092619D01*
X159078333Y-124045000D01*
X159173571Y-123997380D01*
X166907380Y-63002857D02*
X166431190Y-63336190D01*
X166907380Y-63574285D02*
X165907380Y-63574285D01*
X165907380Y-63193333D01*
X165955000Y-63098095D01*
X166002619Y-63050476D01*
X166097857Y-63002857D01*
X166240714Y-63002857D01*
X166335952Y-63050476D01*
X166383571Y-63098095D01*
X166431190Y-63193333D01*
X166431190Y-63574285D01*
X166907380Y-62050476D02*
X166907380Y-62621904D01*
X166907380Y-62336190D02*
X165907380Y-62336190D01*
X166050238Y-62431428D01*
X166145476Y-62526666D01*
X166193095Y-62621904D01*
X166907380Y-61098095D02*
X166907380Y-61669523D01*
X166907380Y-61383809D02*
X165907380Y-61383809D01*
X166050238Y-61479047D01*
X166145476Y-61574285D01*
X166193095Y-61669523D01*
X183417380Y-62872857D02*
X182941190Y-63206190D01*
X183417380Y-63444285D02*
X182417380Y-63444285D01*
X182417380Y-63063333D01*
X182465000Y-62968095D01*
X182512619Y-62920476D01*
X182607857Y-62872857D01*
X182750714Y-62872857D01*
X182845952Y-62920476D01*
X182893571Y-62968095D01*
X182941190Y-63063333D01*
X182941190Y-63444285D01*
X183417380Y-61920476D02*
X183417380Y-62491904D01*
X183417380Y-62206190D02*
X182417380Y-62206190D01*
X182560238Y-62301428D01*
X182655476Y-62396666D01*
X182703095Y-62491904D01*
X182512619Y-61539523D02*
X182465000Y-61491904D01*
X182417380Y-61396666D01*
X182417380Y-61158571D01*
X182465000Y-61063333D01*
X182512619Y-61015714D01*
X182607857Y-60968095D01*
X182703095Y-60968095D01*
X182845952Y-61015714D01*
X183417380Y-61587142D01*
X183417380Y-60968095D01*
X180768666Y-99274380D02*
X180768666Y-99988666D01*
X180721047Y-100131523D01*
X180625809Y-100226761D01*
X180482952Y-100274380D01*
X180387714Y-100274380D01*
X181768666Y-100274380D02*
X181197238Y-100274380D01*
X181482952Y-100274380D02*
X181482952Y-99274380D01*
X181387714Y-99417238D01*
X181292476Y-99512476D01*
X181197238Y-99560095D01*
X191817666Y-99147380D02*
X191817666Y-99861666D01*
X191770047Y-100004523D01*
X191674809Y-100099761D01*
X191531952Y-100147380D01*
X191436714Y-100147380D01*
X192246238Y-99242619D02*
X192293857Y-99195000D01*
X192389095Y-99147380D01*
X192627190Y-99147380D01*
X192722428Y-99195000D01*
X192770047Y-99242619D01*
X192817666Y-99337857D01*
X192817666Y-99433095D01*
X192770047Y-99575952D01*
X192198619Y-100147380D01*
X192817666Y-100147380D01*
X129841666Y-40727380D02*
X129841666Y-41441666D01*
X129794047Y-41584523D01*
X129698809Y-41679761D01*
X129555952Y-41727380D01*
X129460714Y-41727380D01*
X130222619Y-40727380D02*
X130841666Y-40727380D01*
X130508333Y-41108333D01*
X130651190Y-41108333D01*
X130746428Y-41155952D01*
X130794047Y-41203571D01*
X130841666Y-41298809D01*
X130841666Y-41536904D01*
X130794047Y-41632142D01*
X130746428Y-41679761D01*
X130651190Y-41727380D01*
X130365476Y-41727380D01*
X130270238Y-41679761D01*
X130222619Y-41632142D01*
X136191666Y-55757380D02*
X136191666Y-56471666D01*
X136144047Y-56614523D01*
X136048809Y-56709761D01*
X135905952Y-56757380D01*
X135810714Y-56757380D01*
X137096428Y-56090714D02*
X137096428Y-56757380D01*
X136858333Y-55709761D02*
X136620238Y-56424047D01*
X137239285Y-56424047D01*
X119046666Y-32047380D02*
X119046666Y-32761666D01*
X118999047Y-32904523D01*
X118903809Y-32999761D01*
X118760952Y-33047380D01*
X118665714Y-33047380D01*
X119570476Y-33047380D02*
X119760952Y-33047380D01*
X119856190Y-32999761D01*
X119903809Y-32952142D01*
X119999047Y-32809285D01*
X120046666Y-32618809D01*
X120046666Y-32237857D01*
X119999047Y-32142619D01*
X119951428Y-32095000D01*
X119856190Y-32047380D01*
X119665714Y-32047380D01*
X119570476Y-32095000D01*
X119522857Y-32142619D01*
X119475238Y-32237857D01*
X119475238Y-32475952D01*
X119522857Y-32571190D01*
X119570476Y-32618809D01*
X119665714Y-32666428D01*
X119856190Y-32666428D01*
X119951428Y-32618809D01*
X119999047Y-32571190D01*
X120046666Y-32475952D01*
X118570476Y-49827380D02*
X118570476Y-50541666D01*
X118522857Y-50684523D01*
X118427619Y-50779761D01*
X118284761Y-50827380D01*
X118189523Y-50827380D01*
X119570476Y-50827380D02*
X118999047Y-50827380D01*
X119284761Y-50827380D02*
X119284761Y-49827380D01*
X119189523Y-49970238D01*
X119094285Y-50065476D01*
X118999047Y-50113095D01*
X120189523Y-49827380D02*
X120284761Y-49827380D01*
X120380000Y-49875000D01*
X120427619Y-49922619D01*
X120475238Y-50017857D01*
X120522857Y-50208333D01*
X120522857Y-50446428D01*
X120475238Y-50636904D01*
X120427619Y-50732142D01*
X120380000Y-50779761D01*
X120284761Y-50827380D01*
X120189523Y-50827380D01*
X120094285Y-50779761D01*
X120046666Y-50732142D01*
X119999047Y-50636904D01*
X119951428Y-50446428D01*
X119951428Y-50208333D01*
X119999047Y-50017857D01*
X120046666Y-49922619D01*
X120094285Y-49875000D01*
X120189523Y-49827380D01*
X148467380Y-109394523D02*
X149181666Y-109394523D01*
X149324523Y-109442142D01*
X149419761Y-109537380D01*
X149467380Y-109680238D01*
X149467380Y-109775476D01*
X149467380Y-108394523D02*
X149467380Y-108965952D01*
X149467380Y-108680238D02*
X148467380Y-108680238D01*
X148610238Y-108775476D01*
X148705476Y-108870714D01*
X148753095Y-108965952D01*
X149467380Y-107442142D02*
X149467380Y-108013571D01*
X149467380Y-107727857D02*
X148467380Y-107727857D01*
X148610238Y-107823095D01*
X148705476Y-107918333D01*
X148753095Y-108013571D01*
X135715476Y-39667380D02*
X135715476Y-40381666D01*
X135667857Y-40524523D01*
X135572619Y-40619761D01*
X135429761Y-40667380D01*
X135334523Y-40667380D01*
X136715476Y-40667380D02*
X136144047Y-40667380D01*
X136429761Y-40667380D02*
X136429761Y-39667380D01*
X136334523Y-39810238D01*
X136239285Y-39905476D01*
X136144047Y-39953095D01*
X137096428Y-39762619D02*
X137144047Y-39715000D01*
X137239285Y-39667380D01*
X137477380Y-39667380D01*
X137572619Y-39715000D01*
X137620238Y-39762619D01*
X137667857Y-39857857D01*
X137667857Y-39953095D01*
X137620238Y-40095952D01*
X137048809Y-40667380D01*
X137667857Y-40667380D01*
X151007380Y-37639523D02*
X151721666Y-37639523D01*
X151864523Y-37687142D01*
X151959761Y-37782380D01*
X152007380Y-37925238D01*
X152007380Y-38020476D01*
X152007380Y-36639523D02*
X152007380Y-37210952D01*
X152007380Y-36925238D02*
X151007380Y-36925238D01*
X151150238Y-37020476D01*
X151245476Y-37115714D01*
X151293095Y-37210952D01*
X151007380Y-36306190D02*
X151007380Y-35687142D01*
X151388333Y-36020476D01*
X151388333Y-35877619D01*
X151435952Y-35782380D01*
X151483571Y-35734761D01*
X151578809Y-35687142D01*
X151816904Y-35687142D01*
X151912142Y-35734761D01*
X151959761Y-35782380D01*
X152007380Y-35877619D01*
X152007380Y-36163333D01*
X151959761Y-36258571D01*
X151912142Y-36306190D01*
X186515476Y-49192380D02*
X186515476Y-49906666D01*
X186467857Y-50049523D01*
X186372619Y-50144761D01*
X186229761Y-50192380D01*
X186134523Y-50192380D01*
X187515476Y-50192380D02*
X186944047Y-50192380D01*
X187229761Y-50192380D02*
X187229761Y-49192380D01*
X187134523Y-49335238D01*
X187039285Y-49430476D01*
X186944047Y-49478095D01*
X188372619Y-49525714D02*
X188372619Y-50192380D01*
X188134523Y-49144761D02*
X187896428Y-49859047D01*
X188515476Y-49859047D01*
X186515476Y-32682380D02*
X186515476Y-33396666D01*
X186467857Y-33539523D01*
X186372619Y-33634761D01*
X186229761Y-33682380D01*
X186134523Y-33682380D01*
X187515476Y-33682380D02*
X186944047Y-33682380D01*
X187229761Y-33682380D02*
X187229761Y-32682380D01*
X187134523Y-32825238D01*
X187039285Y-32920476D01*
X186944047Y-32968095D01*
X188420238Y-32682380D02*
X187944047Y-32682380D01*
X187896428Y-33158571D01*
X187944047Y-33110952D01*
X188039285Y-33063333D01*
X188277380Y-33063333D01*
X188372619Y-33110952D01*
X188420238Y-33158571D01*
X188467857Y-33253809D01*
X188467857Y-33491904D01*
X188420238Y-33587142D01*
X188372619Y-33634761D01*
X188277380Y-33682380D01*
X188039285Y-33682380D01*
X187944047Y-33634761D01*
X187896428Y-33587142D01*
X156035476Y-99147380D02*
X156035476Y-99861666D01*
X155987857Y-100004523D01*
X155892619Y-100099761D01*
X155749761Y-100147380D01*
X155654523Y-100147380D01*
X157035476Y-100147380D02*
X156464047Y-100147380D01*
X156749761Y-100147380D02*
X156749761Y-99147380D01*
X156654523Y-99290238D01*
X156559285Y-99385476D01*
X156464047Y-99433095D01*
X157368809Y-99147380D02*
X158035476Y-99147380D01*
X157606904Y-100147380D01*
X167465476Y-99147380D02*
X167465476Y-99861666D01*
X167417857Y-100004523D01*
X167322619Y-100099761D01*
X167179761Y-100147380D01*
X167084523Y-100147380D01*
X168465476Y-100147380D02*
X167894047Y-100147380D01*
X168179761Y-100147380D02*
X168179761Y-99147380D01*
X168084523Y-99290238D01*
X167989285Y-99385476D01*
X167894047Y-99433095D01*
X169036904Y-99575952D02*
X168941666Y-99528333D01*
X168894047Y-99480714D01*
X168846428Y-99385476D01*
X168846428Y-99337857D01*
X168894047Y-99242619D01*
X168941666Y-99195000D01*
X169036904Y-99147380D01*
X169227380Y-99147380D01*
X169322619Y-99195000D01*
X169370238Y-99242619D01*
X169417857Y-99337857D01*
X169417857Y-99385476D01*
X169370238Y-99480714D01*
X169322619Y-99528333D01*
X169227380Y-99575952D01*
X169036904Y-99575952D01*
X168941666Y-99623571D01*
X168894047Y-99671190D01*
X168846428Y-99766428D01*
X168846428Y-99956904D01*
X168894047Y-100052142D01*
X168941666Y-100099761D01*
X169036904Y-100147380D01*
X169227380Y-100147380D01*
X169322619Y-100099761D01*
X169370238Y-100052142D01*
X169417857Y-99956904D01*
X169417857Y-99766428D01*
X169370238Y-99671190D01*
X169322619Y-99623571D01*
X169227380Y-99575952D01*
X196937380Y-75739523D02*
X197651666Y-75739523D01*
X197794523Y-75787142D01*
X197889761Y-75882380D01*
X197937380Y-76025238D01*
X197937380Y-76120476D01*
X197937380Y-74739523D02*
X197937380Y-75310952D01*
X197937380Y-75025238D02*
X196937380Y-75025238D01*
X197080238Y-75120476D01*
X197175476Y-75215714D01*
X197223095Y-75310952D01*
X197937380Y-74263333D02*
X197937380Y-74072857D01*
X197889761Y-73977619D01*
X197842142Y-73930000D01*
X197699285Y-73834761D01*
X197508809Y-73787142D01*
X197127857Y-73787142D01*
X197032619Y-73834761D01*
X196985000Y-73882380D01*
X196937380Y-73977619D01*
X196937380Y-74168095D01*
X196985000Y-74263333D01*
X197032619Y-74310952D01*
X197127857Y-74358571D01*
X197365952Y-74358571D01*
X197461190Y-74310952D01*
X197508809Y-74263333D01*
X197556428Y-74168095D01*
X197556428Y-73977619D01*
X197508809Y-73882380D01*
X197461190Y-73834761D01*
X197365952Y-73787142D01*
X166187380Y-91554523D02*
X166901666Y-91554523D01*
X167044523Y-91602142D01*
X167139761Y-91697380D01*
X167187380Y-91840238D01*
X167187380Y-91935476D01*
X166282619Y-91125952D02*
X166235000Y-91078333D01*
X166187380Y-90983095D01*
X166187380Y-90745000D01*
X166235000Y-90649761D01*
X166282619Y-90602142D01*
X166377857Y-90554523D01*
X166473095Y-90554523D01*
X166615952Y-90602142D01*
X167187380Y-91173571D01*
X167187380Y-90554523D01*
X166187380Y-89935476D02*
X166187380Y-89840238D01*
X166235000Y-89745000D01*
X166282619Y-89697380D01*
X166377857Y-89649761D01*
X166568333Y-89602142D01*
X166806428Y-89602142D01*
X166996904Y-89649761D01*
X167092142Y-89697380D01*
X167139761Y-89745000D01*
X167187380Y-89840238D01*
X167187380Y-89935476D01*
X167139761Y-90030714D01*
X167092142Y-90078333D01*
X166996904Y-90125952D01*
X166806428Y-90173571D01*
X166568333Y-90173571D01*
X166377857Y-90125952D01*
X166282619Y-90078333D01*
X166235000Y-90030714D01*
X166187380Y-89935476D01*
X185237380Y-91554523D02*
X185951666Y-91554523D01*
X186094523Y-91602142D01*
X186189761Y-91697380D01*
X186237380Y-91840238D01*
X186237380Y-91935476D01*
X185332619Y-91125952D02*
X185285000Y-91078333D01*
X185237380Y-90983095D01*
X185237380Y-90745000D01*
X185285000Y-90649761D01*
X185332619Y-90602142D01*
X185427857Y-90554523D01*
X185523095Y-90554523D01*
X185665952Y-90602142D01*
X186237380Y-91173571D01*
X186237380Y-90554523D01*
X186237380Y-89602142D02*
X186237380Y-90173571D01*
X186237380Y-89887857D02*
X185237380Y-89887857D01*
X185380238Y-89983095D01*
X185475476Y-90078333D01*
X185523095Y-90173571D01*
X113037380Y-115268333D02*
X113751666Y-115268333D01*
X113894523Y-115315952D01*
X113989761Y-115411190D01*
X114037380Y-115554047D01*
X114037380Y-115649285D01*
X113037380Y-114887380D02*
X113037380Y-114220714D01*
X114037380Y-114649285D01*
X140762380Y-56641904D02*
X141571904Y-56641904D01*
X141667142Y-56594285D01*
X141714761Y-56546666D01*
X141762380Y-56451428D01*
X141762380Y-56260952D01*
X141714761Y-56165714D01*
X141667142Y-56118095D01*
X141571904Y-56070476D01*
X140762380Y-56070476D01*
X140762380Y-55689523D02*
X140762380Y-55070476D01*
X141143333Y-55403809D01*
X141143333Y-55260952D01*
X141190952Y-55165714D01*
X141238571Y-55118095D01*
X141333809Y-55070476D01*
X141571904Y-55070476D01*
X141667142Y-55118095D01*
X141714761Y-55165714D01*
X141762380Y-55260952D01*
X141762380Y-55546666D01*
X141714761Y-55641904D01*
X141667142Y-55689523D01*
X140762380Y-43941904D02*
X141571904Y-43941904D01*
X141667142Y-43894285D01*
X141714761Y-43846666D01*
X141762380Y-43751428D01*
X141762380Y-43560952D01*
X141714761Y-43465714D01*
X141667142Y-43418095D01*
X141571904Y-43370476D01*
X140762380Y-43370476D01*
X140762380Y-42418095D02*
X140762380Y-42894285D01*
X141238571Y-42941904D01*
X141190952Y-42894285D01*
X141143333Y-42799047D01*
X141143333Y-42560952D01*
X141190952Y-42465714D01*
X141238571Y-42418095D01*
X141333809Y-42370476D01*
X141571904Y-42370476D01*
X141667142Y-42418095D01*
X141714761Y-42465714D01*
X141762380Y-42560952D01*
X141762380Y-42799047D01*
X141714761Y-42894285D01*
X141667142Y-42941904D01*
M02*
