solid OpenSCAD_Model
  facet normal 0.98229 -0.187369 0
    outer loop
      vertex 29.0575 -7.4607 103
      vertex 29.7634 -3.76 100
      vertex 29.7634 -3.76 103
    endloop
  endfacet
  facet normal 0.98229 -0.187369 0
    outer loop
      vertex 29.7634 -3.76 100
      vertex 29.0575 -7.4607 103
      vertex 29.0575 -7.4607 100
    endloop
  endfacet
  facet normal 0.98229 0.187369 0
    outer loop
      vertex 29.7634 3.76 103
      vertex 29.0575 7.4607 100
      vertex 29.0575 7.4607 103
    endloop
  endfacet
  facet normal 0.98229 0.187369 0
    outer loop
      vertex 29.0575 7.4607 100
      vertex 29.7634 3.76 103
      vertex 29.7634 3.76 100
    endloop
  endfacet
  facet normal -0.904828 0.425778 0
    outer loop
      vertex -27.8933 11.0437 100
      vertex -26.2892 14.4526 103
      vertex -26.2892 14.4526 100
    endloop
  endfacet
  facet normal -0.904828 0.425778 0
    outer loop
      vertex -26.2892 14.4526 103
      vertex -27.8933 11.0437 100
      vertex -27.8933 11.0437 103
    endloop
  endfacet
  facet normal 0.998026 0.0628013 0
    outer loop
      vertex 30 0 103
      vertex 29.7634 3.76 100
      vertex 29.7634 3.76 103
    endloop
  endfacet
  facet normal 0.998026 0.0628013 0
    outer loop
      vertex 29.7634 3.76 100
      vertex 30 0 103
      vertex 30 0 100
    endloop
  endfacet
  facet normal 0.770514 -0.637423 0
    outer loop
      vertex 21.8691 -20.5364 103
      vertex 24.2705 -17.6336 100
      vertex 24.2705 -17.6336 103
    endloop
  endfacet
  facet normal 0.770514 -0.637423 0
    outer loop
      vertex 24.2705 -17.6336 100
      vertex 21.8691 -20.5364 103
      vertex 21.8691 -20.5364 100
    endloop
  endfacet
  facet normal -0.368126 -0.929776 0
    outer loop
      vertex -12.7734 -27.1448 100
      vertex -9.27051 -28.5317 103
      vertex -12.7734 -27.1448 103
    endloop
  endfacet
  facet normal -0.368126 -0.929776 -0
    outer loop
      vertex -9.27051 -28.5317 103
      vertex -12.7734 -27.1448 100
      vertex -9.27051 -28.5317 100
    endloop
  endfacet
  facet normal -0.998026 -0.0628013 0
    outer loop
      vertex -29.7634 -3.76 100
      vertex -30 0 103
      vertex -30 0 100
    endloop
  endfacet
  facet normal -0.998026 -0.0628013 0
    outer loop
      vertex -30 0 103
      vertex -29.7634 -3.76 100
      vertex -29.7634 -3.76 103
    endloop
  endfacet
  facet normal -0.951056 0.30902 0
    outer loop
      vertex -29.0575 7.4607 100
      vertex -27.8933 11.0437 103
      vertex -27.8933 11.0437 100
    endloop
  endfacet
  facet normal -0.951056 0.30902 0
    outer loop
      vertex -27.8933 11.0437 103
      vertex -29.0575 7.4607 100
      vertex -29.0575 7.4607 103
    endloop
  endfacet
  facet normal 0.58778 -0.809021 0
    outer loop
      vertex 16.0748 -25.3298 100
      vertex 19.1227 -23.1154 103
      vertex 16.0748 -25.3298 103
    endloop
  endfacet
  facet normal 0.58778 -0.809021 0
    outer loop
      vertex 19.1227 -23.1154 103
      vertex 16.0748 -25.3298 100
      vertex 19.1227 -23.1154 100
    endloop
  endfacet
  facet normal 0.368126 -0.929776 0
    outer loop
      vertex 9.27051 -28.5317 100
      vertex 12.7734 -27.1448 103
      vertex 9.27051 -28.5317 103
    endloop
  endfacet
  facet normal 0.368126 -0.929776 0
    outer loop
      vertex 12.7734 -27.1448 103
      vertex 9.27051 -28.5317 100
      vertex 12.7734 -27.1448 100
    endloop
  endfacet
  facet normal -0.844331 0.535822 0
    outer loop
      vertex -26.2892 14.4526 100
      vertex -24.2705 17.6336 103
      vertex -24.2705 17.6336 100
    endloop
  endfacet
  facet normal -0.844331 0.535822 0
    outer loop
      vertex -24.2705 17.6336 103
      vertex -26.2892 14.4526 100
      vertex -26.2892 14.4526 103
    endloop
  endfacet
  facet normal -0.904828 -0.425778 0
    outer loop
      vertex -26.2892 -14.4526 100
      vertex -27.8933 -11.0437 103
      vertex -27.8933 -11.0437 100
    endloop
  endfacet
  facet normal -0.904828 -0.425778 0
    outer loop
      vertex -27.8933 -11.0437 103
      vertex -26.2892 -14.4526 100
      vertex -26.2892 -14.4526 103
    endloop
  endfacet
  facet normal 0.248684 -0.968585 0
    outer loop
      vertex 5.62144 -29.4686 100
      vertex 9.27051 -28.5317 103
      vertex 5.62144 -29.4686 103
    endloop
  endfacet
  facet normal 0.248684 -0.968585 0
    outer loop
      vertex 9.27051 -28.5317 103
      vertex 5.62144 -29.4686 100
      vertex 9.27051 -28.5317 100
    endloop
  endfacet
  facet normal -0.248684 -0.968585 0
    outer loop
      vertex -9.27051 -28.5317 100
      vertex -5.62144 -29.4686 103
      vertex -9.27051 -28.5317 103
    endloop
  endfacet
  facet normal -0.248684 -0.968585 -0
    outer loop
      vertex -5.62144 -29.4686 103
      vertex -9.27051 -28.5317 100
      vertex -5.62144 -29.4686 100
    endloop
  endfacet
  facet normal -0.951056 -0.30902 0
    outer loop
      vertex -27.8933 -11.0437 100
      vertex -29.0575 -7.4607 103
      vertex -29.0575 -7.4607 100
    endloop
  endfacet
  facet normal -0.951056 -0.30902 0
    outer loop
      vertex -29.0575 -7.4607 103
      vertex -27.8933 -11.0437 100
      vertex -27.8933 -11.0437 103
    endloop
  endfacet
  facet normal -0.98229 0.187369 0
    outer loop
      vertex -29.7634 3.76 100
      vertex -29.0575 7.4607 103
      vertex -29.0575 7.4607 100
    endloop
  endfacet
  facet normal -0.98229 0.187369 0
    outer loop
      vertex -29.0575 7.4607 103
      vertex -29.7634 3.76 100
      vertex -29.7634 3.76 103
    endloop
  endfacet
  facet normal -0.248684 0.968585 0
    outer loop
      vertex -5.62144 29.4686 100
      vertex -9.27051 28.5317 103
      vertex -5.62144 29.4686 103
    endloop
  endfacet
  facet normal -0.248684 0.968585 0
    outer loop
      vertex -9.27051 28.5317 103
      vertex -5.62144 29.4686 100
      vertex -9.27051 28.5317 100
    endloop
  endfacet
  facet normal -0.98229 -0.187369 0
    outer loop
      vertex -29.0575 -7.4607 100
      vertex -29.7634 -3.76 103
      vertex -29.7634 -3.76 100
    endloop
  endfacet
  facet normal -0.98229 -0.187369 0
    outer loop
      vertex -29.7634 -3.76 103
      vertex -29.0575 -7.4607 100
      vertex -29.0575 -7.4607 103
    endloop
  endfacet
  facet normal 0.844331 -0.535822 0
    outer loop
      vertex 24.2705 -17.6336 103
      vertex 26.2892 -14.4526 100
      vertex 26.2892 -14.4526 103
    endloop
  endfacet
  facet normal 0.844331 -0.535822 0
    outer loop
      vertex 26.2892 -14.4526 100
      vertex 24.2705 -17.6336 103
      vertex 24.2705 -17.6336 100
    endloop
  endfacet
  facet normal 0 -1 0
    outer loop
      vertex -1.88371 -29.9408 100
      vertex 1.88371 -29.9408 103
      vertex -1.88371 -29.9408 103
    endloop
  endfacet
  facet normal 0 -1 -0
    outer loop
      vertex 1.88371 -29.9408 103
      vertex -1.88371 -29.9408 100
      vertex 1.88371 -29.9408 100
    endloop
  endfacet
  facet normal 0.951056 -0.30902 0
    outer loop
      vertex 27.8933 -11.0437 103
      vertex 29.0575 -7.4607 100
      vertex 29.0575 -7.4607 103
    endloop
  endfacet
  facet normal 0.951056 -0.30902 0
    outer loop
      vertex 29.0575 -7.4607 100
      vertex 27.8933 -11.0437 103
      vertex 27.8933 -11.0437 100
    endloop
  endfacet
  facet normal -0.481762 0.876302 0
    outer loop
      vertex -12.7734 27.1448 100
      vertex -16.0748 25.3298 103
      vertex -12.7734 27.1448 103
    endloop
  endfacet
  facet normal -0.481762 0.876302 0
    outer loop
      vertex -16.0748 25.3298 103
      vertex -12.7734 27.1448 100
      vertex -16.0748 25.3298 100
    endloop
  endfacet
  facet normal -0.844331 -0.535822 0
    outer loop
      vertex -24.2705 -17.6336 100
      vertex -26.2892 -14.4526 103
      vertex -26.2892 -14.4526 100
    endloop
  endfacet
  facet normal -0.844331 -0.535822 0
    outer loop
      vertex -26.2892 -14.4526 103
      vertex -24.2705 -17.6336 100
      vertex -24.2705 -17.6336 103
    endloop
  endfacet
  facet normal 0 0 -1
    outer loop
      vertex 20 0 100
      vertex 30 0 100
      vertex 29.7634 -3.76 100
    endloop
  endfacet
  facet normal 0 0 -1
    outer loop
      vertex 19.8423 -2.50666 100
      vertex 29.7634 -3.76 100
      vertex 29.0575 -7.4607 100
    endloop
  endfacet
  facet normal 0 0 -1
    outer loop
      vertex 30 0 100
      vertex 20 0 100
      vertex 29.7634 3.76 100
    endloop
  endfacet
  facet normal 0 0 -1
    outer loop
      vertex 19.3717 -4.9738 100
      vertex 29.0575 -7.4607 100
      vertex 27.8933 -11.0437 100
    endloop
  endfacet
  facet normal 0 0 -1
    outer loop
      vertex 19.8423 2.50666 100
      vertex 29.7634 3.76 100
      vertex 20 0 100
    endloop
  endfacet
  facet normal 0 0 -1
    outer loop
      vertex 18.5955 -7.36249 100
      vertex 27.8933 -11.0437 100
      vertex 26.2892 -14.4526 100
    endloop
  endfacet
  facet normal -0 0 -1
    outer loop
      vertex 29.7634 3.76 100
      vertex 19.8423 2.50666 100
      vertex 29.0575 7.4607 100
    endloop
  endfacet
  facet normal 0 0 -1
    outer loop
      vertex 17.5261 -9.63507 100
      vertex 26.2892 -14.4526 100
      vertex 24.2705 -17.6336 100
    endloop
  endfacet
  facet normal 0 0 -1
    outer loop
      vertex 19.3717 4.9738 100
      vertex 29.0575 7.4607 100
      vertex 19.8423 2.50666 100
    endloop
  endfacet
  facet normal 0 0 -1
    outer loop
      vertex 16.1803 -11.7557 100
      vertex 24.2705 -17.6336 100
      vertex 21.8691 -20.5364 100
    endloop
  endfacet
  facet normal -0 0 -1
    outer loop
      vertex 29.0575 7.4607 100
      vertex 19.3717 4.9738 100
      vertex 27.8933 11.0437 100
    endloop
  endfacet
  facet normal 0 0 -1
    outer loop
      vertex 18.5955 7.36249 100
      vertex 27.8933 11.0437 100
      vertex 19.3717 4.9738 100
    endloop
  endfacet
  facet normal 0 0 -1
    outer loop
      vertex 29.7634 -3.76 100
      vertex 19.8423 -2.50666 100
      vertex 20 0 100
    endloop
  endfacet
  facet normal 0 0 -1
    outer loop
      vertex 29.0575 -7.4607 100
      vertex 19.3717 -4.9738 100
      vertex 19.8423 -2.50666 100
    endloop
  endfacet
  facet normal 0 0 -1
    outer loop
      vertex 14.5794 -13.6909 100
      vertex 21.8691 -20.5364 100
      vertex 19.1227 -23.1154 100
    endloop
  endfacet
  facet normal 0 0 -1
    outer loop
      vertex 27.8933 -11.0437 100
      vertex 18.5955 -7.36249 100
      vertex 19.3717 -4.9738 100
    endloop
  endfacet
  facet normal 0 0 -1
    outer loop
      vertex 26.2892 -14.4526 100
      vertex 17.5261 -9.63507 100
      vertex 18.5955 -7.36249 100
    endloop
  endfacet
  facet normal 0 0 -1
    outer loop
      vertex 24.2705 -17.6336 100
      vertex 16.1803 -11.7557 100
      vertex 17.5261 -9.63507 100
    endloop
  endfacet
  facet normal 0 0 -1
    outer loop
      vertex 12.7485 -15.4103 100
      vertex 19.1227 -23.1154 100
      vertex 16.0748 -25.3298 100
    endloop
  endfacet
  facet normal 0 0 -1
    outer loop
      vertex 21.8691 -20.5364 100
      vertex 14.5794 -13.6909 100
      vertex 16.1803 -11.7557 100
    endloop
  endfacet
  facet normal 0 0 -1
    outer loop
      vertex 10.7165 -16.8866 100
      vertex 16.0748 -25.3298 100
      vertex 12.7734 -27.1448 100
    endloop
  endfacet
  facet normal 0 0 -1
    outer loop
      vertex 19.1227 -23.1154 100
      vertex 12.7485 -15.4103 100
      vertex 14.5794 -13.6909 100
    endloop
  endfacet
  facet normal 0 0 -1
    outer loop
      vertex 16.0748 -25.3298 100
      vertex 10.7165 -16.8866 100
      vertex 12.7485 -15.4103 100
    endloop
  endfacet
  facet normal 0 0 -1
    outer loop
      vertex 8.51558 -18.0965 100
      vertex 12.7734 -27.1448 100
      vertex 9.27051 -28.5317 100
    endloop
  endfacet
  facet normal 0 0 -1
    outer loop
      vertex 12.7734 -27.1448 100
      vertex 8.51558 -18.0965 100
      vertex 10.7165 -16.8866 100
    endloop
  endfacet
  facet normal 0 0 -1
    outer loop
      vertex 9.27051 -28.5317 100
      vertex 6.18034 -19.0211 100
      vertex 8.51558 -18.0965 100
    endloop
  endfacet
  facet normal 0 0 -1
    outer loop
      vertex 5.62144 -29.4686 100
      vertex 6.18034 -19.0211 100
      vertex 9.27051 -28.5317 100
    endloop
  endfacet
  facet normal 0 0 -1
    outer loop
      vertex 5.62144 -29.4686 100
      vertex 3.74763 -19.6457 100
      vertex 6.18034 -19.0211 100
    endloop
  endfacet
  facet normal 0 0 -1
    outer loop
      vertex 1.88371 -29.9408 100
      vertex 3.74763 -19.6457 100
      vertex 5.62144 -29.4686 100
    endloop
  endfacet
  facet normal 0 0 -1
    outer loop
      vertex 1.88371 -29.9408 100
      vertex 1.25581 -19.9605 100
      vertex 3.74763 -19.6457 100
    endloop
  endfacet
  facet normal 0 0 -1
    outer loop
      vertex 1.88371 -29.9408 100
      vertex -1.25581 -19.9605 100
      vertex 1.25581 -19.9605 100
    endloop
  endfacet
  facet normal 0 0 -1
    outer loop
      vertex -1.88371 -29.9408 100
      vertex -1.25581 -19.9605 100
      vertex 1.88371 -29.9408 100
    endloop
  endfacet
  facet normal 0 0 -1
    outer loop
      vertex -1.88371 -29.9408 100
      vertex -3.74763 -19.6457 100
      vertex -1.25581 -19.9605 100
    endloop
  endfacet
  facet normal 0 0 -1
    outer loop
      vertex -5.62144 -29.4686 100
      vertex -3.74763 -19.6457 100
      vertex -1.88371 -29.9408 100
    endloop
  endfacet
  facet normal 0 0 -1
    outer loop
      vertex -5.62144 -29.4686 100
      vertex -6.18034 -19.0211 100
      vertex -3.74763 -19.6457 100
    endloop
  endfacet
  facet normal 0 0 -1
    outer loop
      vertex -9.27051 -28.5317 100
      vertex -6.18034 -19.0211 100
      vertex -5.62144 -29.4686 100
    endloop
  endfacet
  facet normal -0 0 -1
    outer loop
      vertex -6.18034 -19.0211 100
      vertex -9.27051 -28.5317 100
      vertex -8.51558 -18.0965 100
    endloop
  endfacet
  facet normal 0 0 -1
    outer loop
      vertex -12.7734 -27.1448 100
      vertex -8.51558 -18.0965 100
      vertex -9.27051 -28.5317 100
    endloop
  endfacet
  facet normal -0 0 -1
    outer loop
      vertex -8.51558 -18.0965 100
      vertex -12.7734 -27.1448 100
      vertex -10.7165 -16.8866 100
    endloop
  endfacet
  facet normal 0 0 -1
    outer loop
      vertex -16.0748 -25.3298 100
      vertex -10.7165 -16.8866 100
      vertex -12.7734 -27.1448 100
    endloop
  endfacet
  facet normal -0 0 -1
    outer loop
      vertex -10.7165 -16.8866 100
      vertex -16.0748 -25.3298 100
      vertex -12.7485 -15.4103 100
    endloop
  endfacet
  facet normal 0 0 -1
    outer loop
      vertex -19.1227 -23.1154 100
      vertex -12.7485 -15.4103 100
      vertex -16.0748 -25.3298 100
    endloop
  endfacet
  facet normal -0 0 -1
    outer loop
      vertex -12.7485 -15.4103 100
      vertex -19.1227 -23.1154 100
      vertex -14.5794 -13.6909 100
    endloop
  endfacet
  facet normal 0 0 -1
    outer loop
      vertex -21.8691 -20.5364 100
      vertex -14.5794 -13.6909 100
      vertex -19.1227 -23.1154 100
    endloop
  endfacet
  facet normal -0 0 -1
    outer loop
      vertex -14.5794 -13.6909 100
      vertex -21.8691 -20.5364 100
      vertex -16.1803 -11.7557 100
    endloop
  endfacet
  facet normal 0 0 -1
    outer loop
      vertex -24.2705 -17.6336 100
      vertex -16.1803 -11.7557 100
      vertex -21.8691 -20.5364 100
    endloop
  endfacet
  facet normal -0 0 -1
    outer loop
      vertex -16.1803 -11.7557 100
      vertex -24.2705 -17.6336 100
      vertex -17.5261 -9.63507 100
    endloop
  endfacet
  facet normal 0 0 -1
    outer loop
      vertex -26.2892 -14.4526 100
      vertex -17.5261 -9.63507 100
      vertex -24.2705 -17.6336 100
    endloop
  endfacet
  facet normal -0 0 -1
    outer loop
      vertex -17.5261 -9.63507 100
      vertex -26.2892 -14.4526 100
      vertex -18.5955 -7.36249 100
    endloop
  endfacet
  facet normal 0 0 -1
    outer loop
      vertex -27.8933 -11.0437 100
      vertex -18.5955 -7.36249 100
      vertex -26.2892 -14.4526 100
    endloop
  endfacet
  facet normal -0 0 -1
    outer loop
      vertex 27.8933 11.0437 100
      vertex 18.5955 7.36249 100
      vertex 26.2892 14.4526 100
    endloop
  endfacet
  facet normal 0 0 -1
    outer loop
      vertex 17.5261 9.63507 100
      vertex 26.2892 14.4526 100
      vertex 18.5955 7.36249 100
    endloop
  endfacet
  facet normal -0 0 -1
    outer loop
      vertex 26.2892 14.4526 100
      vertex 17.5261 9.63507 100
      vertex 24.2705 17.6336 100
    endloop
  endfacet
  facet normal 0 0 -1
    outer loop
      vertex 16.1803 11.7557 100
      vertex 24.2705 17.6336 100
      vertex 17.5261 9.63507 100
    endloop
  endfacet
  facet normal -0 0 -1
    outer loop
      vertex 24.2705 17.6336 100
      vertex 16.1803 11.7557 100
      vertex 21.8691 20.5364 100
    endloop
  endfacet
  facet normal 0 0 -1
    outer loop
      vertex 14.5794 13.6909 100
      vertex 21.8691 20.5364 100
      vertex 16.1803 11.7557 100
    endloop
  endfacet
  facet normal -0 0 -1
    outer loop
      vertex 21.8691 20.5364 100
      vertex 14.5794 13.6909 100
      vertex 19.1227 23.1154 100
    endloop
  endfacet
  facet normal 0 0 -1
    outer loop
      vertex 12.7485 15.4103 100
      vertex 19.1227 23.1154 100
      vertex 14.5794 13.6909 100
    endloop
  endfacet
  facet normal -0 0 -1
    outer loop
      vertex 19.1227 23.1154 100
      vertex 12.7485 15.4103 100
      vertex 16.0748 25.3298 100
    endloop
  endfacet
  facet normal 0 0 -1
    outer loop
      vertex 10.7165 16.8866 100
      vertex 16.0748 25.3298 100
      vertex 12.7485 15.4103 100
    endloop
  endfacet
  facet normal -0 0 -1
    outer loop
      vertex 16.0748 25.3298 100
      vertex 10.7165 16.8866 100
      vertex 12.7734 27.1448 100
    endloop
  endfacet
  facet normal 0 0 -1
    outer loop
      vertex 8.51558 18.0965 100
      vertex 12.7734 27.1448 100
      vertex 10.7165 16.8866 100
    endloop
  endfacet
  facet normal -0 0 -1
    outer loop
      vertex 12.7734 27.1448 100
      vertex 8.51558 18.0965 100
      vertex 9.27051 28.5317 100
    endloop
  endfacet
  facet normal 0 0 -1
    outer loop
      vertex 6.18034 19.0211 100
      vertex 9.27051 28.5317 100
      vertex 8.51558 18.0965 100
    endloop
  endfacet
  facet normal 0 0 -1
    outer loop
      vertex 6.18034 19.0211 100
      vertex 5.62144 29.4686 100
      vertex 9.27051 28.5317 100
    endloop
  endfacet
  facet normal 0 0 -1
    outer loop
      vertex 3.74763 19.6457 100
      vertex 5.62144 29.4686 100
      vertex 6.18034 19.0211 100
    endloop
  endfacet
  facet normal 0 0 -1
    outer loop
      vertex 3.74763 19.6457 100
      vertex 1.88371 29.9408 100
      vertex 5.62144 29.4686 100
    endloop
  endfacet
  facet normal 0 0 -1
    outer loop
      vertex 1.25581 19.9605 100
      vertex 1.88371 29.9408 100
      vertex 3.74763 19.6457 100
    endloop
  endfacet
  facet normal 0 0 -1
    outer loop
      vertex -1.25581 19.9605 100
      vertex 1.88371 29.9408 100
      vertex 1.25581 19.9605 100
    endloop
  endfacet
  facet normal 0 0 -1
    outer loop
      vertex -1.25581 19.9605 100
      vertex -1.88371 29.9408 100
      vertex 1.88371 29.9408 100
    endloop
  endfacet
  facet normal 0 0 -1
    outer loop
      vertex -3.74763 19.6457 100
      vertex -1.88371 29.9408 100
      vertex -1.25581 19.9605 100
    endloop
  endfacet
  facet normal 0 0 -1
    outer loop
      vertex -3.74763 19.6457 100
      vertex -5.62144 29.4686 100
      vertex -1.88371 29.9408 100
    endloop
  endfacet
  facet normal 0 0 -1
    outer loop
      vertex -6.18034 19.0211 100
      vertex -5.62144 29.4686 100
      vertex -3.74763 19.6457 100
    endloop
  endfacet
  facet normal 0 0 -1
    outer loop
      vertex -9.27051 28.5317 100
      vertex -6.18034 19.0211 100
      vertex -8.51558 18.0965 100
    endloop
  endfacet
  facet normal 0 0 -1
    outer loop
      vertex -6.18034 19.0211 100
      vertex -9.27051 28.5317 100
      vertex -5.62144 29.4686 100
    endloop
  endfacet
  facet normal 0 0 -1
    outer loop
      vertex -12.7734 27.1448 100
      vertex -8.51558 18.0965 100
      vertex -10.7165 16.8866 100
    endloop
  endfacet
  facet normal 0 0 -1
    outer loop
      vertex -16.0748 25.3298 100
      vertex -10.7165 16.8866 100
      vertex -12.7485 15.4103 100
    endloop
  endfacet
  facet normal 0 0 -1
    outer loop
      vertex -8.51558 18.0965 100
      vertex -12.7734 27.1448 100
      vertex -9.27051 28.5317 100
    endloop
  endfacet
  facet normal 0 0 -1
    outer loop
      vertex -19.1227 23.1154 100
      vertex -12.7485 15.4103 100
      vertex -14.5794 13.6909 100
    endloop
  endfacet
  facet normal 0 0 -1
    outer loop
      vertex -10.7165 16.8866 100
      vertex -16.0748 25.3298 100
      vertex -12.7734 27.1448 100
    endloop
  endfacet
  facet normal 0 0 -1
    outer loop
      vertex -21.8691 20.5364 100
      vertex -14.5794 13.6909 100
      vertex -16.1803 11.7557 100
    endloop
  endfacet
  facet normal 0 0 -1
    outer loop
      vertex -24.2705 17.6336 100
      vertex -16.1803 11.7557 100
      vertex -17.5261 9.63507 100
    endloop
  endfacet
  facet normal 0 0 -1
    outer loop
      vertex -26.2892 14.4526 100
      vertex -17.5261 9.63507 100
      vertex -18.5955 7.36249 100
    endloop
  endfacet
  facet normal 0 0 -1
    outer loop
      vertex -12.7485 15.4103 100
      vertex -19.1227 23.1154 100
      vertex -16.0748 25.3298 100
    endloop
  endfacet
  facet normal 0 0 -1
    outer loop
      vertex -27.8933 11.0437 100
      vertex -18.5955 7.36249 100
      vertex -19.3717 4.9738 100
    endloop
  endfacet
  facet normal 0 0 -1
    outer loop
      vertex -29.0575 7.4607 100
      vertex -19.3717 4.9738 100
      vertex -19.8423 2.50666 100
    endloop
  endfacet
  facet normal 0 0 -1
    outer loop
      vertex -29.7634 3.76 100
      vertex -19.8423 2.50666 100
      vertex -20 0 100
    endloop
  endfacet
  facet normal -0 0 -1
    outer loop
      vertex -18.5955 -7.36249 100
      vertex -27.8933 -11.0437 100
      vertex -19.3717 -4.9738 100
    endloop
  endfacet
  facet normal 0 0 -1
    outer loop
      vertex -14.5794 13.6909 100
      vertex -21.8691 20.5364 100
      vertex -19.1227 23.1154 100
    endloop
  endfacet
  facet normal 0 0 -1
    outer loop
      vertex -29.0575 -7.4607 100
      vertex -19.3717 -4.9738 100
      vertex -27.8933 -11.0437 100
    endloop
  endfacet
  facet normal 0 0 -1
    outer loop
      vertex -16.1803 11.7557 100
      vertex -24.2705 17.6336 100
      vertex -21.8691 20.5364 100
    endloop
  endfacet
  facet normal -0 0 -1
    outer loop
      vertex -19.3717 -4.9738 100
      vertex -29.0575 -7.4607 100
      vertex -19.8423 -2.50666 100
    endloop
  endfacet
  facet normal 0 0 -1
    outer loop
      vertex -17.5261 9.63507 100
      vertex -26.2892 14.4526 100
      vertex -24.2705 17.6336 100
    endloop
  endfacet
  facet normal 0 0 -1
    outer loop
      vertex -29.7634 -3.76 100
      vertex -19.8423 -2.50666 100
      vertex -29.0575 -7.4607 100
    endloop
  endfacet
  facet normal 0 0 -1
    outer loop
      vertex -18.5955 7.36249 100
      vertex -27.8933 11.0437 100
      vertex -26.2892 14.4526 100
    endloop
  endfacet
  facet normal -0 0 -1
    outer loop
      vertex -19.8423 -2.50666 100
      vertex -29.7634 -3.76 100
      vertex -20 0 100
    endloop
  endfacet
  facet normal 0 0 -1
    outer loop
      vertex -19.3717 4.9738 100
      vertex -29.0575 7.4607 100
      vertex -27.8933 11.0437 100
    endloop
  endfacet
  facet normal 0 0 -1
    outer loop
      vertex -30 0 100
      vertex -20 0 100
      vertex -29.7634 -3.76 100
    endloop
  endfacet
  facet normal 0 0 -1
    outer loop
      vertex -19.8423 2.50666 100
      vertex -29.7634 3.76 100
      vertex -29.0575 7.4607 100
    endloop
  endfacet
  facet normal 0 0 -1
    outer loop
      vertex -20 0 100
      vertex -30 0 100
      vertex -29.7634 3.76 100
    endloop
  endfacet
  facet normal 0.998026 -0.0628013 0
    outer loop
      vertex 29.7634 -3.76 103
      vertex 30 0 100
      vertex 30 0 103
    endloop
  endfacet
  facet normal 0.998026 -0.0628013 0
    outer loop
      vertex 30 0 100
      vertex 29.7634 -3.76 103
      vertex 29.7634 -3.76 100
    endloop
  endfacet
  facet normal 0.368126 0.929776 -0
    outer loop
      vertex 12.7734 27.1448 100
      vertex 9.27051 28.5317 103
      vertex 12.7734 27.1448 103
    endloop
  endfacet
  facet normal 0.368126 0.929776 0
    outer loop
      vertex 9.27051 28.5317 103
      vertex 12.7734 27.1448 100
      vertex 9.27051 28.5317 100
    endloop
  endfacet
  facet normal 0.951056 0.30902 0
    outer loop
      vertex 29.0575 7.4607 103
      vertex 27.8933 11.0437 100
      vertex 27.8933 11.0437 103
    endloop
  endfacet
  facet normal 0.951056 0.30902 0
    outer loop
      vertex 27.8933 11.0437 100
      vertex 29.0575 7.4607 103
      vertex 29.0575 7.4607 100
    endloop
  endfacet
  facet normal -0.58778 -0.809021 0
    outer loop
      vertex -19.1227 -23.1154 100
      vertex -16.0748 -25.3298 103
      vertex -19.1227 -23.1154 103
    endloop
  endfacet
  facet normal -0.58778 -0.809021 -0
    outer loop
      vertex -16.0748 -25.3298 103
      vertex -19.1227 -23.1154 100
      vertex -16.0748 -25.3298 100
    endloop
  endfacet
  facet normal -0.368126 0.929776 0
    outer loop
      vertex -9.27051 28.5317 100
      vertex -12.7734 27.1448 103
      vertex -9.27051 28.5317 103
    endloop
  endfacet
  facet normal -0.368126 0.929776 0
    outer loop
      vertex -12.7734 27.1448 103
      vertex -9.27051 28.5317 100
      vertex -12.7734 27.1448 100
    endloop
  endfacet
  facet normal 0.125337 -0.992114 0
    outer loop
      vertex 1.88371 -29.9408 100
      vertex 5.62144 -29.4686 103
      vertex 1.88371 -29.9408 103
    endloop
  endfacet
  facet normal 0.125337 -0.992114 0
    outer loop
      vertex 5.62144 -29.4686 103
      vertex 1.88371 -29.9408 100
      vertex 5.62144 -29.4686 100
    endloop
  endfacet
  facet normal 0.481762 -0.876302 0
    outer loop
      vertex 12.7734 -27.1448 100
      vertex 16.0748 -25.3298 103
      vertex 12.7734 -27.1448 103
    endloop
  endfacet
  facet normal 0.481762 -0.876302 0
    outer loop
      vertex 16.0748 -25.3298 103
      vertex 12.7734 -27.1448 100
      vertex 16.0748 -25.3298 100
    endloop
  endfacet
  facet normal 0.904828 -0.425778 0
    outer loop
      vertex 26.2892 -14.4526 103
      vertex 27.8933 -11.0437 100
      vertex 27.8933 -11.0437 103
    endloop
  endfacet
  facet normal 0.904828 -0.425778 0
    outer loop
      vertex 27.8933 -11.0437 100
      vertex 26.2892 -14.4526 103
      vertex 26.2892 -14.4526 100
    endloop
  endfacet
  facet normal -0.125337 0.992114 0
    outer loop
      vertex -1.88371 29.9408 100
      vertex -5.62144 29.4686 103
      vertex -1.88371 29.9408 103
    endloop
  endfacet
  facet normal -0.125337 0.992114 0
    outer loop
      vertex -5.62144 29.4686 103
      vertex -1.88371 29.9408 100
      vertex -5.62144 29.4686 100
    endloop
  endfacet
  facet normal 0.248684 0.968585 -0
    outer loop
      vertex 9.27051 28.5317 100
      vertex 5.62144 29.4686 103
      vertex 9.27051 28.5317 103
    endloop
  endfacet
  facet normal 0.248684 0.968585 0
    outer loop
      vertex 5.62144 29.4686 103
      vertex 9.27051 28.5317 100
      vertex 5.62144 29.4686 100
    endloop
  endfacet
  facet normal 0 0 1
    outer loop
      vertex 29.7634 3.76 103
      vertex 29.7634 -3.76 103
      vertex 30 0 103
    endloop
  endfacet
  facet normal 0 0 1
    outer loop
      vertex 29.0575 7.4607 103
      vertex 29.7634 -3.76 103
      vertex 29.7634 3.76 103
    endloop
  endfacet
  facet normal 0 0 1
    outer loop
      vertex 29.0575 7.4607 103
      vertex 29.0575 -7.4607 103
      vertex 29.7634 -3.76 103
    endloop
  endfacet
  facet normal 0 0 1
    outer loop
      vertex 27.8933 11.0437 103
      vertex 29.0575 -7.4607 103
      vertex 29.0575 7.4607 103
    endloop
  endfacet
  facet normal 0 0 1
    outer loop
      vertex 27.8933 11.0437 103
      vertex 27.8933 -11.0437 103
      vertex 29.0575 -7.4607 103
    endloop
  endfacet
  facet normal 0 0 1
    outer loop
      vertex 26.2892 14.4526 103
      vertex 27.8933 -11.0437 103
      vertex 27.8933 11.0437 103
    endloop
  endfacet
  facet normal 0 0 1
    outer loop
      vertex 26.2892 14.4526 103
      vertex 26.2892 -14.4526 103
      vertex 27.8933 -11.0437 103
    endloop
  endfacet
  facet normal 0 0 1
    outer loop
      vertex 24.2705 17.6336 103
      vertex 26.2892 -14.4526 103
      vertex 26.2892 14.4526 103
    endloop
  endfacet
  facet normal 0 0 1
    outer loop
      vertex 24.2705 17.6336 103
      vertex 24.2705 -17.6336 103
      vertex 26.2892 -14.4526 103
    endloop
  endfacet
  facet normal 0 0 1
    outer loop
      vertex 21.8691 20.5364 103
      vertex 24.2705 -17.6336 103
      vertex 24.2705 17.6336 103
    endloop
  endfacet
  facet normal 0 0 1
    outer loop
      vertex 21.8691 20.5364 103
      vertex 21.8691 -20.5364 103
      vertex 24.2705 -17.6336 103
    endloop
  endfacet
  facet normal 0 0 1
    outer loop
      vertex 19.1227 23.1154 103
      vertex 21.8691 -20.5364 103
      vertex 21.8691 20.5364 103
    endloop
  endfacet
  facet normal 0 0 1
    outer loop
      vertex 19.1227 23.1154 103
      vertex 19.1227 -23.1154 103
      vertex 21.8691 -20.5364 103
    endloop
  endfacet
  facet normal 0 0 1
    outer loop
      vertex 16.0748 25.3298 103
      vertex 19.1227 -23.1154 103
      vertex 19.1227 23.1154 103
    endloop
  endfacet
  facet normal 0 0 1
    outer loop
      vertex 16.0748 25.3298 103
      vertex 16.0748 -25.3298 103
      vertex 19.1227 -23.1154 103
    endloop
  endfacet
  facet normal 0 0 1
    outer loop
      vertex 12.7734 27.1448 103
      vertex 16.0748 -25.3298 103
      vertex 16.0748 25.3298 103
    endloop
  endfacet
  facet normal 0 0 1
    outer loop
      vertex 12.7734 27.1448 103
      vertex 12.7734 -27.1448 103
      vertex 16.0748 -25.3298 103
    endloop
  endfacet
  facet normal 0 0 1
    outer loop
      vertex 9.27051 28.5317 103
      vertex 12.7734 -27.1448 103
      vertex 12.7734 27.1448 103
    endloop
  endfacet
  facet normal 0 0 1
    outer loop
      vertex 9.27051 28.5317 103
      vertex 9.27051 -28.5317 103
      vertex 12.7734 -27.1448 103
    endloop
  endfacet
  facet normal 0 0 1
    outer loop
      vertex 5.62144 29.4686 103
      vertex 9.27051 -28.5317 103
      vertex 9.27051 28.5317 103
    endloop
  endfacet
  facet normal 0 0 1
    outer loop
      vertex 5.62144 29.4686 103
      vertex 5.62144 -29.4686 103
      vertex 9.27051 -28.5317 103
    endloop
  endfacet
  facet normal 0 0 1
    outer loop
      vertex 1.88371 29.9408 103
      vertex 5.62144 -29.4686 103
      vertex 5.62144 29.4686 103
    endloop
  endfacet
  facet normal 0 0 1
    outer loop
      vertex 1.88371 29.9408 103
      vertex 1.88371 -29.9408 103
      vertex 5.62144 -29.4686 103
    endloop
  endfacet
  facet normal -0 0 1
    outer loop
      vertex -1.88371 29.9408 103
      vertex 1.88371 -29.9408 103
      vertex 1.88371 29.9408 103
    endloop
  endfacet
  facet normal 0 0 1
    outer loop
      vertex -1.88371 29.9408 103
      vertex -1.88371 -29.9408 103
      vertex 1.88371 -29.9408 103
    endloop
  endfacet
  facet normal -0 0 1
    outer loop
      vertex -5.62144 29.4686 103
      vertex -1.88371 -29.9408 103
      vertex -1.88371 29.9408 103
    endloop
  endfacet
  facet normal 0 0 1
    outer loop
      vertex -5.62144 29.4686 103
      vertex -5.62144 -29.4686 103
      vertex -1.88371 -29.9408 103
    endloop
  endfacet
  facet normal -0 0 1
    outer loop
      vertex -9.27051 28.5317 103
      vertex -5.62144 -29.4686 103
      vertex -5.62144 29.4686 103
    endloop
  endfacet
  facet normal 0 0 1
    outer loop
      vertex -9.27051 28.5317 103
      vertex -9.27051 -28.5317 103
      vertex -5.62144 -29.4686 103
    endloop
  endfacet
  facet normal -0 0 1
    outer loop
      vertex -12.7734 27.1448 103
      vertex -9.27051 -28.5317 103
      vertex -9.27051 28.5317 103
    endloop
  endfacet
  facet normal 0 0 1
    outer loop
      vertex -12.7734 27.1448 103
      vertex -12.7734 -27.1448 103
      vertex -9.27051 -28.5317 103
    endloop
  endfacet
  facet normal -0 0 1
    outer loop
      vertex -16.0748 25.3298 103
      vertex -12.7734 -27.1448 103
      vertex -12.7734 27.1448 103
    endloop
  endfacet
  facet normal 0 0 1
    outer loop
      vertex -16.0748 25.3298 103
      vertex -16.0748 -25.3298 103
      vertex -12.7734 -27.1448 103
    endloop
  endfacet
  facet normal -0 0 1
    outer loop
      vertex -19.1227 23.1154 103
      vertex -16.0748 -25.3298 103
      vertex -16.0748 25.3298 103
    endloop
  endfacet
  facet normal 0 0 1
    outer loop
      vertex -19.1227 23.1154 103
      vertex -19.1227 -23.1154 103
      vertex -16.0748 -25.3298 103
    endloop
  endfacet
  facet normal -0 0 1
    outer loop
      vertex -21.8691 20.5364 103
      vertex -19.1227 -23.1154 103
      vertex -19.1227 23.1154 103
    endloop
  endfacet
  facet normal 0 0 1
    outer loop
      vertex -21.8691 20.5364 103
      vertex -21.8691 -20.5364 103
      vertex -19.1227 -23.1154 103
    endloop
  endfacet
  facet normal -0 0 1
    outer loop
      vertex -24.2705 17.6336 103
      vertex -21.8691 -20.5364 103
      vertex -21.8691 20.5364 103
    endloop
  endfacet
  facet normal 0 0 1
    outer loop
      vertex -24.2705 17.6336 103
      vertex -24.2705 -17.6336 103
      vertex -21.8691 -20.5364 103
    endloop
  endfacet
  facet normal -0 0 1
    outer loop
      vertex -26.2892 14.4526 103
      vertex -24.2705 -17.6336 103
      vertex -24.2705 17.6336 103
    endloop
  endfacet
  facet normal 0 0 1
    outer loop
      vertex -26.2892 14.4526 103
      vertex -26.2892 -14.4526 103
      vertex -24.2705 -17.6336 103
    endloop
  endfacet
  facet normal -0 0 1
    outer loop
      vertex -27.8933 11.0437 103
      vertex -26.2892 -14.4526 103
      vertex -26.2892 14.4526 103
    endloop
  endfacet
  facet normal 0 0 1
    outer loop
      vertex -27.8933 11.0437 103
      vertex -27.8933 -11.0437 103
      vertex -26.2892 -14.4526 103
    endloop
  endfacet
  facet normal -0 0 1
    outer loop
      vertex -29.0575 7.4607 103
      vertex -27.8933 -11.0437 103
      vertex -27.8933 11.0437 103
    endloop
  endfacet
  facet normal 0 0 1
    outer loop
      vertex -29.0575 7.4607 103
      vertex -29.0575 -7.4607 103
      vertex -27.8933 -11.0437 103
    endloop
  endfacet
  facet normal -0 0 1
    outer loop
      vertex -29.7634 3.76 103
      vertex -29.0575 -7.4607 103
      vertex -29.0575 7.4607 103
    endloop
  endfacet
  facet normal 0 0 1
    outer loop
      vertex -29.7634 3.76 103
      vertex -29.7634 -3.76 103
      vertex -29.0575 -7.4607 103
    endloop
  endfacet
  facet normal 0 -0 1
    outer loop
      vertex -29.7634 -3.76 103
      vertex -29.7634 3.76 103
      vertex -30 0 103
    endloop
  endfacet
  facet normal 0.684541 -0.728974 0
    outer loop
      vertex 19.1227 -23.1154 100
      vertex 21.8691 -20.5364 103
      vertex 19.1227 -23.1154 103
    endloop
  endfacet
  facet normal 0.684541 -0.728974 0
    outer loop
      vertex 21.8691 -20.5364 103
      vertex 19.1227 -23.1154 100
      vertex 21.8691 -20.5364 100
    endloop
  endfacet
  facet normal -0.481762 -0.876302 0
    outer loop
      vertex -16.0748 -25.3298 100
      vertex -12.7734 -27.1448 103
      vertex -16.0748 -25.3298 103
    endloop
  endfacet
  facet normal -0.481762 -0.876302 -0
    outer loop
      vertex -12.7734 -27.1448 103
      vertex -16.0748 -25.3298 100
      vertex -12.7734 -27.1448 100
    endloop
  endfacet
  facet normal 0.58778 0.809021 -0
    outer loop
      vertex 19.1227 23.1154 100
      vertex 16.0748 25.3298 103
      vertex 19.1227 23.1154 103
    endloop
  endfacet
  facet normal 0.58778 0.809021 0
    outer loop
      vertex 16.0748 25.3298 103
      vertex 19.1227 23.1154 100
      vertex 16.0748 25.3298 100
    endloop
  endfacet
  facet normal -0.770514 0.637423 0
    outer loop
      vertex -24.2705 17.6336 100
      vertex -21.8691 20.5364 103
      vertex -21.8691 20.5364 100
    endloop
  endfacet
  facet normal -0.770514 0.637423 0
    outer loop
      vertex -21.8691 20.5364 103
      vertex -24.2705 17.6336 100
      vertex -24.2705 17.6336 103
    endloop
  endfacet
  facet normal -0.58778 0.809021 0
    outer loop
      vertex -16.0748 25.3298 100
      vertex -19.1227 23.1154 103
      vertex -16.0748 25.3298 103
    endloop
  endfacet
  facet normal -0.58778 0.809021 0
    outer loop
      vertex -19.1227 23.1154 103
      vertex -16.0748 25.3298 100
      vertex -19.1227 23.1154 100
    endloop
  endfacet
  facet normal 0.481762 0.876302 -0
    outer loop
      vertex 16.0748 25.3298 100
      vertex 12.7734 27.1448 103
      vertex 16.0748 25.3298 103
    endloop
  endfacet
  facet normal 0.481762 0.876302 0
    outer loop
      vertex 12.7734 27.1448 103
      vertex 16.0748 25.3298 100
      vertex 12.7734 27.1448 100
    endloop
  endfacet
  facet normal -0.998026 0.0628013 0
    outer loop
      vertex -30 0 100
      vertex -29.7634 3.76 103
      vertex -29.7634 3.76 100
    endloop
  endfacet
  facet normal -0.998026 0.0628013 0
    outer loop
      vertex -29.7634 3.76 103
      vertex -30 0 100
      vertex -30 0 103
    endloop
  endfacet
  facet normal 0.125337 0.992114 -0
    outer loop
      vertex 5.62144 29.4686 100
      vertex 1.88371 29.9408 103
      vertex 5.62144 29.4686 103
    endloop
  endfacet
  facet normal 0.125337 0.992114 0
    outer loop
      vertex 1.88371 29.9408 103
      vertex 5.62144 29.4686 100
      vertex 1.88371 29.9408 100
    endloop
  endfacet
  facet normal -0.770514 -0.637423 0
    outer loop
      vertex -21.8691 -20.5364 100
      vertex -24.2705 -17.6336 103
      vertex -24.2705 -17.6336 100
    endloop
  endfacet
  facet normal -0.770514 -0.637423 0
    outer loop
      vertex -24.2705 -17.6336 103
      vertex -21.8691 -20.5364 100
      vertex -21.8691 -20.5364 103
    endloop
  endfacet
  facet normal -0.684541 -0.728974 0
    outer loop
      vertex -21.8691 -20.5364 100
      vertex -19.1227 -23.1154 103
      vertex -21.8691 -20.5364 103
    endloop
  endfacet
  facet normal -0.684541 -0.728974 -0
    outer loop
      vertex -19.1227 -23.1154 103
      vertex -21.8691 -20.5364 100
      vertex -19.1227 -23.1154 100
    endloop
  endfacet
  facet normal 0.770514 0.637423 0
    outer loop
      vertex 24.2705 17.6336 103
      vertex 21.8691 20.5364 100
      vertex 21.8691 20.5364 103
    endloop
  endfacet
  facet normal 0.770514 0.637423 0
    outer loop
      vertex 21.8691 20.5364 100
      vertex 24.2705 17.6336 103
      vertex 24.2705 17.6336 100
    endloop
  endfacet
  facet normal 0.844331 0.535822 0
    outer loop
      vertex 26.2892 14.4526 103
      vertex 24.2705 17.6336 100
      vertex 24.2705 17.6336 103
    endloop
  endfacet
  facet normal 0.844331 0.535822 0
    outer loop
      vertex 24.2705 17.6336 100
      vertex 26.2892 14.4526 103
      vertex 26.2892 14.4526 100
    endloop
  endfacet
  facet normal 0.904828 0.425778 0
    outer loop
      vertex 27.8933 11.0437 103
      vertex 26.2892 14.4526 100
      vertex 26.2892 14.4526 103
    endloop
  endfacet
  facet normal 0.904828 0.425778 0
    outer loop
      vertex 26.2892 14.4526 100
      vertex 27.8933 11.0437 103
      vertex 27.8933 11.0437 100
    endloop
  endfacet
  facet normal -0.125337 -0.992114 0
    outer loop
      vertex -5.62144 -29.4686 100
      vertex -1.88371 -29.9408 103
      vertex -5.62144 -29.4686 103
    endloop
  endfacet
  facet normal -0.125337 -0.992114 -0
    outer loop
      vertex -1.88371 -29.9408 103
      vertex -5.62144 -29.4686 100
      vertex -1.88371 -29.9408 100
    endloop
  endfacet
  facet normal 0 1 -0
    outer loop
      vertex 1.88371 29.9408 100
      vertex -1.88371 29.9408 103
      vertex 1.88371 29.9408 103
    endloop
  endfacet
  facet normal 0 1 0
    outer loop
      vertex -1.88371 29.9408 103
      vertex 1.88371 29.9408 100
      vertex -1.88371 29.9408 100
    endloop
  endfacet
  facet normal -0.684541 0.728974 0
    outer loop
      vertex -19.1227 23.1154 100
      vertex -21.8691 20.5364 103
      vertex -19.1227 23.1154 103
    endloop
  endfacet
  facet normal -0.684541 0.728974 0
    outer loop
      vertex -21.8691 20.5364 103
      vertex -19.1227 23.1154 100
      vertex -21.8691 20.5364 100
    endloop
  endfacet
  facet normal 0.684541 0.728974 -0
    outer loop
      vertex 21.8691 20.5364 100
      vertex 19.1227 23.1154 103
      vertex 21.8691 20.5364 103
    endloop
  endfacet
  facet normal 0.684541 0.728974 0
    outer loop
      vertex 19.1227 23.1154 103
      vertex 21.8691 20.5364 100
      vertex 19.1227 23.1154 100
    endloop
  endfacet
  facet normal 0.98229 0.187369 0
    outer loop
      vertex 19.8423 2.50666 100
      vertex 19.3717 4.9738 0
      vertex 19.3717 4.9738 100
    endloop
  endfacet
  facet normal 0.98229 0.187369 0
    outer loop
      vertex 19.3717 4.9738 0
      vertex 19.8423 2.50666 100
      vertex 19.8423 2.50666 0
    endloop
  endfacet
  facet normal 0.998027 0.0627883 0
    outer loop
      vertex 20 0 100
      vertex 19.8423 2.50666 0
      vertex 19.8423 2.50666 100
    endloop
  endfacet
  facet normal 0.998027 0.0627883 0
    outer loop
      vertex 19.8423 2.50666 0
      vertex 20 0 100
      vertex 20 0 0
    endloop
  endfacet
  facet normal -0.844327 -0.535829 0
    outer loop
      vertex -16.1803 -11.7557 0
      vertex -17.5261 -9.63507 100
      vertex -17.5261 -9.63507 0
    endloop
  endfacet
  facet normal -0.844327 -0.535829 0
    outer loop
      vertex -17.5261 -9.63507 100
      vertex -16.1803 -11.7557 0
      vertex -16.1803 -11.7557 100
    endloop
  endfacet
  facet normal 0.77052 -0.637415 0
    outer loop
      vertex 14.5794 -13.6909 100
      vertex 16.1803 -11.7557 0
      vertex 16.1803 -11.7557 100
    endloop
  endfacet
  facet normal 0.77052 -0.637415 0
    outer loop
      vertex 16.1803 -11.7557 0
      vertex 14.5794 -13.6909 100
      vertex 14.5794 -13.6909 0
    endloop
  endfacet
  facet normal 0.684562 0.728955 -0
    outer loop
      vertex 14.5794 13.6909 0
      vertex 12.7485 15.4103 100
      vertex 14.5794 13.6909 100
    endloop
  endfacet
  facet normal 0.684562 0.728955 0
    outer loop
      vertex 12.7485 15.4103 100
      vertex 14.5794 13.6909 0
      vertex 12.7485 15.4103 0
    endloop
  endfacet
  facet normal 0.951049 0.309041 0
    outer loop
      vertex 19.3717 4.9738 100
      vertex 18.5955 7.36249 0
      vertex 18.5955 7.36249 100
    endloop
  endfacet
  facet normal 0.951049 0.309041 0
    outer loop
      vertex 18.5955 7.36249 0
      vertex 19.3717 4.9738 100
      vertex 19.3717 4.9738 0
    endloop
  endfacet
  facet normal 0.248685 0.968584 -0
    outer loop
      vertex 6.18034 19.0211 0
      vertex 3.74763 19.6457 100
      vertex 6.18034 19.0211 100
    endloop
  endfacet
  facet normal 0.248685 0.968584 0
    outer loop
      vertex 3.74763 19.6457 100
      vertex 6.18034 19.0211 0
      vertex 3.74763 19.6457 0
    endloop
  endfacet
  facet normal -0.125337 0.992114 0
    outer loop
      vertex -1.25581 19.9605 0
      vertex -3.74763 19.6457 100
      vertex -1.25581 19.9605 100
    endloop
  endfacet
  facet normal -0.125337 0.992114 0
    outer loop
      vertex -3.74763 19.6457 100
      vertex -1.25581 19.9605 0
      vertex -3.74763 19.6457 0
    endloop
  endfacet
  facet normal 0.368129 -0.929775 0
    outer loop
      vertex 6.18034 -19.0211 0
      vertex 8.51558 -18.0965 100
      vertex 6.18034 -19.0211 100
    endloop
  endfacet
  facet normal 0.368129 -0.929775 0
    outer loop
      vertex 8.51558 -18.0965 100
      vertex 6.18034 -19.0211 0
      vertex 8.51558 -18.0965 0
    endloop
  endfacet
  facet normal 0.481733 0.876318 -0
    outer loop
      vertex 10.7165 16.8866 0
      vertex 8.51558 18.0965 100
      vertex 10.7165 16.8866 100
    endloop
  endfacet
  facet normal 0.481733 0.876318 0
    outer loop
      vertex 8.51558 18.0965 100
      vertex 10.7165 16.8866 0
      vertex 8.51558 18.0965 0
    endloop
  endfacet
  facet normal 0 -1 0
    outer loop
      vertex -1.25581 -19.9605 0
      vertex 1.25581 -19.9605 100
      vertex -1.25581 -19.9605 100
    endloop
  endfacet
  facet normal 0 -1 -0
    outer loop
      vertex 1.25581 -19.9605 100
      vertex -1.25581 -19.9605 0
      vertex 1.25581 -19.9605 0
    endloop
  endfacet
  facet normal -0.904826 -0.425781 0
    outer loop
      vertex -17.5261 -9.63507 0
      vertex -18.5955 -7.36249 100
      vertex -18.5955 -7.36249 0
    endloop
  endfacet
  facet normal -0.904826 -0.425781 0
    outer loop
      vertex -18.5955 -7.36249 100
      vertex -17.5261 -9.63507 0
      vertex -17.5261 -9.63507 100
    endloop
  endfacet
  facet normal 0.125337 -0.992114 0
    outer loop
      vertex 1.25581 -19.9605 0
      vertex 3.74763 -19.6457 100
      vertex 1.25581 -19.9605 100
    endloop
  endfacet
  facet normal 0.125337 -0.992114 0
    outer loop
      vertex 3.74763 -19.6457 100
      vertex 1.25581 -19.9605 0
      vertex 3.74763 -19.6457 0
    endloop
  endfacet
  facet normal -0.998027 0.0627883 0
    outer loop
      vertex -20 0 0
      vertex -19.8423 2.50666 100
      vertex -19.8423 2.50666 0
    endloop
  endfacet
  facet normal -0.998027 0.0627883 0
    outer loop
      vertex -19.8423 2.50666 100
      vertex -20 0 0
      vertex -20 0 100
    endloop
  endfacet
  facet normal 0.77052 0.637415 0
    outer loop
      vertex 16.1803 11.7557 100
      vertex 14.5794 13.6909 0
      vertex 14.5794 13.6909 100
    endloop
  endfacet
  facet normal 0.77052 0.637415 0
    outer loop
      vertex 14.5794 13.6909 0
      vertex 16.1803 11.7557 100
      vertex 16.1803 11.7557 0
    endloop
  endfacet
  facet normal 0.684562 -0.728955 0
    outer loop
      vertex 12.7485 -15.4103 0
      vertex 14.5794 -13.6909 100
      vertex 12.7485 -15.4103 100
    endloop
  endfacet
  facet normal 0.684562 -0.728955 0
    outer loop
      vertex 14.5794 -13.6909 100
      vertex 12.7485 -15.4103 0
      vertex 14.5794 -13.6909 0
    endloop
  endfacet
  facet normal -0.248685 -0.968584 0
    outer loop
      vertex -6.18034 -19.0211 0
      vertex -3.74763 -19.6457 100
      vertex -6.18034 -19.0211 100
    endloop
  endfacet
  facet normal -0.248685 -0.968584 -0
    outer loop
      vertex -3.74763 -19.6457 100
      vertex -6.18034 -19.0211 0
      vertex -3.74763 -19.6457 0
    endloop
  endfacet
  facet normal -0.951049 0.309041 0
    outer loop
      vertex -19.3717 4.9738 0
      vertex -18.5955 7.36249 100
      vertex -18.5955 7.36249 0
    endloop
  endfacet
  facet normal -0.951049 0.309041 0
    outer loop
      vertex -18.5955 7.36249 100
      vertex -19.3717 4.9738 0
      vertex -19.3717 4.9738 100
    endloop
  endfacet
  facet normal 0.844327 0.535829 0
    outer loop
      vertex 17.5261 9.63507 100
      vertex 16.1803 11.7557 0
      vertex 16.1803 11.7557 100
    endloop
  endfacet
  facet normal 0.844327 0.535829 0
    outer loop
      vertex 16.1803 11.7557 0
      vertex 17.5261 9.63507 100
      vertex 17.5261 9.63507 0
    endloop
  endfacet
  facet normal -0.98229 -0.187369 0
    outer loop
      vertex -19.3717 -4.9738 0
      vertex -19.8423 -2.50666 100
      vertex -19.8423 -2.50666 0
    endloop
  endfacet
  facet normal -0.98229 -0.187369 0
    outer loop
      vertex -19.8423 -2.50666 100
      vertex -19.3717 -4.9738 0
      vertex -19.3717 -4.9738 100
    endloop
  endfacet
  facet normal -0.951049 -0.309041 0
    outer loop
      vertex -18.5955 -7.36249 0
      vertex -19.3717 -4.9738 100
      vertex -19.3717 -4.9738 0
    endloop
  endfacet
  facet normal -0.951049 -0.309041 0
    outer loop
      vertex -19.3717 -4.9738 100
      vertex -18.5955 -7.36249 0
      vertex -18.5955 -7.36249 100
    endloop
  endfacet
  facet normal 0.248685 -0.968584 0
    outer loop
      vertex 3.74763 -19.6457 0
      vertex 6.18034 -19.0211 100
      vertex 3.74763 -19.6457 100
    endloop
  endfacet
  facet normal 0.248685 -0.968584 0
    outer loop
      vertex 6.18034 -19.0211 100
      vertex 3.74763 -19.6457 0
      vertex 6.18034 -19.0211 0
    endloop
  endfacet
  facet normal -0.481733 -0.876318 0
    outer loop
      vertex -10.7165 -16.8866 0
      vertex -8.51558 -18.0965 100
      vertex -10.7165 -16.8866 100
    endloop
  endfacet
  facet normal -0.481733 -0.876318 -0
    outer loop
      vertex -8.51558 -18.0965 100
      vertex -10.7165 -16.8866 0
      vertex -8.51558 -18.0965 0
    endloop
  endfacet
  facet normal -0.587776 -0.809024 0
    outer loop
      vertex -12.7485 -15.4103 0
      vertex -10.7165 -16.8866 100
      vertex -12.7485 -15.4103 100
    endloop
  endfacet
  facet normal -0.587776 -0.809024 -0
    outer loop
      vertex -10.7165 -16.8866 100
      vertex -12.7485 -15.4103 0
      vertex -10.7165 -16.8866 0
    endloop
  endfacet
  facet normal 0.904826 -0.425781 0
    outer loop
      vertex 17.5261 -9.63507 100
      vertex 18.5955 -7.36249 0
      vertex 18.5955 -7.36249 100
    endloop
  endfacet
  facet normal 0.904826 -0.425781 0
    outer loop
      vertex 18.5955 -7.36249 0
      vertex 17.5261 -9.63507 100
      vertex 17.5261 -9.63507 0
    endloop
  endfacet
  facet normal 0.951049 -0.309041 0
    outer loop
      vertex 18.5955 -7.36249 100
      vertex 19.3717 -4.9738 0
      vertex 19.3717 -4.9738 100
    endloop
  endfacet
  facet normal 0.951049 -0.309041 0
    outer loop
      vertex 19.3717 -4.9738 0
      vertex 18.5955 -7.36249 100
      vertex 18.5955 -7.36249 0
    endloop
  endfacet
  facet normal 0.481733 -0.876318 0
    outer loop
      vertex 8.51558 -18.0965 0
      vertex 10.7165 -16.8866 100
      vertex 8.51558 -18.0965 100
    endloop
  endfacet
  facet normal 0.481733 -0.876318 0
    outer loop
      vertex 10.7165 -16.8866 100
      vertex 8.51558 -18.0965 0
      vertex 10.7165 -16.8866 0
    endloop
  endfacet
  facet normal -0.98229 0.187369 0
    outer loop
      vertex -19.8423 2.50666 0
      vertex -19.3717 4.9738 100
      vertex -19.3717 4.9738 0
    endloop
  endfacet
  facet normal -0.98229 0.187369 0
    outer loop
      vertex -19.3717 4.9738 100
      vertex -19.8423 2.50666 0
      vertex -19.8423 2.50666 100
    endloop
  endfacet
  facet normal -0.684562 -0.728955 0
    outer loop
      vertex -14.5794 -13.6909 0
      vertex -12.7485 -15.4103 100
      vertex -14.5794 -13.6909 100
    endloop
  endfacet
  facet normal -0.684562 -0.728955 -0
    outer loop
      vertex -12.7485 -15.4103 100
      vertex -14.5794 -13.6909 0
      vertex -12.7485 -15.4103 0
    endloop
  endfacet
  facet normal -0.998027 -0.0627883 0
    outer loop
      vertex -19.8423 -2.50666 0
      vertex -20 0 100
      vertex -20 0 0
    endloop
  endfacet
  facet normal -0.998027 -0.0627883 0
    outer loop
      vertex -20 0 100
      vertex -19.8423 -2.50666 0
      vertex -19.8423 -2.50666 100
    endloop
  endfacet
  facet normal -0.248685 0.968584 0
    outer loop
      vertex -3.74763 19.6457 0
      vertex -6.18034 19.0211 100
      vertex -3.74763 19.6457 100
    endloop
  endfacet
  facet normal -0.248685 0.968584 0
    outer loop
      vertex -6.18034 19.0211 100
      vertex -3.74763 19.6457 0
      vertex -6.18034 19.0211 0
    endloop
  endfacet
  facet normal -0.77052 -0.637415 0
    outer loop
      vertex -14.5794 -13.6909 0
      vertex -16.1803 -11.7557 100
      vertex -16.1803 -11.7557 0
    endloop
  endfacet
  facet normal -0.77052 -0.637415 0
    outer loop
      vertex -16.1803 -11.7557 100
      vertex -14.5794 -13.6909 0
      vertex -14.5794 -13.6909 100
    endloop
  endfacet
  facet normal 0.844327 -0.535829 0
    outer loop
      vertex 16.1803 -11.7557 100
      vertex 17.5261 -9.63507 0
      vertex 17.5261 -9.63507 100
    endloop
  endfacet
  facet normal 0.844327 -0.535829 0
    outer loop
      vertex 17.5261 -9.63507 0
      vertex 16.1803 -11.7557 100
      vertex 16.1803 -11.7557 0
    endloop
  endfacet
  facet normal 0.368129 0.929775 -0
    outer loop
      vertex 8.51558 18.0965 0
      vertex 6.18034 19.0211 100
      vertex 8.51558 18.0965 100
    endloop
  endfacet
  facet normal 0.368129 0.929775 0
    outer loop
      vertex 6.18034 19.0211 100
      vertex 8.51558 18.0965 0
      vertex 6.18034 19.0211 0
    endloop
  endfacet
  facet normal 0.98229 -0.187369 0
    outer loop
      vertex 19.3717 -4.9738 100
      vertex 19.8423 -2.50666 0
      vertex 19.8423 -2.50666 100
    endloop
  endfacet
  facet normal 0.98229 -0.187369 0
    outer loop
      vertex 19.8423 -2.50666 0
      vertex 19.3717 -4.9738 100
      vertex 19.3717 -4.9738 0
    endloop
  endfacet
  facet normal 0.998027 -0.0627883 0
    outer loop
      vertex 19.8423 -2.50666 100
      vertex 20 0 0
      vertex 20 0 100
    endloop
  endfacet
  facet normal 0.998027 -0.0627883 0
    outer loop
      vertex 20 0 0
      vertex 19.8423 -2.50666 100
      vertex 19.8423 -2.50666 0
    endloop
  endfacet
  facet normal -0.368129 -0.929775 0
    outer loop
      vertex -8.51558 -18.0965 0
      vertex -6.18034 -19.0211 100
      vertex -8.51558 -18.0965 100
    endloop
  endfacet
  facet normal -0.368129 -0.929775 -0
    outer loop
      vertex -6.18034 -19.0211 100
      vertex -8.51558 -18.0965 0
      vertex -6.18034 -19.0211 0
    endloop
  endfacet
  facet normal 0.587776 0.809024 -0
    outer loop
      vertex 12.7485 15.4103 0
      vertex 10.7165 16.8866 100
      vertex 12.7485 15.4103 100
    endloop
  endfacet
  facet normal 0.587776 0.809024 0
    outer loop
      vertex 10.7165 16.8866 100
      vertex 12.7485 15.4103 0
      vertex 10.7165 16.8866 0
    endloop
  endfacet
  facet normal 0.587776 -0.809024 0
    outer loop
      vertex 10.7165 -16.8866 0
      vertex 12.7485 -15.4103 100
      vertex 10.7165 -16.8866 100
    endloop
  endfacet
  facet normal 0.587776 -0.809024 0
    outer loop
      vertex 12.7485 -15.4103 100
      vertex 10.7165 -16.8866 0
      vertex 12.7485 -15.4103 0
    endloop
  endfacet
  facet normal -0.125337 -0.992114 0
    outer loop
      vertex -3.74763 -19.6457 0
      vertex -1.25581 -19.9605 100
      vertex -3.74763 -19.6457 100
    endloop
  endfacet
  facet normal -0.125337 -0.992114 -0
    outer loop
      vertex -1.25581 -19.9605 100
      vertex -3.74763 -19.6457 0
      vertex -1.25581 -19.9605 0
    endloop
  endfacet
  facet normal -0.481733 0.876318 0
    outer loop
      vertex -8.51558 18.0965 0
      vertex -10.7165 16.8866 100
      vertex -8.51558 18.0965 100
    endloop
  endfacet
  facet normal -0.481733 0.876318 0
    outer loop
      vertex -10.7165 16.8866 100
      vertex -8.51558 18.0965 0
      vertex -10.7165 16.8866 0
    endloop
  endfacet
  facet normal -0.904826 0.425781 0
    outer loop
      vertex -18.5955 7.36249 0
      vertex -17.5261 9.63507 100
      vertex -17.5261 9.63507 0
    endloop
  endfacet
  facet normal -0.904826 0.425781 0
    outer loop
      vertex -17.5261 9.63507 100
      vertex -18.5955 7.36249 0
      vertex -18.5955 7.36249 100
    endloop
  endfacet
  facet normal -0.844327 0.535829 0
    outer loop
      vertex -17.5261 9.63507 0
      vertex -16.1803 11.7557 100
      vertex -16.1803 11.7557 0
    endloop
  endfacet
  facet normal -0.844327 0.535829 0
    outer loop
      vertex -16.1803 11.7557 100
      vertex -17.5261 9.63507 0
      vertex -17.5261 9.63507 100
    endloop
  endfacet
  facet normal -0.587776 0.809024 0
    outer loop
      vertex -10.7165 16.8866 0
      vertex -12.7485 15.4103 100
      vertex -10.7165 16.8866 100
    endloop
  endfacet
  facet normal -0.587776 0.809024 0
    outer loop
      vertex -12.7485 15.4103 100
      vertex -10.7165 16.8866 0
      vertex -12.7485 15.4103 0
    endloop
  endfacet
  facet normal -0.368129 0.929775 0
    outer loop
      vertex -6.18034 19.0211 0
      vertex -8.51558 18.0965 100
      vertex -6.18034 19.0211 100
    endloop
  endfacet
  facet normal -0.368129 0.929775 0
    outer loop
      vertex -8.51558 18.0965 100
      vertex -6.18034 19.0211 0
      vertex -8.51558 18.0965 0
    endloop
  endfacet
  facet normal 0.125337 0.992114 -0
    outer loop
      vertex 3.74763 19.6457 0
      vertex 1.25581 19.9605 100
      vertex 3.74763 19.6457 100
    endloop
  endfacet
  facet normal 0.125337 0.992114 0
    outer loop
      vertex 1.25581 19.9605 100
      vertex 3.74763 19.6457 0
      vertex 1.25581 19.9605 0
    endloop
  endfacet
  facet normal 0.904826 0.425781 0
    outer loop
      vertex 18.5955 7.36249 100
      vertex 17.5261 9.63507 0
      vertex 17.5261 9.63507 100
    endloop
  endfacet
  facet normal 0.904826 0.425781 0
    outer loop
      vertex 17.5261 9.63507 0
      vertex 18.5955 7.36249 100
      vertex 18.5955 7.36249 0
    endloop
  endfacet
  facet normal -0.77052 0.637415 0
    outer loop
      vertex -16.1803 11.7557 0
      vertex -14.5794 13.6909 100
      vertex -14.5794 13.6909 0
    endloop
  endfacet
  facet normal -0.77052 0.637415 0
    outer loop
      vertex -14.5794 13.6909 100
      vertex -16.1803 11.7557 0
      vertex -16.1803 11.7557 100
    endloop
  endfacet
  facet normal 0 1 -0
    outer loop
      vertex 1.25581 19.9605 0
      vertex -1.25581 19.9605 100
      vertex 1.25581 19.9605 100
    endloop
  endfacet
  facet normal 0 1 0
    outer loop
      vertex -1.25581 19.9605 100
      vertex 1.25581 19.9605 0
      vertex -1.25581 19.9605 0
    endloop
  endfacet
  facet normal 0 0 -1
    outer loop
      vertex 15 0 0
      vertex 20 0 0
      vertex 19.8423 -2.50666 0
    endloop
  endfacet
  facet normal 0 0 -1
    outer loop
      vertex 14.8817 -1.88 0
      vertex 19.8423 -2.50666 0
      vertex 19.3717 -4.9738 0
    endloop
  endfacet
  facet normal 0 0 -1
    outer loop
      vertex 20 0 0
      vertex 15 0 0
      vertex 19.8423 2.50666 0
    endloop
  endfacet
  facet normal 0 0 -1
    outer loop
      vertex 14.5287 -3.73035 0
      vertex 19.3717 -4.9738 0
      vertex 18.5955 -7.36249 0
    endloop
  endfacet
  facet normal 0 0 -1
    outer loop
      vertex 14.8817 1.88 0
      vertex 19.8423 2.50666 0
      vertex 15 0 0
    endloop
  endfacet
  facet normal 0 0 -1
    outer loop
      vertex 13.9466 -5.52187 0
      vertex 18.5955 -7.36249 0
      vertex 17.5261 -9.63507 0
    endloop
  endfacet
  facet normal -0 0 -1
    outer loop
      vertex 19.8423 2.50666 0
      vertex 14.8817 1.88 0
      vertex 19.3717 4.9738 0
    endloop
  endfacet
  facet normal 0 0 -1
    outer loop
      vertex 13.1446 -7.22631 0
      vertex 17.5261 -9.63507 0
      vertex 16.1803 -11.7557 0
    endloop
  endfacet
  facet normal 0 0 -1
    outer loop
      vertex 14.5287 3.73035 0
      vertex 19.3717 4.9738 0
      vertex 14.8817 1.88 0
    endloop
  endfacet
  facet normal -0 0 -1
    outer loop
      vertex 19.3717 4.9738 0
      vertex 14.5287 3.73035 0
      vertex 18.5955 7.36249 0
    endloop
  endfacet
  facet normal 0 0 -1
    outer loop
      vertex 19.8423 -2.50666 0
      vertex 14.8817 -1.88 0
      vertex 15 0 0
    endloop
  endfacet
  facet normal 0 0 -1
    outer loop
      vertex 12.1353 -8.81678 0
      vertex 16.1803 -11.7557 0
      vertex 14.5794 -13.6909 0
    endloop
  endfacet
  facet normal 0 0 -1
    outer loop
      vertex 19.3717 -4.9738 0
      vertex 14.5287 -3.73035 0
      vertex 14.8817 -1.88 0
    endloop
  endfacet
  facet normal 0 0 -1
    outer loop
      vertex 18.5955 -7.36249 0
      vertex 13.9466 -5.52187 0
      vertex 14.5287 -3.73035 0
    endloop
  endfacet
  facet normal 0 0 -1
    outer loop
      vertex 17.5261 -9.63507 0
      vertex 13.1446 -7.22631 0
      vertex 13.9466 -5.52187 0
    endloop
  endfacet
  facet normal 0 0 -1
    outer loop
      vertex 10.9345 -10.2682 0
      vertex 14.5794 -13.6909 0
      vertex 12.7485 -15.4103 0
    endloop
  endfacet
  facet normal 0 0 -1
    outer loop
      vertex 16.1803 -11.7557 0
      vertex 12.1353 -8.81678 0
      vertex 13.1446 -7.22631 0
    endloop
  endfacet
  facet normal 0 0 -1
    outer loop
      vertex 14.5794 -13.6909 0
      vertex 10.9345 -10.2682 0
      vertex 12.1353 -8.81678 0
    endloop
  endfacet
  facet normal 0 0 -1
    outer loop
      vertex 9.56136 -11.5577 0
      vertex 12.7485 -15.4103 0
      vertex 10.7165 -16.8866 0
    endloop
  endfacet
  facet normal 0 0 -1
    outer loop
      vertex 12.7485 -15.4103 0
      vertex 9.56136 -11.5577 0
      vertex 10.9345 -10.2682 0
    endloop
  endfacet
  facet normal 0 0 -1
    outer loop
      vertex 8.0374 -12.6649 0
      vertex 10.7165 -16.8866 0
      vertex 8.51558 -18.0965 0
    endloop
  endfacet
  facet normal 0 0 -1
    outer loop
      vertex 10.7165 -16.8866 0
      vertex 8.0374 -12.6649 0
      vertex 9.56136 -11.5577 0
    endloop
  endfacet
  facet normal 0 0 -1
    outer loop
      vertex 8.51558 -18.0965 0
      vertex 6.38669 -13.5724 0
      vertex 8.0374 -12.6649 0
    endloop
  endfacet
  facet normal 0 0 -1
    outer loop
      vertex 6.18034 -19.0211 0
      vertex 6.38669 -13.5724 0
      vertex 8.51558 -18.0965 0
    endloop
  endfacet
  facet normal 0 0 -1
    outer loop
      vertex 6.18034 -19.0211 0
      vertex 4.63525 -14.2658 0
      vertex 6.38669 -13.5724 0
    endloop
  endfacet
  facet normal 0 0 -1
    outer loop
      vertex 3.74763 -19.6457 0
      vertex 4.63525 -14.2658 0
      vertex 6.18034 -19.0211 0
    endloop
  endfacet
  facet normal 0 0 -1
    outer loop
      vertex 3.74763 -19.6457 0
      vertex 2.81072 -14.7343 0
      vertex 4.63525 -14.2658 0
    endloop
  endfacet
  facet normal 0 0 -1
    outer loop
      vertex 1.25581 -19.9605 0
      vertex 2.81072 -14.7343 0
      vertex 3.74763 -19.6457 0
    endloop
  endfacet
  facet normal 0 0 -1
    outer loop
      vertex 1.25581 -19.9605 0
      vertex 0.941857 -14.9704 0
      vertex 2.81072 -14.7343 0
    endloop
  endfacet
  facet normal 0 0 -1
    outer loop
      vertex 1.25581 -19.9605 0
      vertex -0.941857 -14.9704 0
      vertex 0.941857 -14.9704 0
    endloop
  endfacet
  facet normal 0 0 -1
    outer loop
      vertex -1.25581 -19.9605 0
      vertex -0.941857 -14.9704 0
      vertex 1.25581 -19.9605 0
    endloop
  endfacet
  facet normal 0 0 -1
    outer loop
      vertex -1.25581 -19.9605 0
      vertex -2.81072 -14.7343 0
      vertex -0.941857 -14.9704 0
    endloop
  endfacet
  facet normal 0 0 -1
    outer loop
      vertex -3.74763 -19.6457 0
      vertex -2.81072 -14.7343 0
      vertex -1.25581 -19.9605 0
    endloop
  endfacet
  facet normal 0 0 -1
    outer loop
      vertex -3.74763 -19.6457 0
      vertex -4.63525 -14.2658 0
      vertex -2.81072 -14.7343 0
    endloop
  endfacet
  facet normal 0 0 -1
    outer loop
      vertex -6.18034 -19.0211 0
      vertex -4.63525 -14.2658 0
      vertex -3.74763 -19.6457 0
    endloop
  endfacet
  facet normal 0 0 -1
    outer loop
      vertex -6.18034 -19.0211 0
      vertex -6.38669 -13.5724 0
      vertex -4.63525 -14.2658 0
    endloop
  endfacet
  facet normal 0 0 -1
    outer loop
      vertex -8.51558 -18.0965 0
      vertex -6.38669 -13.5724 0
      vertex -6.18034 -19.0211 0
    endloop
  endfacet
  facet normal -0 0 -1
    outer loop
      vertex -6.38669 -13.5724 0
      vertex -8.51558 -18.0965 0
      vertex -8.0374 -12.6649 0
    endloop
  endfacet
  facet normal 0 0 -1
    outer loop
      vertex -10.7165 -16.8866 0
      vertex -8.0374 -12.6649 0
      vertex -8.51558 -18.0965 0
    endloop
  endfacet
  facet normal -0 0 -1
    outer loop
      vertex -8.0374 -12.6649 0
      vertex -10.7165 -16.8866 0
      vertex -9.56136 -11.5577 0
    endloop
  endfacet
  facet normal 0 0 -1
    outer loop
      vertex -12.7485 -15.4103 0
      vertex -9.56136 -11.5577 0
      vertex -10.7165 -16.8866 0
    endloop
  endfacet
  facet normal -0 0 -1
    outer loop
      vertex -9.56136 -11.5577 0
      vertex -12.7485 -15.4103 0
      vertex -10.9345 -10.2682 0
    endloop
  endfacet
  facet normal 0 0 -1
    outer loop
      vertex -14.5794 -13.6909 0
      vertex -10.9345 -10.2682 0
      vertex -12.7485 -15.4103 0
    endloop
  endfacet
  facet normal -0 0 -1
    outer loop
      vertex -10.9345 -10.2682 0
      vertex -14.5794 -13.6909 0
      vertex -12.1353 -8.81678 0
    endloop
  endfacet
  facet normal 0 0 -1
    outer loop
      vertex -16.1803 -11.7557 0
      vertex -12.1353 -8.81678 0
      vertex -14.5794 -13.6909 0
    endloop
  endfacet
  facet normal -0 0 -1
    outer loop
      vertex -12.1353 -8.81678 0
      vertex -16.1803 -11.7557 0
      vertex -13.1446 -7.22631 0
    endloop
  endfacet
  facet normal 0 0 -1
    outer loop
      vertex -17.5261 -9.63507 0
      vertex -13.1446 -7.22631 0
      vertex -16.1803 -11.7557 0
    endloop
  endfacet
  facet normal -0 0 -1
    outer loop
      vertex -13.1446 -7.22631 0
      vertex -17.5261 -9.63507 0
      vertex -13.9466 -5.52187 0
    endloop
  endfacet
  facet normal 0 0 -1
    outer loop
      vertex -18.5955 -7.36249 0
      vertex -13.9466 -5.52187 0
      vertex -17.5261 -9.63507 0
    endloop
  endfacet
  facet normal -0 0 -1
    outer loop
      vertex -13.9466 -5.52187 0
      vertex -18.5955 -7.36249 0
      vertex -14.5287 -3.73035 0
    endloop
  endfacet
  facet normal 0 0 -1
    outer loop
      vertex 13.9466 5.52187 0
      vertex 18.5955 7.36249 0
      vertex 14.5287 3.73035 0
    endloop
  endfacet
  facet normal -0 0 -1
    outer loop
      vertex 18.5955 7.36249 0
      vertex 13.9466 5.52187 0
      vertex 17.5261 9.63507 0
    endloop
  endfacet
  facet normal 0 0 -1
    outer loop
      vertex 13.1446 7.22631 0
      vertex 17.5261 9.63507 0
      vertex 13.9466 5.52187 0
    endloop
  endfacet
  facet normal -0 0 -1
    outer loop
      vertex 17.5261 9.63507 0
      vertex 13.1446 7.22631 0
      vertex 16.1803 11.7557 0
    endloop
  endfacet
  facet normal 0 0 -1
    outer loop
      vertex 12.1353 8.81678 0
      vertex 16.1803 11.7557 0
      vertex 13.1446 7.22631 0
    endloop
  endfacet
  facet normal -0 0 -1
    outer loop
      vertex 16.1803 11.7557 0
      vertex 12.1353 8.81678 0
      vertex 14.5794 13.6909 0
    endloop
  endfacet
  facet normal 0 0 -1
    outer loop
      vertex 10.9345 10.2682 0
      vertex 14.5794 13.6909 0
      vertex 12.1353 8.81678 0
    endloop
  endfacet
  facet normal -0 0 -1
    outer loop
      vertex 14.5794 13.6909 0
      vertex 10.9345 10.2682 0
      vertex 12.7485 15.4103 0
    endloop
  endfacet
  facet normal 0 0 -1
    outer loop
      vertex 9.56136 11.5577 0
      vertex 12.7485 15.4103 0
      vertex 10.9345 10.2682 0
    endloop
  endfacet
  facet normal -0 0 -1
    outer loop
      vertex 12.7485 15.4103 0
      vertex 9.56136 11.5577 0
      vertex 10.7165 16.8866 0
    endloop
  endfacet
  facet normal 0 0 -1
    outer loop
      vertex 8.0374 12.6649 0
      vertex 10.7165 16.8866 0
      vertex 9.56136 11.5577 0
    endloop
  endfacet
  facet normal -0 0 -1
    outer loop
      vertex 10.7165 16.8866 0
      vertex 8.0374 12.6649 0
      vertex 8.51558 18.0965 0
    endloop
  endfacet
  facet normal 0 0 -1
    outer loop
      vertex 6.38669 13.5724 0
      vertex 8.51558 18.0965 0
      vertex 8.0374 12.6649 0
    endloop
  endfacet
  facet normal 0 0 -1
    outer loop
      vertex 6.38669 13.5724 0
      vertex 6.18034 19.0211 0
      vertex 8.51558 18.0965 0
    endloop
  endfacet
  facet normal 0 0 -1
    outer loop
      vertex 4.63525 14.2658 0
      vertex 6.18034 19.0211 0
      vertex 6.38669 13.5724 0
    endloop
  endfacet
  facet normal 0 0 -1
    outer loop
      vertex 4.63525 14.2658 0
      vertex 3.74763 19.6457 0
      vertex 6.18034 19.0211 0
    endloop
  endfacet
  facet normal 0 0 -1
    outer loop
      vertex 2.81072 14.7343 0
      vertex 3.74763 19.6457 0
      vertex 4.63525 14.2658 0
    endloop
  endfacet
  facet normal 0 0 -1
    outer loop
      vertex 2.81072 14.7343 0
      vertex 1.25581 19.9605 0
      vertex 3.74763 19.6457 0
    endloop
  endfacet
  facet normal 0 0 -1
    outer loop
      vertex 0.941857 14.9704 0
      vertex 1.25581 19.9605 0
      vertex 2.81072 14.7343 0
    endloop
  endfacet
  facet normal 0 0 -1
    outer loop
      vertex -0.941857 14.9704 0
      vertex 1.25581 19.9605 0
      vertex 0.941857 14.9704 0
    endloop
  endfacet
  facet normal 0 0 -1
    outer loop
      vertex -0.941857 14.9704 0
      vertex -1.25581 19.9605 0
      vertex 1.25581 19.9605 0
    endloop
  endfacet
  facet normal 0 0 -1
    outer loop
      vertex -2.81072 14.7343 0
      vertex -1.25581 19.9605 0
      vertex -0.941857 14.9704 0
    endloop
  endfacet
  facet normal 0 0 -1
    outer loop
      vertex -2.81072 14.7343 0
      vertex -3.74763 19.6457 0
      vertex -1.25581 19.9605 0
    endloop
  endfacet
  facet normal 0 0 -1
    outer loop
      vertex -4.63525 14.2658 0
      vertex -3.74763 19.6457 0
      vertex -2.81072 14.7343 0
    endloop
  endfacet
  facet normal 0 0 -1
    outer loop
      vertex -4.63525 14.2658 0
      vertex -6.18034 19.0211 0
      vertex -3.74763 19.6457 0
    endloop
  endfacet
  facet normal 0 0 -1
    outer loop
      vertex -6.38669 13.5724 0
      vertex -6.18034 19.0211 0
      vertex -4.63525 14.2658 0
    endloop
  endfacet
  facet normal 0 0 -1
    outer loop
      vertex -8.51558 18.0965 0
      vertex -6.38669 13.5724 0
      vertex -8.0374 12.6649 0
    endloop
  endfacet
  facet normal 0 0 -1
    outer loop
      vertex -6.38669 13.5724 0
      vertex -8.51558 18.0965 0
      vertex -6.18034 19.0211 0
    endloop
  endfacet
  facet normal 0 0 -1
    outer loop
      vertex -10.7165 16.8866 0
      vertex -8.0374 12.6649 0
      vertex -9.56136 11.5577 0
    endloop
  endfacet
  facet normal 0 0 -1
    outer loop
      vertex -8.0374 12.6649 0
      vertex -10.7165 16.8866 0
      vertex -8.51558 18.0965 0
    endloop
  endfacet
  facet normal 0 0 -1
    outer loop
      vertex -12.7485 15.4103 0
      vertex -9.56136 11.5577 0
      vertex -10.9345 10.2682 0
    endloop
  endfacet
  facet normal 0 0 -1
    outer loop
      vertex -14.5794 13.6909 0
      vertex -10.9345 10.2682 0
      vertex -12.1353 8.81678 0
    endloop
  endfacet
  facet normal 0 0 -1
    outer loop
      vertex -9.56136 11.5577 0
      vertex -12.7485 15.4103 0
      vertex -10.7165 16.8866 0
    endloop
  endfacet
  facet normal 0 0 -1
    outer loop
      vertex -16.1803 11.7557 0
      vertex -12.1353 8.81678 0
      vertex -13.1446 7.22631 0
    endloop
  endfacet
  facet normal 0 0 -1
    outer loop
      vertex -17.5261 9.63507 0
      vertex -13.1446 7.22631 0
      vertex -13.9466 5.52187 0
    endloop
  endfacet
  facet normal 0 0 -1
    outer loop
      vertex -18.5955 7.36249 0
      vertex -13.9466 5.52187 0
      vertex -14.5287 3.73035 0
    endloop
  endfacet
  facet normal 0 0 -1
    outer loop
      vertex -10.9345 10.2682 0
      vertex -14.5794 13.6909 0
      vertex -12.7485 15.4103 0
    endloop
  endfacet
  facet normal 0 0 -1
    outer loop
      vertex -19.3717 4.9738 0
      vertex -14.5287 3.73035 0
      vertex -14.8817 1.88 0
    endloop
  endfacet
  facet normal 0 0 -1
    outer loop
      vertex -19.8423 2.50666 0
      vertex -14.8817 1.88 0
      vertex -15 0 0
    endloop
  endfacet
  facet normal 0 0 -1
    outer loop
      vertex -19.3717 -4.9738 0
      vertex -14.5287 -3.73035 0
      vertex -18.5955 -7.36249 0
    endloop
  endfacet
  facet normal 0 0 -1
    outer loop
      vertex -12.1353 8.81678 0
      vertex -16.1803 11.7557 0
      vertex -14.5794 13.6909 0
    endloop
  endfacet
  facet normal -0 0 -1
    outer loop
      vertex -14.5287 -3.73035 0
      vertex -19.3717 -4.9738 0
      vertex -14.8817 -1.88 0
    endloop
  endfacet
  facet normal 0 0 -1
    outer loop
      vertex -13.1446 7.22631 0
      vertex -17.5261 9.63507 0
      vertex -16.1803 11.7557 0
    endloop
  endfacet
  facet normal 0 0 -1
    outer loop
      vertex -19.8423 -2.50666 0
      vertex -14.8817 -1.88 0
      vertex -19.3717 -4.9738 0
    endloop
  endfacet
  facet normal 0 0 -1
    outer loop
      vertex -13.9466 5.52187 0
      vertex -18.5955 7.36249 0
      vertex -17.5261 9.63507 0
    endloop
  endfacet
  facet normal -0 0 -1
    outer loop
      vertex -14.8817 -1.88 0
      vertex -19.8423 -2.50666 0
      vertex -15 0 0
    endloop
  endfacet
  facet normal 0 0 -1
    outer loop
      vertex -14.5287 3.73035 0
      vertex -19.3717 4.9738 0
      vertex -18.5955 7.36249 0
    endloop
  endfacet
  facet normal 0 0 -1
    outer loop
      vertex -20 0 0
      vertex -15 0 0
      vertex -19.8423 -2.50666 0
    endloop
  endfacet
  facet normal 0 0 -1
    outer loop
      vertex -14.8817 1.88 0
      vertex -19.8423 2.50666 0
      vertex -19.3717 4.9738 0
    endloop
  endfacet
  facet normal 0 0 -1
    outer loop
      vertex -15 0 0
      vertex -20 0 0
      vertex -19.8423 2.50666 0
    endloop
  endfacet
  facet normal -0.684562 0.728955 0
    outer loop
      vertex -12.7485 15.4103 0
      vertex -14.5794 13.6909 100
      vertex -12.7485 15.4103 100
    endloop
  endfacet
  facet normal -0.684562 0.728955 0
    outer loop
      vertex -14.5794 13.6909 100
      vertex -12.7485 15.4103 0
      vertex -14.5794 13.6909 0
    endloop
  endfacet
  facet normal 0.982285 0.187395 0
    outer loop
      vertex 14.8817 1.88 0
      vertex 14.5287 3.73035 -20
      vertex 14.5287 3.73035 0
    endloop
  endfacet
  facet normal 0.982285 0.187395 0
    outer loop
      vertex 14.5287 3.73035 -20
      vertex 14.8817 1.88 0
      vertex 14.8817 1.88 -20
    endloop
  endfacet
  facet normal 0.998026 0.0628013 0
    outer loop
      vertex 15 0 0
      vertex 14.8817 1.88 -20
      vertex 14.8817 1.88 0
    endloop
  endfacet
  facet normal 0.998026 0.0628013 0
    outer loop
      vertex 14.8817 1.88 -20
      vertex 15 0 0
      vertex 15 0 -20
    endloop
  endfacet
  facet normal 0.48176 -0.876303 0
    outer loop
      vertex 6.38669 -13.5724 -20
      vertex 8.0374 -12.6649 0
      vertex 6.38669 -13.5724 0
    endloop
  endfacet
  facet normal 0.48176 -0.876303 0
    outer loop
      vertex 8.0374 -12.6649 0
      vertex 6.38669 -13.5724 -20
      vertex 8.0374 -12.6649 -20
    endloop
  endfacet
  facet normal -0.48176 0.876303 0
    outer loop
      vertex -6.38669 13.5724 -20
      vertex -8.0374 12.6649 0
      vertex -6.38669 13.5724 0
    endloop
  endfacet
  facet normal -0.48176 0.876303 0
    outer loop
      vertex -8.0374 12.6649 0
      vertex -6.38669 13.5724 -20
      vertex -8.0374 12.6649 -20
    endloop
  endfacet
  facet normal 0.368104 -0.929785 0
    outer loop
      vertex 4.63525 -14.2658 -20
      vertex 6.38669 -13.5724 0
      vertex 4.63525 -14.2658 0
    endloop
  endfacet
  facet normal 0.368104 -0.929785 0
    outer loop
      vertex 6.38669 -13.5724 0
      vertex 4.63525 -14.2658 -20
      vertex 6.38669 -13.5724 -20
    endloop
  endfacet
  facet normal 0.48176 0.876303 -0
    outer loop
      vertex 8.0374 12.6649 -20
      vertex 6.38669 13.5724 0
      vertex 8.0374 12.6649 0
    endloop
  endfacet
  facet normal 0.48176 0.876303 0
    outer loop
      vertex 6.38669 13.5724 0
      vertex 8.0374 12.6649 -20
      vertex 6.38669 13.5724 -20
    endloop
  endfacet
  facet normal -0.904837 -0.425758 0
    outer loop
      vertex -13.1446 -7.22631 -20
      vertex -13.9466 -5.52187 0
      vertex -13.9466 -5.52187 -20
    endloop
  endfacet
  facet normal -0.904837 -0.425758 0
    outer loop
      vertex -13.9466 -5.52187 0
      vertex -13.1446 -7.22631 -20
      vertex -13.1446 -7.22631 0
    endloop
  endfacet
  facet normal 0.982285 -0.187395 0
    outer loop
      vertex 14.5287 -3.73035 0
      vertex 14.8817 -1.88 -20
      vertex 14.8817 -1.88 0
    endloop
  endfacet
  facet normal 0.982285 -0.187395 0
    outer loop
      vertex 14.8817 -1.88 -20
      vertex 14.5287 -3.73035 0
      vertex 14.5287 -3.73035 -20
    endloop
  endfacet
  facet normal 0.24871 -0.968578 0
    outer loop
      vertex 2.81072 -14.7343 -20
      vertex 4.63525 -14.2658 0
      vertex 2.81072 -14.7343 0
    endloop
  endfacet
  facet normal 0.24871 -0.968578 0
    outer loop
      vertex 4.63525 -14.2658 0
      vertex 2.81072 -14.7343 -20
      vertex 4.63525 -14.2658 -20
    endloop
  endfacet
  facet normal 0.125337 -0.992114 0
    outer loop
      vertex 0.941857 -14.9704 -20
      vertex 2.81072 -14.7343 0
      vertex 0.941857 -14.9704 0
    endloop
  endfacet
  facet normal 0.125337 -0.992114 0
    outer loop
      vertex 2.81072 -14.7343 0
      vertex 0.941857 -14.9704 -20
      vertex 2.81072 -14.7343 -20
    endloop
  endfacet
  facet normal 0.904837 0.425758 0
    outer loop
      vertex 13.9466 5.52187 0
      vertex 13.1446 7.22631 -20
      vertex 13.1446 7.22631 0
    endloop
  endfacet
  facet normal 0.904837 0.425758 0
    outer loop
      vertex 13.1446 7.22631 -20
      vertex 13.9466 5.52187 0
      vertex 13.9466 5.52187 -20
    endloop
  endfacet
  facet normal 0.770492 -0.63745 0
    outer loop
      vertex 10.9345 -10.2682 0
      vertex 12.1353 -8.81678 -20
      vertex 12.1353 -8.81678 0
    endloop
  endfacet
  facet normal 0.770492 -0.63745 0
    outer loop
      vertex 12.1353 -8.81678 -20
      vertex 10.9345 -10.2682 0
      vertex 10.9345 -10.2682 -20
    endloop
  endfacet
  facet normal 0.904837 -0.425758 0
    outer loop
      vertex 13.1446 -7.22631 0
      vertex 13.9466 -5.52187 -20
      vertex 13.9466 -5.52187 0
    endloop
  endfacet
  facet normal 0.904837 -0.425758 0
    outer loop
      vertex 13.9466 -5.52187 -20
      vertex 13.1446 -7.22631 0
      vertex 13.1446 -7.22631 -20
    endloop
  endfacet
  facet normal 0.587778 0.809022 -0
    outer loop
      vertex 9.56136 11.5577 -20
      vertex 8.0374 12.6649 0
      vertex 9.56136 11.5577 0
    endloop
  endfacet
  facet normal 0.587778 0.809022 0
    outer loop
      vertex 8.0374 12.6649 0
      vertex 9.56136 11.5577 -20
      vertex 8.0374 12.6649 -20
    endloop
  endfacet
  facet normal -0.368104 0.929785 0
    outer loop
      vertex -4.63525 14.2658 -20
      vertex -6.38669 13.5724 0
      vertex -4.63525 14.2658 0
    endloop
  endfacet
  facet normal -0.368104 0.929785 0
    outer loop
      vertex -6.38669 13.5724 0
      vertex -4.63525 14.2658 -20
      vertex -6.38669 13.5724 -20
    endloop
  endfacet
  facet normal -0.770492 -0.63745 0
    outer loop
      vertex -10.9345 -10.2682 -20
      vertex -12.1353 -8.81678 0
      vertex -12.1353 -8.81678 -20
    endloop
  endfacet
  facet normal -0.770492 -0.63745 0
    outer loop
      vertex -12.1353 -8.81678 0
      vertex -10.9345 -10.2682 -20
      vertex -10.9345 -10.2682 0
    endloop
  endfacet
  facet normal -0.684557 0.728959 0
    outer loop
      vertex -9.56136 11.5577 -20
      vertex -10.9345 10.2682 0
      vertex -9.56136 11.5577 0
    endloop
  endfacet
  facet normal -0.684557 0.728959 0
    outer loop
      vertex -10.9345 10.2682 0
      vertex -9.56136 11.5577 -20
      vertex -10.9345 10.2682 -20
    endloop
  endfacet
  facet normal -0.982285 -0.187395 0
    outer loop
      vertex -14.5287 -3.73035 -20
      vertex -14.8817 -1.88 0
      vertex -14.8817 -1.88 -20
    endloop
  endfacet
  facet normal -0.982285 -0.187395 0
    outer loop
      vertex -14.8817 -1.88 0
      vertex -14.5287 -3.73035 -20
      vertex -14.5287 -3.73035 0
    endloop
  endfacet
  facet normal -0.951057 -0.309017 0
    outer loop
      vertex -13.9466 -5.52187 -20
      vertex -14.5287 -3.73035 0
      vertex -14.5287 -3.73035 -20
    endloop
  endfacet
  facet normal -0.951057 -0.309017 0
    outer loop
      vertex -14.5287 -3.73035 0
      vertex -13.9466 -5.52187 -20
      vertex -13.9466 -5.52187 0
    endloop
  endfacet
  facet normal -0.368104 -0.929785 0
    outer loop
      vertex -6.38669 -13.5724 -20
      vertex -4.63525 -14.2658 0
      vertex -6.38669 -13.5724 0
    endloop
  endfacet
  facet normal -0.368104 -0.929785 -0
    outer loop
      vertex -4.63525 -14.2658 0
      vertex -6.38669 -13.5724 -20
      vertex -4.63525 -14.2658 -20
    endloop
  endfacet
  facet normal -0.844338 -0.535811 0
    outer loop
      vertex -12.1353 -8.81678 -20
      vertex -13.1446 -7.22631 0
      vertex -13.1446 -7.22631 -20
    endloop
  endfacet
  facet normal -0.844338 -0.535811 0
    outer loop
      vertex -13.1446 -7.22631 0
      vertex -12.1353 -8.81678 -20
      vertex -12.1353 -8.81678 0
    endloop
  endfacet
  facet normal 0.368104 0.929785 -0
    outer loop
      vertex 6.38669 13.5724 -20
      vertex 4.63525 14.2658 0
      vertex 6.38669 13.5724 0
    endloop
  endfacet
  facet normal 0.368104 0.929785 0
    outer loop
      vertex 4.63525 14.2658 0
      vertex 6.38669 13.5724 -20
      vertex 4.63525 14.2658 -20
    endloop
  endfacet
  facet normal 0.951057 -0.309017 0
    outer loop
      vertex 13.9466 -5.52187 0
      vertex 14.5287 -3.73035 -20
      vertex 14.5287 -3.73035 0
    endloop
  endfacet
  facet normal 0.951057 -0.309017 0
    outer loop
      vertex 14.5287 -3.73035 -20
      vertex 13.9466 -5.52187 0
      vertex 13.9466 -5.52187 -20
    endloop
  endfacet
  facet normal 0.587778 -0.809022 0
    outer loop
      vertex 8.0374 -12.6649 -20
      vertex 9.56136 -11.5577 0
      vertex 8.0374 -12.6649 0
    endloop
  endfacet
  facet normal 0.587778 -0.809022 0
    outer loop
      vertex 9.56136 -11.5577 0
      vertex 8.0374 -12.6649 -20
      vertex 9.56136 -11.5577 -20
    endloop
  endfacet
  facet normal 0.770492 0.63745 0
    outer loop
      vertex 12.1353 8.81678 0
      vertex 10.9345 10.2682 -20
      vertex 10.9345 10.2682 0
    endloop
  endfacet
  facet normal 0.770492 0.63745 0
    outer loop
      vertex 10.9345 10.2682 -20
      vertex 12.1353 8.81678 0
      vertex 12.1353 8.81678 -20
    endloop
  endfacet
  facet normal 0.24871 0.968578 -0
    outer loop
      vertex 4.63525 14.2658 -20
      vertex 2.81072 14.7343 0
      vertex 4.63525 14.2658 0
    endloop
  endfacet
  facet normal 0.24871 0.968578 0
    outer loop
      vertex 2.81072 14.7343 0
      vertex 4.63525 14.2658 -20
      vertex 2.81072 14.7343 -20
    endloop
  endfacet
  facet normal -0.844338 0.535811 0
    outer loop
      vertex -13.1446 7.22631 -20
      vertex -12.1353 8.81678 0
      vertex -12.1353 8.81678 -20
    endloop
  endfacet
  facet normal -0.844338 0.535811 0
    outer loop
      vertex -12.1353 8.81678 0
      vertex -13.1446 7.22631 -20
      vertex -13.1446 7.22631 0
    endloop
  endfacet
  facet normal -0.998026 -0.0628013 0
    outer loop
      vertex -14.8817 -1.88 -20
      vertex -15 0 0
      vertex -15 0 -20
    endloop
  endfacet
  facet normal -0.998026 -0.0628013 0
    outer loop
      vertex -15 0 0
      vertex -14.8817 -1.88 -20
      vertex -14.8817 -1.88 0
    endloop
  endfacet
  facet normal -0.24871 -0.968578 0
    outer loop
      vertex -4.63525 -14.2658 -20
      vertex -2.81072 -14.7343 0
      vertex -4.63525 -14.2658 0
    endloop
  endfacet
  facet normal -0.24871 -0.968578 -0
    outer loop
      vertex -2.81072 -14.7343 0
      vertex -4.63525 -14.2658 -20
      vertex -2.81072 -14.7343 -20
    endloop
  endfacet
  facet normal -0.587778 -0.809022 0
    outer loop
      vertex -9.56136 -11.5577 -20
      vertex -8.0374 -12.6649 0
      vertex -9.56136 -11.5577 0
    endloop
  endfacet
  facet normal -0.587778 -0.809022 -0
    outer loop
      vertex -8.0374 -12.6649 0
      vertex -9.56136 -11.5577 -20
      vertex -8.0374 -12.6649 -20
    endloop
  endfacet
  facet normal 0.684557 -0.728959 0
    outer loop
      vertex 9.56136 -11.5577 -20
      vertex 10.9345 -10.2682 0
      vertex 9.56136 -11.5577 0
    endloop
  endfacet
  facet normal 0.684557 -0.728959 0
    outer loop
      vertex 10.9345 -10.2682 0
      vertex 9.56136 -11.5577 -20
      vertex 10.9345 -10.2682 -20
    endloop
  endfacet
  facet normal 0 0 -1
    outer loop
      vertex 14.8817 -1.88 -20
      vertex 14.8817 1.88 -20
      vertex 15 0 -20
    endloop
  endfacet
  facet normal 0 0 -1
    outer loop
      vertex 14.5287 -3.73035 -20
      vertex 14.8817 1.88 -20
      vertex 14.8817 -1.88 -20
    endloop
  endfacet
  facet normal 0 0 -1
    outer loop
      vertex 14.5287 -3.73035 -20
      vertex 14.5287 3.73035 -20
      vertex 14.8817 1.88 -20
    endloop
  endfacet
  facet normal 0 0 -1
    outer loop
      vertex 13.9466 -5.52187 -20
      vertex 14.5287 3.73035 -20
      vertex 14.5287 -3.73035 -20
    endloop
  endfacet
  facet normal 0 0 -1
    outer loop
      vertex 13.9466 -5.52187 -20
      vertex 13.9466 5.52187 -20
      vertex 14.5287 3.73035 -20
    endloop
  endfacet
  facet normal 0 0 -1
    outer loop
      vertex 13.1446 -7.22631 -20
      vertex 13.9466 5.52187 -20
      vertex 13.9466 -5.52187 -20
    endloop
  endfacet
  facet normal 0 0 -1
    outer loop
      vertex 13.1446 -7.22631 -20
      vertex 13.1446 7.22631 -20
      vertex 13.9466 5.52187 -20
    endloop
  endfacet
  facet normal 0 0 -1
    outer loop
      vertex 12.1353 -8.81678 -20
      vertex 13.1446 7.22631 -20
      vertex 13.1446 -7.22631 -20
    endloop
  endfacet
  facet normal 0 0 -1
    outer loop
      vertex 12.1353 -8.81678 -20
      vertex 12.1353 8.81678 -20
      vertex 13.1446 7.22631 -20
    endloop
  endfacet
  facet normal 0 0 -1
    outer loop
      vertex 10.9345 -10.2682 -20
      vertex 12.1353 8.81678 -20
      vertex 12.1353 -8.81678 -20
    endloop
  endfacet
  facet normal 0 0 -1
    outer loop
      vertex 10.9345 -10.2682 -20
      vertex 10.9345 10.2682 -20
      vertex 12.1353 8.81678 -20
    endloop
  endfacet
  facet normal 0 0 -1
    outer loop
      vertex 9.56136 -11.5577 -20
      vertex 10.9345 10.2682 -20
      vertex 10.9345 -10.2682 -20
    endloop
  endfacet
  facet normal 0 0 -1
    outer loop
      vertex 9.56136 -11.5577 -20
      vertex 9.56136 11.5577 -20
      vertex 10.9345 10.2682 -20
    endloop
  endfacet
  facet normal 0 0 -1
    outer loop
      vertex 8.0374 -12.6649 -20
      vertex 9.56136 11.5577 -20
      vertex 9.56136 -11.5577 -20
    endloop
  endfacet
  facet normal 0 0 -1
    outer loop
      vertex 8.0374 -12.6649 -20
      vertex 8.0374 12.6649 -20
      vertex 9.56136 11.5577 -20
    endloop
  endfacet
  facet normal 0 0 -1
    outer loop
      vertex 6.38669 -13.5724 -20
      vertex 8.0374 12.6649 -20
      vertex 8.0374 -12.6649 -20
    endloop
  endfacet
  facet normal 0 0 -1
    outer loop
      vertex 6.38669 -13.5724 -20
      vertex 6.38669 13.5724 -20
      vertex 8.0374 12.6649 -20
    endloop
  endfacet
  facet normal 0 0 -1
    outer loop
      vertex 4.63525 -14.2658 -20
      vertex 6.38669 13.5724 -20
      vertex 6.38669 -13.5724 -20
    endloop
  endfacet
  facet normal 0 0 -1
    outer loop
      vertex 4.63525 -14.2658 -20
      vertex 4.63525 14.2658 -20
      vertex 6.38669 13.5724 -20
    endloop
  endfacet
  facet normal 0 0 -1
    outer loop
      vertex 2.81072 -14.7343 -20
      vertex 4.63525 14.2658 -20
      vertex 4.63525 -14.2658 -20
    endloop
  endfacet
  facet normal 0 0 -1
    outer loop
      vertex 2.81072 -14.7343 -20
      vertex 2.81072 14.7343 -20
      vertex 4.63525 14.2658 -20
    endloop
  endfacet
  facet normal 0 0 -1
    outer loop
      vertex 0.941857 -14.9704 -20
      vertex 2.81072 14.7343 -20
      vertex 2.81072 -14.7343 -20
    endloop
  endfacet
  facet normal 0 0 -1
    outer loop
      vertex 0.941857 -14.9704 -20
      vertex 0.941857 14.9704 -20
      vertex 2.81072 14.7343 -20
    endloop
  endfacet
  facet normal 0 0 -1
    outer loop
      vertex -0.941857 -14.9704 -20
      vertex 0.941857 14.9704 -20
      vertex 0.941857 -14.9704 -20
    endloop
  endfacet
  facet normal 0 0 -1
    outer loop
      vertex -0.941857 -14.9704 -20
      vertex -0.941857 14.9704 -20
      vertex 0.941857 14.9704 -20
    endloop
  endfacet
  facet normal 0 0 -1
    outer loop
      vertex -2.81072 -14.7343 -20
      vertex -0.941857 14.9704 -20
      vertex -0.941857 -14.9704 -20
    endloop
  endfacet
  facet normal 0 0 -1
    outer loop
      vertex -2.81072 -14.7343 -20
      vertex -2.81072 14.7343 -20
      vertex -0.941857 14.9704 -20
    endloop
  endfacet
  facet normal 0 0 -1
    outer loop
      vertex -4.63525 -14.2658 -20
      vertex -2.81072 14.7343 -20
      vertex -2.81072 -14.7343 -20
    endloop
  endfacet
  facet normal 0 0 -1
    outer loop
      vertex -4.63525 -14.2658 -20
      vertex -4.63525 14.2658 -20
      vertex -2.81072 14.7343 -20
    endloop
  endfacet
  facet normal 0 0 -1
    outer loop
      vertex -6.38669 -13.5724 -20
      vertex -4.63525 14.2658 -20
      vertex -4.63525 -14.2658 -20
    endloop
  endfacet
  facet normal 0 0 -1
    outer loop
      vertex -6.38669 -13.5724 -20
      vertex -6.38669 13.5724 -20
      vertex -4.63525 14.2658 -20
    endloop
  endfacet
  facet normal 0 0 -1
    outer loop
      vertex -8.0374 -12.6649 -20
      vertex -6.38669 13.5724 -20
      vertex -6.38669 -13.5724 -20
    endloop
  endfacet
  facet normal 0 0 -1
    outer loop
      vertex -8.0374 -12.6649 -20
      vertex -8.0374 12.6649 -20
      vertex -6.38669 13.5724 -20
    endloop
  endfacet
  facet normal 0 0 -1
    outer loop
      vertex -9.56136 -11.5577 -20
      vertex -8.0374 12.6649 -20
      vertex -8.0374 -12.6649 -20
    endloop
  endfacet
  facet normal 0 0 -1
    outer loop
      vertex -9.56136 -11.5577 -20
      vertex -9.56136 11.5577 -20
      vertex -8.0374 12.6649 -20
    endloop
  endfacet
  facet normal 0 0 -1
    outer loop
      vertex -10.9345 -10.2682 -20
      vertex -9.56136 11.5577 -20
      vertex -9.56136 -11.5577 -20
    endloop
  endfacet
  facet normal 0 0 -1
    outer loop
      vertex -10.9345 -10.2682 -20
      vertex -10.9345 10.2682 -20
      vertex -9.56136 11.5577 -20
    endloop
  endfacet
  facet normal 0 0 -1
    outer loop
      vertex -12.1353 -8.81678 -20
      vertex -10.9345 10.2682 -20
      vertex -10.9345 -10.2682 -20
    endloop
  endfacet
  facet normal 0 0 -1
    outer loop
      vertex -12.1353 -8.81678 -20
      vertex -12.1353 8.81678 -20
      vertex -10.9345 10.2682 -20
    endloop
  endfacet
  facet normal 0 0 -1
    outer loop
      vertex -13.1446 -7.22631 -20
      vertex -12.1353 8.81678 -20
      vertex -12.1353 -8.81678 -20
    endloop
  endfacet
  facet normal 0 0 -1
    outer loop
      vertex -13.1446 -7.22631 -20
      vertex -13.1446 7.22631 -20
      vertex -12.1353 8.81678 -20
    endloop
  endfacet
  facet normal 0 0 -1
    outer loop
      vertex -13.9466 -5.52187 -20
      vertex -13.1446 7.22631 -20
      vertex -13.1446 -7.22631 -20
    endloop
  endfacet
  facet normal 0 0 -1
    outer loop
      vertex -13.9466 -5.52187 -20
      vertex -13.9466 5.52187 -20
      vertex -13.1446 7.22631 -20
    endloop
  endfacet
  facet normal 0 0 -1
    outer loop
      vertex -14.5287 -3.73035 -20
      vertex -13.9466 5.52187 -20
      vertex -13.9466 -5.52187 -20
    endloop
  endfacet
  facet normal 0 0 -1
    outer loop
      vertex -14.5287 -3.73035 -20
      vertex -14.5287 3.73035 -20
      vertex -13.9466 5.52187 -20
    endloop
  endfacet
  facet normal 0 0 -1
    outer loop
      vertex -14.8817 -1.88 -20
      vertex -14.5287 3.73035 -20
      vertex -14.5287 -3.73035 -20
    endloop
  endfacet
  facet normal 0 0 -1
    outer loop
      vertex -14.8817 -1.88 -20
      vertex -14.8817 1.88 -20
      vertex -14.5287 3.73035 -20
    endloop
  endfacet
  facet normal 0 -0 -1
    outer loop
      vertex -14.8817 1.88 -20
      vertex -14.8817 -1.88 -20
      vertex -15 0 -20
    endloop
  endfacet
  facet normal 0.844338 -0.535811 0
    outer loop
      vertex 12.1353 -8.81678 0
      vertex 13.1446 -7.22631 -20
      vertex 13.1446 -7.22631 0
    endloop
  endfacet
  facet normal 0.844338 -0.535811 0
    outer loop
      vertex 13.1446 -7.22631 -20
      vertex 12.1353 -8.81678 0
      vertex 12.1353 -8.81678 -20
    endloop
  endfacet
  facet normal -0.904837 0.425758 0
    outer loop
      vertex -13.9466 5.52187 -20
      vertex -13.1446 7.22631 0
      vertex -13.1446 7.22631 -20
    endloop
  endfacet
  facet normal -0.904837 0.425758 0
    outer loop
      vertex -13.1446 7.22631 0
      vertex -13.9466 5.52187 -20
      vertex -13.9466 5.52187 0
    endloop
  endfacet
  facet normal -0.125337 0.992114 0
    outer loop
      vertex -0.941857 14.9704 -20
      vertex -2.81072 14.7343 0
      vertex -0.941857 14.9704 0
    endloop
  endfacet
  facet normal -0.125337 0.992114 0
    outer loop
      vertex -2.81072 14.7343 0
      vertex -0.941857 14.9704 -20
      vertex -2.81072 14.7343 -20
    endloop
  endfacet
  facet normal -0.125337 -0.992114 0
    outer loop
      vertex -2.81072 -14.7343 -20
      vertex -0.941857 -14.9704 0
      vertex -2.81072 -14.7343 0
    endloop
  endfacet
  facet normal -0.125337 -0.992114 -0
    outer loop
      vertex -0.941857 -14.9704 0
      vertex -2.81072 -14.7343 -20
      vertex -0.941857 -14.9704 -20
    endloop
  endfacet
  facet normal 0 -1 0
    outer loop
      vertex -0.941857 -14.9704 -20
      vertex 0.941857 -14.9704 0
      vertex -0.941857 -14.9704 0
    endloop
  endfacet
  facet normal 0 -1 -0
    outer loop
      vertex 0.941857 -14.9704 0
      vertex -0.941857 -14.9704 -20
      vertex 0.941857 -14.9704 -20
    endloop
  endfacet
  facet normal 0.998026 -0.0628013 0
    outer loop
      vertex 14.8817 -1.88 0
      vertex 15 0 -20
      vertex 15 0 0
    endloop
  endfacet
  facet normal 0.998026 -0.0628013 0
    outer loop
      vertex 15 0 -20
      vertex 14.8817 -1.88 0
      vertex 14.8817 -1.88 -20
    endloop
  endfacet
  facet normal -0.48176 -0.876303 0
    outer loop
      vertex -8.0374 -12.6649 -20
      vertex -6.38669 -13.5724 0
      vertex -8.0374 -12.6649 0
    endloop
  endfacet
  facet normal -0.48176 -0.876303 -0
    outer loop
      vertex -6.38669 -13.5724 0
      vertex -8.0374 -12.6649 -20
      vertex -6.38669 -13.5724 -20
    endloop
  endfacet
  facet normal -0.982285 0.187395 0
    outer loop
      vertex -14.8817 1.88 -20
      vertex -14.5287 3.73035 0
      vertex -14.5287 3.73035 -20
    endloop
  endfacet
  facet normal -0.982285 0.187395 0
    outer loop
      vertex -14.5287 3.73035 0
      vertex -14.8817 1.88 -20
      vertex -14.8817 1.88 0
    endloop
  endfacet
  facet normal -0.998026 0.0628013 0
    outer loop
      vertex -15 0 -20
      vertex -14.8817 1.88 0
      vertex -14.8817 1.88 -20
    endloop
  endfacet
  facet normal -0.998026 0.0628013 0
    outer loop
      vertex -14.8817 1.88 0
      vertex -15 0 -20
      vertex -15 0 0
    endloop
  endfacet
  facet normal -0.770492 0.63745 0
    outer loop
      vertex -12.1353 8.81678 -20
      vertex -10.9345 10.2682 0
      vertex -10.9345 10.2682 -20
    endloop
  endfacet
  facet normal -0.770492 0.63745 0
    outer loop
      vertex -10.9345 10.2682 0
      vertex -12.1353 8.81678 -20
      vertex -12.1353 8.81678 0
    endloop
  endfacet
  facet normal -0.951057 0.309017 0
    outer loop
      vertex -14.5287 3.73035 -20
      vertex -13.9466 5.52187 0
      vertex -13.9466 5.52187 -20
    endloop
  endfacet
  facet normal -0.951057 0.309017 0
    outer loop
      vertex -13.9466 5.52187 0
      vertex -14.5287 3.73035 -20
      vertex -14.5287 3.73035 0
    endloop
  endfacet
  facet normal -0.24871 0.968578 0
    outer loop
      vertex -2.81072 14.7343 -20
      vertex -4.63525 14.2658 0
      vertex -2.81072 14.7343 0
    endloop
  endfacet
  facet normal -0.24871 0.968578 0
    outer loop
      vertex -4.63525 14.2658 0
      vertex -2.81072 14.7343 -20
      vertex -4.63525 14.2658 -20
    endloop
  endfacet
  facet normal 0.125337 0.992114 -0
    outer loop
      vertex 2.81072 14.7343 -20
      vertex 0.941857 14.9704 0
      vertex 2.81072 14.7343 0
    endloop
  endfacet
  facet normal 0.125337 0.992114 0
    outer loop
      vertex 0.941857 14.9704 0
      vertex 2.81072 14.7343 -20
      vertex 0.941857 14.9704 -20
    endloop
  endfacet
  facet normal -0.684557 -0.728959 0
    outer loop
      vertex -10.9345 -10.2682 -20
      vertex -9.56136 -11.5577 0
      vertex -10.9345 -10.2682 0
    endloop
  endfacet
  facet normal -0.684557 -0.728959 -0
    outer loop
      vertex -9.56136 -11.5577 0
      vertex -10.9345 -10.2682 -20
      vertex -9.56136 -11.5577 -20
    endloop
  endfacet
  facet normal -0.587778 0.809022 0
    outer loop
      vertex -8.0374 12.6649 -20
      vertex -9.56136 11.5577 0
      vertex -8.0374 12.6649 0
    endloop
  endfacet
  facet normal -0.587778 0.809022 0
    outer loop
      vertex -9.56136 11.5577 0
      vertex -8.0374 12.6649 -20
      vertex -9.56136 11.5577 -20
    endloop
  endfacet
  facet normal 0 1 -0
    outer loop
      vertex 0.941857 14.9704 -20
      vertex -0.941857 14.9704 0
      vertex 0.941857 14.9704 0
    endloop
  endfacet
  facet normal 0 1 0
    outer loop
      vertex -0.941857 14.9704 0
      vertex 0.941857 14.9704 -20
      vertex -0.941857 14.9704 -20
    endloop
  endfacet
  facet normal 0.684557 0.728959 -0
    outer loop
      vertex 10.9345 10.2682 -20
      vertex 9.56136 11.5577 0
      vertex 10.9345 10.2682 0
    endloop
  endfacet
  facet normal 0.684557 0.728959 0
    outer loop
      vertex 9.56136 11.5577 0
      vertex 10.9345 10.2682 -20
      vertex 9.56136 11.5577 -20
    endloop
  endfacet
  facet normal 0.844338 0.535811 0
    outer loop
      vertex 13.1446 7.22631 0
      vertex 12.1353 8.81678 -20
      vertex 12.1353 8.81678 0
    endloop
  endfacet
  facet normal 0.844338 0.535811 0
    outer loop
      vertex 12.1353 8.81678 -20
      vertex 13.1446 7.22631 0
      vertex 13.1446 7.22631 -20
    endloop
  endfacet
  facet normal 0.951057 0.309017 0
    outer loop
      vertex 14.5287 3.73035 0
      vertex 13.9466 5.52187 -20
      vertex 13.9466 5.52187 0
    endloop
  endfacet
  facet normal 0.951057 0.309017 0
    outer loop
      vertex 13.9466 5.52187 -20
      vertex 14.5287 3.73035 0
      vertex 14.5287 3.73035 -20
    endloop
  endfacet
endsolid OpenSCAD_Model
